<svg xmlns="http://www.w3.org/2000/svg" xmlns:xlink="http://www.w3.org/1999/xlink" contentStyleType="text/css" data-diagram-type="CLASS" height="793px" preserveAspectRatio="none" style="width:1159px;height:793px;background:#FFFFFF;" version="1.1" viewBox="0 0 1159 793" width="1159px" zoomAndPan="magnify"><defs/><g><!--cluster Common--><g class="cluster" data-entity="Common" data-source-line="2" data-uid="ent0002" id="cluster_Common"><path d="M288.5,678.93 L353.7031,678.93 A3.75,3.75 0 0 1 356.2031,681.43 L363.2031,701.4183 L715.5,701.4183 A2.5,2.5 0 0 1 718,703.9183 L718,784.05 A2.5,2.5 0 0 1 715.5,786.55 L288.5,786.55 A2.5,2.5 0 0 1 286,784.05 L286,681.43 A2.5,2.5 0 0 1 288.5,678.93" fill="none" style="stroke:#000000;stroke-width:1.5;"/><line style="stroke:#000000;stroke-width:1.5;" x1="286" x2="363.2031" y1="701.4183" y2="701.4183"/><text fill="#000000" font-family="sans-serif" font-size="14" font-weight="bold" lengthAdjust="spacing" textLength="64.2031" x="290" y="694.4652">Common</text></g><!--cluster CustomerAggregate--><g class="cluster" data-entity="CustomerAggregate" data-source-line="8" data-uid="ent0006" id="cluster_CustomerAggregate"><path d="M831.5,6 L977.0322,6 A3.75,3.75 0 0 1 979.5322,8.5 L986.5322,28.4883 L1149.5,28.4883 A2.5,2.5 0 0 1 1152,30.9883 L1152,470.32 A2.5,2.5 0 0 1 1149.5,472.82 L831.5,472.82 A2.5,2.5 0 0 1 829,470.32 L829,8.5 A2.5,2.5 0 0 1 831.5,6" fill="none" style="stroke:#000000;stroke-width:1.5;"/><line style="stroke:#000000;stroke-width:1.5;" x1="829" x2="986.5322" y1="28.4883" y2="28.4883"/><text fill="#000000" font-family="sans-serif" font-size="14" font-weight="bold" lengthAdjust="spacing" textLength="144.5322" x="833" y="21.5352">CustomerAggregate</text></g><!--cluster CategoryAggregate--><g class="cluster" data-entity="CategoryAggregate" data-source-line="30" data-uid="ent0016" id="cluster_CategoryAggregate"><path d="M744.5,678.93 L884.9736,678.93 A3.75,3.75 0 0 1 887.4736,681.43 L894.4736,701.4183 L894.5,701.4183 A2.5,2.5 0 0 1 897,703.9183 L897,784.05 A2.5,2.5 0 0 1 894.5,786.55 L744.5,786.55 A2.5,2.5 0 0 1 742,784.05 L742,681.43 A2.5,2.5 0 0 1 744.5,678.93" fill="none" style="stroke:#000000;stroke-width:1.5;"/><line style="stroke:#000000;stroke-width:1.5;" x1="742" x2="894.4736" y1="701.4183" y2="701.4183"/><text fill="#000000" font-family="sans-serif" font-size="14" font-weight="bold" lengthAdjust="spacing" textLength="139.4736" x="746" y="694.4652">CategoryAggregate</text></g><!--cluster ProductAggregate--><g class="cluster" data-entity="ProductAggregate" data-source-line="34" data-uid="ent0018" id="cluster_ProductAggregate"><path d="M652.5,530.06 L783.6768,530.06 A3.75,3.75 0 0 1 786.1768,532.56 L793.1768,552.5483 L793.5,552.5483 A2.5,2.5 0 0 1 796,555.0483 L796,635.18 A2.5,2.5 0 0 1 793.5,637.68 L652.5,637.68 A2.5,2.5 0 0 1 650,635.18 L650,532.56 A2.5,2.5 0 0 1 652.5,530.06" fill="none" style="stroke:#000000;stroke-width:1.5;"/><line style="stroke:#000000;stroke-width:1.5;" x1="650" x2="793.1768" y1="552.5483" y2="552.5483"/><text fill="#000000" font-family="sans-serif" font-size="14" font-weight="bold" lengthAdjust="spacing" textLength="130.1768" x="654" y="545.5952">ProductAggregate</text></g><!--cluster CartAggregate--><g class="cluster" data-entity="CartAggregate" data-source-line="40" data-uid="ent0022" id="cluster_CartAggregate"><path d="M641.5,193.6 L747.4316,193.6 A3.75,3.75 0 0 1 749.9316,196.1 L756.9316,216.0883 L802.5,216.0883 A2.5,2.5 0 0 1 805,218.5883 L805,478.56 A2.5,2.5 0 0 1 802.5,481.06 L641.5,481.06 A2.5,2.5 0 0 1 639,478.56 L639,196.1 A2.5,2.5 0 0 1 641.5,193.6" fill="none" style="stroke:#000000;stroke-width:1.5;"/><line style="stroke:#000000;stroke-width:1.5;" x1="639" x2="756.9316" y1="216.0883" y2="216.0883"/><text fill="#000000" font-family="sans-serif" font-size="14" font-weight="bold" lengthAdjust="spacing" textLength="104.9316" x="643" y="209.1352">CartAggregate</text></g><!--cluster OrderAggregate--><g class="cluster" data-entity="OrderAggregate" data-source-line="53" data-uid="ent0027" id="cluster_OrderAggregate"><path d="M8.5,356.95 L125.9229,356.95 A3.75,3.75 0 0 1 128.4229,359.45 L135.4229,379.4383 L317.5,379.4383 A2.5,2.5 0 0 1 320,381.9383 L320,643.43 A2.5,2.5 0 0 1 317.5,645.93 L8.5,645.93 A2.5,2.5 0 0 1 6,643.43 L6,359.45 A2.5,2.5 0 0 1 8.5,356.95" fill="none" style="stroke:#000000;stroke-width:1.5;"/><line style="stroke:#000000;stroke-width:1.5;" x1="6" x2="135.4229" y1="379.4383" y2="379.4383"/><text fill="#000000" font-family="sans-serif" font-size="14" font-weight="bold" lengthAdjust="spacing" textLength="116.4229" x="10" y="372.4852">OrderAggregate</text></g><!--class Money--><g class="entity" data-entity="Money" data-source-line="3" data-uid="ent0003" id="entity_Money"><rect fill="#F1F1F1" height="56.6211" rx="2.5" ry="2.5" style="stroke:#181818;stroke-width:0.5;" width="110.4941" x="301.75" y="713.93"/><ellipse cx="316.75" cy="734.2405" fill="#ADD1B2" rx="11" ry="11" style="stroke:#181818;stroke-width:1;"/><path d="M319.7231,739.8836 Q319.1421,740.1824 318.5029,740.3319 Q317.8638,740.4813 317.1582,740.4813 Q314.6514,740.4813 313.3315,738.8294 Q312.0117,737.1776 312.0117,734.0565 Q312.0117,730.9271 313.3315,729.2752 Q314.6514,727.6234 317.1582,727.6234 Q317.8638,727.6234 318.5112,727.7728 Q319.1587,727.9222 319.7231,728.221 L319.7231,730.9437 Q319.0923,730.3626 318.4988,730.0928 Q317.9053,729.8231 317.2744,729.8231 Q315.9297,729.8231 315.2449,730.8897 Q314.5601,731.9564 314.5601,734.0565 Q314.5601,736.1483 315.2449,737.2149 Q315.9297,738.2816 317.2744,738.2816 Q317.9053,738.2816 318.4988,738.0118 Q319.0923,737.742 319.7231,737.161 Z " fill="#000000"/><text fill="#000000" font-family="sans-serif" font-size="12" font-style="italic" lengthAdjust="spacing" textLength="82.4941" x="328.75" y="730.5316">&#171;ValueObject&#187;</text><text fill="#000000" font-family="sans-serif" font-size="14" lengthAdjust="spacing" textLength="44.4609" x="347.7666" y="746.598">Money</text><line style="stroke:#181818;stroke-width:0.5;" x1="302.75" x2="411.2441" y1="754.5511" y2="754.5511"/><line style="stroke:#181818;stroke-width:0.5;" x1="302.75" x2="411.2441" y1="762.5511" y2="762.5511"/></g><!--class Address--><g class="entity" data-entity="Address" data-source-line="4" data-uid="ent0004" id="entity_Address"><rect fill="#F1F1F1" height="56.6211" rx="2.5" ry="2.5" style="stroke:#181818;stroke-width:0.5;" width="110.4941" x="591.75" y="713.93"/><ellipse cx="606.75" cy="734.2405" fill="#ADD1B2" rx="11" ry="11" style="stroke:#181818;stroke-width:1;"/><path d="M609.7231,739.8836 Q609.1421,740.1824 608.5029,740.3319 Q607.8638,740.4813 607.1582,740.4813 Q604.6514,740.4813 603.3315,738.8294 Q602.0117,737.1776 602.0117,734.0565 Q602.0117,730.9271 603.3315,729.2752 Q604.6514,727.6234 607.1582,727.6234 Q607.8638,727.6234 608.5112,727.7728 Q609.1587,727.9222 609.7231,728.221 L609.7231,730.9437 Q609.0923,730.3626 608.4988,730.0928 Q607.9053,729.8231 607.2744,729.8231 Q605.9297,729.8231 605.2449,730.8897 Q604.5601,731.9564 604.5601,734.0565 Q604.5601,736.1483 605.2449,737.2149 Q605.9297,738.2816 607.2744,738.2816 Q607.9053,738.2816 608.4988,738.0118 Q609.0923,737.742 609.7231,737.161 Z " fill="#000000"/><text fill="#000000" font-family="sans-serif" font-size="12" font-style="italic" lengthAdjust="spacing" textLength="82.4941" x="618.75" y="730.5316">&#171;ValueObject&#187;</text><text fill="#000000" font-family="sans-serif" font-size="14" lengthAdjust="spacing" textLength="55.084" x="632.4551" y="746.598">Address</text><line style="stroke:#181818;stroke-width:0.5;" x1="592.75" x2="701.2441" y1="754.5511" y2="754.5511"/><line style="stroke:#181818;stroke-width:0.5;" x1="592.75" x2="701.2441" y1="762.5511" y2="762.5511"/></g><!--class Email--><g class="entity" data-entity="Email" data-source-line="5" data-uid="ent0005" id="entity_Email"><rect fill="#F1F1F1" height="56.6211" rx="2.5" ry="2.5" style="stroke:#181818;stroke-width:0.5;" width="110.4941" x="446.75" y="713.93"/><ellipse cx="461.75" cy="734.2405" fill="#ADD1B2" rx="11" ry="11" style="stroke:#181818;stroke-width:1;"/><path d="M464.7231,739.8836 Q464.1421,740.1824 463.5029,740.3319 Q462.8638,740.4813 462.1582,740.4813 Q459.6514,740.4813 458.3315,738.8294 Q457.0117,737.1776 457.0117,734.0565 Q457.0117,730.9271 458.3315,729.2752 Q459.6514,727.6234 462.1582,727.6234 Q462.8638,727.6234 463.5112,727.7728 Q464.1587,727.9222 464.7231,728.221 L464.7231,730.9437 Q464.0923,730.3626 463.4988,730.0928 Q462.9053,729.8231 462.2744,729.8231 Q460.9297,729.8231 460.2449,730.8897 Q459.5601,731.9564 459.5601,734.0565 Q459.5601,736.1483 460.2449,737.2149 Q460.9297,738.2816 462.2744,738.2816 Q462.9053,738.2816 463.4988,738.0118 Q464.0923,737.742 464.7231,737.161 Z " fill="#000000"/><text fill="#000000" font-family="sans-serif" font-size="12" font-style="italic" lengthAdjust="spacing" textLength="82.4941" x="473.75" y="730.5316">&#171;ValueObject&#187;</text><text fill="#000000" font-family="sans-serif" font-size="14" lengthAdjust="spacing" textLength="36.4834" x="496.7554" y="746.598">Email</text><line style="stroke:#181818;stroke-width:0.5;" x1="447.75" x2="556.2441" y1="754.5511" y2="754.5511"/><line style="stroke:#181818;stroke-width:0.5;" x1="447.75" x2="556.2441" y1="762.5511" y2="762.5511"/></g><!--class User--><g class="entity" data-entity="User" data-source-line="9" data-uid="ent0007" id="entity_User"><rect fill="#F1F1F1" height="89.5977" rx="2.5" ry="2.5" style="stroke:#181818;stroke-width:0.5;" width="120.6982" x="844.65" y="41"/><ellipse cx="883.6375" cy="61.3105" fill="#ADD1B2" rx="11" ry="11" style="stroke:#181818;stroke-width:1;"/><path d="M886.6107,66.9536 Q886.0296,67.2524 885.3905,67.4019 Q884.7513,67.5513 884.0458,67.5513 Q881.5389,67.5513 880.2191,65.8994 Q878.8993,64.2476 878.8993,61.1265 Q878.8993,57.9971 880.2191,56.3452 Q881.5389,54.6934 884.0458,54.6934 Q884.7513,54.6934 885.3988,54.8428 Q886.0462,54.9922 886.6107,55.291 L886.6107,58.0137 Q885.9798,57.4326 885.3863,57.1628 Q884.7928,56.8931 884.162,56.8931 Q882.8172,56.8931 882.1324,57.9597 Q881.4476,59.0264 881.4476,61.1265 Q881.4476,63.2183 882.1324,64.2849 Q882.8172,65.3516 884.162,65.3516 Q884.7928,65.3516 885.3863,65.0818 Q885.9798,64.812 886.6107,64.231 Z " fill="#000000"/><text fill="#000000" font-family="sans-serif" font-size="12" font-style="italic" lengthAdjust="spacing" textLength="39.3926" x="900.9681" y="57.6016">&#171;Root&#187;</text><text fill="#000000" font-family="sans-serif" font-size="14" lengthAdjust="spacing" textLength="30.3652" x="905.4818" y="73.668">User</text><line style="stroke:#181818;stroke-width:0.5;" x1="845.65" x2="964.3482" y1="81.6211" y2="81.6211"/><ellipse cx="855.65" cy="95.3652" fill="none" rx="3" ry="3" style="stroke:#038048;stroke-width:1;"/><text fill="#000000" font-family="sans-serif" font-size="14" lengthAdjust="spacing" textLength="84.9775" x="864.65" y="99.1563">userId: UUID</text><ellipse cx="855.65" cy="111.8535" fill="none" rx="3" ry="3" style="stroke:#038048;stroke-width:1;"/><text fill="#000000" font-family="sans-serif" font-size="14" lengthAdjust="spacing" textLength="94.6982" x="864.65" y="115.6445">role: UserRole</text><line style="stroke:#181818;stroke-width:0.5;" x1="845.65" x2="964.3482" y1="122.5977" y2="122.5977"/></g><!--class UserRole--><g class="entity" data-entity="UserRole" data-source-line="14" data-uid="ent0008" id="entity_UserRole"><rect fill="#F1F1F1" height="56.6211" rx="2.5" ry="2.5" style="stroke:#181818;stroke-width:0.5;" width="110.4941" x="1025.75" y="236.84"/><ellipse cx="1040.75" cy="257.1505" fill="#ADD1B2" rx="11" ry="11" style="stroke:#181818;stroke-width:1;"/><path d="M1043.7231,262.7936 Q1043.1421,263.0924 1042.5029,263.2419 Q1041.8638,263.3913 1041.1582,263.3913 Q1038.6514,263.3913 1037.3315,261.7394 Q1036.0117,260.0876 1036.0117,256.9665 Q1036.0117,253.8371 1037.3315,252.1852 Q1038.6514,250.5334 1041.1582,250.5334 Q1041.8638,250.5334 1042.5112,250.6828 Q1043.1587,250.8322 1043.7231,251.131 L1043.7231,253.8537 Q1043.0923,253.2726 1042.4988,253.0028 Q1041.9053,252.7331 1041.2744,252.7331 Q1039.9297,252.7331 1039.2449,253.7997 Q1038.5601,254.8664 1038.5601,256.9665 Q1038.5601,259.0583 1039.2449,260.1249 Q1039.9297,261.1916 1041.2744,261.1916 Q1041.9053,261.1916 1042.4988,260.9218 Q1043.0923,260.652 1043.7231,260.071 Z " fill="#000000"/><text fill="#000000" font-family="sans-serif" font-size="12" font-style="italic" lengthAdjust="spacing" textLength="82.4941" x="1052.75" y="253.4416">&#171;ValueObject&#187;</text><text fill="#000000" font-family="sans-serif" font-size="14" lengthAdjust="spacing" textLength="59.6641" x="1064.165" y="269.508">UserRole</text><line style="stroke:#181818;stroke-width:0.5;" x1="1026.75" x2="1135.2441" y1="277.4611" y2="277.4611"/><line style="stroke:#181818;stroke-width:0.5;" x1="1026.75" x2="1135.2441" y1="285.4611" y2="285.4611"/></g><!--class Customer--><g class="entity" data-entity="Customer" data-source-line="16" data-uid="ent0009" id="entity_Customer"><rect fill="#F1F1F1" height="89.5977" rx="2.5" ry="2.5" style="stroke:#181818;stroke-width:0.5;" width="145.0547" x="845.47" y="220.36"/><ellipse cx="881.6688" cy="240.6705" fill="#ADD1B2" rx="11" ry="11" style="stroke:#181818;stroke-width:1;"/><path d="M884.6419,246.3136 Q884.0609,246.6124 883.4217,246.7619 Q882.7825,246.9113 882.077,246.9113 Q879.5701,246.9113 878.2503,245.2594 Q876.9305,243.6076 876.9305,240.4865 Q876.9305,237.3571 878.2503,235.7052 Q879.5701,234.0534 882.077,234.0534 Q882.7825,234.0534 883.43,234.2028 Q884.0775,234.3522 884.6419,234.651 L884.6419,237.3737 Q884.0111,236.7926 883.4176,236.5228 Q882.8241,236.2531 882.1932,236.2531 Q880.8485,236.2531 880.1637,237.3197 Q879.4788,238.3864 879.4788,240.4865 Q879.4788,242.5783 880.1637,243.6449 Q880.8485,244.7116 882.1932,244.7116 Q882.8241,244.7116 883.4176,244.4418 Q884.0111,244.172 884.6419,243.591 Z " fill="#000000"/><text fill="#000000" font-family="sans-serif" font-size="12" font-style="italic" lengthAdjust="spacing" textLength="45.2402" x="910.7326" y="236.9616">&#171;Entity&#187;</text><text fill="#000000" font-family="sans-serif" font-size="14" lengthAdjust="spacing" textLength="65.9463" x="900.3796" y="253.028">Customer</text><line style="stroke:#181818;stroke-width:0.5;" x1="846.47" x2="989.5247" y1="260.9811" y2="260.9811"/><ellipse cx="856.47" cy="274.7252" fill="none" rx="3" ry="3" style="stroke:#038048;stroke-width:1;"/><text fill="#000000" font-family="sans-serif" font-size="14" lengthAdjust="spacing" textLength="119.0547" x="865.47" y="278.5162">customerId: UUID</text><ellipse cx="856.47" cy="291.2135" fill="none" rx="3" ry="3" style="stroke:#038048;stroke-width:1;"/><text fill="#000000" font-family="sans-serif" font-size="14" lengthAdjust="spacing" textLength="48.624" x="865.47" y="295.0045">nif: NIF</text><line style="stroke:#181818;stroke-width:0.5;" x1="846.47" x2="989.5247" y1="301.9577" y2="301.9577"/></g><!--class NIF--><g class="entity" data-entity="NIF" data-source-line="21" data-uid="ent0010" id="entity_NIF"><rect fill="#F1F1F1" height="56.6211" rx="2.5" ry="2.5" style="stroke:#181818;stroke-width:0.5;" width="110.4941" x="844.75" y="400.2"/><ellipse cx="859.75" cy="420.5105" fill="#ADD1B2" rx="11" ry="11" style="stroke:#181818;stroke-width:1;"/><path d="M862.7231,426.1536 Q862.1421,426.4524 861.5029,426.6019 Q860.8638,426.7513 860.1582,426.7513 Q857.6514,426.7513 856.3315,425.0994 Q855.0117,423.4476 855.0117,420.3265 Q855.0117,417.1971 856.3315,415.5452 Q857.6514,413.8934 860.1582,413.8934 Q860.8638,413.8934 861.5112,414.0428 Q862.1587,414.1922 862.7231,414.491 L862.7231,417.2137 Q862.0923,416.6326 861.4988,416.3628 Q860.9053,416.0931 860.2744,416.0931 Q858.9297,416.0931 858.2449,417.1597 Q857.5601,418.2264 857.5601,420.3265 Q857.5601,422.4183 858.2449,423.4849 Q858.9297,424.5516 860.2744,424.5516 Q860.9053,424.5516 861.4988,424.2818 Q862.0923,424.012 862.7231,423.431 Z " fill="#000000"/><text fill="#000000" font-family="sans-serif" font-size="12" font-style="italic" lengthAdjust="spacing" textLength="82.4941" x="871.75" y="416.8016">&#171;ValueObject&#187;</text><text fill="#000000" font-family="sans-serif" font-size="14" lengthAdjust="spacing" textLength="21.8818" x="902.0562" y="432.868">NIF</text><line style="stroke:#181818;stroke-width:0.5;" x1="845.75" x2="954.2441" y1="440.8211" y2="440.8211"/><line style="stroke:#181818;stroke-width:0.5;" x1="845.75" x2="954.2441" y1="448.8211" y2="448.8211"/></g><!--class Category--><g class="entity" data-entity="Category" data-source-line="31" data-uid="ent0017" id="entity_Category"><rect fill="#F1F1F1" height="56.6211" rx="2.5" ry="2.5" style="stroke:#181818;stroke-width:0.5;" width="92.8262" x="757.59" y="713.93"/><ellipse cx="772.59" cy="734.2405" fill="#ADD1B2" rx="11" ry="11" style="stroke:#181818;stroke-width:1;"/><path d="M775.5631,739.8836 Q774.9821,740.1824 774.3429,740.3319 Q773.7038,740.4813 772.9982,740.4813 Q770.4914,740.4813 769.1715,738.8294 Q767.8517,737.1776 767.8517,734.0565 Q767.8517,730.9271 769.1715,729.2752 Q770.4914,727.6234 772.9982,727.6234 Q773.7038,727.6234 774.3512,727.7728 Q774.9987,727.9222 775.5631,728.221 L775.5631,730.9437 Q774.9323,730.3626 774.3388,730.0928 Q773.7453,729.8231 773.1144,729.8231 Q771.7697,729.8231 771.0849,730.8897 Q770.4001,731.9564 770.4001,734.0565 Q770.4001,736.1483 771.0849,737.2149 Q771.7697,738.2816 773.1144,738.2816 Q773.7453,738.2816 774.3388,738.0118 Q774.9323,737.742 775.5631,737.161 Z " fill="#000000"/><text fill="#000000" font-family="sans-serif" font-size="12" font-style="italic" lengthAdjust="spacing" textLength="39.3926" x="797.3068" y="730.5316">&#171;Root&#187;</text><text fill="#000000" font-family="sans-serif" font-size="14" lengthAdjust="spacing" textLength="60.8262" x="786.59" y="746.598">Category</text><line style="stroke:#181818;stroke-width:0.5;" x1="758.59" x2="849.4162" y1="754.5511" y2="754.5511"/><line style="stroke:#181818;stroke-width:0.5;" x1="758.59" x2="849.4162" y1="762.5511" y2="762.5511"/></g><!--class Product--><g class="entity" data-entity="Product" data-source-line="35" data-uid="ent0019" id="entity_Product"><rect fill="#F1F1F1" height="56.6211" rx="2.5" ry="2.5" style="stroke:#181818;stroke-width:0.5;" width="83.9736" x="680.01" y="565.06"/><ellipse cx="695.01" cy="585.3705" fill="#ADD1B2" rx="11" ry="11" style="stroke:#181818;stroke-width:1;"/><path d="M697.9831,591.0136 Q697.4021,591.3124 696.7629,591.4619 Q696.1238,591.6113 695.4182,591.6113 Q692.9114,591.6113 691.5915,589.9594 Q690.2717,588.3076 690.2717,585.1865 Q690.2717,582.0571 691.5915,580.4052 Q692.9114,578.7534 695.4182,578.7534 Q696.1238,578.7534 696.7712,578.9028 Q697.4187,579.0522 697.9831,579.351 L697.9831,582.0737 Q697.3523,581.4926 696.7588,581.2228 Q696.1653,580.9531 695.5344,580.9531 Q694.1897,580.9531 693.5049,582.0197 Q692.8201,583.0864 692.8201,585.1865 Q692.8201,587.2783 693.5049,588.3449 Q694.1897,589.4116 695.5344,589.4116 Q696.1653,589.4116 696.7588,589.1418 Q697.3523,588.872 697.9831,588.291 Z " fill="#000000"/><text fill="#000000" font-family="sans-serif" font-size="12" font-style="italic" lengthAdjust="spacing" textLength="39.3926" x="715.3005" y="581.6616">&#171;Root&#187;</text><text fill="#000000" font-family="sans-serif" font-size="14" lengthAdjust="spacing" textLength="51.9736" x="709.01" y="597.728">Product</text><line style="stroke:#181818;stroke-width:0.5;" x1="681.01" x2="762.9836" y1="605.6811" y2="605.6811"/><line style="stroke:#181818;stroke-width:0.5;" x1="681.01" x2="762.9836" y1="613.6811" y2="613.6811"/></g><!--class Cart--><g class="entity" data-entity="Cart" data-source-line="41" data-uid="ent0023" id="entity_Cart"><rect fill="#F1F1F1" height="73.1094" rx="2.5" ry="2.5" style="stroke:#181818;stroke-width:0.5;" width="110.9775" x="675.51" y="228.6"/><ellipse cx="710.1232" cy="248.9105" fill="#ADD1B2" rx="11" ry="11" style="stroke:#181818;stroke-width:1;"/><path d="M713.0964,254.5536 Q712.5153,254.8524 711.8762,255.0019 Q711.237,255.1513 710.5314,255.1513 Q708.0246,255.1513 706.7048,253.4994 Q705.385,251.8476 705.385,248.7265 Q705.385,245.5971 706.7048,243.9452 Q708.0246,242.2934 710.5314,242.2934 Q711.237,242.2934 711.8845,242.4428 Q712.5319,242.5922 713.0964,242.891 L713.0964,245.6137 Q712.4655,245.0326 711.872,244.7628 Q711.2785,244.4931 710.6476,244.4931 Q709.3029,244.4931 708.6181,245.5597 Q707.9333,246.6264 707.9333,248.7265 Q707.9333,250.8183 708.6181,251.8849 Q709.3029,252.9516 710.6476,252.9516 Q711.2785,252.9516 711.872,252.6818 Q712.4655,252.412 713.0964,251.831 Z " fill="#000000"/><text fill="#000000" font-family="sans-serif" font-size="12" font-style="italic" lengthAdjust="spacing" textLength="39.3926" x="726.4817" y="245.2016">&#171;Root&#187;</text><text fill="#000000" font-family="sans-serif" font-size="14" lengthAdjust="spacing" textLength="28.3828" x="731.9866" y="261.268">Cart</text><line style="stroke:#181818;stroke-width:0.5;" x1="676.51" x2="785.4875" y1="269.2211" y2="269.2211"/><ellipse cx="686.51" cy="282.9652" fill="none" rx="3" ry="3" style="stroke:#038048;stroke-width:1;"/><text fill="#000000" font-family="sans-serif" font-size="14" lengthAdjust="spacing" textLength="84.9775" x="695.51" y="286.7562">userId: UUID</text><line style="stroke:#181818;stroke-width:0.5;" x1="676.51" x2="785.4875" y1="293.7094" y2="293.7094"/></g><!--class CartItem--><g class="entity" data-entity="CartItem" data-source-line="45" data-uid="ent0024" id="entity_CartItem"><rect fill="#F1F1F1" height="73.1094" rx="2.5" ry="2.5" style="stroke:#181818;stroke-width:0.5;" width="134.6709" x="654.66" y="391.95"/><ellipse cx="689.5268" cy="412.2605" fill="#ADD1B2" rx="11" ry="11" style="stroke:#181818;stroke-width:1;"/><path d="M692.4999,417.9036 Q691.9189,418.2024 691.2797,418.3519 Q690.6406,418.5013 689.935,418.5013 Q687.4282,418.5013 686.1083,416.8494 Q684.7885,415.1976 684.7885,412.0765 Q684.7885,408.9471 686.1083,407.2952 Q687.4282,405.6434 689.935,405.6434 Q690.6406,405.6434 691.288,405.7928 Q691.9355,405.9422 692.4999,406.241 L692.4999,408.9637 Q691.8691,408.3826 691.2756,408.1128 Q690.6821,407.8431 690.0512,407.8431 Q688.7065,407.8431 688.0217,408.9097 Q687.3369,409.9764 687.3369,412.0765 Q687.3369,414.1683 688.0217,415.2349 Q688.7065,416.3016 690.0512,416.3016 Q690.6821,416.3016 691.2756,416.0318 Q691.8691,415.762 692.4999,415.181 Z " fill="#000000"/><text fill="#000000" font-family="sans-serif" font-size="12" font-style="italic" lengthAdjust="spacing" textLength="45.2402" x="714.5828" y="408.5516">&#171;Entity&#187;</text><text fill="#000000" font-family="sans-serif" font-size="14" lengthAdjust="spacing" textLength="58.5225" x="707.9416" y="424.618">CartItem</text><line style="stroke:#181818;stroke-width:0.5;" x1="655.66" x2="788.3309" y1="432.5711" y2="432.5711"/><ellipse cx="665.66" cy="446.3152" fill="none" rx="3" ry="3" style="stroke:#038048;stroke-width:1;"/><text fill="#000000" font-family="sans-serif" font-size="14" lengthAdjust="spacing" textLength="108.6709" x="674.66" y="450.1062">productId: UUID</text><line style="stroke:#181818;stroke-width:0.5;" x1="655.66" x2="788.3309" y1="457.0594" y2="457.0594"/></g><!--class Order--><g class="entity" data-entity="Order" data-source-line="54" data-uid="ent0028" id="entity_Order"><rect fill="#F1F1F1" height="73.1094" rx="2.5" ry="2.5" style="stroke:#181818;stroke-width:0.5;" width="110.9775" x="193.51" y="391.95"/><ellipse cx="226.5249" cy="412.2605" fill="#ADD1B2" rx="11" ry="11" style="stroke:#181818;stroke-width:1;"/><path d="M229.4981,417.9036 Q228.917,418.2024 228.2779,418.3519 Q227.6387,418.5013 226.9331,418.5013 Q224.4263,418.5013 223.1065,416.8494 Q221.7867,415.1976 221.7867,412.0765 Q221.7867,408.9471 223.1065,407.2952 Q224.4263,405.6434 226.9331,405.6434 Q227.6387,405.6434 228.2862,405.7928 Q228.9336,405.9422 229.4981,406.241 L229.4981,408.9637 Q228.8672,408.3826 228.2737,408.1128 Q227.6802,407.8431 227.0494,407.8431 Q225.7046,407.8431 225.0198,408.9097 Q224.335,409.9764 224.335,412.0765 Q224.335,414.1683 225.0198,415.2349 Q225.7046,416.3016 227.0494,416.3016 Q227.6802,416.3016 228.2737,416.0318 Q228.8672,415.762 229.4981,415.181 Z " fill="#000000"/><text fill="#000000" font-family="sans-serif" font-size="12" font-style="italic" lengthAdjust="spacing" textLength="39.3926" x="244.3041" y="408.5516">&#171;Root&#187;</text><text fill="#000000" font-family="sans-serif" font-size="14" lengthAdjust="spacing" textLength="38.9443" x="244.5283" y="424.618">Order</text><line style="stroke:#181818;stroke-width:0.5;" x1="194.51" x2="303.4875" y1="432.5711" y2="432.5711"/><ellipse cx="204.51" cy="446.3152" fill="none" rx="3" ry="3" style="stroke:#038048;stroke-width:1;"/><text fill="#000000" font-family="sans-serif" font-size="14" lengthAdjust="spacing" textLength="84.9775" x="213.51" y="450.1062">userId: UUID</text><line style="stroke:#181818;stroke-width:0.5;" x1="194.51" x2="303.4875" y1="457.0594" y2="457.0594"/></g><!--class OrderItem--><g class="entity" data-entity="OrderItem" data-source-line="58" data-uid="ent0029" id="entity_OrderItem"><rect fill="#F1F1F1" height="73.1094" rx="2.5" ry="2.5" style="stroke:#181818;stroke-width:0.5;" width="134.6709" x="169.66" y="556.82"/><ellipse cx="199.7741" cy="577.1305" fill="#ADD1B2" rx="11" ry="11" style="stroke:#181818;stroke-width:1;"/><path d="M202.7473,582.7736 Q202.1662,583.0724 201.527,583.2219 Q200.8879,583.3713 200.1823,583.3713 Q197.6755,583.3713 196.3557,581.7194 Q195.0358,580.0676 195.0358,576.9465 Q195.0358,573.8171 196.3557,572.1652 Q197.6755,570.5134 200.1823,570.5134 Q200.8879,570.5134 201.5353,570.6628 Q202.1828,570.8122 202.7473,571.111 L202.7473,573.8337 Q202.1164,573.2526 201.5229,572.9828 Q200.9294,572.7131 200.2985,572.7131 Q198.9538,572.7131 198.269,573.7797 Q197.5842,574.8464 197.5842,576.9465 Q197.5842,579.0383 198.269,580.1049 Q198.9538,581.1716 200.2985,581.1716 Q200.9294,581.1716 201.5229,580.9018 Q202.1164,580.632 202.7473,580.051 Z " fill="#000000"/><text fill="#000000" font-family="sans-serif" font-size="12" font-style="italic" lengthAdjust="spacing" textLength="45.2402" x="229.0547" y="573.4216">&#171;Entity&#187;</text><text fill="#000000" font-family="sans-serif" font-size="14" lengthAdjust="spacing" textLength="69.084" x="217.1328" y="589.488">OrderItem</text><line style="stroke:#181818;stroke-width:0.5;" x1="170.66" x2="303.3309" y1="597.4411" y2="597.4411"/><ellipse cx="180.66" cy="611.1852" fill="none" rx="3" ry="3" style="stroke:#038048;stroke-width:1;"/><text fill="#000000" font-family="sans-serif" font-size="14" lengthAdjust="spacing" textLength="108.6709" x="189.66" y="614.9762">productId: UUID</text><line style="stroke:#181818;stroke-width:0.5;" x1="170.66" x2="303.3309" y1="621.9294" y2="621.9294"/></g><!--class OrderStatus--><g class="entity" data-entity="OrderStatus" data-source-line="62" data-uid="ent0030" id="entity_OrderStatus"><rect fill="#F1F1F1" height="56.6211" rx="2.5" ry="2.5" style="stroke:#181818;stroke-width:0.5;" width="112.5137" x="21.74" y="565.06"/><ellipse cx="36.74" cy="585.3705" fill="#EB937F" rx="11" ry="11" style="stroke:#181818;stroke-width:1;"/><path d="M40.8543,591.3705 L33.1345,591.3705 L33.1345,578.9775 L40.8543,578.9775 L40.8543,581.1357 L35.5833,581.1357 L35.5833,583.8085 L40.3562,583.8085 L40.3562,585.9667 L35.5833,585.9667 L35.5833,589.2123 L40.8543,589.2123 Z " fill="#000000"/><text fill="#000000" font-family="sans-serif" font-size="12" font-style="italic" lengthAdjust="spacing" textLength="82.4941" x="49.7498" y="581.6616">&#171;ValueObject&#187;</text><text fill="#000000" font-family="sans-serif" font-size="14" lengthAdjust="spacing" textLength="80.5137" x="50.74" y="597.728">OrderStatus</text><line style="stroke:#181818;stroke-width:0.5;" x1="22.74" x2="133.2537" y1="605.6811" y2="605.6811"/><line style="stroke:#181818;stroke-width:0.5;" x1="22.74" x2="133.2537" y1="613.6811" y2="613.6811"/></g><!--link User to Customer--><g class="link" data-entity-1="User" data-entity-2="Customer" data-source-line="23" data-uid="lnk11" id="link_User_Customer"><path codeLine="23" d="M908.25,131.1 C910.24,158.29 912.3412,186.9961 914.3312,214.1361" fill="none" id="User-to-Customer" style="stroke:#181818;stroke-width:1;"/><polygon fill="#181818" points="914.77,220.12,918.1011,210.8516,914.4044,215.1334,910.1226,211.4366,914.77,220.12" style="stroke:#181818;stroke-width:1;"/><text fill="#000000" font-family="sans-serif" font-size="13" lengthAdjust="spacing" textLength="52.7363" x="912.5" y="174.1684">can be a</text></g><!--link User to Email--><g class="link" data-entity-1="User" data-entity-2="Email" data-source-line="24" data-uid="lnk12" id="link_User_Email"><path codeLine="24" d="M844.41,94.76 C755.99,110.15 602,152.92 602,264.16 C602,264.16 602,264.16 602,506.56 C602,572.79 608.13,593.98 580,653.93 C569.29,676.75 554.9771,693.7732 538.6071,709.5732" fill="none" id="User-to-Email" style="stroke:#181818;stroke-width:1;"/><polygon fill="#181818" points="534.29,713.74,543.5436,710.3679,537.8876,710.2677,537.9878,704.6117,534.29,713.74" style="stroke:#181818;stroke-width:1;"/></g><!--link User to UserRole--><g class="link" data-entity-1="User" data-entity-2="UserRole" data-source-line="25" data-uid="lnk13" id="link_User_UserRole"><path codeLine="25" d="M952.21,131 C969.93,147.87 990.1,167.41 1008,185.6 C1024.33,202.19 1038.0605,216.8726 1051.9905,232.1026" fill="none" id="User-to-UserRole" style="stroke:#181818;stroke-width:1;"/><polygon fill="#181818" points="1056.04,236.53,1052.9174,227.1893,1052.6654,232.8405,1047.0142,232.5886,1056.04,236.53" style="stroke:#181818;stroke-width:1;"/></g><!--link Customer to NIF--><g class="link" data-entity-1="Customer" data-entity-2="NIF" data-source-line="26" data-uid="lnk14" id="link_Customer_NIF"><path codeLine="26" d="M913.08,310.25 C909.9,338.8 906.5168,369.1472 903.7668,393.7372" fill="none" id="Customer-to-NIF" style="stroke:#181818;stroke-width:1;"/><polygon fill="#181818" points="903.1,399.7,908.0755,391.2003,903.6557,394.731,900.1251,390.3112,903.1,399.7" style="stroke:#181818;stroke-width:1;"/></g><!--link Customer to Address--><g class="link" data-entity-1="Customer" data-entity-2="Address" data-source-line="27" data-uid="lnk15" id="link_Customer_Address"><path codeLine="27" d="M954.02,310.14 C961.8,322.04 968.91,335.41 973,348.95 C991,408.57 999.07,432.51 973,489.06 C925.77,591.52 875.35,593.64 780,653.93 C764.36,663.82 757.97,661.59 742,670.93 C720.56,683.46 702.8977,696.1556 685.2377,709.9556" fill="none" id="Customer-to-Address" style="stroke:#181818;stroke-width:1;"/><polygon fill="#181818" points="680.51,713.65,690.0645,711.2603,684.4498,710.5713,685.1387,704.9566,680.51,713.65" style="stroke:#181818;stroke-width:1;"/><text fill="#000000" font-family="sans-serif" font-size="13" lengthAdjust="spacing" textLength="116.3652" x="969.63" y="510.6284">delivery addresses</text><text fill="#000000" font-family="sans-serif" font-size="13" lengthAdjust="spacing" textLength="8.2202" x="950.7395" y="330.4393">1</text><text fill="#000000" font-family="sans-serif" font-size="13" lengthAdjust="spacing" textLength="22.7119" x="663.5126" y="703.3575">1..*</text></g><!--link Product to Category--><g class="link" data-entity-1="Product" data-entity-2="Category" data-source-line="36" data-uid="lnk20" id="link_Product_Category"><path codeLine="36" d="M737.42,622 C752.08,648.26 771.085,682.2813 785.725,708.5013" fill="none" id="Product-to-Category" style="stroke:#181818;stroke-width:1;"/><polygon fill="#181818" points="788.65,713.74,787.7549,703.9319,786.2125,709.3744,780.77,707.832,788.65,713.74" style="stroke:#181818;stroke-width:1;"/><text fill="#000000" font-family="sans-serif" font-size="13" lengthAdjust="spacing" textLength="8.2202" x="731.7987" y="642.0521">1</text><text fill="#000000" font-family="sans-serif" font-size="13" lengthAdjust="spacing" textLength="8.2202" x="776.2001" y="703.0191">1</text></g><!--link Product to Money--><g class="link" data-entity-1="Product" data-entity-2="Money" data-source-line="37" data-uid="lnk21" id="link_Product_Money"><path codeLine="37" d="M679.7,612.49 C646.81,625.87 599.75,643.5 557,653.93 C501.25,667.53 480.61,645.82 429,670.93 C408.73,680.79 394.5083,694.009 381.5083,709.219" fill="none" id="Product-to-Money" style="stroke:#181818;stroke-width:1;"/><polygon fill="#181818" points="377.61,713.78,386.4982,709.5373,380.8586,709.9791,380.4168,704.3396,377.61,713.78" style="stroke:#181818;stroke-width:1;"/><text fill="#000000" font-family="sans-serif" font-size="13" lengthAdjust="spacing" textLength="8.2202" x="663.7617" y="612.0821">1</text><text fill="#000000" font-family="sans-serif" font-size="13" lengthAdjust="spacing" textLength="8.2202" x="373.4772" y="703.0684">1</text></g><!--link Cart to CartItem--><g class="link" data-entity-1="Cart" data-entity-2="CartItem" data-source-line="49" data-uid="lnk25" id="link_Cart_CartItem"><path codeLine="49" d="M729,301.97 C727.52,328.61 725.8344,358.8393 724.3444,385.5293" fill="none" id="Cart-to-CartItem" style="stroke:#181818;stroke-width:1;"/><polygon fill="#181818" points="724.01,391.52,728.5054,382.7569,724.2887,386.5278,720.5179,382.311,724.01,391.52" style="stroke:#181818;stroke-width:1;"/></g><!--link CartItem to Product--><g class="link" data-entity-1="CartItem" data-entity-2="Product" data-source-line="50" data-uid="lnk26" id="link_CartItem_Product"><path codeLine="50" d="M722,465.25 C722,495.21 722,531.38 722,558.79" fill="none" id="CartItem-to-Product" style="stroke:#181818;stroke-width:1;"/><polygon fill="#181818" points="722,564.79,726,555.79,722,559.79,718,555.79,722,564.79" style="stroke:#181818;stroke-width:1;"/><text fill="#000000" font-family="sans-serif" font-size="13" lengthAdjust="spacing" textLength="21.874" x="723" y="510.6284">has</text><text fill="#000000" font-family="sans-serif" font-size="13" lengthAdjust="spacing" textLength="8.2202" x="713.3079" y="485.7272">1</text><text fill="#000000" font-family="sans-serif" font-size="13" lengthAdjust="spacing" textLength="8.2202" x="713.1498" y="554.4997">1</text></g><!--link Order to OrderItem--><g class="link" data-entity-1="Order" data-entity-2="OrderItem" data-source-line="64" data-uid="lnk31" id="link_Order_OrderItem"><path codeLine="64" d="M246.37,465.25 C244.37,492.31 242.0914,523.3463 240.0914,550.4563" fill="none" id="Order-to-OrderItem" style="stroke:#181818;stroke-width:1;"/><polygon fill="#181818" points="239.65,556.44,244.3013,547.7587,240.0179,551.4536,236.323,547.1701,239.65,556.44" style="stroke:#181818;stroke-width:1;"/></g><!--link Order to OrderStatus--><g class="link" data-entity-1="Order" data-entity-2="OrderStatus" data-source-line="65" data-uid="lnk32" id="link_Order_OrderStatus"><path codeLine="65" d="M211.47,465.25 C180.01,495.21 140.0848,533.242 111.3048,560.652" fill="none" id="Order-to-OrderStatus" style="stroke:#181818;stroke-width:1;"/><polygon fill="#181818" points="106.96,564.79,116.2358,561.4796,110.5807,561.3417,110.7185,555.6865,106.96,564.79" style="stroke:#181818;stroke-width:1;"/></g><!--link Order to Money--><g class="link" data-entity-1="Order" data-entity-2="Money" data-source-line="66" data-uid="lnk33" id="link_Order_Money"><path codeLine="66" d="M284.33,465.37 C298.21,481.46 312.96,501.45 322,522.06 C350.31,586.65 355.8954,664.9015 356.8554,707.6915" fill="none" id="Order-to-Money" style="stroke:#181818;stroke-width:1;"/><polygon fill="#181818" points="356.99,713.69,360.7871,704.6025,356.8779,708.6913,352.7891,704.782,356.99,713.69" style="stroke:#181818;stroke-width:1;"/><text fill="#000000" font-family="sans-serif" font-size="13" lengthAdjust="spacing" textLength="8.2202" x="281.734" y="485.5903">1</text><text fill="#000000" font-family="sans-serif" font-size="13" lengthAdjust="spacing" textLength="8.2202" x="348.1375" y="703.4063">1</text></g><!--link OrderItem to Money--><g class="link" data-entity-1="OrderItem" data-entity-2="Money" data-source-line="67" data-uid="lnk34" id="link_OrderItem_Money"><path codeLine="67" d="M266.36,630.3 C287.31,655.95 311.2825,685.2947 330.5425,708.8547" fill="none" id="OrderItem-to-Money" style="stroke:#181818;stroke-width:1;"/><polygon fill="#181818" points="334.34,713.5,331.7406,704.0004,331.1754,709.6289,325.5469,709.0637,334.34,713.5" style="stroke:#181818;stroke-width:1;"/><text fill="#000000" font-family="sans-serif" font-size="13" lengthAdjust="spacing" textLength="8.2202" x="262.7385" y="650.5306">1</text><text fill="#000000" font-family="sans-serif" font-size="13" lengthAdjust="spacing" textLength="8.2202" x="320.5329" y="703.1747">1</text></g><!--link Order to Address--><g class="link" data-entity-1="Order" data-entity-2="Address" data-source-line="68" data-uid="lnk35" id="link_Order_Address"><path codeLine="68" d="M302.05,465.46 C367.99,510.88 483.05,592.61 575,670.93 C590.7,684.3 602.9933,696.0214 616.2433,709.3714" fill="none" id="Order-to-Address" style="stroke:#181818;stroke-width:1;"/><polygon fill="#181818" points="620.47,713.63,616.969,704.4244,616.9478,710.0812,611.291,710.0599,620.47,713.63" style="stroke:#181818;stroke-width:1;"/><text fill="#000000" font-family="sans-serif" font-size="13" lengthAdjust="spacing" textLength="102.4956" x="555.06" y="598.4384">delivery address</text><text fill="#000000" font-family="sans-serif" font-size="13" lengthAdjust="spacing" textLength="8.2202" x="302.4996" y="485.6958">1</text><text fill="#000000" font-family="sans-serif" font-size="13" lengthAdjust="spacing" textLength="8.2202" x="605.8163" y="703.3331">1</text></g><!--link User to Cart--><g class="link" data-entity-1="User" data-entity-2="Cart" data-source-line="71" data-uid="lnk36" id="link_User_Cart"><path codeLine="71" d="M861.54,131.1 C832.15,161.06 798.022,195.8371 770.512,223.8771" fill="none" id="User-to-Cart" style="stroke:#181818;stroke-width:1;"/><polygon fill="#181818" points="766.31,228.16,775.4682,224.5369,769.8116,224.5909,769.7577,218.9343,766.31,228.16" style="stroke:#181818;stroke-width:1;"/><text fill="#000000" font-family="sans-serif" font-size="13" lengthAdjust="spacing" textLength="32.6968" x="829.42" y="174.1684">owns</text><text fill="#000000" font-family="sans-serif" font-size="13" lengthAdjust="spacing" textLength="8.2202" x="846.8815" y="151.1154">1</text><text fill="#000000" font-family="sans-serif" font-size="13" lengthAdjust="spacing" textLength="24.667" x="746.5217" y="217.8304">0..1</text></g><!--link User to Order--><g class="link" data-entity-1="User" data-entity-2="Order" data-source-line="72" data-uid="lnk37" id="link_User_Order"><path codeLine="72" d="M844.4,94.34 C777.01,104.09 665.82,124.3 576,160.6 C448.61,212.09 336.3799,326.8411 283.3199,386.9711" fill="none" id="User-to-Order" style="stroke:#181818;stroke-width:1;"/><polygon fill="#181818" points="279.35,391.47,288.3041,387.3683,282.6583,387.7209,282.3056,382.0751,279.35,391.47" style="stroke:#181818;stroke-width:1;"/><text fill="#000000" font-family="sans-serif" font-size="13" lengthAdjust="spacing" textLength="39.6475" x="524.18" y="270.2284">places</text><text fill="#000000" font-family="sans-serif" font-size="13" lengthAdjust="spacing" textLength="8.2202" x="828.5404" y="92.0542">1</text><text fill="#000000" font-family="sans-serif" font-size="13" lengthAdjust="spacing" textLength="22.7119" x="260.8603" y="381.1333">0..*</text></g><!--SRC=[dLDTJuCm57tVhxZfesR4lJRBaaLdmeFEpCpt2bT4WPAsQ8ZnlziMwEYWYReNbdFkkUT-jMR9EyiGo3KlIruH-5g0_YK5anBkU8KjhDTFh6Xm__o6YTfiHlmsJGNgRpXYLxAycF3VYqNjV1kfU8bYcsK2CwRGB-4eKMZzWNCjx1c0oqR3SKhXU8nl1apm0gaL7FG_YseZFvLX9kMCOePgTCokKhbgnwP9JvuRL_aBXVluTcgfmNatszPokJaPKaXO1Sy8p0-m4_GXhqMNm3134GuaAs89iegY2-8MHY758lz0qGBh89J-LlGYCYxQm5O6sct64py8dZQ92cXxzYGrr02UwYNE91XWp_EiRA629GlrcqFozcT4iS9ozXpghgGvjJMpw-qJEDHc6pSnD4RXbVaxs8iq-2miz-TshEe__M3Lb9twKJ7LoFcZxeeoZJcZERnBCMAcEtNSP5ndlCU5hzlCrJuV5tuLHVR4X9ay_wpabDVlfVEWK1SiqI_a1m00]--></g></svg>