<svg xmlns="http://www.w3.org/2000/svg" xmlns:xlink="http://www.w3.org/1999/xlink" contentStyleType="text/css" data-diagram-type="CLASS" height="791px" preserveAspectRatio="none" style="width:1236px;height:791px;background:#FFFFFF;" version="1.1" viewBox="0 0 1236 791" width="1236px" zoomAndPan="magnify"><defs/><g><!--cluster Common--><g class="cluster" data-entity="Common" data-source-line="2" data-uid="ent0002" id="cluster_Common"><path d="M470.5,676.93 L535.7031,676.93 A3.75,3.75 0 0 1 538.2031,679.43 L545.2031,699.4183 L897.5,699.4183 A2.5,2.5 0 0 1 900,701.9183 L900,782.05 A2.5,2.5 0 0 1 897.5,784.55 L470.5,784.55 A2.5,2.5 0 0 1 468,782.05 L468,679.43 A2.5,2.5 0 0 1 470.5,676.93" fill="none" style="stroke:#000000;stroke-width:1.5;"/><line style="stroke:#000000;stroke-width:1.5;" x1="468" x2="545.2031" y1="699.4183" y2="699.4183"/><text fill="#000000" font-family="sans-serif" font-size="14" font-weight="bold" lengthAdjust="spacing" textLength="64.2031" x="472" y="692.4652">Common</text></g><!--cluster CustomerAggregate--><g class="cluster" data-entity="CustomerAggregate" data-source-line="8" data-uid="ent0006" id="cluster_CustomerAggregate"><path d="M908.5,6 L1054.0322,6 A3.75,3.75 0 0 1 1056.5322,8.5 L1063.5322,28.4883 L1226.5,28.4883 A2.5,2.5 0 0 1 1229,30.9883 L1229,470.32 A2.5,2.5 0 0 1 1226.5,472.82 L908.5,472.82 A2.5,2.5 0 0 1 906,470.32 L906,8.5 A2.5,2.5 0 0 1 908.5,6" fill="none" style="stroke:#000000;stroke-width:1.5;"/><line style="stroke:#000000;stroke-width:1.5;" x1="906" x2="1063.5322" y1="28.4883" y2="28.4883"/><text fill="#000000" font-family="sans-serif" font-size="14" font-weight="bold" lengthAdjust="spacing" textLength="144.5322" x="910" y="21.5352">CustomerAggregate</text></g><!--cluster CategoryAggregate--><g class="cluster" data-entity="CategoryAggregate" data-source-line="30" data-uid="ent0016" id="cluster_CategoryAggregate"><path d="M926.5,676.93 L1066.9736,676.93 A3.75,3.75 0 0 1 1069.4736,679.43 L1076.4736,699.4183 L1076.5,699.4183 A2.5,2.5 0 0 1 1079,701.9183 L1079,782.05 A2.5,2.5 0 0 1 1076.5,784.55 L926.5,784.55 A2.5,2.5 0 0 1 924,782.05 L924,679.43 A2.5,2.5 0 0 1 926.5,676.93" fill="none" style="stroke:#000000;stroke-width:1.5;"/><line style="stroke:#000000;stroke-width:1.5;" x1="924" x2="1076.4736" y1="699.4183" y2="699.4183"/><text fill="#000000" font-family="sans-serif" font-size="14" font-weight="bold" lengthAdjust="spacing" textLength="139.4736" x="928" y="692.4652">CategoryAggregate</text></g><!--cluster ProductAggregate--><g class="cluster" data-entity="ProductAggregate" data-source-line="34" data-uid="ent0018" id="cluster_ProductAggregate"><path d="M691.5,530.06 L822.6768,530.06 A3.75,3.75 0 0 1 825.1768,532.56 L832.1768,552.5483 L832.5,552.5483 A2.5,2.5 0 0 1 835,555.0483 L835,635.18 A2.5,2.5 0 0 1 832.5,637.68 L691.5,637.68 A2.5,2.5 0 0 1 689,635.18 L689,532.56 A2.5,2.5 0 0 1 691.5,530.06" fill="none" style="stroke:#000000;stroke-width:1.5;"/><line style="stroke:#000000;stroke-width:1.5;" x1="689" x2="832.1768" y1="552.5483" y2="552.5483"/><text fill="#000000" font-family="sans-serif" font-size="14" font-weight="bold" lengthAdjust="spacing" textLength="130.1768" x="693" y="545.5952">ProductAggregate</text></g><!--cluster CartAggregate--><g class="cluster" data-entity="CartAggregate" data-source-line="40" data-uid="ent0022" id="cluster_CartAggregate"><path d="M668.5,193.6 L774.4316,193.6 A3.75,3.75 0 0 1 776.9316,196.1 L783.9316,216.0883 L829.5,216.0883 A2.5,2.5 0 0 1 832,218.5883 L832,478.56 A2.5,2.5 0 0 1 829.5,481.06 L668.5,481.06 A2.5,2.5 0 0 1 666,478.56 L666,196.1 A2.5,2.5 0 0 1 668.5,193.6" fill="none" style="stroke:#000000;stroke-width:1.5;"/><line style="stroke:#000000;stroke-width:1.5;" x1="666" x2="783.9316" y1="216.0883" y2="216.0883"/><text fill="#000000" font-family="sans-serif" font-size="14" font-weight="bold" lengthAdjust="spacing" textLength="104.9316" x="670" y="209.1352">CartAggregate</text></g><!--cluster OrderAggregate--><g class="cluster" data-entity="OrderAggregate" data-source-line="53" data-uid="ent0027" id="cluster_OrderAggregate"><path d="M8.5,356.95 L125.9229,356.95 A3.75,3.75 0 0 1 128.4229,359.45 L135.4229,379.4383 L441.5,379.4383 A2.5,2.5 0 0 1 444,381.9383 L444,782.05 A2.5,2.5 0 0 1 441.5,784.55 L8.5,784.55 A2.5,2.5 0 0 1 6,782.05 L6,359.45 A2.5,2.5 0 0 1 8.5,356.95" fill="none" style="stroke:#000000;stroke-width:1.5;"/><line style="stroke:#000000;stroke-width:1.5;" x1="6" x2="135.4229" y1="379.4383" y2="379.4383"/><text fill="#000000" font-family="sans-serif" font-size="14" font-weight="bold" lengthAdjust="spacing" textLength="116.4229" x="10" y="372.4852">OrderAggregate</text></g><!--class Money--><g class="entity" data-entity="Money" data-source-line="3" data-uid="ent0003" id="entity_Money"><rect fill="#F1F1F1" height="56.6211" rx="2.5" ry="2.5" style="stroke:#181818;stroke-width:0.5;" width="110.4941" x="483.75" y="711.93"/><ellipse cx="498.75" cy="732.2405" fill="#ADD1B2" rx="11" ry="11" style="stroke:#181818;stroke-width:1;"/><path d="M501.7231,737.8836 Q501.1421,738.1824 500.5029,738.3319 Q499.8638,738.4813 499.1582,738.4813 Q496.6514,738.4813 495.3315,736.8294 Q494.0117,735.1776 494.0117,732.0565 Q494.0117,728.9271 495.3315,727.2752 Q496.6514,725.6234 499.1582,725.6234 Q499.8638,725.6234 500.5112,725.7728 Q501.1587,725.9222 501.7231,726.221 L501.7231,728.9437 Q501.0923,728.3626 500.4988,728.0928 Q499.9053,727.8231 499.2744,727.8231 Q497.9297,727.8231 497.2449,728.8897 Q496.5601,729.9564 496.5601,732.0565 Q496.5601,734.1483 497.2449,735.2149 Q497.9297,736.2816 499.2744,736.2816 Q499.9053,736.2816 500.4988,736.0118 Q501.0923,735.742 501.7231,735.161 Z " fill="#000000"/><text fill="#000000" font-family="sans-serif" font-size="12" font-style="italic" lengthAdjust="spacing" textLength="82.4941" x="510.75" y="728.5316">&#171;ValueObject&#187;</text><text fill="#000000" font-family="sans-serif" font-size="14" lengthAdjust="spacing" textLength="44.4609" x="529.7666" y="744.598">Money</text><line style="stroke:#181818;stroke-width:0.5;" x1="484.75" x2="593.2441" y1="752.5511" y2="752.5511"/><line style="stroke:#181818;stroke-width:0.5;" x1="484.75" x2="593.2441" y1="760.5511" y2="760.5511"/></g><!--class Address--><g class="entity" data-entity="Address" data-source-line="4" data-uid="ent0004" id="entity_Address"><rect fill="#F1F1F1" height="56.6211" rx="2.5" ry="2.5" style="stroke:#181818;stroke-width:0.5;" width="110.4941" x="628.75" y="711.93"/><ellipse cx="643.75" cy="732.2405" fill="#ADD1B2" rx="11" ry="11" style="stroke:#181818;stroke-width:1;"/><path d="M646.7231,737.8836 Q646.1421,738.1824 645.5029,738.3319 Q644.8638,738.4813 644.1582,738.4813 Q641.6514,738.4813 640.3315,736.8294 Q639.0117,735.1776 639.0117,732.0565 Q639.0117,728.9271 640.3315,727.2752 Q641.6514,725.6234 644.1582,725.6234 Q644.8638,725.6234 645.5112,725.7728 Q646.1587,725.9222 646.7231,726.221 L646.7231,728.9437 Q646.0923,728.3626 645.4988,728.0928 Q644.9053,727.8231 644.2744,727.8231 Q642.9297,727.8231 642.2449,728.8897 Q641.5601,729.9564 641.5601,732.0565 Q641.5601,734.1483 642.2449,735.2149 Q642.9297,736.2816 644.2744,736.2816 Q644.9053,736.2816 645.4988,736.0118 Q646.0923,735.742 646.7231,735.161 Z " fill="#000000"/><text fill="#000000" font-family="sans-serif" font-size="12" font-style="italic" lengthAdjust="spacing" textLength="82.4941" x="655.75" y="728.5316">&#171;ValueObject&#187;</text><text fill="#000000" font-family="sans-serif" font-size="14" lengthAdjust="spacing" textLength="55.084" x="669.4551" y="744.598">Address</text><line style="stroke:#181818;stroke-width:0.5;" x1="629.75" x2="738.2441" y1="752.5511" y2="752.5511"/><line style="stroke:#181818;stroke-width:0.5;" x1="629.75" x2="738.2441" y1="760.5511" y2="760.5511"/></g><!--class Email--><g class="entity" data-entity="Email" data-source-line="5" data-uid="ent0005" id="entity_Email"><rect fill="#F1F1F1" height="56.6211" rx="2.5" ry="2.5" style="stroke:#181818;stroke-width:0.5;" width="110.4941" x="773.75" y="711.93"/><ellipse cx="788.75" cy="732.2405" fill="#ADD1B2" rx="11" ry="11" style="stroke:#181818;stroke-width:1;"/><path d="M791.7231,737.8836 Q791.1421,738.1824 790.5029,738.3319 Q789.8638,738.4813 789.1582,738.4813 Q786.6514,738.4813 785.3315,736.8294 Q784.0117,735.1776 784.0117,732.0565 Q784.0117,728.9271 785.3315,727.2752 Q786.6514,725.6234 789.1582,725.6234 Q789.8638,725.6234 790.5112,725.7728 Q791.1587,725.9222 791.7231,726.221 L791.7231,728.9437 Q791.0923,728.3626 790.4988,728.0928 Q789.9053,727.8231 789.2744,727.8231 Q787.9297,727.8231 787.2449,728.8897 Q786.5601,729.9564 786.5601,732.0565 Q786.5601,734.1483 787.2449,735.2149 Q787.9297,736.2816 789.2744,736.2816 Q789.9053,736.2816 790.4988,736.0118 Q791.0923,735.742 791.7231,735.161 Z " fill="#000000"/><text fill="#000000" font-family="sans-serif" font-size="12" font-style="italic" lengthAdjust="spacing" textLength="82.4941" x="800.75" y="728.5316">&#171;ValueObject&#187;</text><text fill="#000000" font-family="sans-serif" font-size="14" lengthAdjust="spacing" textLength="36.4834" x="823.7554" y="744.598">Email</text><line style="stroke:#181818;stroke-width:0.5;" x1="774.75" x2="883.2441" y1="752.5511" y2="752.5511"/><line style="stroke:#181818;stroke-width:0.5;" x1="774.75" x2="883.2441" y1="760.5511" y2="760.5511"/></g><!--class User--><g class="entity" data-entity="User" data-source-line="9" data-uid="ent0007" id="entity_User"><rect fill="#F1F1F1" height="89.5977" rx="2.5" ry="2.5" style="stroke:#181818;stroke-width:0.5;" width="120.6982" x="921.65" y="41"/><ellipse cx="960.6375" cy="61.3105" fill="#ADD1B2" rx="11" ry="11" style="stroke:#181818;stroke-width:1;"/><path d="M963.6107,66.9536 Q963.0296,67.2524 962.3905,67.4019 Q961.7513,67.5513 961.0458,67.5513 Q958.5389,67.5513 957.2191,65.8994 Q955.8993,64.2476 955.8993,61.1265 Q955.8993,57.9971 957.2191,56.3452 Q958.5389,54.6934 961.0458,54.6934 Q961.7513,54.6934 962.3988,54.8428 Q963.0462,54.9922 963.6107,55.291 L963.6107,58.0137 Q962.9798,57.4326 962.3863,57.1628 Q961.7928,56.8931 961.162,56.8931 Q959.8172,56.8931 959.1324,57.9597 Q958.4476,59.0264 958.4476,61.1265 Q958.4476,63.2183 959.1324,64.2849 Q959.8172,65.3516 961.162,65.3516 Q961.7928,65.3516 962.3863,65.0818 Q962.9798,64.812 963.6107,64.231 Z " fill="#000000"/><text fill="#000000" font-family="sans-serif" font-size="12" font-style="italic" lengthAdjust="spacing" textLength="39.3926" x="977.9681" y="57.6016">&#171;Root&#187;</text><text fill="#000000" font-family="sans-serif" font-size="14" lengthAdjust="spacing" textLength="30.3652" x="982.4818" y="73.668">User</text><line style="stroke:#181818;stroke-width:0.5;" x1="922.65" x2="1041.3482" y1="81.6211" y2="81.6211"/><ellipse cx="932.65" cy="95.3652" fill="none" rx="3" ry="3" style="stroke:#038048;stroke-width:1;"/><text fill="#000000" font-family="sans-serif" font-size="14" lengthAdjust="spacing" textLength="84.9775" x="941.65" y="99.1563">userId: UUID</text><ellipse cx="932.65" cy="111.8535" fill="none" rx="3" ry="3" style="stroke:#038048;stroke-width:1;"/><text fill="#000000" font-family="sans-serif" font-size="14" lengthAdjust="spacing" textLength="94.6982" x="941.65" y="115.6445">role: UserRole</text><line style="stroke:#181818;stroke-width:0.5;" x1="922.65" x2="1041.3482" y1="122.5977" y2="122.5977"/></g><!--class UserRole--><g class="entity" data-entity="UserRole" data-source-line="14" data-uid="ent0008" id="entity_UserRole"><rect fill="#F1F1F1" height="56.6211" rx="2.5" ry="2.5" style="stroke:#181818;stroke-width:0.5;" width="110.4941" x="1102.75" y="236.84"/><ellipse cx="1117.75" cy="257.1505" fill="#ADD1B2" rx="11" ry="11" style="stroke:#181818;stroke-width:1;"/><path d="M1120.7231,262.7936 Q1120.1421,263.0924 1119.5029,263.2419 Q1118.8638,263.3913 1118.1582,263.3913 Q1115.6514,263.3913 1114.3315,261.7394 Q1113.0117,260.0876 1113.0117,256.9665 Q1113.0117,253.8371 1114.3315,252.1852 Q1115.6514,250.5334 1118.1582,250.5334 Q1118.8638,250.5334 1119.5112,250.6828 Q1120.1587,250.8322 1120.7231,251.131 L1120.7231,253.8537 Q1120.0923,253.2726 1119.4988,253.0028 Q1118.9053,252.7331 1118.2744,252.7331 Q1116.9297,252.7331 1116.2449,253.7997 Q1115.5601,254.8664 1115.5601,256.9665 Q1115.5601,259.0583 1116.2449,260.1249 Q1116.9297,261.1916 1118.2744,261.1916 Q1118.9053,261.1916 1119.4988,260.9218 Q1120.0923,260.652 1120.7231,260.071 Z " fill="#000000"/><text fill="#000000" font-family="sans-serif" font-size="12" font-style="italic" lengthAdjust="spacing" textLength="82.4941" x="1129.75" y="253.4416">&#171;ValueObject&#187;</text><text fill="#000000" font-family="sans-serif" font-size="14" lengthAdjust="spacing" textLength="59.6641" x="1141.165" y="269.508">UserRole</text><line style="stroke:#181818;stroke-width:0.5;" x1="1103.75" x2="1212.2441" y1="277.4611" y2="277.4611"/><line style="stroke:#181818;stroke-width:0.5;" x1="1103.75" x2="1212.2441" y1="285.4611" y2="285.4611"/></g><!--class Customer--><g class="entity" data-entity="Customer" data-source-line="16" data-uid="ent0009" id="entity_Customer"><rect fill="#F1F1F1" height="89.5977" rx="2.5" ry="2.5" style="stroke:#181818;stroke-width:0.5;" width="145.0547" x="922.47" y="220.36"/><ellipse cx="958.6688" cy="240.6705" fill="#ADD1B2" rx="11" ry="11" style="stroke:#181818;stroke-width:1;"/><path d="M961.6419,246.3136 Q961.0609,246.6124 960.4217,246.7619 Q959.7825,246.9113 959.077,246.9113 Q956.5701,246.9113 955.2503,245.2594 Q953.9305,243.6076 953.9305,240.4865 Q953.9305,237.3571 955.2503,235.7052 Q956.5701,234.0534 959.077,234.0534 Q959.7825,234.0534 960.43,234.2028 Q961.0775,234.3522 961.6419,234.651 L961.6419,237.3737 Q961.0111,236.7926 960.4176,236.5228 Q959.8241,236.2531 959.1932,236.2531 Q957.8485,236.2531 957.1637,237.3197 Q956.4788,238.3864 956.4788,240.4865 Q956.4788,242.5783 957.1637,243.6449 Q957.8485,244.7116 959.1932,244.7116 Q959.8241,244.7116 960.4176,244.4418 Q961.0111,244.172 961.6419,243.591 Z " fill="#000000"/><text fill="#000000" font-family="sans-serif" font-size="12" font-style="italic" lengthAdjust="spacing" textLength="45.2402" x="987.7326" y="236.9616">&#171;Entity&#187;</text><text fill="#000000" font-family="sans-serif" font-size="14" lengthAdjust="spacing" textLength="65.9463" x="977.3796" y="253.028">Customer</text><line style="stroke:#181818;stroke-width:0.5;" x1="923.47" x2="1066.5247" y1="260.9811" y2="260.9811"/><ellipse cx="933.47" cy="274.7252" fill="none" rx="3" ry="3" style="stroke:#038048;stroke-width:1;"/><text fill="#000000" font-family="sans-serif" font-size="14" lengthAdjust="spacing" textLength="119.0547" x="942.47" y="278.5162">customerId: UUID</text><ellipse cx="933.47" cy="291.2135" fill="none" rx="3" ry="3" style="stroke:#038048;stroke-width:1;"/><text fill="#000000" font-family="sans-serif" font-size="14" lengthAdjust="spacing" textLength="48.624" x="942.47" y="295.0045">nif: NIF</text><line style="stroke:#181818;stroke-width:0.5;" x1="923.47" x2="1066.5247" y1="301.9577" y2="301.9577"/></g><!--class NIF--><g class="entity" data-entity="NIF" data-source-line="21" data-uid="ent0010" id="entity_NIF"><rect fill="#F1F1F1" height="56.6211" rx="2.5" ry="2.5" style="stroke:#181818;stroke-width:0.5;" width="110.4941" x="1003.75" y="400.2"/><ellipse cx="1018.75" cy="420.5105" fill="#ADD1B2" rx="11" ry="11" style="stroke:#181818;stroke-width:1;"/><path d="M1021.7231,426.1536 Q1021.1421,426.4524 1020.5029,426.6019 Q1019.8638,426.7513 1019.1582,426.7513 Q1016.6514,426.7513 1015.3315,425.0994 Q1014.0117,423.4476 1014.0117,420.3265 Q1014.0117,417.1971 1015.3315,415.5452 Q1016.6514,413.8934 1019.1582,413.8934 Q1019.8638,413.8934 1020.5112,414.0428 Q1021.1587,414.1922 1021.7231,414.491 L1021.7231,417.2137 Q1021.0923,416.6326 1020.4988,416.3628 Q1019.9053,416.0931 1019.2744,416.0931 Q1017.9297,416.0931 1017.2449,417.1597 Q1016.5601,418.2264 1016.5601,420.3265 Q1016.5601,422.4183 1017.2449,423.4849 Q1017.9297,424.5516 1019.2744,424.5516 Q1019.9053,424.5516 1020.4988,424.2818 Q1021.0923,424.012 1021.7231,423.431 Z " fill="#000000"/><text fill="#000000" font-family="sans-serif" font-size="12" font-style="italic" lengthAdjust="spacing" textLength="82.4941" x="1030.75" y="416.8016">&#171;ValueObject&#187;</text><text fill="#000000" font-family="sans-serif" font-size="14" lengthAdjust="spacing" textLength="21.8818" x="1061.0562" y="432.868">NIF</text><line style="stroke:#181818;stroke-width:0.5;" x1="1004.75" x2="1113.2441" y1="440.8211" y2="440.8211"/><line style="stroke:#181818;stroke-width:0.5;" x1="1004.75" x2="1113.2441" y1="448.8211" y2="448.8211"/></g><!--class Category--><g class="entity" data-entity="Category" data-source-line="31" data-uid="ent0017" id="entity_Category"><rect fill="#F1F1F1" height="56.6211" rx="2.5" ry="2.5" style="stroke:#181818;stroke-width:0.5;" width="92.8262" x="939.59" y="711.93"/><ellipse cx="954.59" cy="732.2405" fill="#ADD1B2" rx="11" ry="11" style="stroke:#181818;stroke-width:1;"/><path d="M957.5631,737.8836 Q956.9821,738.1824 956.3429,738.3319 Q955.7038,738.4813 954.9982,738.4813 Q952.4914,738.4813 951.1715,736.8294 Q949.8517,735.1776 949.8517,732.0565 Q949.8517,728.9271 951.1715,727.2752 Q952.4914,725.6234 954.9982,725.6234 Q955.7038,725.6234 956.3512,725.7728 Q956.9987,725.9222 957.5631,726.221 L957.5631,728.9437 Q956.9323,728.3626 956.3388,728.0928 Q955.7453,727.8231 955.1144,727.8231 Q953.7697,727.8231 953.0849,728.8897 Q952.4001,729.9564 952.4001,732.0565 Q952.4001,734.1483 953.0849,735.2149 Q953.7697,736.2816 955.1144,736.2816 Q955.7453,736.2816 956.3388,736.0118 Q956.9323,735.742 957.5631,735.161 Z " fill="#000000"/><text fill="#000000" font-family="sans-serif" font-size="12" font-style="italic" lengthAdjust="spacing" textLength="39.3926" x="979.3068" y="728.5316">&#171;Root&#187;</text><text fill="#000000" font-family="sans-serif" font-size="14" lengthAdjust="spacing" textLength="60.8262" x="968.59" y="744.598">Category</text><line style="stroke:#181818;stroke-width:0.5;" x1="940.59" x2="1031.4162" y1="752.5511" y2="752.5511"/><line style="stroke:#181818;stroke-width:0.5;" x1="940.59" x2="1031.4162" y1="760.5511" y2="760.5511"/></g><!--class Product--><g class="entity" data-entity="Product" data-source-line="35" data-uid="ent0019" id="entity_Product"><rect fill="#F1F1F1" height="56.6211" rx="2.5" ry="2.5" style="stroke:#181818;stroke-width:0.5;" width="83.9736" x="708.01" y="565.06"/><ellipse cx="723.01" cy="585.3705" fill="#ADD1B2" rx="11" ry="11" style="stroke:#181818;stroke-width:1;"/><path d="M725.9831,591.0136 Q725.4021,591.3124 724.7629,591.4619 Q724.1238,591.6113 723.4182,591.6113 Q720.9114,591.6113 719.5915,589.9594 Q718.2717,588.3076 718.2717,585.1865 Q718.2717,582.0571 719.5915,580.4052 Q720.9114,578.7534 723.4182,578.7534 Q724.1238,578.7534 724.7712,578.9028 Q725.4187,579.0522 725.9831,579.351 L725.9831,582.0737 Q725.3523,581.4926 724.7588,581.2228 Q724.1653,580.9531 723.5344,580.9531 Q722.1897,580.9531 721.5049,582.0197 Q720.8201,583.0864 720.8201,585.1865 Q720.8201,587.2783 721.5049,588.3449 Q722.1897,589.4116 723.5344,589.4116 Q724.1653,589.4116 724.7588,589.1418 Q725.3523,588.872 725.9831,588.291 Z " fill="#000000"/><text fill="#000000" font-family="sans-serif" font-size="12" font-style="italic" lengthAdjust="spacing" textLength="39.3926" x="743.3005" y="581.6616">&#171;Root&#187;</text><text fill="#000000" font-family="sans-serif" font-size="14" lengthAdjust="spacing" textLength="51.9736" x="737.01" y="597.728">Product</text><line style="stroke:#181818;stroke-width:0.5;" x1="709.01" x2="790.9836" y1="605.6811" y2="605.6811"/><line style="stroke:#181818;stroke-width:0.5;" x1="709.01" x2="790.9836" y1="613.6811" y2="613.6811"/></g><!--class Cart--><g class="entity" data-entity="Cart" data-source-line="41" data-uid="ent0023" id="entity_Cart"><rect fill="#F1F1F1" height="73.1094" rx="2.5" ry="2.5" style="stroke:#181818;stroke-width:0.5;" width="110.9775" x="699.51" y="228.6"/><ellipse cx="734.1232" cy="248.9105" fill="#ADD1B2" rx="11" ry="11" style="stroke:#181818;stroke-width:1;"/><path d="M737.0964,254.5536 Q736.5153,254.8524 735.8762,255.0019 Q735.237,255.1513 734.5314,255.1513 Q732.0246,255.1513 730.7048,253.4994 Q729.385,251.8476 729.385,248.7265 Q729.385,245.5971 730.7048,243.9452 Q732.0246,242.2934 734.5314,242.2934 Q735.237,242.2934 735.8845,242.4428 Q736.5319,242.5922 737.0964,242.891 L737.0964,245.6137 Q736.4655,245.0326 735.872,244.7628 Q735.2785,244.4931 734.6476,244.4931 Q733.3029,244.4931 732.6181,245.5597 Q731.9333,246.6264 731.9333,248.7265 Q731.9333,250.8183 732.6181,251.8849 Q733.3029,252.9516 734.6476,252.9516 Q735.2785,252.9516 735.872,252.6818 Q736.4655,252.412 737.0964,251.831 Z " fill="#000000"/><text fill="#000000" font-family="sans-serif" font-size="12" font-style="italic" lengthAdjust="spacing" textLength="39.3926" x="750.4817" y="245.2016">&#171;Root&#187;</text><text fill="#000000" font-family="sans-serif" font-size="14" lengthAdjust="spacing" textLength="28.3828" x="755.9866" y="261.268">Cart</text><line style="stroke:#181818;stroke-width:0.5;" x1="700.51" x2="809.4875" y1="269.2211" y2="269.2211"/><ellipse cx="710.51" cy="282.9652" fill="none" rx="3" ry="3" style="stroke:#038048;stroke-width:1;"/><text fill="#000000" font-family="sans-serif" font-size="14" lengthAdjust="spacing" textLength="84.9775" x="719.51" y="286.7562">userId: UUID</text><line style="stroke:#181818;stroke-width:0.5;" x1="700.51" x2="809.4875" y1="293.7094" y2="293.7094"/></g><!--class CartItem--><g class="entity" data-entity="CartItem" data-source-line="45" data-uid="ent0024" id="entity_CartItem"><rect fill="#F1F1F1" height="73.1094" rx="2.5" ry="2.5" style="stroke:#181818;stroke-width:0.5;" width="134.6709" x="681.66" y="391.95"/><ellipse cx="716.5268" cy="412.2605" fill="#ADD1B2" rx="11" ry="11" style="stroke:#181818;stroke-width:1;"/><path d="M719.4999,417.9036 Q718.9189,418.2024 718.2797,418.3519 Q717.6406,418.5013 716.935,418.5013 Q714.4282,418.5013 713.1083,416.8494 Q711.7885,415.1976 711.7885,412.0765 Q711.7885,408.9471 713.1083,407.2952 Q714.4282,405.6434 716.935,405.6434 Q717.6406,405.6434 718.288,405.7928 Q718.9355,405.9422 719.4999,406.241 L719.4999,408.9637 Q718.8691,408.3826 718.2756,408.1128 Q717.6821,407.8431 717.0512,407.8431 Q715.7065,407.8431 715.0217,408.9097 Q714.3369,409.9764 714.3369,412.0765 Q714.3369,414.1683 715.0217,415.2349 Q715.7065,416.3016 717.0512,416.3016 Q717.6821,416.3016 718.2756,416.0318 Q718.8691,415.762 719.4999,415.181 Z " fill="#000000"/><text fill="#000000" font-family="sans-serif" font-size="12" font-style="italic" lengthAdjust="spacing" textLength="45.2402" x="741.5828" y="408.5516">&#171;Entity&#187;</text><text fill="#000000" font-family="sans-serif" font-size="14" lengthAdjust="spacing" textLength="58.5225" x="734.9416" y="424.618">CartItem</text><line style="stroke:#181818;stroke-width:0.5;" x1="682.66" x2="815.3309" y1="432.5711" y2="432.5711"/><ellipse cx="692.66" cy="446.3152" fill="none" rx="3" ry="3" style="stroke:#038048;stroke-width:1;"/><text fill="#000000" font-family="sans-serif" font-size="14" lengthAdjust="spacing" textLength="108.6709" x="701.66" y="450.1062">productId: UUID</text><line style="stroke:#181818;stroke-width:0.5;" x1="682.66" x2="815.3309" y1="457.0594" y2="457.0594"/></g><!--class Order--><g class="entity" data-entity="Order" data-source-line="54" data-uid="ent0028" id="entity_Order"><rect fill="#F1F1F1" height="73.1094" rx="2.5" ry="2.5" style="stroke:#181818;stroke-width:0.5;" width="110.9775" x="311.51" y="391.95"/><ellipse cx="344.5249" cy="412.2605" fill="#ADD1B2" rx="11" ry="11" style="stroke:#181818;stroke-width:1;"/><path d="M347.4981,417.9036 Q346.917,418.2024 346.2779,418.3519 Q345.6387,418.5013 344.9331,418.5013 Q342.4263,418.5013 341.1065,416.8494 Q339.7867,415.1976 339.7867,412.0765 Q339.7867,408.9471 341.1065,407.2952 Q342.4263,405.6434 344.9331,405.6434 Q345.6387,405.6434 346.2862,405.7928 Q346.9336,405.9422 347.4981,406.241 L347.4981,408.9637 Q346.8672,408.3826 346.2737,408.1128 Q345.6802,407.8431 345.0494,407.8431 Q343.7046,407.8431 343.0198,408.9097 Q342.335,409.9764 342.335,412.0765 Q342.335,414.1683 343.0198,415.2349 Q343.7046,416.3016 345.0494,416.3016 Q345.6802,416.3016 346.2737,416.0318 Q346.8672,415.762 347.4981,415.181 Z " fill="#000000"/><text fill="#000000" font-family="sans-serif" font-size="12" font-style="italic" lengthAdjust="spacing" textLength="39.3926" x="362.3041" y="408.5516">&#171;Root&#187;</text><text fill="#000000" font-family="sans-serif" font-size="14" lengthAdjust="spacing" textLength="38.9443" x="362.5283" y="424.618">Order</text><line style="stroke:#181818;stroke-width:0.5;" x1="312.51" x2="421.4875" y1="432.5711" y2="432.5711"/><ellipse cx="322.51" cy="446.3152" fill="none" rx="3" ry="3" style="stroke:#038048;stroke-width:1;"/><text fill="#000000" font-family="sans-serif" font-size="14" lengthAdjust="spacing" textLength="84.9775" x="331.51" y="450.1062">userId: UUID</text><line style="stroke:#181818;stroke-width:0.5;" x1="312.51" x2="421.4875" y1="457.0594" y2="457.0594"/></g><!--class OrderItem--><g class="entity" data-entity="OrderItem" data-source-line="58" data-uid="ent0029" id="entity_OrderItem"><rect fill="#F1F1F1" height="73.1094" rx="2.5" ry="2.5" style="stroke:#181818;stroke-width:0.5;" width="134.6709" x="293.66" y="556.82"/><ellipse cx="323.7741" cy="577.1305" fill="#ADD1B2" rx="11" ry="11" style="stroke:#181818;stroke-width:1;"/><path d="M326.7473,582.7736 Q326.1662,583.0724 325.527,583.2219 Q324.8879,583.3713 324.1823,583.3713 Q321.6755,583.3713 320.3557,581.7194 Q319.0358,580.0676 319.0358,576.9465 Q319.0358,573.8171 320.3557,572.1652 Q321.6755,570.5134 324.1823,570.5134 Q324.8879,570.5134 325.5353,570.6628 Q326.1828,570.8122 326.7473,571.111 L326.7473,573.8337 Q326.1164,573.2526 325.5229,572.9828 Q324.9294,572.7131 324.2985,572.7131 Q322.9538,572.7131 322.269,573.7797 Q321.5842,574.8464 321.5842,576.9465 Q321.5842,579.0383 322.269,580.1049 Q322.9538,581.1716 324.2985,581.1716 Q324.9294,581.1716 325.5229,580.9018 Q326.1164,580.632 326.7473,580.051 Z " fill="#000000"/><text fill="#000000" font-family="sans-serif" font-size="12" font-style="italic" lengthAdjust="spacing" textLength="45.2402" x="353.0547" y="573.4216">&#171;Entity&#187;</text><text fill="#000000" font-family="sans-serif" font-size="14" lengthAdjust="spacing" textLength="69.084" x="341.1328" y="589.488">OrderItem</text><line style="stroke:#181818;stroke-width:0.5;" x1="294.66" x2="427.3309" y1="597.4411" y2="597.4411"/><ellipse cx="304.66" cy="611.1852" fill="none" rx="3" ry="3" style="stroke:#038048;stroke-width:1;"/><text fill="#000000" font-family="sans-serif" font-size="14" lengthAdjust="spacing" textLength="108.6709" x="313.66" y="614.9762">productId: UUID</text><line style="stroke:#181818;stroke-width:0.5;" x1="294.66" x2="427.3309" y1="621.9294" y2="621.9294"/></g><!--class Payment--><g class="entity" data-entity="Payment" data-source-line="62" data-uid="ent0030" id="entity_Payment"><rect fill="#F1F1F1" height="56.6211" rx="2.5" ry="2.5" style="stroke:#181818;stroke-width:0.5;" width="89.5791" x="169.21" y="565.06"/><ellipse cx="184.21" cy="585.3705" fill="#ADD1B2" rx="11" ry="11" style="stroke:#181818;stroke-width:1;"/><path d="M187.1831,591.0136 Q186.6021,591.3124 185.9629,591.4619 Q185.3238,591.6113 184.6182,591.6113 Q182.1114,591.6113 180.7915,589.9594 Q179.4717,588.3076 179.4717,585.1865 Q179.4717,582.0571 180.7915,580.4052 Q182.1114,578.7534 184.6182,578.7534 Q185.3238,578.7534 185.9712,578.9028 Q186.6187,579.0522 187.1831,579.351 L187.1831,582.0737 Q186.5523,581.4926 185.9588,581.2228 Q185.3653,580.9531 184.7344,580.9531 Q183.3897,580.9531 182.7049,582.0197 Q182.0201,583.0864 182.0201,585.1865 Q182.0201,587.2783 182.7049,588.3449 Q183.3897,589.4116 184.7344,589.4116 Q185.3653,589.4116 185.9588,589.1418 Q186.5523,588.872 187.1831,588.291 Z " fill="#000000"/><text fill="#000000" font-family="sans-serif" font-size="12" font-style="italic" lengthAdjust="spacing" textLength="45.2402" x="204.3794" y="581.6616">&#171;Entity&#187;</text><text fill="#000000" font-family="sans-serif" font-size="14" lengthAdjust="spacing" textLength="57.5791" x="198.21" y="597.728">Payment</text><line style="stroke:#181818;stroke-width:0.5;" x1="170.21" x2="257.7891" y1="605.6811" y2="605.6811"/><line style="stroke:#181818;stroke-width:0.5;" x1="170.21" x2="257.7891" y1="613.6811" y2="613.6811"/></g><!--class OrderStatus--><g class="entity" data-entity="OrderStatus" data-source-line="64" data-uid="ent0031" id="entity_OrderStatus"><rect fill="#F1F1F1" height="56.6211" rx="2.5" ry="2.5" style="stroke:#181818;stroke-width:0.5;" width="112.5137" x="21.74" y="565.06"/><ellipse cx="36.74" cy="585.3705" fill="#EB937F" rx="11" ry="11" style="stroke:#181818;stroke-width:1;"/><path d="M40.8543,591.3705 L33.1345,591.3705 L33.1345,578.9775 L40.8543,578.9775 L40.8543,581.1357 L35.5833,581.1357 L35.5833,583.8085 L40.3562,583.8085 L40.3562,585.9667 L35.5833,585.9667 L35.5833,589.2123 L40.8543,589.2123 Z " fill="#000000"/><text fill="#000000" font-family="sans-serif" font-size="12" font-style="italic" lengthAdjust="spacing" textLength="82.4941" x="49.7498" y="581.6616">&#171;ValueObject&#187;</text><text fill="#000000" font-family="sans-serif" font-size="14" lengthAdjust="spacing" textLength="80.5137" x="50.74" y="597.728">OrderStatus</text><line style="stroke:#181818;stroke-width:0.5;" x1="22.74" x2="133.2537" y1="605.6811" y2="605.6811"/><line style="stroke:#181818;stroke-width:0.5;" x1="22.74" x2="133.2537" y1="613.6811" y2="613.6811"/></g><!--class PaymentStatus--><g class="entity" data-entity="PaymentStatus" data-source-line="65" data-uid="ent0032" id="entity_PaymentStatus"><rect fill="#F1F1F1" height="56.6211" rx="2.5" ry="2.5" style="stroke:#181818;stroke-width:0.5;" width="131.1484" x="148.43" y="711.93"/><ellipse cx="163.43" cy="732.2405" fill="#EB937F" rx="11" ry="11" style="stroke:#181818;stroke-width:1;"/><path d="M167.5443,738.2405 L159.8245,738.2405 L159.8245,725.8475 L167.5443,725.8475 L167.5443,728.0057 L162.2733,728.0057 L162.2733,730.6785 L167.0462,730.6785 L167.0462,732.8367 L162.2733,732.8367 L162.2733,736.0823 L167.5443,736.0823 Z " fill="#000000"/><text fill="#000000" font-family="sans-serif" font-size="12" font-style="italic" lengthAdjust="spacing" textLength="82.4941" x="185.7571" y="728.5316">&#171;ValueObject&#187;</text><text fill="#000000" font-family="sans-serif" font-size="14" lengthAdjust="spacing" textLength="99.1484" x="177.43" y="744.598">PaymentStatus</text><line style="stroke:#181818;stroke-width:0.5;" x1="149.43" x2="278.5784" y1="752.5511" y2="752.5511"/><line style="stroke:#181818;stroke-width:0.5;" x1="149.43" x2="278.5784" y1="760.5511" y2="760.5511"/></g><!--link User to Customer--><g class="link" data-entity-1="User" data-entity-2="Customer" data-source-line="23" data-uid="lnk11" id="link_User_Customer"><path codeLine="23" d="M985.25,131.1 C987.24,158.29 989.3412,186.9961 991.3312,214.1361" fill="none" id="User-to-Customer" style="stroke:#181818;stroke-width:1;"/><polygon fill="#181818" points="991.77,220.12,995.1011,210.8516,991.4044,215.1334,987.1226,211.4366,991.77,220.12" style="stroke:#181818;stroke-width:1;"/><text fill="#000000" font-family="sans-serif" font-size="13" lengthAdjust="spacing" textLength="52.7363" x="989.5" y="174.1684">can be a</text></g><!--link User to Email--><g class="link" data-entity-1="User" data-entity-2="Email" data-source-line="24" data-uid="lnk12" id="link_User_Email"><path codeLine="24" d="M934.08,130.85 C903.28,164.1 869,212.68 869,264.16 C869,264.16 869,264.16 869,594.37 C869,636.38 855.4516,677.2967 843.7116,705.9967" fill="none" id="User-to-Email" style="stroke:#181818;stroke-width:1;"/><polygon fill="#181818" points="841.44,711.55,848.5497,704.7344,843.333,706.9222,841.1452,701.7056,841.44,711.55" style="stroke:#181818;stroke-width:1;"/></g><!--link User to UserRole--><g class="link" data-entity-1="User" data-entity-2="UserRole" data-source-line="25" data-uid="lnk13" id="link_User_UserRole"><path codeLine="25" d="M1029.21,131 C1046.93,147.87 1067.1,167.41 1085,185.6 C1101.33,202.19 1115.0605,216.8726 1128.9905,232.1026" fill="none" id="User-to-UserRole" style="stroke:#181818;stroke-width:1;"/><polygon fill="#181818" points="1133.04,236.53,1129.9174,227.1893,1129.6654,232.8405,1124.0142,232.5886,1133.04,236.53" style="stroke:#181818;stroke-width:1;"/></g><!--link Customer to NIF--><g class="link" data-entity-1="Customer" data-entity-2="NIF" data-source-line="26" data-uid="lnk14" id="link_Customer_NIF"><path codeLine="26" d="M1012.49,310.25 C1023.81,338.8 1036.0085,369.5324 1045.7585,394.1224" fill="none" id="Customer-to-NIF" style="stroke:#181818;stroke-width:1;"/><polygon fill="#181818" points="1047.97,399.7,1048.3711,389.8593,1046.1271,395.052,1040.9343,392.808,1047.97,399.7" style="stroke:#181818;stroke-width:1;"/></g><!--link Customer to Address--><g class="link" data-entity-1="Customer" data-entity-2="Address" data-source-line="27" data-uid="lnk15" id="link_Customer_Address"><path codeLine="27" d="M985.49,310.2 C966.15,389.2 914.7,555.16 808,645.68 C788.7,662.06 776.94,654.7 756,668.93 C738.37,680.91 725.2947,693.0638 712.1447,707.0838" fill="none" id="Customer-to-Address" style="stroke:#181818;stroke-width:1;"/><polygon fill="#181818" points="708.04,711.46,717.1145,707.6321,711.4606,707.8131,711.2795,702.1592,708.04,711.46" style="stroke:#181818;stroke-width:1;"/><text fill="#000000" font-family="sans-serif" font-size="13" lengthAdjust="spacing" textLength="116.3652" x="919.12" y="510.6284">delivery addresses</text><text fill="#000000" font-family="sans-serif" font-size="13" lengthAdjust="spacing" textLength="8.2202" x="975.5223" y="330.5081">1</text><text fill="#000000" font-family="sans-serif" font-size="13" lengthAdjust="spacing" textLength="22.7119" x="688.971" y="701.126">1..*</text></g><!--link Product to Category--><g class="link" data-entity-1="Product" data-entity-2="Category" data-source-line="36" data-uid="lnk20" id="link_Product_Category"><path codeLine="36" d="M792.43,612.38 C823.25,626.19 865.43,646.61 900,668.93 C919.6,681.59 935.3496,694.0677 951.2896,707.8377" fill="none" id="Product-to-Category" style="stroke:#181818;stroke-width:1;"/><polygon fill="#181818" points="955.83,711.76,951.6342,702.8496,952.0463,708.4914,946.4045,708.9035,955.83,711.76" style="stroke:#181818;stroke-width:1;"/><text fill="#000000" font-family="sans-serif" font-size="13" lengthAdjust="spacing" textLength="8.2202" x="799.8478" y="611.8074">1</text><text fill="#000000" font-family="sans-serif" font-size="13" lengthAdjust="spacing" textLength="8.2202" x="939.9529" y="701.0438">1</text></g><!--link Product to Money--><g class="link" data-entity-1="Product" data-entity-2="Money" data-source-line="37" data-uid="lnk21" id="link_Product_Money"><path codeLine="37" d="M717.38,621.96 C706.32,630.38 693.58,639.14 681,645.68 C651.92,660.82 639,651.88 611,668.93 C592.35,680.29 578.775,692.8794 565.645,707.3294" fill="none" id="Product-to-Money" style="stroke:#181818;stroke-width:1;"/><polygon fill="#181818" points="561.61,711.77,570.6229,707.7991,564.9725,708.0695,564.702,702.4191,561.61,711.77" style="stroke:#181818;stroke-width:1;"/><text fill="#000000" font-family="sans-serif" font-size="13" lengthAdjust="spacing" textLength="8.2202" x="701.3942" y="642.4569">1</text><text fill="#000000" font-family="sans-serif" font-size="13" lengthAdjust="spacing" textLength="8.2202" x="557.9397" y="701.0561">1</text></g><!--link Cart to CartItem--><g class="link" data-entity-1="Cart" data-entity-2="CartItem" data-source-line="49" data-uid="lnk25" id="link_Cart_CartItem"><path codeLine="49" d="M753.67,301.97 C752.68,328.61 751.5524,358.8341 750.5624,385.5241" fill="none" id="Cart-to-CartItem" style="stroke:#181818;stroke-width:1;"/><polygon fill="#181818" points="750.34,391.52,754.6709,382.6745,750.5253,386.5234,746.6764,382.3779,750.34,391.52" style="stroke:#181818;stroke-width:1;"/></g><!--link CartItem to Product--><g class="link" data-entity-1="CartItem" data-entity-2="Product" data-source-line="50" data-uid="lnk26" id="link_CartItem_Product"><path codeLine="50" d="M749.22,465.25 C749.4,495.21 749.6228,531.3801 749.7928,558.7901" fill="none" id="CartItem-to-Product" style="stroke:#181818;stroke-width:1;"/><polygon fill="#181818" points="749.83,564.79,753.7741,555.7654,749.799,559.7901,745.7743,555.815,749.83,564.79" style="stroke:#181818;stroke-width:1;"/><text fill="#000000" font-family="sans-serif" font-size="13" lengthAdjust="spacing" textLength="21.874" x="750.5" y="510.6284">has</text><text fill="#000000" font-family="sans-serif" font-size="13" lengthAdjust="spacing" textLength="8.2202" x="740.5671" y="485.7272">1</text><text fill="#000000" font-family="sans-serif" font-size="13" lengthAdjust="spacing" textLength="8.2202" x="740.9426" y="554.4997">1</text></g><!--link Order to OrderItem--><g class="link" data-entity-1="Order" data-entity-2="OrderItem" data-source-line="67" data-uid="lnk33" id="link_Order_OrderItem"><path codeLine="67" d="M365.68,465.25 C364.69,492.31 363.5412,523.3341 362.5412,550.4441" fill="none" id="Order-to-OrderItem" style="stroke:#181818;stroke-width:1;"/><polygon fill="#181818" points="362.32,556.44,366.649,547.5936,362.5043,551.4434,358.6545,547.2987,362.32,556.44" style="stroke:#181818;stroke-width:1;"/></g><!--link Order to Payment--><g class="link" data-entity-1="Order" data-entity-2="Payment" data-source-line="68" data-uid="lnk34" id="link_Order_Payment"><path codeLine="68" d="M330.66,465.55 C313.82,482.5 293.66,503.1 276,522.06 C263.13,535.88 253.1422,547.0868 241.7422,560.1668" fill="none" id="Order-to-Payment" style="stroke:#181818;stroke-width:1;"/><polygon fill="#181818" points="237.8,564.69,246.7288,560.5334,241.0852,560.9207,240.6979,555.2771,237.8,564.69" style="stroke:#181818;stroke-width:1;"/></g><!--link Order to OrderStatus--><g class="link" data-entity-1="Order" data-entity-2="OrderStatus" data-source-line="69" data-uid="lnk35" id="link_Order_OrderStatus"><path codeLine="69" d="M311.3,447.34 C266.22,463.18 202.2,488.94 152,522.06 C133.81,534.07 120.1707,546.4469 106.5907,560.5569" fill="none" id="Order-to-OrderStatus" style="stroke:#181818;stroke-width:1;"/><polygon fill="#181818" points="102.43,564.88,111.553,561.1692,105.8972,561.2775,105.789,555.6216,102.43,564.88" style="stroke:#181818;stroke-width:1;"/></g><!--link Payment to PaymentStatus--><g class="link" data-entity-1="Payment" data-entity-2="PaymentStatus" data-source-line="70" data-uid="lnk36" id="link_Payment_PaymentStatus"><path codeLine="70" d="M214,621.96 C214,647.74 214,680.01 214,705.75" fill="none" id="Payment-to-PaymentStatus" style="stroke:#181818;stroke-width:1;"/><polygon fill="#181818" points="214,711.75,218,702.75,214,706.75,210,702.75,214,711.75" style="stroke:#181818;stroke-width:1;"/></g><!--link Order to Money--><g class="link" data-entity-1="Order" data-entity-2="Money" data-source-line="71" data-uid="lnk37" id="link_Order_Money"><path codeLine="71" d="M402.02,465.34 C416.84,481.73 433.52,501.96 446,522.06 C485.48,585.66 514.0274,663.2596 528.2674,705.8496" fill="none" id="Order-to-Money" style="stroke:#181818;stroke-width:1;"/><polygon fill="#181818" points="530.17,711.54,531.1097,701.7361,528.5845,706.798,523.5226,704.2728,530.17,711.54" style="stroke:#181818;stroke-width:1;"/><text fill="#000000" font-family="sans-serif" font-size="13" lengthAdjust="spacing" textLength="8.2202" x="399.3707" y="485.5552">1</text><text fill="#000000" font-family="sans-serif" font-size="13" lengthAdjust="spacing" textLength="8.2202" x="519.3882" y="701.2235">1</text></g><!--link OrderItem to Money--><g class="link" data-entity-1="OrderItem" data-entity-2="Money" data-source-line="72" data-uid="lnk38" id="link_OrderItem_Money"><path codeLine="72" d="M405,630.18 C435.89,655.32 471.9263,684.6528 500.3363,707.7728" fill="none" id="OrderItem-to-Money" style="stroke:#181818;stroke-width:1;"/><polygon fill="#181818" points="504.99,711.56,500.5342,702.7767,501.1119,708.404,495.4846,708.9817,504.99,711.56" style="stroke:#181818;stroke-width:1;"/><text fill="#000000" font-family="sans-serif" font-size="13" lengthAdjust="spacing" textLength="8.2202" x="403.8947" y="650.39">1</text><text fill="#000000" font-family="sans-serif" font-size="13" lengthAdjust="spacing" textLength="8.2202" x="488.7" y="701.2478">1</text></g><!--link Order to Address--><g class="link" data-entity-1="Order" data-entity-2="Address" data-source-line="73" data-uid="lnk39" id="link_Order_Address"><path codeLine="73" d="M422.98,461.43 C448.7,477.65 478.61,498.83 502,522.06 C549.49,569.23 544.65,594.69 588,645.68 C597.62,657 601.35,658.58 612,668.93 C626.4,682.94 638.1106,694.3546 651.3506,707.3046" fill="none" id="Order-to-Address" style="stroke:#181818;stroke-width:1;"/><polygon fill="#181818" points="655.64,711.5,652.0029,702.3473,652.0655,708.0038,646.409,708.0665,655.64,711.5" style="stroke:#181818;stroke-width:1;"/><text fill="#000000" font-family="sans-serif" font-size="13" lengthAdjust="spacing" textLength="102.4956" x="589" y="598.4384">delivery address</text><text fill="#000000" font-family="sans-serif" font-size="13" lengthAdjust="spacing" textLength="8.2202" x="430.3036" y="462.116">1</text><text fill="#000000" font-family="sans-serif" font-size="13" lengthAdjust="spacing" textLength="8.2202" x="640.586" y="701.1747">1</text></g><!--link User to Cart--><g class="link" data-entity-1="User" data-entity-2="Cart" data-source-line="76" data-uid="lnk40" id="link_User_Cart"><path codeLine="76" d="M921.41,101.5 C885.3,112.76 840.52,131.44 809,160.6 C789.06,179.05 777.3995,200.9777 768.7195,223.0077" fill="none" id="User-to-Cart" style="stroke:#181818;stroke-width:1;"/><polygon fill="#181818" points="766.52,228.59,773.5408,221.6828,768.3529,223.9381,766.0977,218.7502,766.52,228.59" style="stroke:#181818;stroke-width:1;"/><text fill="#000000" font-family="sans-serif" font-size="13" lengthAdjust="spacing" textLength="32.6968" x="810" y="174.1684">owns</text><text fill="#000000" font-family="sans-serif" font-size="13" lengthAdjust="spacing" textLength="8.2202" x="905.5516" y="100.0868">1</text><text fill="#000000" font-family="sans-serif" font-size="13" lengthAdjust="spacing" textLength="24.667" x="742.4923" y="217.7881">0..1</text></g><!--link User to Order--><g class="link" data-entity-1="User" data-entity-2="Order" data-source-line="77" data-uid="lnk41" id="link_User_Order"><path codeLine="77" d="M921.45,94.49 C847.59,105.84 720.75,131.84 625,185.6 C527.83,240.16 442.578,334.3215 398.958,387.2015" fill="none" id="User-to-Order" style="stroke:#181818;stroke-width:1;"/><polygon fill="#181818" points="395.14,391.83,403.9526,387.4326,398.3217,387.9729,397.7813,382.3419,395.14,391.83" style="stroke:#181818;stroke-width:1;"/><text fill="#000000" font-family="sans-serif" font-size="13" lengthAdjust="spacing" textLength="39.6475" x="626" y="270.2284">places</text><text fill="#000000" font-family="sans-serif" font-size="13" lengthAdjust="spacing" textLength="8.2202" x="905.5965" y="109.0506">1</text><text fill="#000000" font-family="sans-serif" font-size="13" lengthAdjust="spacing" textLength="22.7119" x="376.366" y="381.2823">0..*</text></g><!--SRC=[dLJ1JeD04BttAoOSDINsIfecZTQ4WzRKrFiMfeZ2BbaM3J7-kylkicM1JLGk9VFcpPlXpRGYoJl9489RLfQC1l2r0Faa1QbhU60KMrYlNqZHuFxqXedOR0RuDaqvobz_nguaUJ71lnUBokesjM0bycsMSSo8GBU5OurSyW-CIQ910AuR6OxJ28x7-AwFSLPWf0W7-QQYKiWjrI6JTWOvVJSoPqT5BjgXQ6B0iJ3Dpn4ynlTJIHcSLrDZBPURYs042Q5mGY1kWlg2RiWPqHReaBu96mnMWGA2LHXU1TQm258iyW_aBH0TmjfrHHgHCTvwNEbXwun3Vk8iRHBXuHhqGksWFdZfDx0YtWIrdgEskV2spCLl5idnhoF50ilPTQXqItDi9QRiDGLiL5KR3j4F5i4hSJtOyzHx5WhxypYAzPzvZ7EaBP6A0LcZI9jIrtuMH3Jp_mSgoLJmfAayFLdtTMotexWfCfUj2-k5CSqE60DKywRBPB69JoFSmVndrHcgxjQctuIXsctUMSu-QJt5vQ5gZGYgWYJoD7y0]--></g></svg>