<?xml version="1.0" encoding="us-ascii" standalone="no"?><svg xmlns="http://www.w3.org/2000/svg" xmlns:xlink="http://www.w3.org/1999/xlink" contentStyleType="text/css" height="1343px" preserveAspectRatio="none" style="width:807px;height:1343px;background:#FFFFFF;" version="1.1" viewBox="0 0 807 1343" width="807px" zoomAndPan="magnify"><defs/><g><!--cluster TechStore System--><g id="cluster_TechStore System"><rect fill="none" height="1298" rx="2.5" ry="2.5" style="stroke:#181818;stroke-width:1.0;" width="506" x="295" y="7"/><text fill="#000000" font-family="sans-serif" font-size="14" font-weight="bold" lengthAdjust="spacing" textLength="126" x="485" y="23.5332">TechStore System</text></g><g id="elem_UC_Register"><ellipse cx="414.0069" cy="139.9014" fill="#F9F9F9" rx="77.5069" ry="17.9014" style="stroke:#333333;stroke-width:0.5;"/><text fill="#000000" font-family="sans-serif" font-size="14" lengthAdjust="spacing" textLength="108" x="357.8567" y="144.216">Register Account</text></g><g id="elem_UC_Login"><ellipse cx="414.0624" cy="208.9517" fill="#F9F9F9" rx="39.0624" ry="15.4517" style="stroke:#333333;stroke-width:0.5;"/><text fill="#000000" font-family="sans-serif" font-size="14" lengthAdjust="spacing" textLength="39" x="394.5624" y="212.6802">Log In</text></g><g id="elem_UC_Logout"><ellipse cx="414.1317" cy="772.9752" fill="#F9F9F9" rx="47.6317" ry="15.4752" style="stroke:#333333;stroke-width:0.5;"/><text fill="#000000" font-family="sans-serif" font-size="14" lengthAdjust="spacing" textLength="51" x="386.6963" y="777.2447">Log Out</text></g><g id="elem_UC_Reset"><ellipse cx="414.1681" cy="65.2336" fill="#F9F9F9" rx="99.1681" ry="22.2336" style="stroke:#333333;stroke-width:0.5;"/><text fill="#000000" font-family="sans-serif" font-size="14" lengthAdjust="spacing" textLength="159" x="334.6681" y="68.9621">Request Password Reset</text></g><g id="elem_UC_ViewProducts"><ellipse cx="414.0039" cy="488.0008" fill="#F9F9F9" rx="70.5039" ry="16.5008" style="stroke:#333333;stroke-width:0.5;"/><text fill="#000000" font-family="sans-serif" font-size="14" lengthAdjust="spacing" textLength="89" x="366.5039" y="492.5174">View Products</text></g><g id="elem_UC_SearchProducts"><ellipse cx="708.355" cy="488.171" fill="#F9F9F9" rx="76.355" ry="17.671" style="stroke:#333333;stroke-width:0.5;"/><text fill="#000000" font-family="sans-serif" font-size="14" lengthAdjust="spacing" textLength="105" x="653.1233" y="492.6255">Search Products</text></g><g id="elem_UC_CreateProduct"><ellipse cx="414.0109" cy="1065.0022" fill="#F9F9F9" rx="73.0109" ry="17.0022" style="stroke:#333333;stroke-width:0.5;"/><text fill="#000000" font-family="sans-serif" font-size="14" lengthAdjust="spacing" textLength="96" x="363.0109" y="1069.5188">Create Product</text></g><g id="elem_UC_UpdateProduct"><ellipse cx="414.2427" cy="1134.1485" fill="#F9F9F9" rx="73.7427" ry="17.1485" style="stroke:#333333;stroke-width:0.5;"/><text fill="#000000" font-family="sans-serif" font-size="14" lengthAdjust="spacing" textLength="98" x="362.2427" y="1138.6651">Update Product</text></g><g id="elem_UC_ViewCart"><ellipse cx="413.758" cy="347.0364" fill="#F9F9F9" rx="54.258" ry="15.5364" style="stroke:#333333;stroke-width:0.5;"/><text fill="#000000" font-family="sans-serif" font-size="14" lengthAdjust="spacing" textLength="60" x="380.758" y="351.553">View Cart</text></g><g id="elem_UC_AddCart"><ellipse cx="413.9267" cy="416.7853" fill="#F9F9F9" rx="84.4267" ry="19.2853" style="stroke:#333333;stroke-width:0.5;"/><text fill="#000000" font-family="sans-serif" font-size="14" lengthAdjust="spacing" textLength="125" x="351.4267" y="420.5139">Add Product to Cart</text></g><g id="elem_UC_UpdateCart"><ellipse cx="414.2363" cy="557.2473" fill="#F9F9F9" rx="76.7363" ry="17.7473" style="stroke:#333333;stroke-width:0.5;"/><text fill="#000000" font-family="sans-serif" font-size="14" lengthAdjust="spacing" textLength="106" x="358.7006" y="561.6555">Update Cart Item</text></g><g id="elem_UC_RemoveCart"><ellipse cx="414.1901" cy="633.038" fill="#F9F9F9" rx="103.1901" ry="23.038" style="stroke:#333333;stroke-width:0.5;"/><text fill="#000000" font-family="sans-serif" font-size="14" lengthAdjust="spacing" textLength="168" x="330.1901" y="636.7665">Remove Product from Cart</text></g><g id="elem_UC_PlaceOrder"><ellipse cx="414.08" cy="707.1227" fill="#F9F9F9" rx="66.08" ry="15.6227" style="stroke:#333333;stroke-width:0.5;"/><text fill="#000000" font-family="sans-serif" font-size="14" lengthAdjust="spacing" textLength="76" x="373.08" y="711.6393">Place Order</text></g><g id="elem_UC_ViewOrders"><ellipse cx="414.097" cy="278.1194" fill="#F9F9F9" rx="81.097" ry="18.6194" style="stroke:#333333;stroke-width:0.5;"/><text fill="#000000" font-family="sans-serif" font-size="14" lengthAdjust="spacing" textLength="117" x="355.0843" y="281.9982">View Order History</text></g><g id="elem_UC_CarrierOrders"><ellipse cx="413.8974" cy="843.9795" fill="#F9F9F9" rx="90.3974" ry="20.4795" style="stroke:#333333;stroke-width:0.5;"/><text fill="#000000" font-family="sans-serif" font-size="14" lengthAdjust="spacing" textLength="139" x="344.3974" y="847.708">View Assigned Orders</text></g><g id="elem_UC_Pickup"><ellipse cx="414.2239" cy="922.1448" fill="#F9F9F9" rx="98.7239" ry="22.1448" style="stroke:#333333;stroke-width:0.5;"/><text fill="#000000" font-family="sans-serif" font-size="14" lengthAdjust="spacing" textLength="158" x="335.2239" y="925.8733">Mark Order as Picked Up</text></g><g id="elem_UC_Invite"><ellipse cx="414.1908" cy="1202.0728" fill="#F9F9F9" rx="58.6908" ry="15.5728" style="stroke:#333333;stroke-width:0.5;"/><text fill="#000000" font-family="sans-serif" font-size="14" lengthAdjust="spacing" textLength="66" x="378.1908" y="1206.5894">Invite User</text></g><g id="elem_UC_UserRegistration"><ellipse cx="413.896" cy="1270.9792" fill="#F9F9F9" rx="77.896" ry="17.9792" style="stroke:#333333;stroke-width:0.5;"/><text fill="#000000" font-family="sans-serif" font-size="14" lengthAdjust="spacing" textLength="109" x="357.4355" y="1275.2466">User Registration</text></g><g id="elem_UC_Backup"><ellipse cx="413.7859" cy="995.8572" fill="#F9F9F9" rx="72.2859" ry="16.8572" style="stroke:#333333;stroke-width:0.5;"/><text fill="#000000" font-family="sans-serif" font-size="14" lengthAdjust="spacing" textLength="94" x="363.7859" y="1000.3738">Create Backup</text></g><!--entity Anonymous_User--><g id="elem_Anonymous_User"><ellipse cx="188" cy="140.5" fill="#F1F1F1" rx="8" ry="8" style="stroke:#181818;stroke-width:0.5;"/><path d="M188,148.5 L188,175.5 M175,156.5 L201,156.5 M188,175.5 L175,190.5 M188,175.5 L201,190.5 " fill="none" style="stroke:#181818;stroke-width:0.5;"/><text fill="#000000" font-family="sans-serif" font-size="14" lengthAdjust="spacing" textLength="107" x="134.5" y="206.5332">Anonymous User</text></g><!--entity User--><g id="elem_User"><ellipse cx="188" cy="720.5" fill="#F1F1F1" rx="8" ry="8" style="stroke:#181818;stroke-width:0.5;"/><path d="M188,728.5 L188,755.5 M175,736.5 L201,736.5 M188,755.5 L175,770.5 M188,755.5 L201,770.5 " fill="none" style="stroke:#181818;stroke-width:0.5;"/><text fill="#000000" font-family="sans-serif" font-size="14" lengthAdjust="spacing" textLength="120" x="128" y="786.5332">Authenticated User</text></g><!--entity Customer--><g id="elem_Customer"><ellipse cx="36.5" cy="486.5" fill="#F1F1F1" rx="8" ry="8" style="stroke:#181818;stroke-width:0.5;"/><path d="M36.5,494.5 L36.5,521.5 M23.5,502.5 L49.5,502.5 M36.5,521.5 L23.5,536.5 M36.5,521.5 L49.5,536.5 " fill="none" style="stroke:#181818;stroke-width:0.5;"/><text fill="#000000" font-family="sans-serif" font-size="14" lengthAdjust="spacing" textLength="61" x="6" y="552.5332">Customer</text></g><!--entity Carrier--><g id="elem_Carrier"><ellipse cx="36.5" cy="812.5" fill="#F1F1F1" rx="8" ry="8" style="stroke:#181818;stroke-width:0.5;"/><path d="M36.5,820.5 L36.5,847.5 M23.5,828.5 L49.5,828.5 M36.5,847.5 L23.5,862.5 M36.5,847.5 L49.5,862.5 " fill="none" style="stroke:#181818;stroke-width:0.5;"/><text fill="#000000" font-family="sans-serif" font-size="14" lengthAdjust="spacing" textLength="44" x="14.5" y="878.5332">Carrier</text></g><!--entity Manager--><g id="elem_Manager"><ellipse cx="36.5" cy="1034.5" fill="#F1F1F1" rx="8" ry="8" style="stroke:#181818;stroke-width:0.5;"/><path d="M36.5,1042.5 L36.5,1069.5 M23.5,1050.5 L49.5,1050.5 M36.5,1069.5 L23.5,1084.5 M36.5,1069.5 L49.5,1084.5 " fill="none" style="stroke:#181818;stroke-width:0.5;"/><text fill="#000000" font-family="sans-serif" font-size="14" lengthAdjust="spacing" textLength="56" x="8.5" y="1100.5332">Manager</text></g><!--entity InvitedUser--><g id="elem_InvitedUser"><ellipse cx="188" cy="1268.5" fill="#F1F1F1" rx="8" ry="8" style="stroke:#181818;stroke-width:0.5;"/><path d="M188,1276.5 L188,1303.5 M175,1284.5 L201,1284.5 M188,1303.5 L175,1318.5 M188,1303.5 L201,1318.5 " fill="none" style="stroke:#181818;stroke-width:0.5;"/><text fill="#000000" font-family="sans-serif" font-size="14" lengthAdjust="spacing" textLength="74" x="151" y="1334.5332">Invited User</text></g><!--link Customer to User--><g id="link_Customer_User"><path d="M44.46,556.14 C52.41,592.35 68.2,646.26 97,685 C105.44,696.35 102.1838,695.5335 113.5238,704.3735 " fill="none" id="Customer-to-User" style="stroke:#181818;stroke-width:1.0;"/><polygon fill="none" points="127.72,715.44,117.2126,699.6414,109.835,709.1055,127.72,715.44" style="stroke:#181818;stroke-width:1.0;"/></g><!--link Carrier to User--><g id="link_Carrier_User"><path d="M58.6,830.01 C76.63,818.92 88.1317,811.8462 112.6117,796.7762 " fill="none" id="Carrier-to-User" style="stroke:#181818;stroke-width:1.0;"/><polygon fill="none" points="127.94,787.34,109.4663,791.6668,115.7571,801.8856,127.94,787.34" style="stroke:#181818;stroke-width:1.0;"/></g><!--link Manager to User--><g id="link_Manager_User"><path d="M56.13,1025.87 C84.86,965.53 131.9019,866.7218 160.6319,806.3818 " fill="none" id="Manager-to-User" style="stroke:#181818;stroke-width:1.0;"/><polygon fill="none" points="168.37,790.13,155.2146,803.8025,166.0492,808.9612,168.37,790.13" style="stroke:#181818;stroke-width:1.0;"/></g><!--link Anonymous_User to UC_Register--><g id="link_Anonymous_User_UC_Register"><path d="M241.52,163.73 C272.94,159.38 307.2167,154.6428 340.8067,149.9928 " fill="none" id="Anonymous_User-to-UC_Register" style="stroke:#181818;stroke-width:1.0;"/><polygon fill="#181818" points="346.75,149.17,337.2865,146.4419,341.7972,149.8556,338.3835,154.3664,346.75,149.17" style="stroke:#181818;stroke-width:1.0;"/></g><!--link Anonymous_User to UC_Login--><g id="link_Anonymous_User_UC_Login"><path d="M241.52,179.91 C283.54,187.04 335.3946,195.836 371.9846,202.046 " fill="none" id="Anonymous_User-to-UC_Login" style="stroke:#181818;stroke-width:1.0;"/><polygon fill="#181818" points="377.9,203.05,369.6962,197.6005,372.9705,202.2134,368.3576,205.4877,377.9,203.05" style="stroke:#181818;stroke-width:1.0;"/></g><!--link Anonymous_User to UC_Reset--><g id="link_Anonymous_User_UC_Reset"><path d="M239.88,131.98 C254.55,121.92 270.95,111.75 287,104 C305.87,94.89 321.596,89.0439 341.406,83.0639 " fill="none" id="Anonymous_User-to-UC_Reset" style="stroke:#181818;stroke-width:1.0;"/><polygon fill="#181818" points="347.15,81.33,337.3781,80.1016,342.3633,82.7749,339.69,87.7602,347.15,81.33" style="stroke:#181818;stroke-width:1.0;"/></g><!--link User to UC_Logout--><g id="link_User_UC_Logout"><path d="M248.15,756.81 C285.74,760.5 327.6588,764.6128 362.1288,768.0028 " fill="none" id="User-to-UC_Logout" style="stroke:#181818;stroke-width:1.0;"/><polygon fill="#181818" points="368.1,768.59,359.5347,763.7283,363.124,768.1006,358.7517,771.6899,368.1,768.59" style="stroke:#181818;stroke-width:1.0;"/></g><!--reverse link UC_ViewProducts to UC_SearchProducts--><g id="link_UC_ViewProducts_UC_SearchProducts"><path d="M490.69,488 C535.05,488 586.49,488 631.94,488 " fill="none" id="UC_ViewProducts-backto-UC_SearchProducts" style="stroke:#181818;stroke-width:1.0;stroke-dasharray:7.0,7.0;"/><polygon fill="#181818" points="484.69,488,493.69,492,489.69,488,493.69,484,484.69,488" style="stroke:#181818;stroke-width:1.0;"/><text fill="#000000" font-family="sans-serif" font-size="13" lengthAdjust="spacing" textLength="53" x="548" y="484.4951">&#171;extend&#187;</text></g><!--link Anonymous_User to UC_ViewProducts--><g id="link_Anonymous_User_UC_ViewProducts"><path d="M191.29,210.08 C197.02,271.1 217.03,388.75 287,454 C303.32,469.22 319.8826,476.4599 341.2826,481.2099 " fill="none" id="Anonymous_User-to-UC_ViewProducts" style="stroke:#181818;stroke-width:1.0;"/><polygon fill="#181818" points="347.14,482.51,339.2206,476.6548,342.2588,481.4266,337.4871,484.4648,347.14,482.51" style="stroke:#181818;stroke-width:1.0;"/></g><!--link User to UC_ViewProducts--><g id="link_User_UC_ViewProducts"><path d="M195.06,711.63 C205.04,660.41 229.86,571.62 287,522 C303.94,507.29 320.7642,500.1877 342.2142,495.3977 " fill="none" id="User-to-UC_ViewProducts" style="stroke:#181818;stroke-width:1.0;"/><polygon fill="#181818" points="348.07,494.09,338.4146,492.1476,343.1902,495.1797,340.1581,499.9553,348.07,494.09" style="stroke:#181818;stroke-width:1.0;"/></g><!--link Manager to UC_CreateProduct--><g id="link_Manager_UC_CreateProduct"><path d="M64.51,1065 C121.68,1065 250.6,1065 334.79,1065 " fill="none" id="Manager-to-UC_CreateProduct" style="stroke:#181818;stroke-width:1.0;"/><polygon fill="#181818" points="340.79,1065,331.79,1061,335.79,1065,331.79,1069,340.79,1065" style="stroke:#181818;stroke-width:1.0;"/></g><!--link Manager to UC_UpdateProduct--><g id="link_Manager_UC_UpdateProduct"><path d="M64.51,1069.96 C125.21,1081.12 267.6588,1107.2955 349.8788,1122.4055 " fill="none" id="Manager-to-UC_UpdateProduct" style="stroke:#181818;stroke-width:1.0;"/><polygon fill="#181818" points="355.78,1123.49,347.6512,1117.9291,350.8624,1122.5863,346.2052,1125.7974,355.78,1123.49" style="stroke:#181818;stroke-width:1.0;"/></g><!--link Customer to UC_ViewCart--><g id="link_Customer_UC_ViewCart"><path d="M67.17,491.39 C84.23,477.45 106.49,460.54 128,448 C194.4,409.29 214.29,404.92 287,380 C314.38,370.62 340.0452,363.7684 364.7052,357.8584 " fill="none" id="Customer-to-UC_ViewCart" style="stroke:#181818;stroke-width:1.0;"/><polygon fill="#181818" points="370.54,356.46,360.8556,354.6677,365.6777,357.6253,362.7201,362.4474,370.54,356.46" style="stroke:#181818;stroke-width:1.0;"/></g><!--link Customer to UC_AddCart--><g id="link_Customer_UC_AddCart"><path d="M67.06,507.19 C76.58,504.13 87.2,500.82 97,498 C186.26,472.33 285.0081,447.7203 348.6481,432.3303 " fill="none" id="Customer-to-UC_AddCart" style="stroke:#181818;stroke-width:1.0;"/><polygon fill="#181818" points="354.48,430.92,344.7919,429.1476,349.6201,432.0953,346.6724,436.9234,354.48,430.92" style="stroke:#181818;stroke-width:1.0;"/></g><!--link Customer to UC_UpdateCart--><g id="link_Customer_UC_UpdateCart"><path d="M67.28,520.17 C126.78,526.51 255.7438,540.2444 338.3438,549.0444 " fill="none" id="Customer-to-UC_UpdateCart" style="stroke:#181818;stroke-width:1.0;"/><polygon fill="#181818" points="344.31,549.68,335.7844,544.7491,339.3381,549.1503,334.9369,552.704,344.31,549.68" style="stroke:#181818;stroke-width:1.0;"/></g><!--link Customer to UC_RemoveCart--><g id="link_Customer_UC_RemoveCart"><path d="M67.16,527.49 C84.78,533.65 107.6,541.47 128,548 C203.97,572.33 286.2858,596.5845 344.1858,613.3145 " fill="none" id="Customer-to-UC_RemoveCart" style="stroke:#181818;stroke-width:1.0;"/><polygon fill="#181818" points="349.95,614.98,342.4141,608.6389,345.1465,613.592,340.1933,616.3245,349.95,614.98" style="stroke:#181818;stroke-width:1.0;"/></g><!--link Customer to UC_PlaceOrder--><g id="link_Customer_UC_PlaceOrder"><path d="M67.11,544.89 C84.15,560.15 106.41,578.78 128,593 C194.07,636.51 213.1,644.77 287,673 C312.19,682.62 335.3524,689.2118 359.1824,695.0518 " fill="none" id="Customer-to-UC_PlaceOrder" style="stroke:#181818;stroke-width:1.0;"/><polygon fill="#181818" points="365.01,696.48,357.2208,690.4527,360.1537,695.2899,355.3166,698.2228,365.01,696.48" style="stroke:#181818;stroke-width:1.0;"/></g><!--link Customer to UC_ViewOrders--><g id="link_Customer_UC_ViewOrders"><path d="M59.92,477.83 C76.26,451.87 100.31,418.41 128,395 C194.78,338.54 286.6963,307.9537 348.6063,292.1537 " fill="none" id="Customer-to-UC_ViewOrders" style="stroke:#181818;stroke-width:1.0;"/><polygon fill="#181818" points="354.42,290.67,344.7104,289.0198,349.5753,291.9064,346.6886,296.7713,354.42,290.67" style="stroke:#181818;stroke-width:1.0;"/></g><!--link Carrier to UC_CarrierOrders--><g id="link_Carrier_UC_CarrierOrders"><path d="M58.76,843.06 C108.72,843.19 229.95,843.5142 317.5,843.7442 " fill="none" id="Carrier-to-UC_CarrierOrders" style="stroke:#181818;stroke-width:1.0;"/><polygon fill="#181818" points="323.5,843.76,314.5105,839.7364,318.5,843.7469,314.4895,847.7363,323.5,843.76" style="stroke:#181818;stroke-width:1.0;"/></g><!--link Carrier to UC_Pickup--><g id="link_Carrier_UC_Pickup"><path d="M58.76,847.47 C112.29,858.73 248.6485,887.4249 335.7385,905.7449 " fill="none" id="Carrier-to-UC_Pickup" style="stroke:#181818;stroke-width:1.0;"/><polygon fill="#181818" points="341.61,906.98,333.6262,901.213,336.7171,905.9507,331.9793,909.0417,341.61,906.98" style="stroke:#181818;stroke-width:1.0;"/></g><!--link Manager to UC_Invite--><g id="link_Manager_UC_Invite"><path d="M64.74,1080.42 C82.46,1090.13 106.23,1102.57 128,1112 C211.32,1148.1 308.1006,1175.3996 364.6706,1190.0096 " fill="none" id="Manager-to-UC_Invite" style="stroke:#181818;stroke-width:1.0;"/><polygon fill="#181818" points="370.48,1191.51,362.7662,1185.3865,365.6388,1190.2597,360.7657,1193.1324,370.48,1191.51" style="stroke:#181818;stroke-width:1.0;"/></g><!--link InvitedUser to UC_UserRegistration--><g id="link_InvitedUser_UC_UserRegistration"><path d="M225.49,1294.44 C257.72,1290.41 299.6163,1285.1738 338.9163,1280.2638 " fill="none" id="InvitedUser-to-UC_UserRegistration" style="stroke:#181818;stroke-width:1.0;"/><polygon fill="#181818" points="344.87,1279.52,335.4435,1276.6666,339.9086,1280.1399,336.4353,1284.6049,344.87,1279.52" style="stroke:#181818;stroke-width:1.0;"/></g><!--link Manager to UC_Backup--><g id="link_Manager_UC_Backup"><path d="M64.76,1051.2 C74.69,1046.68 86.15,1042.05 97,1039 C179.76,1015.77 272.3774,1005.3571 337.1674,1000.4071 " fill="none" id="Manager-to-UC_Backup" style="stroke:#181818;stroke-width:1.0;"/><polygon fill="#181818" points="343.15,999.95,333.8714,996.6472,338.1645,1000.3309,334.4809,1004.624,343.15,999.95" style="stroke:#181818;stroke-width:1.0;"/></g><!--SRC=[TLLDRzim3BthLn3P8TwXlUIqeJ2G1XXMO4M3PDsr46JM4H9BcIGt2xR-zr6MfSfsWbpCnwV73r7C0LyTE0r6rZi7bJGedDIAsRrKHsvu0qSkzhp6hJiV4BoRg_g0B6Eq5WMt27yPm3snQwDRLQtqGHluzEsB_tcFDXMQ7bqi5koTCIuSMREbqkhSwDR2iqKp0suXGIyUIiJMxL0vARZ3weESKLQjTRhvCBanCbcFN54bIUr1lSc1JWzqSYmgmStDlpA4wDKof5VC49PQ1BEVA7PR2eMmFLk7pOnQnEQGLU5RNMombkGsi1I2EkS-TpMjNYBEYX-wfkGYJfPK0NngNORgrdcrtorQ1sjkxObw3Xkqc6cImTYmlPH-EGXusHtYNZlQwOxeFY4gU6rqrGe7zqQVh5GrAtv9F4NOnjmy635MR94RiPkG0fneR7GExcvlfpJu2dTt-CUXgihoMlM3y5STMJdXyXkwIbQi3D9CHbTCDg0zo8hdOtM15D18oaQgd4gCdAEZSp_lhk-k_ymx6rpBgahvqxFFIUGAd3vDRy03ZUqmqS3POAFVKYdmQdGp40l-Zfk_f7AGpTWHCnZZMU2nAuypXoU_OcXsrWSkC5WneGxgaBu_tJTyfu7NvfmtgXUPXCeKBbKKZytJqWbnbjRAMj6Q2OGq6e4KCtxaPj-dHFwr57k_c8ufUmBQ8yisK3aL6JdZcNdOQzsoeKXXoNNBAge7Y2xU3trO0gQZfvidHuvFfhHNo1Pekhl9qNc_3TEZyVyPRIerM9C84Nvd_m40]--></g></svg>