<?xml version="1.0" encoding="us-ascii" standalone="no"?><svg xmlns="http://www.w3.org/2000/svg" xmlns:xlink="http://www.w3.org/1999/xlink" contentStyleType="text/css" height="1313px" preserveAspectRatio="none" style="width:852px;height:1313px;background:#FFFFFF;" version="1.1" viewBox="0 0 852 1313" width="852px" zoomAndPan="magnify"><defs/><g><!--cluster TechStore System--><g id="cluster_TechStore System"><rect fill="none" height="1300" rx="2.5" ry="2.5" style="stroke:#181818;stroke-width:1.0;" width="520.11" x="326" y="7"/><text fill="#000000" font-family="sans-serif" font-size="14" font-weight="bold" lengthAdjust="spacing" textLength="128" x="522.055" y="22.5352">TechStore System</text></g><g id="elem_UC_Register"><ellipse cx="449.9359" cy="275.9952" fill="#F9F9F9" rx="79.1259" ry="18.2252" style="stroke:#333333;stroke-width:0.5;"/><text fill="#000000" font-family="sans-serif" font-size="14" lengthAdjust="spacing" textLength="116" x="391.9359" y="279.2862">Register Account</text></g><g id="elem_UC_Login"><ellipse cx="449.9438" cy="127.999" fill="#F9F9F9" rx="41.1838" ry="14.659" style="stroke:#333333;stroke-width:0.5;"/><text fill="#000000" font-family="sans-serif" font-size="14" lengthAdjust="spacing" textLength="42" x="428.9438" y="131.29">Log In</text></g><g id="elem_UC_Logout"><ellipse cx="449.9367" cy="846.0009" fill="#F9F9F9" rx="49.7967" ry="14.6909" style="stroke:#333333;stroke-width:0.5;"/><text fill="#000000" font-family="sans-serif" font-size="14" lengthAdjust="spacing" textLength="54" x="420.494" y="849.9022">Log Out</text></g><g id="elem_UC_Reset"><ellipse cx="449.9389" cy="199.9958" fill="#F9F9F9" rx="100.6289" ry="22.5258" style="stroke:#333333;stroke-width:0.5;"/><text fill="#000000" font-family="sans-serif" font-size="14" lengthAdjust="spacing" textLength="165" x="367.4389" y="203.2868">Request Password Reset</text></g><g id="elem_UC_ViewProducts"><ellipse cx="449.9377" cy="486.0035" fill="#F9F9F9" rx="70.9677" ry="16.5935" style="stroke:#333333;stroke-width:0.5;"/><text fill="#000000" font-family="sans-serif" font-size="14" lengthAdjust="spacing" textLength="96" x="400.656" y="489.6304">View Products</text></g><g id="elem_UC_SearchProducts"><ellipse cx="753.4916" cy="486.0043" fill="#F9F9F9" rx="76.6216" ry="17.7243" style="stroke:#333333;stroke-width:0.5;"/><text fill="#000000" font-family="sans-serif" font-size="14" lengthAdjust="spacing" textLength="110" x="698.4916" y="489.2953">Search Products</text></g><g id="elem_UC_CreateProduct"><ellipse cx="449.9433" cy="1273.9987" fill="#F9F9F9" rx="73.3433" ry="17.0687" style="stroke:#333333;stroke-width:0.5;"/><text fill="#000000" font-family="sans-serif" font-size="14" lengthAdjust="spacing" textLength="102" x="398.8256" y="1277.3222">Create Product</text></g><g id="elem_UC_UpdateProduct"><ellipse cx="449.9432" cy="1071.0046" fill="#F9F9F9" rx="74.9732" ry="17.3946" style="stroke:#333333;stroke-width:0.5;"/><text fill="#000000" font-family="sans-serif" font-size="14" lengthAdjust="spacing" textLength="106" x="396.9432" y="1074.2957">Update Product</text></g><g id="elem_UC_ViewCart"><ellipse cx="449.9415" cy="551.9984" fill="#F9F9F9" rx="57.9115" ry="14.7584" style="stroke:#333333;stroke-width:0.5;"/><text fill="#000000" font-family="sans-serif" font-size="14" lengthAdjust="spacing" textLength="65" x="414.4415" y="556.016">View Cart</text></g><g id="elem_UC_AddCart"><ellipse cx="449.9362" cy="622.0012" fill="#F9F9F9" rx="87.7062" ry="19.9412" style="stroke:#333333;stroke-width:0.5;"/><text fill="#000000" font-family="sans-serif" font-size="14" lengthAdjust="spacing" textLength="136" x="381.9362" y="625.2923">Add Product to Cart</text></g><g id="elem_UC_UpdateCart"><ellipse cx="449.9359" cy="694.9952" fill="#F9F9F9" rx="79.1259" ry="18.2252" style="stroke:#333333;stroke-width:0.5;"/><text fill="#000000" font-family="sans-serif" font-size="14" lengthAdjust="spacing" textLength="116" x="391.9359" y="698.2862">Update Cart Item</text></g><g id="elem_UC_RemoveCart"><ellipse cx="449.9352" cy="771.997" fill="#F9F9F9" rx="107.9352" ry="23.987" style="stroke:#333333;stroke-width:0.5;"/><text fill="#000000" font-family="sans-serif" font-size="14" lengthAdjust="spacing" textLength="181" x="359.4352" y="775.2881">Remove Product from Cart</text></g><g id="elem_UC_PlaceOrder"><ellipse cx="449.9407" cy="344.9981" fill="#F9F9F9" rx="64.7907" ry="15.3581" style="stroke:#333333;stroke-width:0.5;"/><text fill="#000000" font-family="sans-serif" font-size="14" lengthAdjust="spacing" textLength="79" x="407.4407" y="349.0157">Place Order</text></g><g id="elem_UC_ViewOrders"><ellipse cx="449.9351" cy="414.997" fill="#F9F9F9" rx="84.2351" ry="19.247" style="stroke:#333333;stroke-width:0.5;"/><text fill="#000000" font-family="sans-serif" font-size="14" lengthAdjust="spacing" textLength="128" x="385.9351" y="418.288">View Order History</text></g><g id="elem_UC_CarrierOrders"><ellipse cx="449.9353" cy="996.9971" fill="#F9F9F9" rx="93.8853" ry="21.1771" style="stroke:#333333;stroke-width:0.5;"/><text fill="#000000" font-family="sans-serif" font-size="14" lengthAdjust="spacing" textLength="150" x="374.9353" y="1000.2881">View Assigned Orders</text></g><g id="elem_UC_Pickup"><ellipse cx="449.9406" cy="917.9981" fill="#F9F9F9" rx="101.9906" ry="22.7981" style="stroke:#333333;stroke-width:0.5;"/><text fill="#000000" font-family="sans-serif" font-size="14" lengthAdjust="spacing" textLength="168" x="365.9406" y="921.2891">Mark Order as Picked Up</text></g><g id="elem_UC_Invite"><ellipse cx="449.9377" cy="1137.9975" fill="#F9F9F9" rx="62.4377" ry="14.8875" style="stroke:#333333;stroke-width:0.5;"/><text fill="#000000" font-family="sans-serif" font-size="14" lengthAdjust="spacing" textLength="72" x="410.9377" y="1142.0151">Invite User</text></g><g id="elem_UC_UserRegistration"><ellipse cx="449.9385" cy="60.0037" fill="#F9F9F9" rx="79.9685" ry="18.3937" style="stroke:#333333;stroke-width:0.5;"/><text fill="#000000" font-family="sans-serif" font-size="14" lengthAdjust="spacing" textLength="118" x="390.9385" y="63.2947">User Registration</text></g><g id="elem_UC_Backup"><ellipse cx="449.9383" cy="1204.9997" fill="#F9F9F9" rx="71.7483" ry="16.7497" style="stroke:#333333;stroke-width:0.5;"/><text fill="#000000" font-family="sans-serif" font-size="14" lengthAdjust="spacing" textLength="98" x="400.0533" y="1208.5268">Create Backup</text></g><!--entity Anonymous_User--><g id="elem_Anonymous_User"><ellipse cx="213.5" cy="170.26" fill="#F1F1F1" rx="8" ry="8" style="stroke:#181818;stroke-width:0.5;"/><path d="M213.5,178.26 L213.5,205.26 M200.5,186.26 L226.5,186.26 M213.5,205.26 L200.5,220.26 M213.5,205.26 L226.5,220.26 " fill="none" style="stroke:#181818;stroke-width:0.5;"/><text fill="#000000" font-family="sans-serif" font-size="14" lengthAdjust="spacing" textLength="117" x="155" y="235.2952">Anonymous User</text></g><!--entity User--><g id="elem_User"><ellipse cx="213.5" cy="797.26" fill="#F1F1F1" rx="8" ry="8" style="stroke:#181818;stroke-width:0.5;"/><path d="M213.5,805.26 L213.5,832.26 M200.5,813.26 L226.5,813.26 M213.5,832.26 L200.5,847.26 M213.5,832.26 L226.5,847.26 " fill="none" style="stroke:#181818;stroke-width:0.5;"/><text fill="#000000" font-family="sans-serif" font-size="14" lengthAdjust="spacing" textLength="131" x="148" y="862.2952">Authenticated User</text></g><!--entity Customer--><g id="elem_Customer"><ellipse cx="46.5" cy="558.26" fill="#F1F1F1" rx="8" ry="8" style="stroke:#181818;stroke-width:0.5;"/><path d="M46.5,566.26 L46.5,593.26 M33.5,574.26 L59.5,574.26 M46.5,593.26 L33.5,608.26 M46.5,593.26 L59.5,608.26 " fill="none" style="stroke:#181818;stroke-width:0.5;"/><text fill="#000000" font-family="sans-serif" font-size="14" lengthAdjust="spacing" textLength="67" x="13" y="623.2952">Customer</text></g><!--entity Carrier--><g id="elem_Carrier"><ellipse cx="46.5" cy="885.26" fill="#F1F1F1" rx="8" ry="8" style="stroke:#181818;stroke-width:0.5;"/><path d="M46.5,893.26 L46.5,920.26 M33.5,901.26 L59.5,901.26 M46.5,920.26 L33.5,935.26 M46.5,920.26 L59.5,935.26 " fill="none" style="stroke:#181818;stroke-width:0.5;"/><text fill="#000000" font-family="sans-serif" font-size="14" lengthAdjust="spacing" textLength="48" x="22.5" y="950.2952">Carrier</text></g><!--entity Manager--><g id="elem_Manager"><ellipse cx="46.5" cy="1109.26" fill="#F1F1F1" rx="8" ry="8" style="stroke:#181818;stroke-width:0.5;"/><path d="M46.5,1117.26 L46.5,1144.26 M33.5,1125.26 L59.5,1125.26 M46.5,1144.26 L33.5,1159.26 M46.5,1144.26 L59.5,1159.26 " fill="none" style="stroke:#181818;stroke-width:0.5;"/><text fill="#000000" font-family="sans-serif" font-size="14" lengthAdjust="spacing" textLength="60" x="16.5" y="1174.2952">Manager</text></g><!--entity InvitedUser--><g id="elem_InvitedUser"><ellipse cx="46.5" cy="104.26" fill="#F1F1F1" rx="8" ry="8" style="stroke:#181818;stroke-width:0.5;"/><path d="M46.5,112.26 L46.5,139.26 M33.5,120.26 L59.5,120.26 M46.5,139.26 L33.5,154.26 M46.5,139.26 L59.5,154.26 " fill="none" style="stroke:#181818;stroke-width:0.5;"/><text fill="#000000" font-family="sans-serif" font-size="14" lengthAdjust="spacing" textLength="81" x="6" y="169.2952">Invited User</text></g><!--link Customer to User--><g id="link_Customer_User"><path d="M55.92,626.64 C65.65,664.32 84.62,721.67 117,762 C125.66,772.79 122.136,771.7759 133.476,780.1759 " fill="none" id="Customer-to-User" style="stroke:#181818;stroke-width:1.0;"/><polygon fill="none" points="147.94,790.89,137.0473,775.3546,129.9046,784.9972,147.94,790.89" style="stroke:#181818;stroke-width:1.0;"/></g><!--link Carrier to User--><g id="link_Carrier_User"><path d="M70.79,902.58 C90.78,891.92 104.688,884.5012 131.798,870.0412 " fill="none" id="Carrier-to-User" style="stroke:#181818;stroke-width:1.0;"/><polygon fill="none" points="147.68,861.57,128.9742,864.7472,134.6217,875.3352,147.68,861.57" style="stroke:#181818;stroke-width:1.0;"/></g><!--link Manager to User--><g id="link_Manager_User"><path d="M67.9,1100.43 C99.63,1040.43 152.0359,941.3424 183.7359,881.3924 " fill="none" id="Manager-to-User" style="stroke:#181818;stroke-width:1.0;"/><polygon fill="none" points="192.15,865.48,178.4318,878.5877,189.0401,884.1971,192.15,865.48" style="stroke:#181818;stroke-width:1.0;"/></g><!--link InvitedUser to Anonymous_User--><g id="link_InvitedUser_Anonymous_User"><path d="M87.44,149.98 C107.57,158.03 115.6269,161.2563 137.8069,170.1263 " fill="none" id="InvitedUser-to-Anonymous_User" style="stroke:#181818;stroke-width:1.0;"/><polygon fill="none" points="154.52,176.81,140.0348,164.5552,135.579,175.6973,154.52,176.81" style="stroke:#181818;stroke-width:1.0;"/></g><!--link Anonymous_User to UC_Register--><g id="link_Anonymous_User_UC_Register"><path d="M272.43,223.56 C287.18,229.24 303.09,235.08 318,240 C343.08,248.27 365.4699,254.654 389.2599,260.954 " fill="none" id="Anonymous_User-to-UC_Register" style="stroke:#181818;stroke-width:1.0;"/><polygon fill="#181818" points="395.06,262.49,387.3839,256.3193,390.2266,261.21,385.3359,264.0528,395.06,262.49" style="stroke:#181818;stroke-width:1.0;"/></g><!--link Anonymous_User to UC_Login--><g id="link_Anonymous_User_UC_Login"><path d="M272.33,176.14 C287.09,170.47 303.02,164.7 318,160 C349.93,149.98 381.1797,142.4573 407.7197,136.6273 " fill="none" id="Anonymous_User-to-UC_Login" style="stroke:#181818;stroke-width:1.0;"/><polygon fill="#181818" points="413.58,135.34,403.9314,133.3641,408.6964,136.4128,405.6478,141.1778,413.58,135.34" style="stroke:#181818;stroke-width:1.0;"/></g><!--link Anonymous_User to UC_Reset--><g id="link_Anonymous_User_UC_Reset"><path d="M272.45,200 C295.64,200 317.02,200 343.21,200 " fill="none" id="Anonymous_User-to-UC_Reset" style="stroke:#181818;stroke-width:1.0;"/><polygon fill="#181818" points="349.21,200,340.21,196,344.21,200,340.21,204,349.21,200" style="stroke:#181818;stroke-width:1.0;"/></g><!--link User to UC_Logout--><g id="link_User_UC_Logout"><path d="M279.49,832.27 C318.11,835.4 360.2596,838.8158 395.3396,841.6558 " fill="none" id="User-to-UC_Logout" style="stroke:#181818;stroke-width:1.0;"/><polygon fill="#181818" points="401.32,842.14,392.6721,837.4268,396.3363,841.7365,392.0266,845.4007,401.32,842.14" style="stroke:#181818;stroke-width:1.0;"/></g><!--reverse link UC_ViewProducts to UC_SearchProducts--><g id="link_UC_ViewProducts_UC_SearchProducts"><path d="M527.26,486 C573.81,486 628.84,486 676.51,486 " fill="none" id="UC_ViewProducts-backto-UC_SearchProducts" style="stroke:#181818;stroke-width:1.0;stroke-dasharray:7.0,7.0;"/><polygon fill="#181818" points="521.26,486,530.26,490,526.26,486,530.26,482,521.26,486" style="stroke:#181818;stroke-width:1.0;"/><text fill="#000000" font-family="sans-serif" font-size="13" lengthAdjust="spacing" textLength="57" x="588.87" y="482.5684">&#171;extend&#187;</text></g><!--link Anonymous_User to UC_ViewProducts--><g id="link_Anonymous_User_UC_ViewProducts"><path d="M219.49,238.64 C228.75,294.18 253.86,396.02 318,452 C335.69,467.44 353.6668,474.7831 376.1668,479.4831 " fill="none" id="Anonymous_User-to-UC_ViewProducts" style="stroke:#181818;stroke-width:1.0;"/><polygon fill="#181818" points="382.04,480.71,374.0481,474.9542,377.1456,479.6876,372.4123,482.7852,382.04,480.71" style="stroke:#181818;stroke-width:1.0;"/></g><!--link User to UC_ViewProducts--><g id="link_User_UC_ViewProducts"><path d="M216.19,788.26 C221.18,723.15 240.82,591.87 318,520 C335.19,503.99 353.0532,496.5098 375.5932,491.8698 " fill="none" id="User-to-UC_ViewProducts" style="stroke:#181818;stroke-width:1.0;"/><polygon fill="#181818" points="381.47,490.66,371.8483,488.5568,376.5727,491.6681,373.4614,496.3925,381.47,490.66" style="stroke:#181818;stroke-width:1.0;"/></g><!--link Manager to UC_CreateProduct--><g id="link_Manager_UC_CreateProduct"><path d="M77,1153.65 C96.81,1163.21 123.65,1175.6 148,1185 C233.77,1218.11 331.4135,1244.7674 391.9635,1260.0974 " fill="none" id="Manager-to-UC_CreateProduct" style="stroke:#181818;stroke-width:1.0;"/><polygon fill="#181818" points="397.78,1261.57,390.037,1255.4834,392.9329,1260.3428,388.0735,1263.2387,397.78,1261.57" style="stroke:#181818;stroke-width:1.0;"/></g><!--link Manager to UC_UpdateProduct--><g id="link_Manager_UC_UpdateProduct"><path d="M76.78,1126.32 C89.01,1121.48 103.49,1116.33 117,1113 C204.98,1091.29 303.0073,1080.8951 370.8473,1075.7351 " fill="none" id="Manager-to-UC_UpdateProduct" style="stroke:#181818;stroke-width:1.0;"/><polygon fill="#181818" points="376.83,1075.28,367.5526,1071.9741,371.8444,1075.6592,368.1593,1079.9511,376.83,1075.28" style="stroke:#181818;stroke-width:1.0;"/></g><!--link Customer to UC_ViewCart--><g id="link_Customer_UC_ViewCart"><path d="M80.37,576.85 C91.83,573.41 104.86,570.01 117,568 C212.48,552.18 319.3602,550.1722 385.8302,550.7022 " fill="none" id="Customer-to-UC_ViewCart" style="stroke:#181818;stroke-width:1.0;"/><polygon fill="#181818" points="391.83,550.75,382.8622,546.6784,386.8302,550.7101,382.7984,554.6781,391.83,550.75" style="stroke:#181818;stroke-width:1.0;"/></g><!--link Customer to UC_AddCart--><g id="link_Customer_UC_AddCart"><path d="M80.35,590.78 C142.52,596.05 273.0614,607.1036 361.3714,614.5836 " fill="none" id="Customer-to-UC_AddCart" style="stroke:#181818;stroke-width:1.0;"/><polygon fill="#181818" points="367.35,615.09,358.7197,610.3447,362.3678,614.668,358.0445,618.3161,367.35,615.09" style="stroke:#181818;stroke-width:1.0;"/></g><!--link Customer to UC_UpdateCart--><g id="link_Customer_UC_UpdateCart"><path d="M80.05,597.2 C99.71,602.73 125.27,609.85 148,616 C234.69,639.45 329.8913,664.2569 390.0613,679.8269 " fill="none" id="Customer-to-UC_UpdateCart" style="stroke:#181818;stroke-width:1.0;"/><polygon fill="#181818" points="395.87,681.33,388.159,675.2029,391.0294,680.0774,386.1549,682.9478,395.87,681.33" style="stroke:#181818;stroke-width:1.0;"/></g><!--link Customer to UC_RemoveCart--><g id="link_Customer_UC_RemoveCart"><path d="M80.28,613.87 C99.37,628.23 124.29,645.81 148,659 C223.95,701.27 313.1405,732.1813 375.8305,751.2813 " fill="none" id="Customer-to-UC_RemoveCart" style="stroke:#181818;stroke-width:1.0;"/><polygon fill="#181818" points="381.57,753.03,374.1265,746.5806,376.7871,751.5728,371.7949,754.2333,381.57,753.03" style="stroke:#181818;stroke-width:1.0;"/></g><!--link Customer to UC_PlaceOrder--><g id="link_Customer_UC_PlaceOrder"><path d="M74.5,549.43 C93.17,524.66 119.66,492.95 148,470 C214.76,415.93 237.95,409.18 318,378 C343.78,367.96 367.7528,361.4611 392.4228,355.9811 " fill="none" id="Customer-to-UC_PlaceOrder" style="stroke:#181818;stroke-width:1.0;"/><polygon fill="#181818" points="398.28,354.68,388.6268,352.7268,393.399,355.7642,390.3615,360.5364,398.28,354.68" style="stroke:#181818;stroke-width:1.0;"/></g><!--link Customer to UC_ViewOrders--><g id="link_Customer_UC_ViewOrders"><path d="M80.39,564.64 C91.75,557.01 104.7,548.76 117,542 C202.76,494.83 225.99,485.4 318,452 C341.76,443.38 362.7379,437.0658 385.8579,430.8158 " fill="none" id="Customer-to-UC_ViewOrders" style="stroke:#181818;stroke-width:1.0;"/><polygon fill="#181818" points="391.65,429.25,381.918,427.7373,386.8233,430.5548,384.0057,435.4601,391.65,429.25" style="stroke:#181818;stroke-width:1.0;"/></g><!--link Carrier to UC_CarrierOrders--><g id="link_Carrier_UC_CarrierOrders"><path d="M70.82,919.76 C129.89,931.83 281.3614,962.7692 373.4014,981.5692 " fill="none" id="Carrier-to-UC_CarrierOrders" style="stroke:#181818;stroke-width:1.0;"/><polygon fill="#181818" points="379.28,982.77,371.2626,977.0498,374.3812,981.7694,369.6616,984.8879,379.28,982.77" style="stroke:#181818;stroke-width:1.0;"/></g><!--link Carrier to UC_Pickup--><g id="link_Carrier_UC_Pickup"><path d="M70.82,915.17 C123.61,915.57 248.9202,916.5048 341.9302,917.2048 " fill="none" id="Carrier-to-UC_Pickup" style="stroke:#181818;stroke-width:1.0;"/><polygon fill="#181818" points="347.93,917.25,338.9604,913.1824,342.9301,917.2124,338.9002,921.1822,347.93,917.25" style="stroke:#181818;stroke-width:1.0;"/></g><!--link Manager to UC_Invite--><g id="link_Manager_UC_Invite"><path d="M76.69,1138.93 C141.65,1138.77 293.29,1138.385 381.17,1138.165 " fill="none" id="Manager-to-UC_Invite" style="stroke:#181818;stroke-width:1.0;"/><polygon fill="#181818" points="387.17,1138.15,378.16,1134.1725,382.17,1138.1625,378.18,1142.1725,387.17,1138.15" style="stroke:#181818;stroke-width:1.0;"/></g><!--link InvitedUser to UC_UserRegistration--><g id="link_InvitedUser_UC_UserRegistration"><path d="M87.46,126.63 C157.56,113.71 297.2794,87.9577 380.7094,72.5777 " fill="none" id="InvitedUser-to-UC_UserRegistration" style="stroke:#181818;stroke-width:1.0;"/><polygon fill="#181818" points="386.61,71.49,377.034,69.1879,381.6929,72.3965,378.4843,77.0553,386.61,71.49" style="stroke:#181818;stroke-width:1.0;"/></g><!--link Manager to UC_Backup--><g id="link_Manager_UC_Backup"><path d="M76.69,1143.8 C142.46,1154.61 297.3294,1180.0768 384.5094,1194.4068 " fill="none" id="Manager-to-UC_Backup" style="stroke:#181818;stroke-width:1.0;"/><polygon fill="#181818" points="390.43,1195.38,382.198,1189.9732,385.4962,1194.569,380.9004,1197.8673,390.43,1195.38" style="stroke:#181818;stroke-width:1.0;"/></g><!--SRC=[TLN1Rjim3BthAuZiuEpGNdBQK1X80mmhiA91ikvQ23Bh28cbJ9AR1Ll_VPHbgRATe9VmlQT7KgBP0xuwS1gCh7SEAcbGEAaLitkfZjpm1evSx7cDMtS-87YQg_g0B5Eq5WMt27yPm3sfQwDRLQtqGHluzEsB__ECDXMQ7bqi5koTCIuSHREbqkhSwDR2iqKp0suXGIyUIiBMxL0vARZ3waESILQjTRhv2BanCaMFN54doUr1lSc1JmzqTYmwmStDlpAawDqof7VCaCmZeADEMBf2cFr4iTjIAGZRitNOpEWAMG5Pb_ufvXki9T46baBGpRhFNS-hbuYp-GzTK_4HfqYg03wrBaDrwxpRxnQjWpMtzaHl0Xkqc7bImDYmQ6ga72IyJ8UyruvslYEvBuWQNXjTjSB1lT4dArNDvhyadY9iOsqUZ1YRRv4RiPk80fnaR7GExcvlfpBu2dTt-CUXgihoMlU3z5U9h9qm70qz9Pkl3DBCHYeM6z0UPFFdOtL15D0eoaQkd5gCoD7HmdyFhhzT_pE_sK0jgohLJsiX5n4LD7sPFe076jjXeK6pmKQ_fLRWrUXcO1RuJfj_QUMWcZ4HAnZZMU8nbUSfuCcl89gTzO4B354ig8CwfB-VxZTyfu7NvfnVL6yoIPKvNEee7YlIKWfvbjRAMj4Q2e8q6a4KAtxaPj-NHFnQYhrVNCTKFG7jaMKRgfoQZCXufWXxhrisb2aii6wPHVS0qSFxeGzBm7JozF94vFXaIdk7uN8iBnyj-csOFXh_FwLDhOPeaY72x-m_]--></g></svg>