<?xml version="1.0" encoding="us-ascii" standalone="no"?><svg xmlns="http://www.w3.org/2000/svg" xmlns:xlink="http://www.w3.org/1999/xlink" contentStyleType="text/css" height="2626px" preserveAspectRatio="none" style="width:842px;height:2626px;background:#FFFFFF;" version="1.1" viewBox="0 0 842 2626" width="842px" zoomAndPan="magnify"><defs/><g><!--entity Customer--><g id="elem_Customer"><ellipse cx="46.5" cy="1937.4" fill="#F1F1F1" rx="8" ry="8" style="stroke:#181818;stroke-width:0.5;"/><path d="M46.5,1945.4 L46.5,1972.4 M33.5,1953.4 L59.5,1953.4 M46.5,1972.4 L33.5,1987.4 M46.5,1972.4 L59.5,1987.4 " fill="none" style="stroke:#181818;stroke-width:0.5;"/><text fill="#000000" font-family="sans-serif" font-size="14" lengthAdjust="spacing" textLength="67" x="13" y="2002.4352">Customer</text></g><!--entity Carrier--><g id="elem_Carrier"><ellipse cx="46.5" cy="1162.4" fill="#F1F1F1" rx="8" ry="8" style="stroke:#181818;stroke-width:0.5;"/><path d="M46.5,1170.4 L46.5,1197.4 M33.5,1178.4 L59.5,1178.4 M46.5,1197.4 L33.5,1212.4 M46.5,1197.4 L59.5,1212.4 " fill="none" style="stroke:#181818;stroke-width:0.5;"/><text fill="#000000" font-family="sans-serif" font-size="14" lengthAdjust="spacing" textLength="48" x="22.5" y="1227.4352">Carrier</text></g><!--entity Manager--><g id="elem_Manager"><ellipse cx="46.5" cy="499.4" fill="#F1F1F1" rx="8" ry="8" style="stroke:#181818;stroke-width:0.5;"/><path d="M46.5,507.4 L46.5,534.4 M33.5,515.4 L59.5,515.4 M46.5,534.4 L33.5,549.4 M46.5,534.4 L59.5,549.4 " fill="none" style="stroke:#181818;stroke-width:0.5;"/><text fill="#000000" font-family="sans-serif" font-size="14" lengthAdjust="spacing" textLength="60" x="16.5" y="564.4352">Manager</text></g><!--entity InvitedUser--><g id="elem_InvitedUser"><ellipse cx="46.5" cy="26.4" fill="#F1F1F1" rx="8" ry="8" style="stroke:#181818;stroke-width:0.5;"/><path d="M46.5,34.4 L46.5,61.4 M33.5,42.4 L59.5,42.4 M46.5,61.4 L33.5,76.4 M46.5,61.4 L59.5,76.4 " fill="none" style="stroke:#181818;stroke-width:0.5;"/><text fill="#000000" font-family="sans-serif" font-size="14" lengthAdjust="spacing" textLength="81" x="6" y="91.4352">Invited User</text></g><!--entity Email--><g id="elem_Email"><ellipse cx="310.9" cy="974.4" fill="#F1F1F1" rx="8" ry="8" style="stroke:#181818;stroke-width:0.5;"/><path d="M310.9,982.4 L310.9,1009.4 M297.9,990.4 L323.9,990.4 M310.9,1009.4 L297.9,1024.4 M310.9,1009.4 L323.9,1024.4 " fill="none" style="stroke:#181818;stroke-width:0.5;"/><text fill="#000000" font-family="sans-serif" font-size="14" lengthAdjust="spacing" textLength="89" x="266.4" y="1039.4352">Email Service</text></g><g id="elem_be able to register"><ellipse cx="310.8962" cy="1355.1392" fill="#F1F1F1" rx="82.9462" ry="18.9892" style="stroke:#181818;stroke-width:0.5;"/><text fill="#000000" font-family="sans-serif" font-size="14" lengthAdjust="spacing" textLength="125" x="248.3962" y="1358.4303">be able to register</text></g><g id="elem_be able to log in"><ellipse cx="310.8965" cy="1427.1373" fill="#F1F1F1" rx="77.0365" ry="17.8073" style="stroke:#181818;stroke-width:0.5;"/><text fill="#000000" font-family="sans-serif" font-size="14" lengthAdjust="spacing" textLength="111" x="255.3965" y="1430.4283">be able to log in</text></g><g id="elem_be able to log out"><ellipse cx="310.8994" cy="1498.1379" fill="#F1F1F1" rx="81.2394" ry="18.6479" style="stroke:#181818;stroke-width:0.5;"/><text fill="#000000" font-family="sans-serif" font-size="14" lengthAdjust="spacing" textLength="121" x="250.3994" y="1501.4289">be able to log out</text></g><g id="elem_be able to recover password"><ellipse cx="310.898" cy="1577.1356" fill="#F1F1F1" rx="113.478" ry="25.0956" style="stroke:#181818;stroke-width:0.5;"/><text fill="#000000" font-family="sans-serif" font-size="14" lengthAdjust="spacing" textLength="193" x="214.398" y="1580.4266">be able to recover password</text></g><g id="elem_be able to update personal information"><ellipse cx="310.902" cy="1669.1444" fill="#F1F1F1" rx="149.422" ry="32.2844" style="stroke:#181818;stroke-width:0.5;"/><text fill="#000000" font-family="sans-serif" font-size="14" lengthAdjust="spacing" textLength="269" x="176.402" y="1672.4354">be able to update personal information</text></g><g id="elem_view list of available products"><ellipse cx="310.8989" cy="1762.1398" fill="#F1F1F1" rx="117.1989" ry="25.8398" style="stroke:#181818;stroke-width:0.5;"/><text fill="#000000" font-family="sans-serif" font-size="14" lengthAdjust="spacing" textLength="201" x="210.3989" y="1765.4308">view list of available products</text></g><g id="elem_search products by name"><ellipse cx="310.9024" cy="1846.1425" fill="#F1F1F1" rx="103.8124" ry="23.1625" style="stroke:#181818;stroke-width:0.5;"/><text fill="#000000" font-family="sans-serif" font-size="14" lengthAdjust="spacing" textLength="172" x="224.9024" y="1849.4335">search products by name</text></g><g id="elem_filter products by category"><ellipse cx="310.8956" cy="1928.1351" fill="#F1F1F1" rx="107.4756" ry="23.8951" style="stroke:#181818;stroke-width:0.5;"/><text fill="#000000" font-family="sans-serif" font-size="14" lengthAdjust="spacing" textLength="180" x="220.8956" y="1931.4261">filter products by category</text></g><g id="elem_view product details"><ellipse cx="310.9034" cy="2007.1387" fill="#F1F1F1" rx="88.1434" ry="20.0287" style="stroke:#181818;stroke-width:0.5;"/><text fill="#000000" font-family="sans-serif" font-size="14" lengthAdjust="spacing" textLength="137" x="242.4034" y="2010.4297">view product details</text></g><g id="elem_be able to add products to the cart"><ellipse cx="310.8965" cy="2091.1393" fill="#F1F1F1" rx="134.1465" ry="29.2293" style="stroke:#181818;stroke-width:0.5;"/><text fill="#000000" font-family="sans-serif" font-size="14" lengthAdjust="spacing" textLength="237" x="192.3965" y="2094.4303">be able to add products to the cart</text></g><g id="elem_be able to remove products from the cart"><ellipse cx="310.8987" cy="2189.1377" fill="#F1F1F1" rx="155.1887" ry="33.4377" style="stroke:#181818;stroke-width:0.5;"/><text fill="#000000" font-family="sans-serif" font-size="14" lengthAdjust="spacing" textLength="281" x="170.3987" y="2192.4288">be able to remove products from the cart</text></g><g id="elem_be able to update product quantities in cart"><ellipse cx="310.9043" cy="2292.1409" fill="#F1F1F1" rx="162.9043" ry="34.9809" style="stroke:#181818;stroke-width:0.5;"/><text fill="#000000" font-family="sans-serif" font-size="14" lengthAdjust="spacing" textLength="297" x="162.4043" y="2295.4319">be able to update product quantities in cart</text></g><g id="elem_view cart total"><ellipse cx="310.9018" cy="2378.1364" fill="#F1F1F1" rx="70.5818" ry="16.5164" style="stroke:#181818;stroke-width:0.5;"/><text fill="#000000" font-family="sans-serif" font-size="14" lengthAdjust="spacing" textLength="95" x="261.9184" y="2381.8124">view cart total</text></g><g id="elem_be able to place an order"><ellipse cx="310.8963" cy="2453.1413" fill="#F1F1F1" rx="103.3563" ry="23.0713" style="stroke:#181818;stroke-width:0.5;"/><text fill="#000000" font-family="sans-serif" font-size="14" lengthAdjust="spacing" textLength="171" x="225.3963" y="2456.4323">be able to place an order</text></g><g id="elem_view order history"><ellipse cx="310.9011" cy="2530.1382" fill="#F1F1F1" rx="82.0911" ry="18.8182" style="stroke:#181818;stroke-width:0.5;"/><text fill="#000000" font-family="sans-serif" font-size="14" lengthAdjust="spacing" textLength="123" x="249.4011" y="2533.4292">view order history</text></g><g id="elem_view order status"><ellipse cx="310.8967" cy="2602.1393" fill="#F1F1F1" rx="79.5467" ry="18.3093" style="stroke:#181818;stroke-width:0.5;"/><text fill="#000000" font-family="sans-serif" font-size="14" lengthAdjust="spacing" textLength="117" x="252.3967" y="2605.4304">view order status</text></g><g id="elem_view orders ready for pickup"><ellipse cx="310.8964" cy="1103.1413" fill="#F1F1F1" rx="114.4064" ry="25.2813" style="stroke:#181818;stroke-width:0.5;"/><text fill="#000000" font-family="sans-serif" font-size="14" lengthAdjust="spacing" textLength="195" x="213.3964" y="1106.4323">view orders ready for pickup</text></g><g id="elem_view order information for pickup"><ellipse cx="310.902" cy="1192.1404" fill="#F1F1F1" rx="131.302" ry="28.6604" style="stroke:#181818;stroke-width:0.5;"/><text fill="#000000" font-family="sans-serif" font-size="14" lengthAdjust="spacing" textLength="231" x="195.402" y="1195.4314">view order information for pickup</text></g><g id="elem_mark order as picked up"><ellipse cx="310.8963" cy="1278.1373" fill="#F1F1F1" rx="101.5363" ry="22.7073" style="stroke:#181818;stroke-width:0.5;"/><text fill="#000000" font-family="sans-serif" font-size="14" lengthAdjust="spacing" textLength="167" x="227.3963" y="1281.4283">mark order as picked up</text></g><g id="elem_be able to add new products"><ellipse cx="310.8964" cy="137.1413" fill="#F1F1F1" rx="114.4064" ry="25.2813" style="stroke:#181818;stroke-width:0.5;"/><text fill="#000000" font-family="sans-serif" font-size="14" lengthAdjust="spacing" textLength="195" x="213.3964" y="140.4323">be able to add new products</text></g><g id="elem_be able to edit product information"><ellipse cx="310.8966" cy="227.1393" fill="#F1F1F1" rx="136.0466" ry="29.6093" style="stroke:#181818;stroke-width:0.5;"/><text fill="#000000" font-family="sans-serif" font-size="14" lengthAdjust="spacing" textLength="241" x="190.3966" y="230.4303">be able to edit product information</text></g><g id="elem_activate or deactivate products"><ellipse cx="310.8981" cy="318.1376" fill="#F1F1F1" rx="120.9381" ry="26.5876" style="stroke:#181818;stroke-width:0.5;"/><text fill="#000000" font-family="sans-serif" font-size="14" lengthAdjust="spacing" textLength="209" x="206.3981" y="321.4286">activate or deactivate products</text></g><g id="elem_manage product categories"><ellipse cx="310.9026" cy="404.1425" fill="#F1F1F1" rx="111.1626" ry="24.6325" style="stroke:#181818;stroke-width:0.5;"/><text fill="#000000" font-family="sans-serif" font-size="14" lengthAdjust="spacing" textLength="188" x="216.9026" y="407.4335">manage product categories</text></g><g id="elem_update product stock levels"><ellipse cx="310.9026" cy="488.1425" fill="#F1F1F1" rx="111.1626" ry="24.6325" style="stroke:#181818;stroke-width:0.5;"/><text fill="#000000" font-family="sans-serif" font-size="14" lengthAdjust="spacing" textLength="188" x="216.9026" y="491.4335">update product stock levels</text></g><g id="elem_view all customer orders"><ellipse cx="310.8963" cy="570.1373" fill="#F1F1F1" rx="101.5363" ry="22.7073" style="stroke:#181818;stroke-width:0.5;"/><text fill="#000000" font-family="sans-serif" font-size="14" lengthAdjust="spacing" textLength="167" x="227.3963" y="573.4283">view all customer orders</text></g><g id="elem_filter customer orders"><ellipse cx="310.9" cy="649.138" fill="#F1F1F1" rx="93.44" ry="21.088" style="stroke:#181818;stroke-width:0.5;"/><text fill="#000000" font-family="sans-serif" font-size="14" lengthAdjust="spacing" textLength="149" x="236.4" y="652.429">filter customer orders</text></g><g id="elem_view sales reports"><ellipse cx="310.9048" cy="724.143" fill="#F1F1F1" rx="81.6648" ry="18.733" style="stroke:#181818;stroke-width:0.5;"/><text fill="#000000" font-family="sans-serif" font-size="14" lengthAdjust="spacing" textLength="122" x="249.9048" y="727.434">view sales reports</text></g><g id="elem_be able to register a new manager"><ellipse cx="310.9033" cy="896.1447" fill="#F1F1F1" rx="132.7233" ry="28.9447" style="stroke:#181818;stroke-width:0.5;"/><text fill="#000000" font-family="sans-serif" font-size="14" lengthAdjust="spacing" textLength="234" x="193.9033" y="899.4357">be able to register a new manager</text></g><g id="elem_be able to register a new carrier"><ellipse cx="310.9044" cy="805.1429" fill="#F1F1F1" rx="125.1644" ry="27.4329" style="stroke:#181818;stroke-width:0.5;"/><text fill="#000000" font-family="sans-serif" font-size="14" lengthAdjust="spacing" textLength="218" x="201.9044" y="808.4339">be able to register a new carrier</text></g><g id="elem_create user account"><ellipse cx="716.284" cy="823.1368" fill="#F1F1F1" rx="86.834" ry="19.7668" style="stroke:#181818;stroke-width:0.5;"/><text fill="#000000" font-family="sans-serif" font-size="14" lengthAdjust="spacing" textLength="134" x="649.284" y="826.4278">create user account</text></g><g id="elem_send invitation email"><ellipse cx="716.2793" cy="946.1379" fill="#F1F1F1" rx="90.3393" ry="20.4679" style="stroke:#181818;stroke-width:0.5;"/><text fill="#000000" font-family="sans-serif" font-size="14" lengthAdjust="spacing" textLength="142" x="645.2793" y="949.4289">send invitation email</text></g><g id="elem_complete registration"><ellipse cx="310.9011" cy="56.1402" fill="#F1F1F1" rx="92.5511" ry="20.9102" style="stroke:#181818;stroke-width:0.5;"/><text fill="#000000" font-family="sans-serif" font-size="14" lengthAdjust="spacing" textLength="147" x="237.4011" y="59.4312">complete registration</text></g><g id="elem_set password"><ellipse cx="716.2787" cy="22.1397" fill="#F1F1F1" rx="68.6987" ry="16.1397" style="stroke:#181818;stroke-width:0.5;"/><text fill="#000000" font-family="sans-serif" font-size="14" lengthAdjust="spacing" textLength="90" x="668.751" y="26.0562">set password</text></g><g id="elem_activate account"><ellipse cx="716.2816" cy="91.1443" fill="#F1F1F1" rx="76.6216" ry="17.7243" style="stroke:#181818;stroke-width:0.5;"/><text fill="#000000" font-family="sans-serif" font-size="14" lengthAdjust="spacing" textLength="110" x="661.2816" y="94.4353">activate account</text></g><g id="elem_validate product stock"><ellipse cx="716.2812" cy="2411.1362" fill="#F1F1F1" rx="94.3312" ry="21.2662" style="stroke:#181818;stroke-width:0.5;"/><text fill="#000000" font-family="sans-serif" font-size="14" lengthAdjust="spacing" textLength="151" x="640.7812" y="2414.4273">validate product stock</text></g><g id="elem_send order confirmation email"><ellipse cx="716.2798" cy="2494.144" fill="#F1F1F1" rx="120.4698" ry="26.494" style="stroke:#181818;stroke-width:0.5;"/><text fill="#000000" font-family="sans-serif" font-size="14" lengthAdjust="spacing" textLength="208" x="612.2798" y="2497.435">send order confirmation email</text></g><!--link Customer to be able to register--><g id="link_Customer_be able to register"><path d="M48.33,1928.41 C51.69,1811.24 68.33,1464.19 148,1392.14 C169.81,1372.41 194.0324,1363.5211 222.3924,1358.7711 " fill="none" id="Customer-to-be able to register" style="stroke:#181818;stroke-width:1.0;"/><polygon fill="#181818" points="228.31,1357.78,218.7729,1355.3216,223.3787,1358.6059,220.0944,1363.2117,228.31,1357.78" style="stroke:#181818;stroke-width:1.0;"/></g><!--link Customer to be able to log in--><g id="link_Customer_be able to log in"><path d="M49.42,1928.66 C55.58,1821.75 78.74,1524.83 148,1462.14 C171.13,1441.2 197.7922,1432.51 227.6822,1428.54 " fill="none" id="Customer-to-be able to log in" style="stroke:#181818;stroke-width:1.0;"/><polygon fill="#181818" points="233.63,1427.75,224.1817,1424.9698,228.6735,1428.4083,225.235,1432.9002,233.63,1427.75" style="stroke:#181818;stroke-width:1.0;"/></g><!--link Customer to be able to log out--><g id="link_Customer_be able to log out"><path d="M50.95,1928.42 C60.32,1832.42 89.58,1587.33 148,1534.14 C170.14,1513.98 195.0798,1505.1723 223.9398,1500.7323 " fill="none" id="Customer-to-be able to log out" style="stroke:#181818;stroke-width:1.0;"/><polygon fill="#181818" points="229.87,1499.82,220.3664,1497.235,224.9281,1500.5803,221.5829,1505.142,229.87,1499.82" style="stroke:#181818;stroke-width:1.0;"/></g><!--link Customer to be able to recover password--><g id="link_Customer_be able to recover password"><path d="M46.98,1928.55 C48.2,1856.99 61.47,1703.34 148,1619.14 C164.03,1603.55 179.3055,1595.2286 200.8855,1588.8586 " fill="none" id="Customer-to-be able to recover password" style="stroke:#181818;stroke-width:1.0;"/><polygon fill="#181818" points="206.64,1587.16,196.8758,1585.8716,201.8446,1588.5755,199.1406,1593.5443,206.64,1587.16" style="stroke:#181818;stroke-width:1.0;"/></g><!--link Customer to be able to update personal information--><g id="link_Customer_be able to update personal information"><path d="M52.68,1928.59 C62.01,1874.22 86.74,1775.38 148,1719.14 C161.76,1706.51 173.09,1699.3005 190.72,1692.2405 " fill="none" id="Customer-to-be able to update personal information" style="stroke:#181818;stroke-width:1.0;"/><polygon fill="#181818" points="196.29,1690.01,186.448,1689.6425,191.6483,1691.8688,189.422,1697.0691,196.29,1690.01" style="stroke:#181818;stroke-width:1.0;"/></g><!--link Customer to view list of available products--><g id="link_Customer_view list of available products"><path d="M61.64,1928.48 C77.19,1891.37 105.71,1836.47 148,1805.14 C166.35,1791.55 182.8934,1783.9073 205.0234,1777.5473 " fill="none" id="Customer-to-view list of available products" style="stroke:#181818;stroke-width:1.0;"/><polygon fill="#181818" points="210.79,1775.89,201.0353,1774.5315,205.9845,1777.2711,203.245,1782.2203,210.79,1775.89" style="stroke:#181818;stroke-width:1.0;"/></g><!--link Customer to search products by name--><g id="link_Customer_search products by name"><path d="M80.34,1935.06 C98.87,1918.57 123.22,1899.42 148,1887.14 C172.42,1875.04 194.9035,1867.6813 220.9535,1861.4713 " fill="none" id="Customer-to-search products by name" style="stroke:#181818;stroke-width:1.0;"/><polygon fill="#181818" points="226.79,1860.08,217.1078,1858.276,221.9263,1861.2394,218.9629,1866.058,226.79,1860.08" style="stroke:#181818;stroke-width:1.0;"/></g><!--link Customer to filter products by category--><g id="link_Customer_filter products by category"><path d="M80.47,1962.24 C115.43,1957.04 166.2352,1949.4921 214.5452,1942.3121 " fill="none" id="Customer-to-filter products by category" style="stroke:#181818;stroke-width:1.0;"/><polygon fill="#181818" points="220.48,1941.43,210.9897,1938.7965,215.5343,1942.165,212.1658,1946.7096,220.48,1941.43" style="stroke:#181818;stroke-width:1.0;"/></g><!--link Customer to view product details--><g id="link_Customer_view product details"><path d="M80.47,1972.17 C119.42,1978.1 179.4785,1987.2559 230.7185,1995.0659 " fill="none" id="Customer-to-view product details" style="stroke:#181818;stroke-width:1.0;"/><polygon fill="#181818" points="236.65,1995.97,228.3555,1990.6596,231.7071,1995.2166,227.15,1998.5682,236.65,1995.97" style="stroke:#181818;stroke-width:1.0;"/></g><!--link Customer to be able to add products to the cart--><g id="link_Customer_be able to add products to the cart"><path d="M80.16,1997.72 C98.83,2013.79 123.37,2032.68 148,2045.14 C168.6,2055.56 186.145,2062.2328 208.525,2068.8328 " fill="none" id="Customer-to-be able to add products to the cart" style="stroke:#181818;stroke-width:1.0;"/><polygon fill="#181818" points="214.28,2070.53,206.779,2064.1476,209.4842,2069.1157,204.5161,2071.8209,214.28,2070.53" style="stroke:#181818;stroke-width:1.0;"/></g><!--link Customer to be able to remove products from the cart--><g id="link_Customer_be able to remove products from the cart"><path d="M60.69,2005.68 C75.88,2044.51 104.49,2103.51 148,2138.14 C162.76,2149.89 174.6579,2156.7755 192.6079,2163.7555 " fill="none" id="Customer-to-be able to remove products from the cart" style="stroke:#181818;stroke-width:1.0;"/><polygon fill="#181818" points="198.2,2165.93,191.2616,2158.9402,193.5399,2164.1179,188.3622,2166.3963,198.2,2165.93" style="stroke:#181818;stroke-width:1.0;"/></g><!--link Customer to be able to update product quantities in cart--><g id="link_Customer_be able to update product quantities in cart"><path d="M51.08,2005.47 C58.6,2064.16 81.29,2176.17 148,2240.14 C160.36,2251.99 169.9464,2258.7048 185.8664,2265.7748 " fill="none" id="Customer-to-be able to update product quantities in cart" style="stroke:#181818;stroke-width:1.0;"/><polygon fill="#181818" points="191.35,2268.21,184.7481,2260.9014,186.7804,2266.1806,181.5011,2268.2129,191.35,2268.21" style="stroke:#181818;stroke-width:1.0;"/></g><!--link Customer to view cart total--><g id="link_Customer_view cart total"><path d="M52.63,2005.71 C64.9,2092.12 98.65,2297.37 148,2344.14 C172.39,2367.26 202.3274,2375.7773 234.1374,2378.8273 " fill="none" id="Customer-to-view cart total" style="stroke:#181818;stroke-width:1.0;"/><polygon fill="#181818" points="240.11,2379.4,231.5329,2374.5593,235.1328,2378.9228,230.7693,2382.5227,240.11,2379.4" style="stroke:#181818;stroke-width:1.0;"/></g><!--link Customer to be able to place an order--><g id="link_Customer_be able to place an order"><path d="M50.9,2005.61 C60.29,2102.94 89.83,2355.23 148,2412.14 C165.51,2429.27 183.2986,2438.0674 207.0486,2444.1674 " fill="none" id="Customer-to-be able to place an order" style="stroke:#181818;stroke-width:1.0;"/><polygon fill="#181818" points="212.86,2445.66,205.138,2439.5468,208.0172,2444.4162,203.1479,2447.2953,212.86,2445.66" style="stroke:#181818;stroke-width:1.0;"/></g><!--link Customer to view order history--><g id="link_Customer_view order history"><path d="M49.32,2005.84 C55.3,2115.68 78.16,2425.85 148,2494.14 C169.31,2514.98 193.9178,2523.9508 222.7478,2528.3208 " fill="none" id="Customer-to-view order history" style="stroke:#181818;stroke-width:1.0;"/><polygon fill="#181818" points="228.68,2529.22,220.3811,2523.9164,223.7365,2528.4707,219.1822,2531.826,228.68,2529.22" style="stroke:#181818;stroke-width:1.0;"/></g><!--link Customer to view order status--><g id="link_Customer_view order status"><path d="M48.18,2005.59 C51.16,2125.39 66.84,2488.52 148,2566.14 C170.06,2587.24 195.6714,2596.1836 225.0714,2600.4236 " fill="none" id="Customer-to-view order status" style="stroke:#181818;stroke-width:1.0;"/><polygon fill="#181818" points="231.01,2601.28,222.6731,2596.0363,226.0612,2600.5663,221.5312,2603.9544,231.01,2601.28" style="stroke:#181818;stroke-width:1.0;"/></g><!--link Carrier to view orders ready for pickup--><g id="link_Carrier_view orders ready for pickup"><path d="M70.99,1180.01 C91.06,1169.98 120.91,1155.86 148,1146.14 C174.42,1136.66 198.1101,1129.7185 224.6301,1122.8785 " fill="none" id="Carrier-to-view orders ready for pickup" style="stroke:#181818;stroke-width:1.0;"/><polygon fill="#181818" points="230.44,1121.38,220.7262,1119.7545,225.5984,1122.6287,222.7242,1127.501,230.44,1121.38" style="stroke:#181818;stroke-width:1.0;"/></g><!--link Carrier to view order information for pickup--><g id="link_Carrier_view order information for pickup"><path d="M70.79,1192.14 C95.81,1192.14 131.64,1192.14 173.37,1192.14 " fill="none" id="Carrier-to-view order information for pickup" style="stroke:#181818;stroke-width:1.0;"/><polygon fill="#181818" points="179.37,1192.14,170.37,1188.14,174.37,1192.14,170.37,1196.14,179.37,1192.14" style="stroke:#181818;stroke-width:1.0;"/></g><!--link Carrier to mark order as picked up--><g id="link_Carrier_mark order as picked up"><path d="M70.94,1204.39 C90.99,1214.49 120.82,1228.66 148,1238.14 C175.88,1247.87 201.4087,1254.8289 229.0587,1261.3189 " fill="none" id="Carrier-to-mark order as picked up" style="stroke:#181818;stroke-width:1.0;"/><polygon fill="#181818" points="234.9,1262.69,227.0522,1256.7392,230.0323,1261.5475,225.2241,1264.5276,234.9,1262.69" style="stroke:#181818;stroke-width:1.0;"/></g><!--link Manager to be able to add new products--><g id="link_Manager_be able to add new products"><path d="M46.89,490.68 C47.94,418.95 60.89,264.44 148,180.14 C164.09,164.57 179.405,156.2004 200.985,149.7004 " fill="none" id="Manager-to-be able to add new products" style="stroke:#181818;stroke-width:1.0;"/><polygon fill="#181818" points="206.73,147.97,196.9588,146.7356,201.9425,149.412,199.2661,154.3957,206.73,147.97" style="stroke:#181818;stroke-width:1.0;"/></g><!--link Manager to be able to edit product information--><g id="link_Manager_be able to edit product information"><path d="M52,490.78 C60.59,435.03 84.51,331.99 148,274.14 C162.6,260.83 175.1225,253.3338 193.9525,246.4738 " fill="none" id="Manager-to-be able to edit product information" style="stroke:#181818;stroke-width:1.0;"/><polygon fill="#181818" points="199.59,244.42,189.7645,243.7424,194.8921,246.1315,192.5029,251.2591,199.59,244.42" style="stroke:#181818;stroke-width:1.0;"/></g><!--link Manager to activate or deactivate products--><g id="link_Manager_activate or deactivate products"><path d="M60.93,490.43 C76.17,452.22 104.67,394.89 148,362.14 C165.89,348.62 181.9216,340.9692 203.6216,334.4792 " fill="none" id="Manager-to-activate or deactivate products" style="stroke:#181818;stroke-width:1.0;"/><polygon fill="#181818" points="209.37,332.76,199.6012,331.5066,204.5797,334.1927,201.8935,339.1711,209.37,332.76" style="stroke:#181818;stroke-width:1.0;"/></g><!--link Manager to manage product categories--><g id="link_Manager_manage product categories"><path d="M76.67,499.15 C95.51,481.37 121.4,459.72 148,446.14 C171.02,434.39 191.7829,427.2001 216.6729,420.9101 " fill="none" id="Manager-to-manage product categories" style="stroke:#181818;stroke-width:1.0;"/><polygon fill="#181818" points="222.49,419.44,212.7843,417.767,217.6424,420.665,214.7444,425.5232,222.49,419.44" style="stroke:#181818;stroke-width:1.0;"/></g><!--link Manager to update product stock levels--><g id="link_Manager_update product stock levels"><path d="M76.84,524.56 C111.07,519.21 163.4118,511.0254 213.1218,503.2654 " fill="none" id="Manager-to-update product stock levels" style="stroke:#181818;stroke-width:1.0;"/><polygon fill="#181818" points="219.05,502.34,209.5407,499.776,214.1098,503.1112,210.7746,507.6803,219.05,502.34" style="stroke:#181818;stroke-width:1.0;"/></g><!--link Manager to view all customer orders--><g id="link_Manager_view all customer orders"><path d="M76.84,533.72 C112.81,539.35 169.392,548.1831 220.622,556.1931 " fill="none" id="Manager-to-view all customer orders" style="stroke:#181818;stroke-width:1.0;"/><polygon fill="#181818" points="226.55,557.12,218.2759,551.7777,221.61,556.3476,217.0401,559.6817,226.55,557.12" style="stroke:#181818;stroke-width:1.0;"/></g><!--link Manager to filter customer orders--><g id="link_Manager_filter customer orders"><path d="M76.71,558.55 C95.57,575.95 121.46,597.08 148,610.14 C173.94,622.91 198.4554,630.3824 225.8454,636.3024 " fill="none" id="Manager-to-filter customer orders" style="stroke:#181818;stroke-width:1.0;"/><polygon fill="#181818" points="231.71,637.57,223.7582,631.7589,226.8228,636.5137,222.0681,639.5784,231.71,637.57" style="stroke:#181818;stroke-width:1.0;"/></g><!--link Manager to view sales reports--><g id="link_Manager_view sales reports"><path d="M61.71,567.81 C77.23,604.51 105.66,658.36 148,688.14 C172.26,705.2 197.2964,713.3452 225.6164,718.2052 " fill="none" id="Manager-to-view sales reports" style="stroke:#181818;stroke-width:1.0;"/><polygon fill="#181818" points="231.53,719.22,223.3362,713.7554,226.602,718.3743,221.9831,721.6401,231.53,719.22" style="stroke:#181818;stroke-width:1.0;"/></g><!--link Manager to be able to register a new manager--><g id="link_Manager_be able to register a new manager"><path d="M48.3,567.77 C51.83,634.87 68.93,773.14 148,850.14 C162.13,863.9 174.4324,871.5464 193.1824,878.3764 " fill="none" id="Manager-to-be able to register a new manager" style="stroke:#181818;stroke-width:1.0;"/><polygon fill="#181818" points="198.82,880.43,191.7326,873.5912,194.122,878.7187,188.9945,881.108,198.82,880.43" style="stroke:#181818;stroke-width:1.0;"/></g><!--link Manager to be able to register a new carrier--><g id="link_Manager_be able to register a new carrier"><path d="M53.7,567.48 C64.05,618.88 89.75,709.49 148,760.14 C164.07,774.12 178.4349,781.922 198.9149,788.592 " fill="none" id="Manager-to-be able to register a new carrier" style="stroke:#181818;stroke-width:1.0;"/><polygon fill="#181818" points="204.62,790.45,197.3011,783.8596,199.8658,788.9016,194.8237,791.4663,204.62,790.45" style="stroke:#181818;stroke-width:1.0;"/></g><!--link be able to register a new manager to create user account--><g id="link_be able to register a new manager_create user account"><path d="M438.74,904.43 C479.72,904.38 525.08,901.42 565.81,892.14 C609.28,882.23 650.0665,861.7672 679.3665,844.9472 " fill="none" id="be able to register a new manager-to-create user account" style="stroke:#181818;stroke-width:1.0;"/><polygon fill="#181818" points="684.57,841.96,674.7732,842.9717,680.2337,844.4493,678.7561,849.9098,684.57,841.96" style="stroke:#181818;stroke-width:1.0;"/><text fill="#000000" font-family="sans-serif" font-size="13" lengthAdjust="spacing" textLength="60" x="504.81" y="888.7084">&#171;include&#187;</text></g><!--link be able to register a new carrier to create user account--><g id="link_be able to register a new carrier_create user account"><path d="M435.26,808.9 C476.75,810.33 523.29,812.11 565.81,814.14 C587.36,815.17 604.6608,816.12 626.2908,817.42 " fill="none" id="be able to register a new carrier-to-create user account" style="stroke:#181818;stroke-width:1.0;"/><polygon fill="#181818" points="632.28,817.78,623.5362,813.2473,627.289,817.48,623.0562,821.2329,632.28,817.78" style="stroke:#181818;stroke-width:1.0;"/><text fill="#000000" font-family="sans-serif" font-size="13" lengthAdjust="spacing" textLength="60" x="504.81" y="808.2684">&#171;include&#187;</text></g><!--link be able to register a new manager to send invitation email--><g id="link_be able to register a new manager_send invitation email"><path d="M383.39,920.82 C419.09,931.87 463.22,943.64 503.81,949.14 C531.11,952.84 538.25,949.42 565.81,949.14 C585.27,948.95 600.1611,948.7251 619.9711,948.3451 " fill="none" id="be able to register a new manager-to-send invitation email" style="stroke:#181818;stroke-width:1.0;"/><polygon fill="#181818" points="625.97,948.23,616.8949,944.4033,620.9709,948.3259,617.0484,952.4019,625.97,948.23" style="stroke:#181818;stroke-width:1.0;"/><text fill="#000000" font-family="sans-serif" font-size="13" lengthAdjust="spacing" textLength="60" x="504.81" y="945.7084">&#171;include&#187;</text></g><!--link be able to register a new carrier to send invitation email--><g id="link_be able to register a new carrier_send invitation email"><path d="M403.24,823.97 C452.22,835.29 513.16,851.34 565.81,871.14 C607.11,886.67 646.8184,907.2802 676.5284,923.8302 " fill="none" id="be able to register a new carrier-to-send invitation email" style="stroke:#181818;stroke-width:1.0;"/><polygon fill="#181818" points="681.77,926.75,675.8541,918.8758,677.402,924.3168,671.961,925.8646,681.77,926.75" style="stroke:#181818;stroke-width:1.0;"/><text fill="#000000" font-family="sans-serif" font-size="13" lengthAdjust="spacing" textLength="60" x="504.81" y="847.1584">&#171;include&#187;</text></g><!--link Email to send invitation email--><g id="link_Email_send invitation email"><path d="M355.84,997.82 C423.84,988.05 549.491,969.9736 633.191,957.9436 " fill="none" id="Email-to-send invitation email" style="stroke:#181818;stroke-width:1.0;"/><polygon fill="#181818" points="639.13,957.09,629.6525,954.4111,634.1809,957.8013,630.7906,962.3297,639.13,957.09" style="stroke:#181818;stroke-width:1.0;"/></g><!--link InvitedUser to complete registration--><g id="link_InvitedUser_complete registration"><path d="M87.35,56.14 C121.91,56.14 167.24,56.14 211.9,56.14 " fill="none" id="InvitedUser-to-complete registration" style="stroke:#181818;stroke-width:1.0;"/><polygon fill="#181818" points="217.9,56.14,208.9,52.14,212.9,56.14,208.9,60.14,217.9,56.14" style="stroke:#181818;stroke-width:1.0;"/></g><!--link complete registration to set password--><g id="link_complete registration_set password"><path d="M397.94,48.89 C473.72,42.5 576.4112,33.8437 644.9012,28.0737 " fill="none" id="complete registration-to-set password" style="stroke:#181818;stroke-width:1.0;"/><polygon fill="#181818" points="650.88,27.57,641.576,24.3397,645.8976,27.9897,642.2476,32.3114,650.88,27.57" style="stroke:#181818;stroke-width:1.0;"/><text fill="#000000" font-family="sans-serif" font-size="13" lengthAdjust="spacing" textLength="60" x="504.81" y="31.6684">&#171;include&#187;</text></g><!--link complete registration to activate account--><g id="link_complete registration_activate account"><path d="M397.94,63.61 C471.18,69.96 569.1524,78.4615 637.8624,84.4215 " fill="none" id="complete registration-to-activate account" style="stroke:#181818;stroke-width:1.0;"/><polygon fill="#181818" points="643.84,84.94,635.2193,80.1772,638.8587,84.5079,634.528,88.1473,643.84,84.94" style="stroke:#181818;stroke-width:1.0;"/><text fill="#000000" font-family="sans-serif" font-size="13" lengthAdjust="spacing" textLength="60" x="504.81" y="70.2084">&#171;include&#187;</text></g><!--link be able to place an order to validate product stock--><g id="link_be able to place an order_validate product stock"><path d="M405.46,2443.4 C473.19,2436.35 558.0423,2427.5114 623.8223,2420.6614 " fill="none" id="be able to place an order-to-validate product stock" style="stroke:#181818;stroke-width:1.0;"/><polygon fill="#181818" points="629.79,2420.04,620.4241,2416.9937,624.8169,2420.5579,621.2527,2424.9507,629.79,2420.04" style="stroke:#181818;stroke-width:1.0;"/></g><!--link be able to place an order to send order confirmation email--><g id="link_be able to place an order_send order confirmation email"><path d="M405.71,2462.68 C465.65,2468.77 537.6307,2476.0834 600.3107,2482.4534 " fill="none" id="be able to place an order-to-send order confirmation email" style="stroke:#181818;stroke-width:1.0;"/><polygon fill="#181818" points="606.28,2483.06,597.7305,2478.1705,601.3056,2482.5545,596.9217,2486.1295,606.28,2483.06" style="stroke:#181818;stroke-width:1.0;"/></g><!--SRC=[dLLBZjim3Dtx5CHiEbxa0iKWcwABBheQz02CH2T2PCcLP0zo-r8VEuupzXZTcTOZzVZuaQOcGB3WrFaIG2f78YXhgWf5i0v-z3xObjneedDgidwZmVDalVmoWmeauOydzmBeeVo8zeZvsQBIy4vkK88IAFsfgczmE1ocww9HpOmZl9u8yAGfSQMpye5SlGxHzWpAV06mVQYtRX5suFyTUlzXdTo0zft4GD2HyzQWvfiRwrgCGjRLmcrGz06Q-ODj00TEFaNfd9Mz27vvYoTquZ8Tm-a61bjQmXgbG-GwWmccTBRkLdz6e011Kc06_edbB3cKyXwNxN0XZkssfMjPkhjNusoxns_KiP3xswC9AYZohEYdlYcNUC3U0VLM6fr6mPO1BkLpwwH0wGGkN9irsJB21mnzrAmqRHwAtBFJzuEBPqbGte3R0ZebhdrNhq7dpREERz5T2vvdA49uy2AgS2gZcJZTlvyBQ-wzm0cj8KcgC5NbeRaVF7Z6rH0BoAmbJTPA_3OPKzZIhbpi1MxH55mJSGLD0wMsVO0c5L5h46FfilgBY6LOja4fbaTDiNQTTS4_YQlIVlFG-rZXBQd7ZGMO5C-fktelNkJICu4TGNCmmGt7gaLgW4BOteGQliFRcp92zvAEnsh7XRjZxIVcoSYiN6vnYll_lwdjYbRbLsV3eQfcRrL9shQT9auxt-_6RRvoC4OFz_TYcTEMupGiQ_hcpdk_iH8jFwoiHtneNcqNW_3cI-stiUzAKwDMpzDKV-sOPClxHbZJg7515Vd-0G00]--></g></svg>