<?xml version="1.0" encoding="us-ascii" standalone="no"?><svg xmlns="http://www.w3.org/2000/svg" xmlns:xlink="http://www.w3.org/1999/xlink" contentStyleType="text/css" height="375px" preserveAspectRatio="none" style="width:219px;height:375px;background:#FFFFFF;" version="1.1" viewBox="0 0 219 375" width="219px" zoomAndPan="magnify"><defs/><g><!--cluster TechStore--><g id="cluster_TechStore"><path d="M8.5,6 L81.5,6 A3.75,3.75 0 0 1 84,8.5 L91,29.6094 L209.5,29.6094 A2.5,2.5 0 0 1 212,32.1094 L212,365.5 A2.5,2.5 0 0 1 209.5,368 L8.5,368 A2.5,2.5 0 0 1 6,365.5 L6,8.5 A2.5,2.5 0 0 1 8.5,6 " fill="none" style="stroke:#000000;stroke-width:1.5;"/><line style="stroke:#000000;stroke-width:1.5;" x1="6" x2="91" y1="29.6094" y2="29.6094"/><text fill="#000000" font-family="sans-serif" font-size="14" font-weight="bold" lengthAdjust="spacing" textLength="72" x="10" y="22.5332">TechStore</text></g><!--cluster SERVER1--><g id="cluster_SERVER1"><polygon fill="none" points="30,60,40,50,188,50,188,162,178,172,30,172,30,60" style="stroke:#181818;stroke-width:1.0;"/><line style="stroke:#181818;stroke-width:1.0;" x1="178" x2="188" y1="60" y2="50"/><line style="stroke:#181818;stroke-width:1.0;" x1="30" x2="178" y1="60" y2="60"/><line style="stroke:#181818;stroke-width:1.0;" x1="178" x2="178" y1="60" y2="172"/><text fill="#000000" font-family="sans-serif" font-size="14" font-weight="bold" lengthAdjust="spacing" textLength="64" x="71" y="77.5332">Server 1:</text></g><!--cluster SERVER2--><g id="cluster_SERVER2"><polygon fill="none" points="30,232,40,222,188,222,188,334,178,344,30,344,30,232" style="stroke:#181818;stroke-width:1.0;"/><line style="stroke:#181818;stroke-width:1.0;" x1="178" x2="188" y1="232" y2="222"/><line style="stroke:#181818;stroke-width:1.0;" x1="30" x2="178" y1="232" y2="232"/><line style="stroke:#181818;stroke-width:1.0;" x1="178" x2="178" y1="232" y2="344"/><text fill="#000000" font-family="sans-serif" font-size="14" font-weight="bold" lengthAdjust="spacing" textLength="77" x="66.5" y="249.5332">Server 2: ?</text></g><!--entity Backend--><g id="elem_Backend"><rect fill="#F1F1F1" height="65.2188" rx="2.5" ry="2.5" style="stroke:#181818;stroke-width:0.5;" width="126" x="46" y="91"/><rect fill="#F1F1F1" height="10" style="stroke:#181818;stroke-width:0.5;" width="15" x="152" y="96"/><rect fill="#F1F1F1" height="2" style="stroke:#181818;stroke-width:0.5;" width="4" x="150" y="98"/><rect fill="#F1F1F1" height="2" style="stroke:#181818;stroke-width:0.5;" width="4" x="150" y="102"/><text fill="#000000" font-family="sans-serif" font-size="14" font-style="italic" lengthAdjust="spacing" textLength="86" x="61" y="125.5332">&#171;component&#187;</text><text fill="#000000" font-family="sans-serif" font-size="14" lengthAdjust="spacing" textLength="55" x="76.5" y="143.1426">Backend</text></g><!--entity Database--><g id="elem_Database"><rect fill="#F1F1F1" height="65.2188" rx="2.5" ry="2.5" style="stroke:#181818;stroke-width:0.5;" width="126" x="46" y="263"/><rect fill="#F1F1F1" height="10" style="stroke:#181818;stroke-width:0.5;" width="15" x="152" y="268"/><rect fill="#F1F1F1" height="2" style="stroke:#181818;stroke-width:0.5;" width="4" x="150" y="270"/><rect fill="#F1F1F1" height="2" style="stroke:#181818;stroke-width:0.5;" width="4" x="150" y="274"/><text fill="#000000" font-family="sans-serif" font-size="14" font-style="italic" lengthAdjust="spacing" textLength="86" x="61" y="297.5332">&#171;component&#187;</text><text fill="#000000" font-family="sans-serif" font-size="14" lengthAdjust="spacing" textLength="61" x="73.5" y="315.1426">Database</text></g><!--link Backend to Database--><g id="link_Backend_Database"><path codeLine="16" d="M109,156.08 C109,186.52 109,226.33 109,256.8 " fill="none" id="Backend-to-Database" style="stroke:#181818;stroke-width:1.0;"/><polygon fill="#181818" points="109,262.8,113,253.8,109,257.8,105,253.8,109,262.8" style="stroke:#181818;stroke-width:1.0;"/><text fill="#000000" font-family="sans-serif" font-size="13" lengthAdjust="spacing" textLength="41" x="110" y="202.4951">TCP/IP</text></g><!--SRC=[AqXCpavCJrLG2abDpWWkoIzALLAevk9IKCZBJm6A1gSMbQKMAHXQAIWf91Oh1Bi6XRa66K9KA2Wav-SMvEUbvfKeA3a1pKdDIm6hWh8LR6pW2kpi582QG7fgkK0OtG8ZAmLx91kCe8gHB719B4bCIYnE1Qk2ST2iGBO1Q0VC7RgwTWWTLY7E0VgU0Lm0]--></g></svg>