<?xml version="1.0" encoding="us-ascii" standalone="no"?><svg xmlns="http://www.w3.org/2000/svg" xmlns:xlink="http://www.w3.org/1999/xlink" contentStyleType="text/css" height="375px" preserveAspectRatio="none" style="width:827px;height:375px;background:#FFFFFF;" version="1.1" viewBox="0 0 827 375" width="827px" zoomAndPan="magnify"><defs/><g><!--cluster TechStore--><g id="cluster_TechStore"><path d="M8.5,6 L81.5,6 A3.75,3.75 0 0 1 84,8.5 L91,29.6094 L391.5,29.6094 A2.5,2.5 0 0 1 394,32.1094 L394,365.5 A2.5,2.5 0 0 1 391.5,368 L8.5,368 A2.5,2.5 0 0 1 6,365.5 L6,8.5 A2.5,2.5 0 0 1 8.5,6 " fill="none" style="stroke:#000000;stroke-width:1.5;"/><line style="stroke:#000000;stroke-width:1.5;" x1="6" x2="91" y1="29.6094" y2="29.6094"/><text fill="#000000" font-family="sans-serif" font-size="14" font-weight="bold" lengthAdjust="spacing" textLength="72" x="10" y="22.5332">TechStore</text></g><!--cluster SERVER1--><g id="cluster_SERVER1"><polygon fill="none" points="212,60,222,50,370,50,370,162,360,172,212,172,212,60" style="stroke:#181818;stroke-width:1.0;"/><line style="stroke:#181818;stroke-width:1.0;" x1="360" x2="370" y1="60" y2="50"/><line style="stroke:#181818;stroke-width:1.0;" x1="212" x2="360" y1="60" y2="60"/><line style="stroke:#181818;stroke-width:1.0;" x1="360" x2="360" y1="60" y2="172"/><text fill="#000000" font-family="sans-serif" font-size="14" font-weight="bold" lengthAdjust="spacing" textLength="64" x="253" y="77.5332">Server 1:</text></g><!--cluster SERVER2--><g id="cluster_SERVER2"><polygon fill="none" points="30,232,40,222,188,222,188,334,178,344,30,344,30,232" style="stroke:#181818;stroke-width:1.0;"/><line style="stroke:#181818;stroke-width:1.0;" x1="178" x2="188" y1="232" y2="222"/><line style="stroke:#181818;stroke-width:1.0;" x1="30" x2="178" y1="232" y2="232"/><line style="stroke:#181818;stroke-width:1.0;" x1="178" x2="178" y1="232" y2="344"/><text fill="#000000" font-family="sans-serif" font-size="14" font-weight="bold" lengthAdjust="spacing" textLength="77" x="66.5" y="249.5332">Server 2: ?</text></g><!--cluster SERVER3--><g id="cluster_SERVER3"><polygon fill="none" points="212,232,222,222,370,222,370,334,360,344,212,344,212,232" style="stroke:#181818;stroke-width:1.0;"/><line style="stroke:#181818;stroke-width:1.0;" x1="360" x2="370" y1="232" y2="222"/><line style="stroke:#181818;stroke-width:1.0;" x1="212" x2="360" y1="232" y2="232"/><line style="stroke:#181818;stroke-width:1.0;" x1="360" x2="360" y1="232" y2="344"/><text fill="#000000" font-family="sans-serif" font-size="14" font-weight="bold" lengthAdjust="spacing" textLength="77" x="248.5" y="249.5332">Server 3: ?</text></g><!--cluster Supabase--><g id="cluster_Supabase"><polygon fill="none" points="418,232,428,222,600,222,600,334,590,344,418,344,418,232" style="stroke:#181818;stroke-width:1.0;"/><line style="stroke:#181818;stroke-width:1.0;" x1="590" x2="600" y1="232" y2="222"/><line style="stroke:#181818;stroke-width:1.0;" x1="418" x2="590" y1="232" y2="232"/><line style="stroke:#181818;stroke-width:1.0;" x1="590" x2="590" y1="232" y2="344"/><text fill="#000000" font-family="sans-serif" font-size="14" font-weight="bold" lengthAdjust="spacing" textLength="4" x="503" y="249.5332">:</text></g><!--cluster ExternalEmail--><g id="cluster_ExternalEmail"><polygon fill="none" points="624,232,634,222,810,222,810,334,800,344,624,344,624,232" style="stroke:#181818;stroke-width:1.0;"/><line style="stroke:#181818;stroke-width:1.0;" x1="800" x2="810" y1="232" y2="222"/><line style="stroke:#181818;stroke-width:1.0;" x1="624" x2="800" y1="232" y2="232"/><line style="stroke:#181818;stroke-width:1.0;" x1="800" x2="800" y1="232" y2="344"/><text fill="#000000" font-family="sans-serif" font-size="14" font-weight="bold" lengthAdjust="spacing" textLength="4" x="711" y="249.5332">:</text></g><!--entity Backend--><g id="elem_Backend"><rect fill="#F1F1F1" height="65.2188" rx="2.5" ry="2.5" style="stroke:#181818;stroke-width:0.5;" width="126" x="228" y="91"/><rect fill="#F1F1F1" height="10" style="stroke:#181818;stroke-width:0.5;" width="15" x="334" y="96"/><rect fill="#F1F1F1" height="2" style="stroke:#181818;stroke-width:0.5;" width="4" x="332" y="98"/><rect fill="#F1F1F1" height="2" style="stroke:#181818;stroke-width:0.5;" width="4" x="332" y="102"/><text fill="#000000" font-family="sans-serif" font-size="14" font-style="italic" lengthAdjust="spacing" textLength="86" x="243" y="125.5332">&#171;component&#187;</text><text fill="#000000" font-family="sans-serif" font-size="14" lengthAdjust="spacing" textLength="55" x="258.5" y="143.1426">Backend</text></g><!--entity Database--><g id="elem_Database"><rect fill="#F1F1F1" height="65.2188" rx="2.5" ry="2.5" style="stroke:#181818;stroke-width:0.5;" width="126" x="46" y="263"/><rect fill="#F1F1F1" height="10" style="stroke:#181818;stroke-width:0.5;" width="15" x="152" y="268"/><rect fill="#F1F1F1" height="2" style="stroke:#181818;stroke-width:0.5;" width="4" x="150" y="270"/><rect fill="#F1F1F1" height="2" style="stroke:#181818;stroke-width:0.5;" width="4" x="150" y="274"/><text fill="#000000" font-family="sans-serif" font-size="14" font-style="italic" lengthAdjust="spacing" textLength="86" x="61" y="297.5332">&#171;component&#187;</text><text fill="#000000" font-family="sans-serif" font-size="14" lengthAdjust="spacing" textLength="61" x="73.5" y="315.1426">Database</text></g><!--entity Syslog--><g id="elem_Syslog"><rect fill="#F1F1F1" height="65.2188" rx="2.5" ry="2.5" style="stroke:#181818;stroke-width:0.5;" width="126" x="228" y="263"/><rect fill="#F1F1F1" height="10" style="stroke:#181818;stroke-width:0.5;" width="15" x="334" y="268"/><rect fill="#F1F1F1" height="2" style="stroke:#181818;stroke-width:0.5;" width="4" x="332" y="270"/><rect fill="#F1F1F1" height="2" style="stroke:#181818;stroke-width:0.5;" width="4" x="332" y="274"/><text fill="#000000" font-family="sans-serif" font-size="14" font-style="italic" lengthAdjust="spacing" textLength="86" x="243" y="297.5332">&#171;component&#187;</text><text fill="#000000" font-family="sans-serif" font-size="14" lengthAdjust="spacing" textLength="42" x="265" y="315.1426">Syslog</text></g><!--entity ExternalAuthAPI--><g id="elem_ExternalAuthAPI"><rect fill="#F1F1F1" height="65.2188" rx="2.5" ry="2.5" style="stroke:#181818;stroke-width:0.5;" width="149" x="434.5" y="263"/><rect fill="#F1F1F1" height="10" style="stroke:#181818;stroke-width:0.5;" width="15" x="563.5" y="268"/><rect fill="#F1F1F1" height="2" style="stroke:#181818;stroke-width:0.5;" width="4" x="561.5" y="270"/><rect fill="#F1F1F1" height="2" style="stroke:#181818;stroke-width:0.5;" width="4" x="561.5" y="274"/><text fill="#000000" font-family="sans-serif" font-size="14" font-style="italic" lengthAdjust="spacing" textLength="86" x="461" y="297.5332">&#171;component&#187;</text><text fill="#000000" font-family="sans-serif" font-size="14" lengthAdjust="spacing" textLength="109" x="449.5" y="315.1426">External Auth API</text></g><!--entity ExternalEmailAPI--><g id="elem_ExternalEmailAPI"><rect fill="#F1F1F1" height="65.2188" rx="2.5" ry="2.5" style="stroke:#181818;stroke-width:0.5;" width="154" x="640" y="263"/><rect fill="#F1F1F1" height="10" style="stroke:#181818;stroke-width:0.5;" width="15" x="774" y="268"/><rect fill="#F1F1F1" height="2" style="stroke:#181818;stroke-width:0.5;" width="4" x="772" y="270"/><rect fill="#F1F1F1" height="2" style="stroke:#181818;stroke-width:0.5;" width="4" x="772" y="274"/><text fill="#000000" font-family="sans-serif" font-size="14" font-style="italic" lengthAdjust="spacing" textLength="86" x="669" y="297.5332">&#171;component&#187;</text><text fill="#000000" font-family="sans-serif" font-size="14" lengthAdjust="spacing" textLength="114" x="655" y="315.1426">External Email API</text></g><!--link Backend to Database--><g id="link_Backend_Database"><path codeLine="31" d="M257.19,156.08 C224.61,186.52 179.9453,228.235 147.3153,258.705 " fill="none" id="Backend-to-Database" style="stroke:#181818;stroke-width:1.0;"/><polygon fill="#181818" points="142.93,262.8,152.238,259.581,146.5844,259.3875,146.7779,253.7339,142.93,262.8" style="stroke:#181818;stroke-width:1.0;"/><text fill="#000000" font-family="sans-serif" font-size="13" lengthAdjust="spacing" textLength="41" x="223" y="202.4951">TCP/IP</text></g><!--link Backend to ExternalAuthAPI--><g id="link_Backend_ExternalAuthAPI"><path codeLine="32" d="M336.2217,159.7693 C375.2617,190.2093 424.5383,228.6407 463.6183,259.1107 " fill="none" id="Backend-ExternalAuthAPI" style="stroke:#181818;stroke-width:1.0;"/><polygon fill="#181818" points="331.49,156.08,336.1279,164.7685,335.4331,159.1545,341.0471,158.4596,331.49,156.08" style="stroke:#181818;stroke-width:1.0;"/><polygon fill="#181818" points="468.35,262.8,463.7119,254.1116,464.4069,259.7256,458.7929,260.4206,468.35,262.8" style="stroke:#181818;stroke-width:1.0;"/><text fill="#000000" font-family="sans-serif" font-size="13" lengthAdjust="spacing" textLength="41" x="394" y="202.4951">HTTPS</text></g><!--link Backend to ExternalEmailAPI--><g id="link_Backend_ExternalEmailAPI"><path codeLine="33" d="M354.1,136.55 C418.1,150.19 518.99,175.63 600,214 C627.74,227.14 651.3745,242.934 673.2645,259.394 " fill="none" id="Backend-to-ExternalEmailAPI" style="stroke:#181818;stroke-width:1.0;"/><polygon fill="#181818" points="678.06,263,673.2707,254.394,674.0637,259.995,668.4627,260.7881,678.06,263" style="stroke:#181818;stroke-width:1.0;"/><text fill="#000000" font-family="sans-serif" font-size="13" lengthAdjust="spacing" textLength="36" x="577" y="202.4951">SMTP</text></g><!--link Backend to Syslog--><g id="link_Backend_Syslog"><path codeLine="34" d="M291,156.08 C291,186.52 291,226.33 291,256.8 " fill="none" id="Backend-to-Syslog" style="stroke:#181818;stroke-width:1.0;"/><polygon fill="#181818" points="291,262.8,295,253.8,291,257.8,287,253.8,291,262.8" style="stroke:#181818;stroke-width:1.0;"/><text fill="#000000" font-family="sans-serif" font-size="13" lengthAdjust="spacing" textLength="41" x="292" y="202.4951">TCP/IP</text></g><!--SRC=[VP7DQiCm48JlVeh1zr2It8HnILj3SoY8IFIkEY89TIHZAo6bzDsh7okrdTG7WJGxEz-ogaNvANOIAPVbdXdTo1JVIG8elRKgayrPDfWJf10jMB5vBpRpu01AVQoraieWVR8vKcszgxiZoww6F8TjSZq_YJjZm8BWiKTOTEOUu4KOyI5QwLtnCK9C4PP3mlAMmBxQIk-2nrydqcr-I4VSpAaE4pbNBxIu6DaeKM5rCdkiwDgxe-f4gzq1tK74fk8e3jM_d50TWxmwGOfVDflbVyib_9a-hEcrcBdgU7I2Lyuf6oJSK0dO6wS3JxTYWWxo2m00]--></g></svg>