<?xml version="1.0" encoding="us-ascii" standalone="no"?><svg xmlns="http://www.w3.org/2000/svg" xmlns:xlink="http://www.w3.org/1999/xlink" contentStyleType="text/css" height="777px" preserveAspectRatio="none" style="width:646px;height:777px;background:#FFFFFF;" version="1.1" viewBox="0 0 646 777" width="646px" zoomAndPan="magnify"><defs/><g><!--cluster TechStore--><g id="cluster_TechStore"><rect fill="none" height="661" rx="2.5" ry="2.5" style="stroke:#181818;stroke-width:1.0;" width="329" x="7" y="110"/><rect fill="none" height="10" style="stroke:#181818;stroke-width:1.0;" width="15" x="316" y="115"/><rect fill="none" height="2" style="stroke:#181818;stroke-width:1.0;" width="4" x="314" y="117"/><rect fill="none" height="2" style="stroke:#181818;stroke-width:1.0;" width="4" x="314" y="121"/><text fill="#000000" font-family="sans-serif" font-size="14" font-style="italic" lengthAdjust="spacing" textLength="86" x="128.5" y="137.5332">&#171;component&#187;</text><text fill="#000000" font-family="sans-serif" font-size="14" font-style="italic" lengthAdjust="spacing" textLength="84" x="129.5" y="155.1426">&#171;C4 System&#187;</text><text fill="#000000" font-family="sans-serif" font-size="14" font-weight="bold" lengthAdjust="spacing" textLength="72" x="135.5" y="172.752">TechStore</text></g><!--cluster Backend--><g id="cluster_Backend"><rect fill="none" height="191.5" rx="2.5" ry="2.5" style="stroke:#181818;stroke-width:1.0;" width="130" x="31" y="203.5"/><rect fill="none" height="10" style="stroke:#181818;stroke-width:1.0;" width="15" x="141" y="208.5"/><rect fill="none" height="2" style="stroke:#181818;stroke-width:1.0;" width="4" x="139" y="210.5"/><rect fill="none" height="2" style="stroke:#181818;stroke-width:1.0;" width="4" x="139" y="214.5"/><text fill="#000000" font-family="sans-serif" font-size="14" font-style="italic" lengthAdjust="spacing" textLength="86" x="53" y="231.0332">&#171;component&#187;</text><text fill="#000000" font-family="sans-serif" font-size="14" font-weight="bold" lengthAdjust="spacing" textLength="61" x="65.5" y="248.6426">Backend</text></g><!--cluster Database--><g id="cluster_Database"><rect fill="none" height="144" rx="2.5" ry="2.5" style="stroke:#181818;stroke-width:1.0;" width="96" x="61.875" y="611"/><rect fill="none" height="10" style="stroke:#181818;stroke-width:1.0;" width="15" x="137.875" y="616"/><rect fill="none" height="2" style="stroke:#181818;stroke-width:1.0;" width="4" x="135.875" y="618"/><rect fill="none" height="2" style="stroke:#181818;stroke-width:1.0;" width="4" x="135.875" y="622"/><text fill="#000000" font-family="sans-serif" font-size="14" font-style="italic" lengthAdjust="spacing" textLength="86" x="66.875" y="638.5332">&#171;component&#187;</text><text fill="#000000" font-family="sans-serif" font-size="14" font-weight="bold" lengthAdjust="spacing" textLength="65" x="77.375" y="656.1426">Database</text></g><text fill="#000000" font-family="sans-serif" font-size="14" lengthAdjust="spacing" textLength="4" x="159" y="88.9238">&#160;</text><rect fill="#F1F1F1" height="12" style="stroke:#181818;stroke-width:1.5;" width="12" x="155" y="104"/><text fill="#000000" font-family="sans-serif" font-size="14" lengthAdjust="spacing" textLength="4" x="287" y="511.5332">&#160;</text><rect fill="#F1F1F1" height="12" style="stroke:#181818;stroke-width:1.5;" width="12" x="283" y="485"/><text fill="#000000" font-family="sans-serif" font-size="14" lengthAdjust="spacing" textLength="4" x="334" y="511.5332">&#160;</text><rect fill="#F1F1F1" height="12" style="stroke:#181818;stroke-width:1.5;" width="12" x="330" y="485"/><!--entity DBAPI--><g id="elem_DBAPI"><ellipse cx="71" cy="491" fill="#F1F1F1" rx="8" ry="8" style="stroke:#181818;stroke-width:0.5;"/><text fill="#000000" font-family="sans-serif" font-size="14" lengthAdjust="spacing" textLength="44" x="49" y="522.5332">DB API</text></g><text fill="#000000" font-family="sans-serif" font-size="14" lengthAdjust="spacing" textLength="4" x="105" y="182.4238">&#160;</text><rect fill="#F1F1F1" height="12" style="stroke:#181818;stroke-width:1.5;" width="12" x="101" y="197.5"/><text fill="#000000" font-family="sans-serif" font-size="14" lengthAdjust="spacing" textLength="4" x="47" y="415.5332">&#160;</text><rect fill="#F1F1F1" height="12" style="stroke:#181818;stroke-width:1.5;" width="12" x="43" y="389"/><text fill="#000000" font-family="sans-serif" font-size="14" lengthAdjust="spacing" textLength="4" x="94" y="415.5332">&#160;</text><rect fill="#F1F1F1" height="12" style="stroke:#181818;stroke-width:1.5;" width="12" x="90" y="389"/><text fill="#000000" font-family="sans-serif" font-size="14" lengthAdjust="spacing" textLength="4" x="141" y="415.5332">&#160;</text><rect fill="#F1F1F1" height="12" style="stroke:#181818;stroke-width:1.5;" width="12" x="137" y="389"/><text fill="#000000" font-family="sans-serif" font-size="14" lengthAdjust="spacing" textLength="4" x="78" y="589.9238">&#160;</text><rect fill="#F1F1F1" height="12" style="stroke:#181818;stroke-width:1.5;" width="12" x="74" y="605"/><!--entity API--><g id="elem_API"><ellipse cx="161" cy="14" fill="#F1F1F1" rx="8" ry="8" style="stroke:#181818;stroke-width:0.5;"/><text fill="#000000" font-family="sans-serif" font-size="14" lengthAdjust="spacing" textLength="21" x="150.5" y="45.5332">API</text></g><!--entity EXTERNAL_AUTH_API--><g id="elem_EXTERNAL_AUTH_API"><ellipse cx="420" cy="611" fill="#F1F1F1" rx="8" ry="8" style="stroke:#181818;stroke-width:0.5;"/><text fill="#000000" font-family="sans-serif" font-size="14" lengthAdjust="spacing" textLength="109" x="365.5" y="642.5332">External Auth API</text></g><!--entity EMAIL_API--><g id="elem_EMAIL_API"><ellipse cx="582" cy="611" fill="#F1F1F1" rx="8" ry="8" style="stroke:#181818;stroke-width:0.5;"/><text fill="#000000" font-family="sans-serif" font-size="14" lengthAdjust="spacing" textLength="114" x="525" y="642.5332">External Email API</text></g><!--link BackendPO to DBAPI--><g id="link_BackendPO_DBAPI"><path d="M50.18,401.05 C53.79,416.46 62.3951,453.1922 66.8151,472.1122 " fill="none" id="BackendPO-to-DBAPI" style="stroke:#181818;stroke-width:1.0;"/><path d="M76.6252,476.9286 A9,9 0 0 0 60.1543 480.7765" fill="none" style="stroke:#181818;stroke-width:1.5;"/></g><!--link DBAPI to DBPI--><g id="link_DBAPI_DBPI"><path d="M71.62,500.11 C73.35,522.81 78.21,586.54 79.62,604.96 " fill="none" id="DBAPI-DBPI" style="stroke:#181818;stroke-width:1.0;"/></g><!--link BackendPI to TechStorePI--><g id="link_BackendPI_TechStorePI"><path d="M107.86,197.37 C109.17,190.42 112.03,177.79 117,168 C127.75,146.82 146.78,125.68 155.88,116.19 " fill="none" id="BackendPI-TechStorePI" style="stroke:#181818;stroke-width:1.0;"/></g><!--link API to TechStorePI--><g id="link_API_TechStorePI"><path d="M161,23.01 C161,41.84 161,88.45 161,103.92 " fill="none" id="API-TechStorePI" style="stroke:#181818;stroke-width:1.0;"/></g><!--link BackendPO2 to TechStorePO--><g id="link_BackendPO2_TechStorePO"><path d="M102.16,399.74 C106.92,402.53 113.73,406.3 120,409 C188.3,438.38 226.01,408.85 279,461 C285.53,467.43 287.8,478.31 288.59,484.76 " fill="none" id="BackendPO2-TechStorePO" style="stroke:#181818;stroke-width:1.0;"/></g><!--link BackendPO3 to TechStorePO2--><g id="link_BackendPO3_TechStorePO2"><path d="M145.93,401.18 C147.68,403.85 150.12,406.96 153,409 C214.09,452.12 251.6,418.33 313,461 C322.08,467.31 329.34,478.23 333.13,484.72 " fill="none" id="BackendPO3-TechStorePO2" style="stroke:#181818;stroke-width:1.0;"/></g><!--link TechStorePO to EXTERNAL_AUTH_API--><g id="link_TechStorePO_EXTERNAL_AUTH_API"><path d="M292.81,497.17 C297.33,503.17 305.25,513.23 313,521 C346.62,554.7 391.86,589.24 410.93,603.37 " fill="none" id="TechStorePO-EXTERNAL_AUTH_API" style="stroke:#181818;stroke-width:1.0;"/></g><!--link TechStorePO2 to EMAIL_API--><g id="link_TechStorePO2_EMAIL_API"><path d="M342.08,494.92 C375.15,510.78 533.35,586.66 572.98,605.67 " fill="none" id="TechStorePO2-EMAIL_API" style="stroke:#181818;stroke-width:1.0;"/></g><!--SRC=[ZLBBReCm4BpxArO-zSA5z1X5CWMfaT9IDLJgBN8SLx4QR0IBrAhglzUuO8YJYdBmOsTcTtOncWhGmDuWcX8EgfO2bT64A8soVkD20cLFQmgy0RjFmzc7FMf-0jRY4GPIzbfapuziisClnVtkBqbMSdKQDGzilN5S8anP6Iqr0YsaE6xHr9B2SkdZgvMztTt2zhD1MThR5m7xLQP6fO62I-YbDkM0cXOluNm6ZXtkbecpX8jtgG-XhrydbsvwUk_bIi61aCyIubd6mZ6-YTiceqyJF-uqSQCEcaevyZrlv7-xIfE-eRwMTm1HTDFNwEBkP6EZmC-ZYuQ_QdA7g8s01Q8yFbVbv-WYGECWQUVkoXiDIAx6-2fjXpy0]--></g></svg>