<?xml version="1.0" encoding="us-ascii" standalone="no"?><svg xmlns="http://www.w3.org/2000/svg" xmlns:xlink="http://www.w3.org/1999/xlink" contentStyleType="text/css" height="777px" preserveAspectRatio="none" style="width:681px;height:777px;background:#FFFFFF;" version="1.1" viewBox="0 0 681 777" width="681px" zoomAndPan="magnify"><defs/><g><!--cluster TechStore--><g id="cluster_TechStore"><rect fill="none" height="661" rx="2.5" ry="2.5" style="stroke:#181818;stroke-width:1.0;" width="364" x="7" y="110"/><rect fill="none" height="10" style="stroke:#181818;stroke-width:1.0;" width="15" x="351" y="115"/><rect fill="none" height="2" style="stroke:#181818;stroke-width:1.0;" width="4" x="349" y="117"/><rect fill="none" height="2" style="stroke:#181818;stroke-width:1.0;" width="4" x="349" y="121"/><text fill="#000000" font-family="sans-serif" font-size="14" font-style="italic" lengthAdjust="spacing" textLength="86" x="146" y="137.5332">&#171;component&#187;</text><text fill="#000000" font-family="sans-serif" font-size="14" font-style="italic" lengthAdjust="spacing" textLength="84" x="147" y="155.1426">&#171;C4 System&#187;</text><text fill="#000000" font-family="sans-serif" font-size="14" font-weight="bold" lengthAdjust="spacing" textLength="72" x="153" y="172.752">TechStore</text></g><!--cluster Backend--><g id="cluster_Backend"><rect fill="none" height="191.5" rx="2.5" ry="2.5" style="stroke:#181818;stroke-width:1.0;" width="177" x="19" y="203.5"/><rect fill="none" height="10" style="stroke:#181818;stroke-width:1.0;" width="15" x="176" y="208.5"/><rect fill="none" height="2" style="stroke:#181818;stroke-width:1.0;" width="4" x="174" y="210.5"/><rect fill="none" height="2" style="stroke:#181818;stroke-width:1.0;" width="4" x="174" y="214.5"/><text fill="#000000" font-family="sans-serif" font-size="14" font-style="italic" lengthAdjust="spacing" textLength="86" x="64.5" y="231.0332">&#171;component&#187;</text><text fill="#000000" font-family="sans-serif" font-size="14" font-weight="bold" lengthAdjust="spacing" textLength="61" x="77" y="248.6426">Backend</text></g><!--cluster Database--><g id="cluster_Database"><rect fill="none" height="144" rx="2.5" ry="2.5" style="stroke:#181818;stroke-width:1.0;" width="99" x="58" y="611"/><rect fill="none" height="10" style="stroke:#181818;stroke-width:1.0;" width="15" x="137" y="616"/><rect fill="none" height="2" style="stroke:#181818;stroke-width:1.0;" width="4" x="135" y="618"/><rect fill="none" height="2" style="stroke:#181818;stroke-width:1.0;" width="4" x="135" y="622"/><text fill="#000000" font-family="sans-serif" font-size="14" font-style="italic" lengthAdjust="spacing" textLength="86" x="64.5" y="638.5332">&#171;component&#187;</text><text fill="#000000" font-family="sans-serif" font-size="14" font-weight="bold" lengthAdjust="spacing" textLength="65" x="75" y="656.1426">Database</text></g><!--cluster Syslog--><g id="cluster_Syslog"><rect fill="none" height="144" rx="2.5" ry="2.5" style="stroke:#181818;stroke-width:1.0;" width="112" x="187" y="611"/><rect fill="none" height="10" style="stroke:#181818;stroke-width:1.0;" width="15" x="279" y="616"/><rect fill="none" height="2" style="stroke:#181818;stroke-width:1.0;" width="4" x="277" y="618"/><rect fill="none" height="2" style="stroke:#181818;stroke-width:1.0;" width="4" x="277" y="622"/><text fill="#000000" font-family="sans-serif" font-size="14" font-style="italic" lengthAdjust="spacing" textLength="86" x="200" y="638.5332">&#171;component&#187;</text><text fill="#000000" font-family="sans-serif" font-size="14" font-weight="bold" lengthAdjust="spacing" textLength="46" x="220" y="656.1426">Syslog</text></g><text fill="#000000" font-family="sans-serif" font-size="14" lengthAdjust="spacing" textLength="4" x="190" y="88.9238">&#160;</text><rect fill="#F1F1F1" height="12" style="stroke:#181818;stroke-width:1.5;" width="12" x="186" y="104"/><text fill="#000000" font-family="sans-serif" font-size="14" lengthAdjust="spacing" textLength="4" x="322" y="511.5332">&#160;</text><rect fill="#F1F1F1" height="12" style="stroke:#181818;stroke-width:1.5;" width="12" x="318" y="485"/><text fill="#000000" font-family="sans-serif" font-size="14" lengthAdjust="spacing" textLength="4" x="369" y="511.5332">&#160;</text><rect fill="#F1F1F1" height="12" style="stroke:#181818;stroke-width:1.5;" width="12" x="365" y="485"/><!--entity DBAPI--><g id="elem_DBAPI"><ellipse cx="63" cy="491" fill="#F1F1F1" rx="8" ry="8" style="stroke:#181818;stroke-width:0.5;"/><text fill="#000000" font-family="sans-serif" font-size="14" lengthAdjust="spacing" textLength="44" x="41" y="522.5332">DB API</text></g><!--entity SyslogAPI--><g id="elem_SyslogAPI"><ellipse cx="174" cy="491" fill="#F1F1F1" rx="8" ry="8" style="stroke:#181818;stroke-width:0.5;"/><text fill="#000000" font-family="sans-serif" font-size="14" lengthAdjust="spacing" textLength="67" x="140.5" y="522.5332">Syslog API</text></g><text fill="#000000" font-family="sans-serif" font-size="14" lengthAdjust="spacing" textLength="4" x="131" y="182.4238">&#160;</text><rect fill="#F1F1F1" height="12" style="stroke:#181818;stroke-width:1.5;" width="12" x="127" y="197.5"/><text fill="#000000" font-family="sans-serif" font-size="14" lengthAdjust="spacing" textLength="4" x="35" y="415.5332">&#160;</text><rect fill="#F1F1F1" height="12" style="stroke:#181818;stroke-width:1.5;" width="12" x="31" y="389"/><text fill="#000000" font-family="sans-serif" font-size="14" lengthAdjust="spacing" textLength="4" x="129" y="415.5332">&#160;</text><rect fill="#F1F1F1" height="12" style="stroke:#181818;stroke-width:1.5;" width="12" x="125" y="389"/><text fill="#000000" font-family="sans-serif" font-size="14" lengthAdjust="spacing" textLength="4" x="176" y="415.5332">&#160;</text><rect fill="#F1F1F1" height="12" style="stroke:#181818;stroke-width:1.5;" width="12" x="172" y="389"/><text fill="#000000" font-family="sans-serif" font-size="14" lengthAdjust="spacing" textLength="4" x="82" y="415.5332">&#160;</text><rect fill="#F1F1F1" height="12" style="stroke:#181818;stroke-width:1.5;" width="12" x="78" y="389"/><text fill="#000000" font-family="sans-serif" font-size="14" lengthAdjust="spacing" textLength="4" x="74" y="589.9238">&#160;</text><rect fill="#F1F1F1" height="12" style="stroke:#181818;stroke-width:1.5;" width="12" x="70" y="605"/><text fill="#000000" font-family="sans-serif" font-size="14" lengthAdjust="spacing" textLength="4" x="203" y="589.9238">&#160;</text><rect fill="#F1F1F1" height="12" style="stroke:#181818;stroke-width:1.5;" width="12" x="199" y="605"/><!--entity API--><g id="elem_API"><ellipse cx="192" cy="14" fill="#F1F1F1" rx="8" ry="8" style="stroke:#181818;stroke-width:0.5;"/><text fill="#000000" font-family="sans-serif" font-size="14" lengthAdjust="spacing" textLength="21" x="181.5" y="45.5332">API</text></g><!--entity EXTERNAL_AUTH_API--><g id="elem_EXTERNAL_AUTH_API"><ellipse cx="455" cy="611" fill="#F1F1F1" rx="8" ry="8" style="stroke:#181818;stroke-width:0.5;"/><text fill="#000000" font-family="sans-serif" font-size="14" lengthAdjust="spacing" textLength="109" x="400.5" y="642.5332">External Auth API</text></g><!--entity EMAIL_API--><g id="elem_EMAIL_API"><ellipse cx="617" cy="611" fill="#F1F1F1" rx="8" ry="8" style="stroke:#181818;stroke-width:0.5;"/><text fill="#000000" font-family="sans-serif" font-size="14" lengthAdjust="spacing" textLength="114" x="560" y="642.5332">External Email API</text></g><!--link BackendPO to DBAPI--><g id="link_BackendPO_DBAPI"><path d="M38.4,401.05 C42.66,416.46 52.8409,453.2928 58.0809,472.2128 " fill="none" id="BackendPO-to-DBAPI" style="stroke:#181818;stroke-width:1.0;"/><path d="M68.0788,476.6262 A9,9 0 0 0 51.778 481.1408" fill="none" style="stroke:#181818;stroke-width:1.5;"/></g><!--link DBAPI to DBPI--><g id="link_DBAPI_DBPI"><path d="M63.89,500.11 C66.39,522.81 73.42,586.54 75.44,604.96 " fill="none" id="DBAPI-DBPI" style="stroke:#181818;stroke-width:1.0;"/></g><!--link BackendPI to TechStorePI--><g id="link_BackendPI_TechStorePI"><path d="M133.79,197.33 C135.01,190.34 137.78,177.65 143,168 C154.8,146.19 176.08,125.36 186.26,116.06 " fill="none" id="BackendPI-TechStorePI" style="stroke:#181818;stroke-width:1.0;"/></g><!--link API to TechStorePI--><g id="link_API_TechStorePI"><path d="M192,23.01 C192,41.84 192,88.45 192,103.92 " fill="none" id="API-TechStorePI" style="stroke:#181818;stroke-width:1.0;"/></g><!--link BackendPO2 to TechStorePO--><g id="link_BackendPO2_TechStorePO"><path d="M137.16,399.74 C141.92,402.53 148.73,406.3 155,409 C223.3,438.38 261.01,408.85 314,461 C320.53,467.43 322.8,478.31 323.59,484.76 " fill="none" id="BackendPO2-TechStorePO" style="stroke:#181818;stroke-width:1.0;"/></g><!--link BackendPO3 to TechStorePO2--><g id="link_BackendPO3_TechStorePO2"><path d="M180.93,401.18 C182.68,403.85 185.12,406.96 188,409 C249.09,452.12 286.6,418.33 348,461 C357.08,467.31 364.34,478.23 368.13,484.72 " fill="none" id="BackendPO3-TechStorePO2" style="stroke:#181818;stroke-width:1.0;"/></g><!--link TechStorePO to EXTERNAL_AUTH_API--><g id="link_TechStorePO_EXTERNAL_AUTH_API"><path d="M327.81,497.17 C332.33,503.17 340.25,513.23 348,521 C381.62,554.7 426.86,589.24 445.93,603.37 " fill="none" id="TechStorePO-EXTERNAL_AUTH_API" style="stroke:#181818;stroke-width:1.0;"/></g><!--link TechStorePO2 to EMAIL_API--><g id="link_TechStorePO2_EMAIL_API"><path d="M377.08,494.92 C410.15,510.78 568.35,586.66 607.98,605.67 " fill="none" id="TechStorePO2-EMAIL_API" style="stroke:#181818;stroke-width:1.0;"/></g><!--link SyslogAPI to SyslogPI--><g id="link_SyslogAPI_SyslogPI"><path d="M176.13,500.11 C182.09,522.81 198.84,586.54 203.67,604.96 " fill="none" id="SyslogAPI-SyslogPI" style="stroke:#181818;stroke-width:1.0;"/></g><!--link BackendPO4 to SyslogAPI--><g id="link_BackendPO4_SyslogAPI"><path d="M88.84,401.05 C103.59,416.46 141.1633,455.7079 159.2833,474.6279 " fill="none" id="BackendPO4-to-SyslogAPI" style="stroke:#181818;stroke-width:1.0;"/><path d="M170.1788,473.7773 A9,9 0 0 0 157.963 485.4765" fill="none" style="stroke:#181818;stroke-width:1.5;"/></g><!--SRC=[ZLF1ReCm3Btp5HQdNRZG7gjAOI2jKZUcbKcxLIdDLZH841XfqzH_NmWqXD2ASe3Oxzb-jWcA4b30GI2A0evPnLBC17USZ2EhFcdAm2Ml6nTe3V9hkgCVUUGq1zBW2Iwaw2E9tbx8Ta_UawVzhP2ee5a-n3oJpLPndLGKfU2C8xW9Iqyx51LpORNI_lLQMezBsFtMo0ff_JaWdr9Kc75mGINKeJBb1HKDJk5u1lOLhbw6ie2ctumVRLsTagcQdjvhkLBmGeXd2VuiOp7BM2h6sL4VOpbXe1SI1gHNQ-1ouhduqfpEL4kpnXDIf0TQitld4mPziVCaLLVataGTUvnCjmsUzs0qfaxIDrJNQsgzzXzasE0r7X0hAFR7KV4ONLYeRoLjrLsvEXP9rHWkIulgBRJGgFzXtwhpOLroCFy0]--></g></svg>