<?xml version="1.0" encoding="us-ascii" standalone="no"?><svg xmlns="http://www.w3.org/2000/svg" xmlns:xlink="http://www.w3.org/1999/xlink" contentStyleType="text/css" height="948px" preserveAspectRatio="none" style="width:2332px;height:948px;background:#FFFFFF;" version="1.1" viewBox="0 0 2332 948" width="2332px" zoomAndPan="magnify"><defs/><g><!--cluster Common--><g id="cluster_Common"><path d="M1439.5,681.5 L1501.5,681.5 A3.75,3.75 0 0 1 1504,684 L1511,705.1094 L2011.5,705.1094 A2.5,2.5 0 0 1 2014,707.6094 L2014,790 A2.5,2.5 0 0 1 2011.5,792.5 L1439.5,792.5 A2.5,2.5 0 0 1 1437,790 L1437,684 A2.5,2.5 0 0 1 1439.5,681.5 " fill="none" style="stroke:#000000;stroke-width:1.5;"/><line style="stroke:#000000;stroke-width:1.5;" x1="1437" x2="1511" y1="705.1094" y2="705.1094"/><text fill="#000000" font-family="sans-serif" font-size="14" font-weight="bold" lengthAdjust="spacing" textLength="61" x="1441" y="698.0332">Common</text></g><!--cluster UserAggregate--><g id="cluster_UserAggregate"><path d="M2040.5,533 L2147.5,533 A3.75,3.75 0 0 1 2150,535.5 L2157,556.6094 L2322.5,556.6094 A2.5,2.5 0 0 1 2325,559.1094 L2325,816.5 A2.5,2.5 0 0 1 2322.5,819 L2040.5,819 A2.5,2.5 0 0 1 2038,816.5 L2038,535.5 A2.5,2.5 0 0 1 2040.5,533 " fill="none" style="stroke:#000000;stroke-width:1.5;"/><line style="stroke:#000000;stroke-width:1.5;" x1="2038" x2="2157" y1="556.6094" y2="556.6094"/><text fill="#000000" font-family="sans-serif" font-size="14" font-weight="bold" lengthAdjust="spacing" textLength="106" x="2042" y="549.5332">UserAggregate</text></g><!--cluster CustomerAggregate--><g id="cluster_CustomerAggregate"><path d="M8.5,6 L150.5,6 A3.75,3.75 0 0 1 153,8.5 L160,29.6094 L290.5,29.6094 A2.5,2.5 0 0 1 293,32.1094 L293,273.5 A2.5,2.5 0 0 1 290.5,276 L8.5,276 A2.5,2.5 0 0 1 6,273.5 L6,8.5 A2.5,2.5 0 0 1 8.5,6 " fill="none" style="stroke:#000000;stroke-width:1.5;"/><line style="stroke:#000000;stroke-width:1.5;" x1="6" x2="160" y1="29.6094" y2="29.6094"/><text fill="#000000" font-family="sans-serif" font-size="14" font-weight="bold" lengthAdjust="spacing" textLength="141" x="10" y="22.5332">CustomerAggregate</text></g><!--cluster CategoryAggregate--><g id="cluster_CategoryAggregate"><path d="M1112.5,681.5 L1249.5,681.5 A3.75,3.75 0 0 1 1252,684 L1259,705.1094 L1410.5,705.1094 A2.5,2.5 0 0 1 1413,707.6094 L1413,938.5 A2.5,2.5 0 0 1 1410.5,941 L1112.5,941 A2.5,2.5 0 0 1 1110,938.5 L1110,684 A2.5,2.5 0 0 1 1112.5,681.5 " fill="none" style="stroke:#000000;stroke-width:1.5;"/><line style="stroke:#000000;stroke-width:1.5;" x1="1110" x2="1259" y1="705.1094" y2="705.1094"/><text fill="#000000" font-family="sans-serif" font-size="14" font-weight="bold" lengthAdjust="spacing" textLength="136" x="1114" y="698.0332">CategoryAggregate</text></g><!--cluster ProductAggregate--><g id="cluster_ProductAggregate"><path d="M606.5,533 L735.5,533 A3.75,3.75 0 0 1 738,535.5 L745,556.6094 L1083.5,556.6094 A2.5,2.5 0 0 1 1086,559.1094 L1086,790 A2.5,2.5 0 0 1 1083.5,792.5 L606.5,792.5 A2.5,2.5 0 0 1 604,790 L604,535.5 A2.5,2.5 0 0 1 606.5,533 " fill="none" style="stroke:#000000;stroke-width:1.5;"/><line style="stroke:#000000;stroke-width:1.5;" x1="604" x2="745" y1="556.6094" y2="556.6094"/><text fill="#000000" font-family="sans-serif" font-size="14" font-weight="bold" lengthAdjust="spacing" textLength="128" x="608" y="549.5332">ProductAggregate</text></g><!--cluster CartAggregate--><g id="cluster_CartAggregate"><path d="M319.5,165 L422.5,165 A3.75,3.75 0 0 1 425,167.5 L432,188.6094 L577.5,188.6094 A2.5,2.5 0 0 1 580,191.1094 L580,641.5 A2.5,2.5 0 0 1 577.5,644 L319.5,644 A2.5,2.5 0 0 1 317,641.5 L317,167.5 A2.5,2.5 0 0 1 319.5,165 " fill="none" style="stroke:#000000;stroke-width:1.5;"/><line style="stroke:#000000;stroke-width:1.5;" x1="317" x2="432" y1="188.6094" y2="188.6094"/><text fill="#000000" font-family="sans-serif" font-size="14" font-weight="bold" lengthAdjust="spacing" textLength="102" x="321" y="181.5332">CartAggregate</text></g><!--cluster OrderAggregate--><g id="cluster_OrderAggregate"><path d="M1181.5,165 L1296.5,165 A3.75,3.75 0 0 1 1299,167.5 L1306,188.6094 L1594.5,188.6094 A2.5,2.5 0 0 1 1597,191.1094 L1597,641.5 A2.5,2.5 0 0 1 1594.5,644 L1181.5,644 A2.5,2.5 0 0 1 1179,641.5 L1179,167.5 A2.5,2.5 0 0 1 1181.5,165 " fill="none" style="stroke:#000000;stroke-width:1.5;"/><line style="stroke:#000000;stroke-width:1.5;" x1="1179" x2="1306" y1="188.6094" y2="188.6094"/><text fill="#000000" font-family="sans-serif" font-size="14" font-weight="bold" lengthAdjust="spacing" textLength="114" x="1183" y="181.5332">OrderAggregate</text></g><!--class Money--><g id="elem_Money"><rect codeLine="3" fill="#F1F1F1" height="58.7031" id="Money" rx="2.5" ry="2.5" style="stroke:#181818;stroke-width:0.5;" width="110" x="1598" y="717.5"/><ellipse cx="1613" cy="738.8516" fill="#ADD1B2" rx="11" ry="11" style="stroke:#181818;stroke-width:1.0;"/><path d="M1615.7656,734.7266 Q1615.9219,734.5078 1616.1094,734.3984 Q1616.2969,734.2891 1616.5156,734.2891 Q1616.8906,734.2891 1617.125,734.5547 Q1617.3594,734.8047 1617.3594,735.4141 L1617.3594,736.8672 Q1617.3594,737.4766 1617.125,737.7422 Q1616.8906,738.0078 1616.5156,738.0078 Q1616.1719,738.0078 1615.9688,737.8047 Q1615.7656,737.6172 1615.6563,737.1016 Q1615.6094,736.7422 1615.4219,736.5547 Q1615.0938,736.1797 1614.4844,735.9609 Q1613.875,735.7422 1613.25,735.7422 Q1612.4844,735.7422 1611.8438,736.0703 Q1611.2188,736.3984 1610.7188,737.1484 Q1610.2344,737.8984 1610.2344,738.9297 L1610.2344,740.0234 Q1610.2344,741.2578 1611.125,742.0859 Q1612.0156,742.8984 1613.6094,742.8984 Q1614.5469,742.8984 1615.2031,742.6484 Q1615.5938,742.4922 1616.0156,742.0547 Q1616.2813,741.7891 1616.4219,741.7109 Q1616.5781,741.6328 1616.7813,741.6328 Q1617.1094,741.6328 1617.3594,741.8984 Q1617.625,742.1484 1617.625,742.4922 Q1617.625,742.8359 1617.2813,743.2422 Q1616.7813,743.8203 1615.9844,744.1484 Q1614.9063,744.6016 1613.6094,744.6016 Q1612.0938,744.6016 1610.8906,743.9766 Q1609.9063,743.4766 1609.2188,742.4141 Q1608.5313,741.3359 1608.5313,740.0547 L1608.5313,738.8984 Q1608.5313,737.5703 1609.1406,736.4297 Q1609.7656,735.2734 1610.8594,734.6641 Q1611.9531,734.0391 1613.1875,734.0391 Q1613.9219,734.0391 1614.5625,734.2109 Q1615.2188,734.3672 1615.7656,734.7266 Z " fill="#000000"/><text fill="#000000" font-family="sans-serif" font-size="12" font-style="italic" lengthAdjust="spacing" textLength="82" x="1625" y="734.957">&#171;ValueObject&#187;</text><text fill="#000000" font-family="sans-serif" font-size="14" lengthAdjust="spacing" textLength="42" x="1645" y="752.127">Money</text><line style="stroke:#181818;stroke-width:0.5;" x1="1599" x2="1707" y1="760.2031" y2="760.2031"/><line style="stroke:#181818;stroke-width:0.5;" x1="1599" x2="1707" y1="768.2031" y2="768.2031"/></g><!--class Address--><g id="elem_Address"><rect codeLine="4" fill="#F1F1F1" height="58.7031" id="Address" rx="2.5" ry="2.5" style="stroke:#181818;stroke-width:0.5;" width="110" x="1743" y="717.5"/><ellipse cx="1758" cy="738.8516" fill="#ADD1B2" rx="11" ry="11" style="stroke:#181818;stroke-width:1.0;"/><path d="M1760.7656,734.7266 Q1760.9219,734.5078 1761.1094,734.3984 Q1761.2969,734.2891 1761.5156,734.2891 Q1761.8906,734.2891 1762.125,734.5547 Q1762.3594,734.8047 1762.3594,735.4141 L1762.3594,736.8672 Q1762.3594,737.4766 1762.125,737.7422 Q1761.8906,738.0078 1761.5156,738.0078 Q1761.1719,738.0078 1760.9688,737.8047 Q1760.7656,737.6172 1760.6563,737.1016 Q1760.6094,736.7422 1760.4219,736.5547 Q1760.0938,736.1797 1759.4844,735.9609 Q1758.875,735.7422 1758.25,735.7422 Q1757.4844,735.7422 1756.8438,736.0703 Q1756.2188,736.3984 1755.7188,737.1484 Q1755.2344,737.8984 1755.2344,738.9297 L1755.2344,740.0234 Q1755.2344,741.2578 1756.125,742.0859 Q1757.0156,742.8984 1758.6094,742.8984 Q1759.5469,742.8984 1760.2031,742.6484 Q1760.5938,742.4922 1761.0156,742.0547 Q1761.2813,741.7891 1761.4219,741.7109 Q1761.5781,741.6328 1761.7813,741.6328 Q1762.1094,741.6328 1762.3594,741.8984 Q1762.625,742.1484 1762.625,742.4922 Q1762.625,742.8359 1762.2813,743.2422 Q1761.7813,743.8203 1760.9844,744.1484 Q1759.9063,744.6016 1758.6094,744.6016 Q1757.0938,744.6016 1755.8906,743.9766 Q1754.9063,743.4766 1754.2188,742.4141 Q1753.5313,741.3359 1753.5313,740.0547 L1753.5313,738.8984 Q1753.5313,737.5703 1754.1406,736.4297 Q1754.7656,735.2734 1755.8594,734.6641 Q1756.9531,734.0391 1758.1875,734.0391 Q1758.9219,734.0391 1759.5625,734.2109 Q1760.2188,734.3672 1760.7656,734.7266 Z " fill="#000000"/><text fill="#000000" font-family="sans-serif" font-size="12" font-style="italic" lengthAdjust="spacing" textLength="82" x="1770" y="734.957">&#171;ValueObject&#187;</text><text fill="#000000" font-family="sans-serif" font-size="14" lengthAdjust="spacing" textLength="52" x="1785" y="752.127">Address</text><line style="stroke:#181818;stroke-width:0.5;" x1="1744" x2="1852" y1="760.2031" y2="760.2031"/><line style="stroke:#181818;stroke-width:0.5;" x1="1744" x2="1852" y1="768.2031" y2="768.2031"/></g><!--class Email--><g id="elem_Email"><rect codeLine="5" fill="#F1F1F1" height="58.7031" id="Email" rx="2.5" ry="2.5" style="stroke:#181818;stroke-width:0.5;" width="110" x="1888" y="717.5"/><ellipse cx="1903" cy="738.8516" fill="#ADD1B2" rx="11" ry="11" style="stroke:#181818;stroke-width:1.0;"/><path d="M1905.7656,734.7266 Q1905.9219,734.5078 1906.1094,734.3984 Q1906.2969,734.2891 1906.5156,734.2891 Q1906.8906,734.2891 1907.125,734.5547 Q1907.3594,734.8047 1907.3594,735.4141 L1907.3594,736.8672 Q1907.3594,737.4766 1907.125,737.7422 Q1906.8906,738.0078 1906.5156,738.0078 Q1906.1719,738.0078 1905.9688,737.8047 Q1905.7656,737.6172 1905.6563,737.1016 Q1905.6094,736.7422 1905.4219,736.5547 Q1905.0938,736.1797 1904.4844,735.9609 Q1903.875,735.7422 1903.25,735.7422 Q1902.4844,735.7422 1901.8438,736.0703 Q1901.2188,736.3984 1900.7188,737.1484 Q1900.2344,737.8984 1900.2344,738.9297 L1900.2344,740.0234 Q1900.2344,741.2578 1901.125,742.0859 Q1902.0156,742.8984 1903.6094,742.8984 Q1904.5469,742.8984 1905.2031,742.6484 Q1905.5938,742.4922 1906.0156,742.0547 Q1906.2813,741.7891 1906.4219,741.7109 Q1906.5781,741.6328 1906.7813,741.6328 Q1907.1094,741.6328 1907.3594,741.8984 Q1907.625,742.1484 1907.625,742.4922 Q1907.625,742.8359 1907.2813,743.2422 Q1906.7813,743.8203 1905.9844,744.1484 Q1904.9063,744.6016 1903.6094,744.6016 Q1902.0938,744.6016 1900.8906,743.9766 Q1899.9063,743.4766 1899.2188,742.4141 Q1898.5313,741.3359 1898.5313,740.0547 L1898.5313,738.8984 Q1898.5313,737.5703 1899.1406,736.4297 Q1899.7656,735.2734 1900.8594,734.6641 Q1901.9531,734.0391 1903.1875,734.0391 Q1903.9219,734.0391 1904.5625,734.2109 Q1905.2188,734.3672 1905.7656,734.7266 Z " fill="#000000"/><text fill="#000000" font-family="sans-serif" font-size="12" font-style="italic" lengthAdjust="spacing" textLength="82" x="1915" y="734.957">&#171;ValueObject&#187;</text><text fill="#000000" font-family="sans-serif" font-size="14" lengthAdjust="spacing" textLength="34" x="1939" y="752.127">Email</text><line style="stroke:#181818;stroke-width:0.5;" x1="1889" x2="1997" y1="760.2031" y2="760.2031"/><line style="stroke:#181818;stroke-width:0.5;" x1="1889" x2="1997" y1="768.2031" y2="768.2031"/></g><!--class Quantity--><g id="elem_Quantity"><rect codeLine="6" fill="#F1F1F1" height="58.7031" id="Quantity" rx="2.5" ry="2.5" style="stroke:#181818;stroke-width:0.5;" width="110" x="1453" y="717.5"/><ellipse cx="1468" cy="738.8516" fill="#ADD1B2" rx="11" ry="11" style="stroke:#181818;stroke-width:1.0;"/><path d="M1470.7656,734.7266 Q1470.9219,734.5078 1471.1094,734.3984 Q1471.2969,734.2891 1471.5156,734.2891 Q1471.8906,734.2891 1472.125,734.5547 Q1472.3594,734.8047 1472.3594,735.4141 L1472.3594,736.8672 Q1472.3594,737.4766 1472.125,737.7422 Q1471.8906,738.0078 1471.5156,738.0078 Q1471.1719,738.0078 1470.9688,737.8047 Q1470.7656,737.6172 1470.6563,737.1016 Q1470.6094,736.7422 1470.4219,736.5547 Q1470.0938,736.1797 1469.4844,735.9609 Q1468.875,735.7422 1468.25,735.7422 Q1467.4844,735.7422 1466.8438,736.0703 Q1466.2188,736.3984 1465.7188,737.1484 Q1465.2344,737.8984 1465.2344,738.9297 L1465.2344,740.0234 Q1465.2344,741.2578 1466.125,742.0859 Q1467.0156,742.8984 1468.6094,742.8984 Q1469.5469,742.8984 1470.2031,742.6484 Q1470.5938,742.4922 1471.0156,742.0547 Q1471.2813,741.7891 1471.4219,741.7109 Q1471.5781,741.6328 1471.7813,741.6328 Q1472.1094,741.6328 1472.3594,741.8984 Q1472.625,742.1484 1472.625,742.4922 Q1472.625,742.8359 1472.2813,743.2422 Q1471.7813,743.8203 1470.9844,744.1484 Q1469.9063,744.6016 1468.6094,744.6016 Q1467.0938,744.6016 1465.8906,743.9766 Q1464.9063,743.4766 1464.2188,742.4141 Q1463.5313,741.3359 1463.5313,740.0547 L1463.5313,738.8984 Q1463.5313,737.5703 1464.1406,736.4297 Q1464.7656,735.2734 1465.8594,734.6641 Q1466.9531,734.0391 1468.1875,734.0391 Q1468.9219,734.0391 1469.5625,734.2109 Q1470.2188,734.3672 1470.7656,734.7266 Z " fill="#000000"/><text fill="#000000" font-family="sans-serif" font-size="12" font-style="italic" lengthAdjust="spacing" textLength="82" x="1480" y="734.957">&#171;ValueObject&#187;</text><text fill="#000000" font-family="sans-serif" font-size="14" lengthAdjust="spacing" textLength="53" x="1494.5" y="752.127">Quantity</text><line style="stroke:#181818;stroke-width:0.5;" x1="1454" x2="1562" y1="760.2031" y2="760.2031"/><line style="stroke:#181818;stroke-width:0.5;" x1="1454" x2="1562" y1="768.2031" y2="768.2031"/></g><!--class User--><g id="elem_User"><rect codeLine="10" fill="#F1F1F1" height="58.7031" id="User" rx="2.5" ry="2.5" style="stroke:#181818;stroke-width:0.5;" width="68" x="2064" y="569"/><ellipse cx="2079" cy="590.3516" fill="#ADD1B2" rx="11" ry="11" style="stroke:#181818;stroke-width:1.0;"/><path d="M2081.7656,586.2266 Q2081.9219,586.0078 2082.1094,585.8984 Q2082.2969,585.7891 2082.5156,585.7891 Q2082.8906,585.7891 2083.125,586.0547 Q2083.3594,586.3047 2083.3594,586.9141 L2083.3594,588.3672 Q2083.3594,588.9766 2083.125,589.2422 Q2082.8906,589.5078 2082.5156,589.5078 Q2082.1719,589.5078 2081.9688,589.3047 Q2081.7656,589.1172 2081.6563,588.6016 Q2081.6094,588.2422 2081.4219,588.0547 Q2081.0938,587.6797 2080.4844,587.4609 Q2079.875,587.2422 2079.25,587.2422 Q2078.4844,587.2422 2077.8438,587.5703 Q2077.2188,587.8984 2076.7188,588.6484 Q2076.2344,589.3984 2076.2344,590.4297 L2076.2344,591.5234 Q2076.2344,592.7578 2077.125,593.5859 Q2078.0156,594.3984 2079.6094,594.3984 Q2080.5469,594.3984 2081.2031,594.1484 Q2081.5938,593.9922 2082.0156,593.5547 Q2082.2813,593.2891 2082.4219,593.2109 Q2082.5781,593.1328 2082.7813,593.1328 Q2083.1094,593.1328 2083.3594,593.3984 Q2083.625,593.6484 2083.625,593.9922 Q2083.625,594.3359 2083.2813,594.7422 Q2082.7813,595.3203 2081.9844,595.6484 Q2080.9063,596.1016 2079.6094,596.1016 Q2078.0938,596.1016 2076.8906,595.4766 Q2075.9063,594.9766 2075.2188,593.9141 Q2074.5313,592.8359 2074.5313,591.5547 L2074.5313,590.3984 Q2074.5313,589.0703 2075.1406,587.9297 Q2075.7656,586.7734 2076.8594,586.1641 Q2077.9531,585.5391 2079.1875,585.5391 Q2079.9219,585.5391 2080.5625,585.7109 Q2081.2188,585.8672 2081.7656,586.2266 Z " fill="#000000"/><text fill="#000000" font-family="sans-serif" font-size="12" font-style="italic" lengthAdjust="spacing" textLength="40" x="2091" y="586.457">&#171;Root&#187;</text><text fill="#000000" font-family="sans-serif" font-size="14" lengthAdjust="spacing" textLength="29" x="2096.5" y="603.627">User</text><line style="stroke:#181818;stroke-width:0.5;" x1="2065" x2="2131" y1="611.7031" y2="611.7031"/><line style="stroke:#181818;stroke-width:0.5;" x1="2065" x2="2131" y1="619.7031" y2="619.7031"/></g><!--class UserRole--><g id="elem_UserRole"><rect codeLine="13" fill="#F1F1F1" height="111.5313" id="UserRole" rx="2.5" ry="2.5" style="stroke:#181818;stroke-width:0.5;" width="110" x="2054" y="691"/><ellipse cx="2069" cy="712.3516" fill="#EB937F" rx="11" ry="11" style="stroke:#181818;stroke-width:1.0;"/><path d="M2067.8594,713.1484 L2067.8594,715.6484 L2072.1875,715.6484 L2072.1875,714.7266 Q2072.1875,714.1172 2072.4219,713.8516 Q2072.6719,713.5859 2073.0469,713.5859 Q2073.4219,713.5859 2073.6563,713.8516 Q2073.8906,714.1172 2073.8906,714.7266 L2073.8906,717.3516 L2065.8906,717.3516 Q2065.2656,717.3516 2065,717.1172 Q2064.75,716.8828 2064.75,716.4922 Q2064.75,716.1172 2065.0156,715.8828 Q2065.2813,715.6484 2065.8906,715.6484 L2066.1563,715.6484 L2066.1563,708.9922 L2065.8906,708.9922 Q2065.2656,708.9922 2065,708.7578 Q2064.75,708.5234 2064.75,708.1328 Q2064.75,707.7578 2065,707.5234 Q2065.2656,707.2891 2065.8906,707.2891 L2073.5156,707.2891 L2073.5156,709.8828 Q2073.5156,710.4922 2073.2813,710.7578 Q2073.0625,711.0078 2072.6719,711.0078 Q2072.2969,711.0078 2072.0625,710.7578 Q2071.8281,710.4922 2071.8281,709.8828 L2071.8281,708.9922 L2067.8594,708.9922 L2067.8594,711.4453 L2069.3438,711.4453 Q2069.3438,710.7891 2069.4688,710.6016 Q2069.7344,710.1953 2070.2031,710.1953 Q2070.5781,710.1953 2070.8125,710.4609 Q2071.0469,710.7109 2071.0469,711.3203 L2071.0469,713.2891 Q2071.0469,713.8359 2070.9219,714.0234 Q2070.6563,714.4141 2070.2031,714.4141 Q2069.7344,714.4141 2069.4688,714.0078 Q2069.3438,713.8203 2069.3438,713.1484 L2067.8594,713.1484 Z " fill="#000000"/><text fill="#000000" font-family="sans-serif" font-size="12" font-style="italic" lengthAdjust="spacing" textLength="82" x="2081" y="708.457">&#171;ValueObject&#187;</text><text fill="#000000" font-family="sans-serif" font-size="14" lengthAdjust="spacing" textLength="58" x="2093" y="725.627">UserRole</text><line style="stroke:#181818;stroke-width:0.5;" x1="2055" x2="2163" y1="733.7031" y2="733.7031"/><text fill="#000000" font-family="sans-serif" font-size="14" lengthAdjust="spacing" textLength="68" x="2060" y="752.2363">MANAGER</text><text fill="#000000" font-family="sans-serif" font-size="14" lengthAdjust="spacing" textLength="78" x="2060" y="769.8457">CUSTOMER</text><text fill="#000000" font-family="sans-serif" font-size="14" lengthAdjust="spacing" textLength="61" x="2060" y="787.4551">CARRIER</text><line style="stroke:#181818;stroke-width:0.5;" x1="2055" x2="2163" y1="794.5313" y2="794.5313"/></g><!--class UserId--><g id="elem_UserId"><rect codeLine="19" fill="#F1F1F1" height="58.7031" id="UserId" rx="2.5" ry="2.5" style="stroke:#181818;stroke-width:0.5;" width="110" x="2199" y="717.5"/><ellipse cx="2214" cy="738.8516" fill="#ADD1B2" rx="11" ry="11" style="stroke:#181818;stroke-width:1.0;"/><path d="M2216.7656,734.7266 Q2216.9219,734.5078 2217.1094,734.3984 Q2217.2969,734.2891 2217.5156,734.2891 Q2217.8906,734.2891 2218.125,734.5547 Q2218.3594,734.8047 2218.3594,735.4141 L2218.3594,736.8672 Q2218.3594,737.4766 2218.125,737.7422 Q2217.8906,738.0078 2217.5156,738.0078 Q2217.1719,738.0078 2216.9688,737.8047 Q2216.7656,737.6172 2216.6563,737.1016 Q2216.6094,736.7422 2216.4219,736.5547 Q2216.0938,736.1797 2215.4844,735.9609 Q2214.875,735.7422 2214.25,735.7422 Q2213.4844,735.7422 2212.8438,736.0703 Q2212.2188,736.3984 2211.7188,737.1484 Q2211.2344,737.8984 2211.2344,738.9297 L2211.2344,740.0234 Q2211.2344,741.2578 2212.125,742.0859 Q2213.0156,742.8984 2214.6094,742.8984 Q2215.5469,742.8984 2216.2031,742.6484 Q2216.5938,742.4922 2217.0156,742.0547 Q2217.2813,741.7891 2217.4219,741.7109 Q2217.5781,741.6328 2217.7813,741.6328 Q2218.1094,741.6328 2218.3594,741.8984 Q2218.625,742.1484 2218.625,742.4922 Q2218.625,742.8359 2218.2813,743.2422 Q2217.7813,743.8203 2216.9844,744.1484 Q2215.9063,744.6016 2214.6094,744.6016 Q2213.0938,744.6016 2211.8906,743.9766 Q2210.9063,743.4766 2210.2188,742.4141 Q2209.5313,741.3359 2209.5313,740.0547 L2209.5313,738.8984 Q2209.5313,737.5703 2210.1406,736.4297 Q2210.7656,735.2734 2211.8594,734.6641 Q2212.9531,734.0391 2214.1875,734.0391 Q2214.9219,734.0391 2215.5625,734.2109 Q2216.2188,734.3672 2216.7656,734.7266 Z " fill="#000000"/><text fill="#000000" font-family="sans-serif" font-size="12" font-style="italic" lengthAdjust="spacing" textLength="82" x="2226" y="734.957">&#171;ValueObject&#187;</text><text fill="#000000" font-family="sans-serif" font-size="14" lengthAdjust="spacing" textLength="40" x="2247" y="752.127">UserId</text><line style="stroke:#181818;stroke-width:0.5;" x1="2200" x2="2308" y1="760.2031" y2="760.2031"/><line style="stroke:#181818;stroke-width:0.5;" x1="2200" x2="2308" y1="768.2031" y2="768.2031"/></g><!--class Customer--><g id="elem_Customer"><rect codeLine="27" fill="#F1F1F1" height="58.7031" id="Customer" rx="2.5" ry="2.5" style="stroke:#181818;stroke-width:0.5;" width="93" x="183.5" y="42"/><ellipse cx="198.5" cy="63.3516" fill="#ADD1B2" rx="11" ry="11" style="stroke:#181818;stroke-width:1.0;"/><path d="M201.2656,59.2266 Q201.4219,59.0078 201.6094,58.8984 Q201.7969,58.7891 202.0156,58.7891 Q202.3906,58.7891 202.625,59.0547 Q202.8594,59.3047 202.8594,59.9141 L202.8594,61.3672 Q202.8594,61.9766 202.625,62.2422 Q202.3906,62.5078 202.0156,62.5078 Q201.6719,62.5078 201.4688,62.3047 Q201.2656,62.1172 201.1563,61.6016 Q201.1094,61.2422 200.9219,61.0547 Q200.5938,60.6797 199.9844,60.4609 Q199.375,60.2422 198.75,60.2422 Q197.9844,60.2422 197.3438,60.5703 Q196.7188,60.8984 196.2188,61.6484 Q195.7344,62.3984 195.7344,63.4297 L195.7344,64.5234 Q195.7344,65.7578 196.625,66.5859 Q197.5156,67.3984 199.1094,67.3984 Q200.0469,67.3984 200.7031,67.1484 Q201.0938,66.9922 201.5156,66.5547 Q201.7813,66.2891 201.9219,66.2109 Q202.0781,66.1328 202.2813,66.1328 Q202.6094,66.1328 202.8594,66.3984 Q203.125,66.6484 203.125,66.9922 Q203.125,67.3359 202.7813,67.7422 Q202.2813,68.3203 201.4844,68.6484 Q200.4063,69.1016 199.1094,69.1016 Q197.5938,69.1016 196.3906,68.4766 Q195.4063,67.9766 194.7188,66.9141 Q194.0313,65.8359 194.0313,64.5547 L194.0313,63.3984 Q194.0313,62.0703 194.6406,60.9297 Q195.2656,59.7734 196.3594,59.1641 Q197.4531,58.5391 198.6875,58.5391 Q199.4219,58.5391 200.0625,58.7109 Q200.7188,58.8672 201.2656,59.2266 Z " fill="#000000"/><text fill="#000000" font-family="sans-serif" font-size="12" font-style="italic" lengthAdjust="spacing" textLength="40" x="223" y="59.457">&#171;Root&#187;</text><text fill="#000000" font-family="sans-serif" font-size="14" lengthAdjust="spacing" textLength="61" x="212.5" y="76.627">Customer</text><line style="stroke:#181818;stroke-width:0.5;" x1="184.5" x2="275.5" y1="84.7031" y2="84.7031"/><line style="stroke:#181818;stroke-width:0.5;" x1="184.5" x2="275.5" y1="92.7031" y2="92.7031"/></g><!--class NIF--><g id="elem_NIF"><rect codeLine="30" fill="#F1F1F1" height="58.7031" id="NIF" rx="2.5" ry="2.5" style="stroke:#181818;stroke-width:0.5;" width="110" x="22" y="201"/><ellipse cx="37" cy="222.3516" fill="#ADD1B2" rx="11" ry="11" style="stroke:#181818;stroke-width:1.0;"/><path d="M39.7656,218.2266 Q39.9219,218.0078 40.1094,217.8984 Q40.2969,217.7891 40.5156,217.7891 Q40.8906,217.7891 41.125,218.0547 Q41.3594,218.3047 41.3594,218.9141 L41.3594,220.3672 Q41.3594,220.9766 41.125,221.2422 Q40.8906,221.5078 40.5156,221.5078 Q40.1719,221.5078 39.9688,221.3047 Q39.7656,221.1172 39.6563,220.6016 Q39.6094,220.2422 39.4219,220.0547 Q39.0938,219.6797 38.4844,219.4609 Q37.875,219.2422 37.25,219.2422 Q36.4844,219.2422 35.8438,219.5703 Q35.2188,219.8984 34.7188,220.6484 Q34.2344,221.3984 34.2344,222.4297 L34.2344,223.5234 Q34.2344,224.7578 35.125,225.5859 Q36.0156,226.3984 37.6094,226.3984 Q38.5469,226.3984 39.2031,226.1484 Q39.5938,225.9922 40.0156,225.5547 Q40.2813,225.2891 40.4219,225.2109 Q40.5781,225.1328 40.7813,225.1328 Q41.1094,225.1328 41.3594,225.3984 Q41.625,225.6484 41.625,225.9922 Q41.625,226.3359 41.2813,226.7422 Q40.7813,227.3203 39.9844,227.6484 Q38.9063,228.1016 37.6094,228.1016 Q36.0938,228.1016 34.8906,227.4766 Q33.9063,226.9766 33.2188,225.9141 Q32.5313,224.8359 32.5313,223.5547 L32.5313,222.3984 Q32.5313,221.0703 33.1406,219.9297 Q33.7656,218.7734 34.8594,218.1641 Q35.9531,217.5391 37.1875,217.5391 Q37.9219,217.5391 38.5625,217.7109 Q39.2188,217.8672 39.7656,218.2266 Z " fill="#000000"/><text fill="#000000" font-family="sans-serif" font-size="12" font-style="italic" lengthAdjust="spacing" textLength="82" x="49" y="218.457">&#171;ValueObject&#187;</text><text fill="#000000" font-family="sans-serif" font-size="14" lengthAdjust="spacing" textLength="21" x="79.5" y="235.627">NIF</text><line style="stroke:#181818;stroke-width:0.5;" x1="23" x2="131" y1="243.7031" y2="243.7031"/><line style="stroke:#181818;stroke-width:0.5;" x1="23" x2="131" y1="251.7031" y2="251.7031"/></g><!--class CustomerId--><g id="elem_CustomerId"><rect codeLine="31" fill="#F1F1F1" height="58.7031" id="CustomerId" rx="2.5" ry="2.5" style="stroke:#181818;stroke-width:0.5;" width="110" x="167" y="201"/><ellipse cx="182" cy="222.3516" fill="#ADD1B2" rx="11" ry="11" style="stroke:#181818;stroke-width:1.0;"/><path d="M184.7656,218.2266 Q184.9219,218.0078 185.1094,217.8984 Q185.2969,217.7891 185.5156,217.7891 Q185.8906,217.7891 186.125,218.0547 Q186.3594,218.3047 186.3594,218.9141 L186.3594,220.3672 Q186.3594,220.9766 186.125,221.2422 Q185.8906,221.5078 185.5156,221.5078 Q185.1719,221.5078 184.9688,221.3047 Q184.7656,221.1172 184.6563,220.6016 Q184.6094,220.2422 184.4219,220.0547 Q184.0938,219.6797 183.4844,219.4609 Q182.875,219.2422 182.25,219.2422 Q181.4844,219.2422 180.8438,219.5703 Q180.2188,219.8984 179.7188,220.6484 Q179.2344,221.3984 179.2344,222.4297 L179.2344,223.5234 Q179.2344,224.7578 180.125,225.5859 Q181.0156,226.3984 182.6094,226.3984 Q183.5469,226.3984 184.2031,226.1484 Q184.5938,225.9922 185.0156,225.5547 Q185.2813,225.2891 185.4219,225.2109 Q185.5781,225.1328 185.7813,225.1328 Q186.1094,225.1328 186.3594,225.3984 Q186.625,225.6484 186.625,225.9922 Q186.625,226.3359 186.2813,226.7422 Q185.7813,227.3203 184.9844,227.6484 Q183.9063,228.1016 182.6094,228.1016 Q181.0938,228.1016 179.8906,227.4766 Q178.9063,226.9766 178.2188,225.9141 Q177.5313,224.8359 177.5313,223.5547 L177.5313,222.3984 Q177.5313,221.0703 178.1406,219.9297 Q178.7656,218.7734 179.8594,218.1641 Q180.9531,217.5391 182.1875,217.5391 Q182.9219,217.5391 183.5625,217.7109 Q184.2188,217.8672 184.7656,218.2266 Z " fill="#000000"/><text fill="#000000" font-family="sans-serif" font-size="12" font-style="italic" lengthAdjust="spacing" textLength="82" x="194" y="218.457">&#171;ValueObject&#187;</text><text fill="#000000" font-family="sans-serif" font-size="14" lengthAdjust="spacing" textLength="72" x="199" y="235.627">CustomerId</text><line style="stroke:#181818;stroke-width:0.5;" x1="168" x2="276" y1="243.7031" y2="243.7031"/><line style="stroke:#181818;stroke-width:0.5;" x1="168" x2="276" y1="251.7031" y2="251.7031"/></g><!--class Category--><g id="elem_Category"><rect codeLine="40" fill="#F1F1F1" height="58.7031" id="Category" rx="2.5" ry="2.5" style="stroke:#181818;stroke-width:0.5;" width="90" x="1144" y="717.5"/><ellipse cx="1159" cy="738.8516" fill="#ADD1B2" rx="11" ry="11" style="stroke:#181818;stroke-width:1.0;"/><path d="M1161.7656,734.7266 Q1161.9219,734.5078 1162.1094,734.3984 Q1162.2969,734.2891 1162.5156,734.2891 Q1162.8906,734.2891 1163.125,734.5547 Q1163.3594,734.8047 1163.3594,735.4141 L1163.3594,736.8672 Q1163.3594,737.4766 1163.125,737.7422 Q1162.8906,738.0078 1162.5156,738.0078 Q1162.1719,738.0078 1161.9688,737.8047 Q1161.7656,737.6172 1161.6563,737.1016 Q1161.6094,736.7422 1161.4219,736.5547 Q1161.0938,736.1797 1160.4844,735.9609 Q1159.875,735.7422 1159.25,735.7422 Q1158.4844,735.7422 1157.8438,736.0703 Q1157.2188,736.3984 1156.7188,737.1484 Q1156.2344,737.8984 1156.2344,738.9297 L1156.2344,740.0234 Q1156.2344,741.2578 1157.125,742.0859 Q1158.0156,742.8984 1159.6094,742.8984 Q1160.5469,742.8984 1161.2031,742.6484 Q1161.5938,742.4922 1162.0156,742.0547 Q1162.2813,741.7891 1162.4219,741.7109 Q1162.5781,741.6328 1162.7813,741.6328 Q1163.1094,741.6328 1163.3594,741.8984 Q1163.625,742.1484 1163.625,742.4922 Q1163.625,742.8359 1163.2813,743.2422 Q1162.7813,743.8203 1161.9844,744.1484 Q1160.9063,744.6016 1159.6094,744.6016 Q1158.0938,744.6016 1156.8906,743.9766 Q1155.9063,743.4766 1155.2188,742.4141 Q1154.5313,741.3359 1154.5313,740.0547 L1154.5313,738.8984 Q1154.5313,737.5703 1155.1406,736.4297 Q1155.7656,735.2734 1156.8594,734.6641 Q1157.9531,734.0391 1159.1875,734.0391 Q1159.9219,734.0391 1160.5625,734.2109 Q1161.2188,734.3672 1161.7656,734.7266 Z " fill="#000000"/><text fill="#000000" font-family="sans-serif" font-size="12" font-style="italic" lengthAdjust="spacing" textLength="40" x="1182" y="734.957">&#171;Root&#187;</text><text fill="#000000" font-family="sans-serif" font-size="14" lengthAdjust="spacing" textLength="58" x="1173" y="752.127">Category</text><line style="stroke:#181818;stroke-width:0.5;" x1="1145" x2="1233" y1="760.2031" y2="760.2031"/><line style="stroke:#181818;stroke-width:0.5;" x1="1145" x2="1233" y1="768.2031" y2="768.2031"/></g><!--class CategoryName--><g id="elem_CategoryName"><rect codeLine="41" fill="#F1F1F1" height="58.7031" id="CategoryName" rx="2.5" ry="2.5" style="stroke:#181818;stroke-width:0.5;" width="126" x="1126" y="866"/><ellipse cx="1141" cy="887.3516" fill="#ADD1B2" rx="11" ry="11" style="stroke:#181818;stroke-width:1.0;"/><path d="M1143.7656,883.2266 Q1143.9219,883.0078 1144.1094,882.8984 Q1144.2969,882.7891 1144.5156,882.7891 Q1144.8906,882.7891 1145.125,883.0547 Q1145.3594,883.3047 1145.3594,883.9141 L1145.3594,885.3672 Q1145.3594,885.9766 1145.125,886.2422 Q1144.8906,886.5078 1144.5156,886.5078 Q1144.1719,886.5078 1143.9688,886.3047 Q1143.7656,886.1172 1143.6563,885.6016 Q1143.6094,885.2422 1143.4219,885.0547 Q1143.0938,884.6797 1142.4844,884.4609 Q1141.875,884.2422 1141.25,884.2422 Q1140.4844,884.2422 1139.8438,884.5703 Q1139.2188,884.8984 1138.7188,885.6484 Q1138.2344,886.3984 1138.2344,887.4297 L1138.2344,888.5234 Q1138.2344,889.7578 1139.125,890.5859 Q1140.0156,891.3984 1141.6094,891.3984 Q1142.5469,891.3984 1143.2031,891.1484 Q1143.5938,890.9922 1144.0156,890.5547 Q1144.2813,890.2891 1144.4219,890.2109 Q1144.5781,890.1328 1144.7813,890.1328 Q1145.1094,890.1328 1145.3594,890.3984 Q1145.625,890.6484 1145.625,890.9922 Q1145.625,891.3359 1145.2813,891.7422 Q1144.7813,892.3203 1143.9844,892.6484 Q1142.9063,893.1016 1141.6094,893.1016 Q1140.0938,893.1016 1138.8906,892.4766 Q1137.9063,891.9766 1137.2188,890.9141 Q1136.5313,889.8359 1136.5313,888.5547 L1136.5313,887.3984 Q1136.5313,886.0703 1137.1406,884.9297 Q1137.7656,883.7734 1138.8594,883.1641 Q1139.9531,882.5391 1141.1875,882.5391 Q1141.9219,882.5391 1142.5625,882.7109 Q1143.2188,882.8672 1143.7656,883.2266 Z " fill="#000000"/><text fill="#000000" font-family="sans-serif" font-size="12" font-style="italic" lengthAdjust="spacing" textLength="82" x="1161" y="883.457">&#171;ValueObject&#187;</text><text fill="#000000" font-family="sans-serif" font-size="14" lengthAdjust="spacing" textLength="94" x="1155" y="900.627">CategoryName</text><line style="stroke:#181818;stroke-width:0.5;" x1="1127" x2="1251" y1="908.7031" y2="908.7031"/><line style="stroke:#181818;stroke-width:0.5;" x1="1127" x2="1251" y1="916.7031" y2="916.7031"/></g><!--class CategoryId--><g id="elem_CategoryId"><rect codeLine="42" fill="#F1F1F1" height="58.7031" id="CategoryId" rx="2.5" ry="2.5" style="stroke:#181818;stroke-width:0.5;" width="110" x="1287" y="866"/><ellipse cx="1302" cy="887.3516" fill="#ADD1B2" rx="11" ry="11" style="stroke:#181818;stroke-width:1.0;"/><path d="M1304.7656,883.2266 Q1304.9219,883.0078 1305.1094,882.8984 Q1305.2969,882.7891 1305.5156,882.7891 Q1305.8906,882.7891 1306.125,883.0547 Q1306.3594,883.3047 1306.3594,883.9141 L1306.3594,885.3672 Q1306.3594,885.9766 1306.125,886.2422 Q1305.8906,886.5078 1305.5156,886.5078 Q1305.1719,886.5078 1304.9688,886.3047 Q1304.7656,886.1172 1304.6563,885.6016 Q1304.6094,885.2422 1304.4219,885.0547 Q1304.0938,884.6797 1303.4844,884.4609 Q1302.875,884.2422 1302.25,884.2422 Q1301.4844,884.2422 1300.8438,884.5703 Q1300.2188,884.8984 1299.7188,885.6484 Q1299.2344,886.3984 1299.2344,887.4297 L1299.2344,888.5234 Q1299.2344,889.7578 1300.125,890.5859 Q1301.0156,891.3984 1302.6094,891.3984 Q1303.5469,891.3984 1304.2031,891.1484 Q1304.5938,890.9922 1305.0156,890.5547 Q1305.2813,890.2891 1305.4219,890.2109 Q1305.5781,890.1328 1305.7813,890.1328 Q1306.1094,890.1328 1306.3594,890.3984 Q1306.625,890.6484 1306.625,890.9922 Q1306.625,891.3359 1306.2813,891.7422 Q1305.7813,892.3203 1304.9844,892.6484 Q1303.9063,893.1016 1302.6094,893.1016 Q1301.0938,893.1016 1299.8906,892.4766 Q1298.9063,891.9766 1298.2188,890.9141 Q1297.5313,889.8359 1297.5313,888.5547 L1297.5313,887.3984 Q1297.5313,886.0703 1298.1406,884.9297 Q1298.7656,883.7734 1299.8594,883.1641 Q1300.9531,882.5391 1302.1875,882.5391 Q1302.9219,882.5391 1303.5625,882.7109 Q1304.2188,882.8672 1304.7656,883.2266 Z " fill="#000000"/><text fill="#000000" font-family="sans-serif" font-size="12" font-style="italic" lengthAdjust="spacing" textLength="82" x="1314" y="883.457">&#171;ValueObject&#187;</text><text fill="#000000" font-family="sans-serif" font-size="14" lengthAdjust="spacing" textLength="69" x="1320.5" y="900.627">CategoryId</text><line style="stroke:#181818;stroke-width:0.5;" x1="1288" x2="1396" y1="908.7031" y2="908.7031"/><line style="stroke:#181818;stroke-width:0.5;" x1="1288" x2="1396" y1="916.7031" y2="916.7031"/></g><!--class Product--><g id="elem_Product"><rect codeLine="49" fill="#F1F1F1" height="58.7031" id="Product" rx="2.5" ry="2.5" style="stroke:#181818;stroke-width:0.5;" width="81" x="970.5" y="569"/><ellipse cx="985.5" cy="590.3516" fill="#ADD1B2" rx="11" ry="11" style="stroke:#181818;stroke-width:1.0;"/><path d="M988.2656,586.2266 Q988.4219,586.0078 988.6094,585.8984 Q988.7969,585.7891 989.0156,585.7891 Q989.3906,585.7891 989.625,586.0547 Q989.8594,586.3047 989.8594,586.9141 L989.8594,588.3672 Q989.8594,588.9766 989.625,589.2422 Q989.3906,589.5078 989.0156,589.5078 Q988.6719,589.5078 988.4688,589.3047 Q988.2656,589.1172 988.1563,588.6016 Q988.1094,588.2422 987.9219,588.0547 Q987.5938,587.6797 986.9844,587.4609 Q986.375,587.2422 985.75,587.2422 Q984.9844,587.2422 984.3438,587.5703 Q983.7188,587.8984 983.2188,588.6484 Q982.7344,589.3984 982.7344,590.4297 L982.7344,591.5234 Q982.7344,592.7578 983.625,593.5859 Q984.5156,594.3984 986.1094,594.3984 Q987.0469,594.3984 987.7031,594.1484 Q988.0938,593.9922 988.5156,593.5547 Q988.7813,593.2891 988.9219,593.2109 Q989.0781,593.1328 989.2813,593.1328 Q989.6094,593.1328 989.8594,593.3984 Q990.125,593.6484 990.125,593.9922 Q990.125,594.3359 989.7813,594.7422 Q989.2813,595.3203 988.4844,595.6484 Q987.4063,596.1016 986.1094,596.1016 Q984.5938,596.1016 983.3906,595.4766 Q982.4063,594.9766 981.7188,593.9141 Q981.0313,592.8359 981.0313,591.5547 L981.0313,590.3984 Q981.0313,589.0703 981.6406,587.9297 Q982.2656,586.7734 983.3594,586.1641 Q984.4531,585.5391 985.6875,585.5391 Q986.4219,585.5391 987.0625,585.7109 Q987.7188,585.8672 988.2656,586.2266 Z " fill="#000000"/><text fill="#000000" font-family="sans-serif" font-size="12" font-style="italic" lengthAdjust="spacing" textLength="40" x="1004" y="586.457">&#171;Root&#187;</text><text fill="#000000" font-family="sans-serif" font-size="14" lengthAdjust="spacing" textLength="49" x="999.5" y="603.627">Product</text><line style="stroke:#181818;stroke-width:0.5;" x1="971.5" x2="1050.5" y1="611.7031" y2="611.7031"/><line style="stroke:#181818;stroke-width:0.5;" x1="971.5" x2="1050.5" y1="619.7031" y2="619.7031"/></g><!--class ProductName--><g id="elem_ProductName"><rect codeLine="50" fill="#F1F1F1" height="58.7031" id="ProductName" rx="2.5" ry="2.5" style="stroke:#181818;stroke-width:0.5;" width="117" x="952.5" y="717.5"/><ellipse cx="967.5" cy="738.8516" fill="#ADD1B2" rx="11" ry="11" style="stroke:#181818;stroke-width:1.0;"/><path d="M970.2656,734.7266 Q970.4219,734.5078 970.6094,734.3984 Q970.7969,734.2891 971.0156,734.2891 Q971.3906,734.2891 971.625,734.5547 Q971.8594,734.8047 971.8594,735.4141 L971.8594,736.8672 Q971.8594,737.4766 971.625,737.7422 Q971.3906,738.0078 971.0156,738.0078 Q970.6719,738.0078 970.4688,737.8047 Q970.2656,737.6172 970.1563,737.1016 Q970.1094,736.7422 969.9219,736.5547 Q969.5938,736.1797 968.9844,735.9609 Q968.375,735.7422 967.75,735.7422 Q966.9844,735.7422 966.3438,736.0703 Q965.7188,736.3984 965.2188,737.1484 Q964.7344,737.8984 964.7344,738.9297 L964.7344,740.0234 Q964.7344,741.2578 965.625,742.0859 Q966.5156,742.8984 968.1094,742.8984 Q969.0469,742.8984 969.7031,742.6484 Q970.0938,742.4922 970.5156,742.0547 Q970.7813,741.7891 970.9219,741.7109 Q971.0781,741.6328 971.2813,741.6328 Q971.6094,741.6328 971.8594,741.8984 Q972.125,742.1484 972.125,742.4922 Q972.125,742.8359 971.7813,743.2422 Q971.2813,743.8203 970.4844,744.1484 Q969.4063,744.6016 968.1094,744.6016 Q966.5938,744.6016 965.3906,743.9766 Q964.4063,743.4766 963.7188,742.4141 Q963.0313,741.3359 963.0313,740.0547 L963.0313,738.8984 Q963.0313,737.5703 963.6406,736.4297 Q964.2656,735.2734 965.3594,734.6641 Q966.4531,734.0391 967.6875,734.0391 Q968.4219,734.0391 969.0625,734.2109 Q969.7188,734.3672 970.2656,734.7266 Z " fill="#000000"/><text fill="#000000" font-family="sans-serif" font-size="12" font-style="italic" lengthAdjust="spacing" textLength="82" x="983" y="734.957">&#171;ValueObject&#187;</text><text fill="#000000" font-family="sans-serif" font-size="14" lengthAdjust="spacing" textLength="85" x="981.5" y="752.127">ProductName</text><line style="stroke:#181818;stroke-width:0.5;" x1="953.5" x2="1068.5" y1="760.2031" y2="760.2031"/><line style="stroke:#181818;stroke-width:0.5;" x1="953.5" x2="1068.5" y1="768.2031" y2="768.2031"/></g><!--class ProductDescription--><g id="elem_ProductDescription"><rect codeLine="51" fill="#F1F1F1" height="58.7031" id="ProductDescription" rx="2.5" ry="2.5" style="stroke:#181818;stroke-width:0.5;" width="152" x="620" y="717.5"/><ellipse cx="635" cy="738.8516" fill="#ADD1B2" rx="11" ry="11" style="stroke:#181818;stroke-width:1.0;"/><path d="M637.7656,734.7266 Q637.9219,734.5078 638.1094,734.3984 Q638.2969,734.2891 638.5156,734.2891 Q638.8906,734.2891 639.125,734.5547 Q639.3594,734.8047 639.3594,735.4141 L639.3594,736.8672 Q639.3594,737.4766 639.125,737.7422 Q638.8906,738.0078 638.5156,738.0078 Q638.1719,738.0078 637.9688,737.8047 Q637.7656,737.6172 637.6563,737.1016 Q637.6094,736.7422 637.4219,736.5547 Q637.0938,736.1797 636.4844,735.9609 Q635.875,735.7422 635.25,735.7422 Q634.4844,735.7422 633.8438,736.0703 Q633.2188,736.3984 632.7188,737.1484 Q632.2344,737.8984 632.2344,738.9297 L632.2344,740.0234 Q632.2344,741.2578 633.125,742.0859 Q634.0156,742.8984 635.6094,742.8984 Q636.5469,742.8984 637.2031,742.6484 Q637.5938,742.4922 638.0156,742.0547 Q638.2813,741.7891 638.4219,741.7109 Q638.5781,741.6328 638.7813,741.6328 Q639.1094,741.6328 639.3594,741.8984 Q639.625,742.1484 639.625,742.4922 Q639.625,742.8359 639.2813,743.2422 Q638.7813,743.8203 637.9844,744.1484 Q636.9063,744.6016 635.6094,744.6016 Q634.0938,744.6016 632.8906,743.9766 Q631.9063,743.4766 631.2188,742.4141 Q630.5313,741.3359 630.5313,740.0547 L630.5313,738.8984 Q630.5313,737.5703 631.1406,736.4297 Q631.7656,735.2734 632.8594,734.6641 Q633.9531,734.0391 635.1875,734.0391 Q635.9219,734.0391 636.5625,734.2109 Q637.2188,734.3672 637.7656,734.7266 Z " fill="#000000"/><text fill="#000000" font-family="sans-serif" font-size="12" font-style="italic" lengthAdjust="spacing" textLength="82" x="668" y="734.957">&#171;ValueObject&#187;</text><text fill="#000000" font-family="sans-serif" font-size="14" lengthAdjust="spacing" textLength="120" x="649" y="752.127">ProductDescription</text><line style="stroke:#181818;stroke-width:0.5;" x1="621" x2="771" y1="760.2031" y2="760.2031"/><line style="stroke:#181818;stroke-width:0.5;" x1="621" x2="771" y1="768.2031" y2="768.2031"/></g><!--class ProductId--><g id="elem_ProductId"><rect codeLine="52" fill="#F1F1F1" height="58.7031" id="ProductId" rx="2.5" ry="2.5" style="stroke:#181818;stroke-width:0.5;" width="110" x="807" y="717.5"/><ellipse cx="822" cy="738.8516" fill="#ADD1B2" rx="11" ry="11" style="stroke:#181818;stroke-width:1.0;"/><path d="M824.7656,734.7266 Q824.9219,734.5078 825.1094,734.3984 Q825.2969,734.2891 825.5156,734.2891 Q825.8906,734.2891 826.125,734.5547 Q826.3594,734.8047 826.3594,735.4141 L826.3594,736.8672 Q826.3594,737.4766 826.125,737.7422 Q825.8906,738.0078 825.5156,738.0078 Q825.1719,738.0078 824.9688,737.8047 Q824.7656,737.6172 824.6563,737.1016 Q824.6094,736.7422 824.4219,736.5547 Q824.0938,736.1797 823.4844,735.9609 Q822.875,735.7422 822.25,735.7422 Q821.4844,735.7422 820.8438,736.0703 Q820.2188,736.3984 819.7188,737.1484 Q819.2344,737.8984 819.2344,738.9297 L819.2344,740.0234 Q819.2344,741.2578 820.125,742.0859 Q821.0156,742.8984 822.6094,742.8984 Q823.5469,742.8984 824.2031,742.6484 Q824.5938,742.4922 825.0156,742.0547 Q825.2813,741.7891 825.4219,741.7109 Q825.5781,741.6328 825.7813,741.6328 Q826.1094,741.6328 826.3594,741.8984 Q826.625,742.1484 826.625,742.4922 Q826.625,742.8359 826.2813,743.2422 Q825.7813,743.8203 824.9844,744.1484 Q823.9063,744.6016 822.6094,744.6016 Q821.0938,744.6016 819.8906,743.9766 Q818.9063,743.4766 818.2188,742.4141 Q817.5313,741.3359 817.5313,740.0547 L817.5313,738.8984 Q817.5313,737.5703 818.1406,736.4297 Q818.7656,735.2734 819.8594,734.6641 Q820.9531,734.0391 822.1875,734.0391 Q822.9219,734.0391 823.5625,734.2109 Q824.2188,734.3672 824.7656,734.7266 Z " fill="#000000"/><text fill="#000000" font-family="sans-serif" font-size="12" font-style="italic" lengthAdjust="spacing" textLength="82" x="834" y="734.957">&#171;ValueObject&#187;</text><text fill="#000000" font-family="sans-serif" font-size="14" lengthAdjust="spacing" textLength="60" x="845" y="752.127">ProductId</text><line style="stroke:#181818;stroke-width:0.5;" x1="808" x2="916" y1="760.2031" y2="760.2031"/><line style="stroke:#181818;stroke-width:0.5;" x1="808" x2="916" y1="768.2031" y2="768.2031"/></g><!--class Cart--><g id="elem_Cart"><rect codeLine="62" fill="#F1F1F1" height="58.7031" id="Cart" rx="2.5" ry="2.5" style="stroke:#181818;stroke-width:0.5;" width="68" x="342" y="201"/><ellipse cx="357" cy="222.3516" fill="#ADD1B2" rx="11" ry="11" style="stroke:#181818;stroke-width:1.0;"/><path d="M359.7656,218.2266 Q359.9219,218.0078 360.1094,217.8984 Q360.2969,217.7891 360.5156,217.7891 Q360.8906,217.7891 361.125,218.0547 Q361.3594,218.3047 361.3594,218.9141 L361.3594,220.3672 Q361.3594,220.9766 361.125,221.2422 Q360.8906,221.5078 360.5156,221.5078 Q360.1719,221.5078 359.9688,221.3047 Q359.7656,221.1172 359.6563,220.6016 Q359.6094,220.2422 359.4219,220.0547 Q359.0938,219.6797 358.4844,219.4609 Q357.875,219.2422 357.25,219.2422 Q356.4844,219.2422 355.8438,219.5703 Q355.2188,219.8984 354.7188,220.6484 Q354.2344,221.3984 354.2344,222.4297 L354.2344,223.5234 Q354.2344,224.7578 355.125,225.5859 Q356.0156,226.3984 357.6094,226.3984 Q358.5469,226.3984 359.2031,226.1484 Q359.5938,225.9922 360.0156,225.5547 Q360.2813,225.2891 360.4219,225.2109 Q360.5781,225.1328 360.7813,225.1328 Q361.1094,225.1328 361.3594,225.3984 Q361.625,225.6484 361.625,225.9922 Q361.625,226.3359 361.2813,226.7422 Q360.7813,227.3203 359.9844,227.6484 Q358.9063,228.1016 357.6094,228.1016 Q356.0938,228.1016 354.8906,227.4766 Q353.9063,226.9766 353.2188,225.9141 Q352.5313,224.8359 352.5313,223.5547 L352.5313,222.3984 Q352.5313,221.0703 353.1406,219.9297 Q353.7656,218.7734 354.8594,218.1641 Q355.9531,217.5391 357.1875,217.5391 Q357.9219,217.5391 358.5625,217.7109 Q359.2188,217.8672 359.7656,218.2266 Z " fill="#000000"/><text fill="#000000" font-family="sans-serif" font-size="12" font-style="italic" lengthAdjust="spacing" textLength="40" x="369" y="218.457">&#171;Root&#187;</text><text fill="#000000" font-family="sans-serif" font-size="14" lengthAdjust="spacing" textLength="27" x="375.5" y="235.627">Cart</text><line style="stroke:#181818;stroke-width:0.5;" x1="343" x2="409" y1="243.7031" y2="243.7031"/><line style="stroke:#181818;stroke-width:0.5;" x1="343" x2="409" y1="251.7031" y2="251.7031"/></g><!--class CartItem--><g id="elem_CartItem"><rect codeLine="65" fill="#F1F1F1" height="58.7031" id="CartItem" rx="2.5" ry="2.5" style="stroke:#181818;stroke-width:0.5;" width="85" x="333.5" y="375"/><ellipse cx="348.5" cy="396.3516" fill="#ADD1B2" rx="11" ry="11" style="stroke:#181818;stroke-width:1.0;"/><path d="M351.2656,392.2266 Q351.4219,392.0078 351.6094,391.8984 Q351.7969,391.7891 352.0156,391.7891 Q352.3906,391.7891 352.625,392.0547 Q352.8594,392.3047 352.8594,392.9141 L352.8594,394.3672 Q352.8594,394.9766 352.625,395.2422 Q352.3906,395.5078 352.0156,395.5078 Q351.6719,395.5078 351.4688,395.3047 Q351.2656,395.1172 351.1563,394.6016 Q351.1094,394.2422 350.9219,394.0547 Q350.5938,393.6797 349.9844,393.4609 Q349.375,393.2422 348.75,393.2422 Q347.9844,393.2422 347.3438,393.5703 Q346.7188,393.8984 346.2188,394.6484 Q345.7344,395.3984 345.7344,396.4297 L345.7344,397.5234 Q345.7344,398.7578 346.625,399.5859 Q347.5156,400.3984 349.1094,400.3984 Q350.0469,400.3984 350.7031,400.1484 Q351.0938,399.9922 351.5156,399.5547 Q351.7813,399.2891 351.9219,399.2109 Q352.0781,399.1328 352.2813,399.1328 Q352.6094,399.1328 352.8594,399.3984 Q353.125,399.6484 353.125,399.9922 Q353.125,400.3359 352.7813,400.7422 Q352.2813,401.3203 351.4844,401.6484 Q350.4063,402.1016 349.1094,402.1016 Q347.5938,402.1016 346.3906,401.4766 Q345.4063,400.9766 344.7188,399.9141 Q344.0313,398.8359 344.0313,397.5547 L344.0313,396.3984 Q344.0313,395.0703 344.6406,393.9297 Q345.2656,392.7734 346.3594,392.1641 Q347.4531,391.5391 348.6875,391.5391 Q349.4219,391.5391 350.0625,391.7109 Q350.7188,391.8672 351.2656,392.2266 Z " fill="#000000"/><text fill="#000000" font-family="sans-serif" font-size="12" font-style="italic" lengthAdjust="spacing" textLength="44" x="367" y="392.457">&#171;Entity&#187;</text><text fill="#000000" font-family="sans-serif" font-size="14" lengthAdjust="spacing" textLength="53" x="362.5" y="409.627">CartItem</text><line style="stroke:#181818;stroke-width:0.5;" x1="334.5" x2="417.5" y1="417.7031" y2="417.7031"/><line style="stroke:#181818;stroke-width:0.5;" x1="334.5" x2="417.5" y1="425.7031" y2="425.7031"/></g><!--class CartId--><g id="elem_CartId"><rect codeLine="68" fill="#F1F1F1" height="58.7031" id="CartId" rx="2.5" ry="2.5" style="stroke:#181818;stroke-width:0.5;" width="110" x="454" y="375"/><ellipse cx="469" cy="396.3516" fill="#ADD1B2" rx="11" ry="11" style="stroke:#181818;stroke-width:1.0;"/><path d="M471.7656,392.2266 Q471.9219,392.0078 472.1094,391.8984 Q472.2969,391.7891 472.5156,391.7891 Q472.8906,391.7891 473.125,392.0547 Q473.3594,392.3047 473.3594,392.9141 L473.3594,394.3672 Q473.3594,394.9766 473.125,395.2422 Q472.8906,395.5078 472.5156,395.5078 Q472.1719,395.5078 471.9688,395.3047 Q471.7656,395.1172 471.6563,394.6016 Q471.6094,394.2422 471.4219,394.0547 Q471.0938,393.6797 470.4844,393.4609 Q469.875,393.2422 469.25,393.2422 Q468.4844,393.2422 467.8438,393.5703 Q467.2188,393.8984 466.7188,394.6484 Q466.2344,395.3984 466.2344,396.4297 L466.2344,397.5234 Q466.2344,398.7578 467.125,399.5859 Q468.0156,400.3984 469.6094,400.3984 Q470.5469,400.3984 471.2031,400.1484 Q471.5938,399.9922 472.0156,399.5547 Q472.2813,399.2891 472.4219,399.2109 Q472.5781,399.1328 472.7813,399.1328 Q473.1094,399.1328 473.3594,399.3984 Q473.625,399.6484 473.625,399.9922 Q473.625,400.3359 473.2813,400.7422 Q472.7813,401.3203 471.9844,401.6484 Q470.9063,402.1016 469.6094,402.1016 Q468.0938,402.1016 466.8906,401.4766 Q465.9063,400.9766 465.2188,399.9141 Q464.5313,398.8359 464.5313,397.5547 L464.5313,396.3984 Q464.5313,395.0703 465.1406,393.9297 Q465.7656,392.7734 466.8594,392.1641 Q467.9531,391.5391 469.1875,391.5391 Q469.9219,391.5391 470.5625,391.7109 Q471.2188,391.8672 471.7656,392.2266 Z " fill="#000000"/><text fill="#000000" font-family="sans-serif" font-size="12" font-style="italic" lengthAdjust="spacing" textLength="82" x="481" y="392.457">&#171;ValueObject&#187;</text><text fill="#000000" font-family="sans-serif" font-size="14" lengthAdjust="spacing" textLength="38" x="503" y="409.627">CartId</text><line style="stroke:#181818;stroke-width:0.5;" x1="455" x2="563" y1="417.7031" y2="417.7031"/><line style="stroke:#181818;stroke-width:0.5;" x1="455" x2="563" y1="425.7031" y2="425.7031"/></g><!--class CartItemId--><g id="elem_CartItemId"><rect codeLine="69" fill="#F1F1F1" height="58.7031" id="CartItemId" rx="2.5" ry="2.5" style="stroke:#181818;stroke-width:0.5;" width="110" x="333" y="569"/><ellipse cx="348" cy="590.3516" fill="#ADD1B2" rx="11" ry="11" style="stroke:#181818;stroke-width:1.0;"/><path d="M350.7656,586.2266 Q350.9219,586.0078 351.1094,585.8984 Q351.2969,585.7891 351.5156,585.7891 Q351.8906,585.7891 352.125,586.0547 Q352.3594,586.3047 352.3594,586.9141 L352.3594,588.3672 Q352.3594,588.9766 352.125,589.2422 Q351.8906,589.5078 351.5156,589.5078 Q351.1719,589.5078 350.9688,589.3047 Q350.7656,589.1172 350.6563,588.6016 Q350.6094,588.2422 350.4219,588.0547 Q350.0938,587.6797 349.4844,587.4609 Q348.875,587.2422 348.25,587.2422 Q347.4844,587.2422 346.8438,587.5703 Q346.2188,587.8984 345.7188,588.6484 Q345.2344,589.3984 345.2344,590.4297 L345.2344,591.5234 Q345.2344,592.7578 346.125,593.5859 Q347.0156,594.3984 348.6094,594.3984 Q349.5469,594.3984 350.2031,594.1484 Q350.5938,593.9922 351.0156,593.5547 Q351.2813,593.2891 351.4219,593.2109 Q351.5781,593.1328 351.7813,593.1328 Q352.1094,593.1328 352.3594,593.3984 Q352.625,593.6484 352.625,593.9922 Q352.625,594.3359 352.2813,594.7422 Q351.7813,595.3203 350.9844,595.6484 Q349.9063,596.1016 348.6094,596.1016 Q347.0938,596.1016 345.8906,595.4766 Q344.9063,594.9766 344.2188,593.9141 Q343.5313,592.8359 343.5313,591.5547 L343.5313,590.3984 Q343.5313,589.0703 344.1406,587.9297 Q344.7656,586.7734 345.8594,586.1641 Q346.9531,585.5391 348.1875,585.5391 Q348.9219,585.5391 349.5625,585.7109 Q350.2188,585.8672 350.7656,586.2266 Z " fill="#000000"/><text fill="#000000" font-family="sans-serif" font-size="12" font-style="italic" lengthAdjust="spacing" textLength="82" x="360" y="586.457">&#171;ValueObject&#187;</text><text fill="#000000" font-family="sans-serif" font-size="14" lengthAdjust="spacing" textLength="64" x="369" y="603.627">CartItemId</text><line style="stroke:#181818;stroke-width:0.5;" x1="334" x2="442" y1="611.7031" y2="611.7031"/><line style="stroke:#181818;stroke-width:0.5;" x1="334" x2="442" y1="619.7031" y2="619.7031"/></g><!--class Order--><g id="elem_Order"><rect codeLine="79" fill="#F1F1F1" height="58.7031" id="Order" rx="2.5" ry="2.5" style="stroke:#181818;stroke-width:0.5;" width="69" x="1401.5" y="201"/><ellipse cx="1416.5" cy="222.3516" fill="#ADD1B2" rx="11" ry="11" style="stroke:#181818;stroke-width:1.0;"/><path d="M1419.2656,218.2266 Q1419.4219,218.0078 1419.6094,217.8984 Q1419.7969,217.7891 1420.0156,217.7891 Q1420.3906,217.7891 1420.625,218.0547 Q1420.8594,218.3047 1420.8594,218.9141 L1420.8594,220.3672 Q1420.8594,220.9766 1420.625,221.2422 Q1420.3906,221.5078 1420.0156,221.5078 Q1419.6719,221.5078 1419.4688,221.3047 Q1419.2656,221.1172 1419.1563,220.6016 Q1419.1094,220.2422 1418.9219,220.0547 Q1418.5938,219.6797 1417.9844,219.4609 Q1417.375,219.2422 1416.75,219.2422 Q1415.9844,219.2422 1415.3438,219.5703 Q1414.7188,219.8984 1414.2188,220.6484 Q1413.7344,221.3984 1413.7344,222.4297 L1413.7344,223.5234 Q1413.7344,224.7578 1414.625,225.5859 Q1415.5156,226.3984 1417.1094,226.3984 Q1418.0469,226.3984 1418.7031,226.1484 Q1419.0938,225.9922 1419.5156,225.5547 Q1419.7813,225.2891 1419.9219,225.2109 Q1420.0781,225.1328 1420.2813,225.1328 Q1420.6094,225.1328 1420.8594,225.3984 Q1421.125,225.6484 1421.125,225.9922 Q1421.125,226.3359 1420.7813,226.7422 Q1420.2813,227.3203 1419.4844,227.6484 Q1418.4063,228.1016 1417.1094,228.1016 Q1415.5938,228.1016 1414.3906,227.4766 Q1413.4063,226.9766 1412.7188,225.9141 Q1412.0313,224.8359 1412.0313,223.5547 L1412.0313,222.3984 Q1412.0313,221.0703 1412.6406,219.9297 Q1413.2656,218.7734 1414.3594,218.1641 Q1415.4531,217.5391 1416.6875,217.5391 Q1417.4219,217.5391 1418.0625,217.7109 Q1418.7188,217.8672 1419.2656,218.2266 Z " fill="#000000"/><text fill="#000000" font-family="sans-serif" font-size="12" font-style="italic" lengthAdjust="spacing" textLength="40" x="1429" y="218.457">&#171;Root&#187;</text><text fill="#000000" font-family="sans-serif" font-size="14" lengthAdjust="spacing" textLength="37" x="1430.5" y="235.627">Order</text><line style="stroke:#181818;stroke-width:0.5;" x1="1402.5" x2="1469.5" y1="243.7031" y2="243.7031"/><line style="stroke:#181818;stroke-width:0.5;" x1="1402.5" x2="1469.5" y1="251.7031" y2="251.7031"/></g><!--class OrderItem--><g id="elem_OrderItem"><rect codeLine="82" fill="#F1F1F1" height="58.7031" id="OrderItem" rx="2.5" ry="2.5" style="stroke:#181818;stroke-width:0.5;" width="95" x="1195.5" y="375"/><ellipse cx="1210.5" cy="396.3516" fill="#ADD1B2" rx="11" ry="11" style="stroke:#181818;stroke-width:1.0;"/><path d="M1213.2656,392.2266 Q1213.4219,392.0078 1213.6094,391.8984 Q1213.7969,391.7891 1214.0156,391.7891 Q1214.3906,391.7891 1214.625,392.0547 Q1214.8594,392.3047 1214.8594,392.9141 L1214.8594,394.3672 Q1214.8594,394.9766 1214.625,395.2422 Q1214.3906,395.5078 1214.0156,395.5078 Q1213.6719,395.5078 1213.4688,395.3047 Q1213.2656,395.1172 1213.1563,394.6016 Q1213.1094,394.2422 1212.9219,394.0547 Q1212.5938,393.6797 1211.9844,393.4609 Q1211.375,393.2422 1210.75,393.2422 Q1209.9844,393.2422 1209.3438,393.5703 Q1208.7188,393.8984 1208.2188,394.6484 Q1207.7344,395.3984 1207.7344,396.4297 L1207.7344,397.5234 Q1207.7344,398.7578 1208.625,399.5859 Q1209.5156,400.3984 1211.1094,400.3984 Q1212.0469,400.3984 1212.7031,400.1484 Q1213.0938,399.9922 1213.5156,399.5547 Q1213.7813,399.2891 1213.9219,399.2109 Q1214.0781,399.1328 1214.2813,399.1328 Q1214.6094,399.1328 1214.8594,399.3984 Q1215.125,399.6484 1215.125,399.9922 Q1215.125,400.3359 1214.7813,400.7422 Q1214.2813,401.3203 1213.4844,401.6484 Q1212.4063,402.1016 1211.1094,402.1016 Q1209.5938,402.1016 1208.3906,401.4766 Q1207.4063,400.9766 1206.7188,399.9141 Q1206.0313,398.8359 1206.0313,397.5547 L1206.0313,396.3984 Q1206.0313,395.0703 1206.6406,393.9297 Q1207.2656,392.7734 1208.3594,392.1641 Q1209.4531,391.5391 1210.6875,391.5391 Q1211.4219,391.5391 1212.0625,391.7109 Q1212.7188,391.8672 1213.2656,392.2266 Z " fill="#000000"/><text fill="#000000" font-family="sans-serif" font-size="12" font-style="italic" lengthAdjust="spacing" textLength="44" x="1234" y="392.457">&#171;Entity&#187;</text><text fill="#000000" font-family="sans-serif" font-size="14" lengthAdjust="spacing" textLength="63" x="1224.5" y="409.627">OrderItem</text><line style="stroke:#181818;stroke-width:0.5;" x1="1196.5" x2="1289.5" y1="417.7031" y2="417.7031"/><line style="stroke:#181818;stroke-width:0.5;" x1="1196.5" x2="1289.5" y1="425.7031" y2="425.7031"/></g><!--class OrderId--><g id="elem_OrderId"><rect codeLine="85" fill="#F1F1F1" height="58.7031" id="OrderId" rx="2.5" ry="2.5" style="stroke:#181818;stroke-width:0.5;" width="110" x="1326" y="375"/><ellipse cx="1341" cy="396.3516" fill="#ADD1B2" rx="11" ry="11" style="stroke:#181818;stroke-width:1.0;"/><path d="M1343.7656,392.2266 Q1343.9219,392.0078 1344.1094,391.8984 Q1344.2969,391.7891 1344.5156,391.7891 Q1344.8906,391.7891 1345.125,392.0547 Q1345.3594,392.3047 1345.3594,392.9141 L1345.3594,394.3672 Q1345.3594,394.9766 1345.125,395.2422 Q1344.8906,395.5078 1344.5156,395.5078 Q1344.1719,395.5078 1343.9688,395.3047 Q1343.7656,395.1172 1343.6563,394.6016 Q1343.6094,394.2422 1343.4219,394.0547 Q1343.0938,393.6797 1342.4844,393.4609 Q1341.875,393.2422 1341.25,393.2422 Q1340.4844,393.2422 1339.8438,393.5703 Q1339.2188,393.8984 1338.7188,394.6484 Q1338.2344,395.3984 1338.2344,396.4297 L1338.2344,397.5234 Q1338.2344,398.7578 1339.125,399.5859 Q1340.0156,400.3984 1341.6094,400.3984 Q1342.5469,400.3984 1343.2031,400.1484 Q1343.5938,399.9922 1344.0156,399.5547 Q1344.2813,399.2891 1344.4219,399.2109 Q1344.5781,399.1328 1344.7813,399.1328 Q1345.1094,399.1328 1345.3594,399.3984 Q1345.625,399.6484 1345.625,399.9922 Q1345.625,400.3359 1345.2813,400.7422 Q1344.7813,401.3203 1343.9844,401.6484 Q1342.9063,402.1016 1341.6094,402.1016 Q1340.0938,402.1016 1338.8906,401.4766 Q1337.9063,400.9766 1337.2188,399.9141 Q1336.5313,398.8359 1336.5313,397.5547 L1336.5313,396.3984 Q1336.5313,395.0703 1337.1406,393.9297 Q1337.7656,392.7734 1338.8594,392.1641 Q1339.9531,391.5391 1341.1875,391.5391 Q1341.9219,391.5391 1342.5625,391.7109 Q1343.2188,391.8672 1343.7656,392.2266 Z " fill="#000000"/><text fill="#000000" font-family="sans-serif" font-size="12" font-style="italic" lengthAdjust="spacing" textLength="82" x="1353" y="392.457">&#171;ValueObject&#187;</text><text fill="#000000" font-family="sans-serif" font-size="14" lengthAdjust="spacing" textLength="48" x="1370" y="409.627">OrderId</text><line style="stroke:#181818;stroke-width:0.5;" x1="1327" x2="1435" y1="417.7031" y2="417.7031"/><line style="stroke:#181818;stroke-width:0.5;" x1="1327" x2="1435" y1="425.7031" y2="425.7031"/></g><!--class OrderItemId--><g id="elem_OrderItemId"><rect codeLine="86" fill="#F1F1F1" height="58.7031" id="OrderItemId" rx="2.5" ry="2.5" style="stroke:#181818;stroke-width:0.5;" width="110" x="1296" y="569"/><ellipse cx="1311" cy="590.3516" fill="#ADD1B2" rx="11" ry="11" style="stroke:#181818;stroke-width:1.0;"/><path d="M1313.7656,586.2266 Q1313.9219,586.0078 1314.1094,585.8984 Q1314.2969,585.7891 1314.5156,585.7891 Q1314.8906,585.7891 1315.125,586.0547 Q1315.3594,586.3047 1315.3594,586.9141 L1315.3594,588.3672 Q1315.3594,588.9766 1315.125,589.2422 Q1314.8906,589.5078 1314.5156,589.5078 Q1314.1719,589.5078 1313.9688,589.3047 Q1313.7656,589.1172 1313.6563,588.6016 Q1313.6094,588.2422 1313.4219,588.0547 Q1313.0938,587.6797 1312.4844,587.4609 Q1311.875,587.2422 1311.25,587.2422 Q1310.4844,587.2422 1309.8438,587.5703 Q1309.2188,587.8984 1308.7188,588.6484 Q1308.2344,589.3984 1308.2344,590.4297 L1308.2344,591.5234 Q1308.2344,592.7578 1309.125,593.5859 Q1310.0156,594.3984 1311.6094,594.3984 Q1312.5469,594.3984 1313.2031,594.1484 Q1313.5938,593.9922 1314.0156,593.5547 Q1314.2813,593.2891 1314.4219,593.2109 Q1314.5781,593.1328 1314.7813,593.1328 Q1315.1094,593.1328 1315.3594,593.3984 Q1315.625,593.6484 1315.625,593.9922 Q1315.625,594.3359 1315.2813,594.7422 Q1314.7813,595.3203 1313.9844,595.6484 Q1312.9063,596.1016 1311.6094,596.1016 Q1310.0938,596.1016 1308.8906,595.4766 Q1307.9063,594.9766 1307.2188,593.9141 Q1306.5313,592.8359 1306.5313,591.5547 L1306.5313,590.3984 Q1306.5313,589.0703 1307.1406,587.9297 Q1307.7656,586.7734 1308.8594,586.1641 Q1309.9531,585.5391 1311.1875,585.5391 Q1311.9219,585.5391 1312.5625,585.7109 Q1313.2188,585.8672 1313.7656,586.2266 Z " fill="#000000"/><text fill="#000000" font-family="sans-serif" font-size="12" font-style="italic" lengthAdjust="spacing" textLength="82" x="1323" y="586.457">&#171;ValueObject&#187;</text><text fill="#000000" font-family="sans-serif" font-size="14" lengthAdjust="spacing" textLength="74" x="1327" y="603.627">OrderItemId</text><line style="stroke:#181818;stroke-width:0.5;" x1="1297" x2="1405" y1="611.7031" y2="611.7031"/><line style="stroke:#181818;stroke-width:0.5;" x1="1297" x2="1405" y1="619.7031" y2="619.7031"/></g><!--class OrderStatus--><g id="elem_OrderStatus"><rect codeLine="88" fill="#F1F1F1" height="129.1406" id="OrderStatus" rx="2.5" ry="2.5" style="stroke:#181818;stroke-width:0.5;" width="110" x="1471" y="340"/><ellipse cx="1486" cy="361.3516" fill="#EB937F" rx="11" ry="11" style="stroke:#181818;stroke-width:1.0;"/><path d="M1484.8594,362.1484 L1484.8594,364.6484 L1489.1875,364.6484 L1489.1875,363.7266 Q1489.1875,363.1172 1489.4219,362.8516 Q1489.6719,362.5859 1490.0469,362.5859 Q1490.4219,362.5859 1490.6563,362.8516 Q1490.8906,363.1172 1490.8906,363.7266 L1490.8906,366.3516 L1482.8906,366.3516 Q1482.2656,366.3516 1482,366.1172 Q1481.75,365.8828 1481.75,365.4922 Q1481.75,365.1172 1482.0156,364.8828 Q1482.2813,364.6484 1482.8906,364.6484 L1483.1563,364.6484 L1483.1563,357.9922 L1482.8906,357.9922 Q1482.2656,357.9922 1482,357.7578 Q1481.75,357.5234 1481.75,357.1328 Q1481.75,356.7578 1482,356.5234 Q1482.2656,356.2891 1482.8906,356.2891 L1490.5156,356.2891 L1490.5156,358.8828 Q1490.5156,359.4922 1490.2813,359.7578 Q1490.0625,360.0078 1489.6719,360.0078 Q1489.2969,360.0078 1489.0625,359.7578 Q1488.8281,359.4922 1488.8281,358.8828 L1488.8281,357.9922 L1484.8594,357.9922 L1484.8594,360.4453 L1486.3438,360.4453 Q1486.3438,359.7891 1486.4688,359.6016 Q1486.7344,359.1953 1487.2031,359.1953 Q1487.5781,359.1953 1487.8125,359.4609 Q1488.0469,359.7109 1488.0469,360.3203 L1488.0469,362.2891 Q1488.0469,362.8359 1487.9219,363.0234 Q1487.6563,363.4141 1487.2031,363.4141 Q1486.7344,363.4141 1486.4688,363.0078 Q1486.3438,362.8203 1486.3438,362.1484 L1484.8594,362.1484 Z " fill="#000000"/><text fill="#000000" font-family="sans-serif" font-size="12" font-style="italic" lengthAdjust="spacing" textLength="82" x="1498" y="357.457">&#171;ValueObject&#187;</text><text fill="#000000" font-family="sans-serif" font-size="14" lengthAdjust="spacing" textLength="77" x="1500.5" y="374.627">OrderStatus</text><line style="stroke:#181818;stroke-width:0.5;" x1="1472" x2="1580" y1="382.7031" y2="382.7031"/><text fill="#000000" font-family="sans-serif" font-size="14" lengthAdjust="spacing" textLength="60" x="1477" y="401.2363">PENDING</text><text fill="#000000" font-family="sans-serif" font-size="14" lengthAdjust="spacing" textLength="58" x="1477" y="418.8457">SHIPPED</text><text fill="#000000" font-family="sans-serif" font-size="14" lengthAdjust="spacing" textLength="77" x="1477" y="436.4551">DELIVERED</text><text fill="#000000" font-family="sans-serif" font-size="14" lengthAdjust="spacing" textLength="82" x="1477" y="454.0645">CANCELLED</text><line style="stroke:#181818;stroke-width:0.5;" x1="1472" x2="1580" y1="461.1406" y2="461.1406"/></g><!--link User to Email--><g id="link_User_Email"><path codeLine="21" d="M2067.75,628.09 C2040.44,653.91 2004.82,687.5681 1977.54,713.3581 " fill="none" id="User-to-Email" style="stroke:#181818;stroke-width:1.0;"/><polygon fill="#181818" points="1973.18,717.48,1982.468,714.2038,1976.8134,714.0451,1976.9721,708.3905,1973.18,717.48" style="stroke:#181818;stroke-width:1.0;"/></g><!--link User to UserRole--><g id="link_User_UserRole"><path codeLine="22" d="M2100.15,628.09 C2101.49,645.91 2102.8014,663.4568 2104.4014,684.7968 " fill="none" id="User-to-UserRole" style="stroke:#181818;stroke-width:1.0;"/><polygon fill="#181818" points="2104.85,690.78,2108.1659,681.5061,2104.4762,685.794,2100.1883,682.1043,2104.85,690.78" style="stroke:#181818;stroke-width:1.0;"/></g><!--link User to UserId--><g id="link_User_UserId"><path codeLine="23" d="M2131.57,628.17 C2147.13,641.69 2165.73,658.17 2182,673.5 C2196.98,687.61 2208.9736,699.5316 2222.1936,713.0416 " fill="none" id="User-to-UserId" style="stroke:#181818;stroke-width:1.0;"/><polygon fill="#181818" points="2226.39,717.33,2222.9544,708.0998,2222.893,713.7563,2217.2365,713.6949,2226.39,717.33" style="stroke:#181818;stroke-width:1.0;"/><text fill="#000000" font-family="sans-serif" font-size="13" lengthAdjust="spacing" textLength="7" x="2130.49" y="649.1452">1</text><text fill="#000000" font-family="sans-serif" font-size="13" lengthAdjust="spacing" textLength="7" x="2212.5847" y="706.6557">1</text></g><!--link Customer to CustomerId--><g id="link_Customer_CustomerId"><path codeLine="33" d="M228.53,101.3 C227.09,129.62 225.2052,166.6278 223.7652,194.8978 " fill="none" id="Customer-to-CustomerId" style="stroke:#181818;stroke-width:1.0;"/><polygon fill="#181818" points="223.46,200.89,227.9127,192.1051,223.7144,195.8965,219.923,191.6982,223.46,200.89" style="stroke:#181818;stroke-width:1.0;"/></g><!--link Customer to NIF--><g id="link_Customer_NIF"><path codeLine="34" d="M201.94,101.3 C174.33,129.62 136.6176,168.323 109.0676,196.593 " fill="none" id="Customer-to-NIF" style="stroke:#181818;stroke-width:1.0;"/><polygon fill="#181818" points="104.88,200.89,114.026,197.2362,108.3696,197.3092,108.2967,191.6528,104.88,200.89" style="stroke:#181818;stroke-width:1.0;"/></g><!--link Customer to Address--><g id="link_Customer_Address"><path codeLine="35" d="M276.81,72.08 C539.94,70.31 1823,69.88 1823,229.5 C1823,229.5 1823,229.5 1823,599.5 C1823,640.91 1814.6233,682.1587 1807.2933,711.5187 " fill="none" id="Customer-to-Address" style="stroke:#181818;stroke-width:1.0;"/><polygon fill="#181818" points="1805.84,717.34,1811.9009,709.5769,1807.0511,712.4889,1804.1391,707.6391,1805.84,717.34" style="stroke:#181818;stroke-width:1.0;"/><text fill="#000000" font-family="sans-serif" font-size="13" lengthAdjust="spacing" textLength="107" x="1824" y="409.9951">delivery addresses</text><text fill="#000000" font-family="sans-serif" font-size="13" lengthAdjust="spacing" textLength="7" x="284.5137" y="68.4886">1</text><text fill="#000000" font-family="sans-serif" font-size="13" lengthAdjust="spacing" textLength="20" x="1785.3675" y="706.6679">1..*</text></g><!--link Customer to User--><g id="link_Customer_User"><path codeLine="36" d="M276.68,72.88 C535.03,75.15 1780.6,88.28 1849,131 C2013.29,233.62 2074.7353,478.1061 2091.6753,562.9561 " fill="none" id="Customer-to-User" style="stroke:#181818;stroke-width:1.0;"/><polygon fill="#181818" points="2092.85,568.84,2095.0105,559.231,2091.8711,563.9368,2087.1654,560.7973,2092.85,568.84" style="stroke:#181818;stroke-width:1.0;"/><text fill="#000000" font-family="sans-serif" font-size="13" lengthAdjust="spacing" textLength="32" x="2002" y="306.4951">has a</text><text fill="#000000" font-family="sans-serif" font-size="13" lengthAdjust="spacing" textLength="7" x="284.3638" y="87.8611">1</text><text fill="#000000" font-family="sans-serif" font-size="13" lengthAdjust="spacing" textLength="7" x="2083.9578" y="558.1679">1</text></g><!--link Category to CategoryId--><g id="link_Category_CategoryId"><path codeLine="44" d="M1218.86,776.59 C1245.82,802.41 1280.9466,836.0401 1307.8766,861.8301 " fill="none" id="Category-to-CategoryId" style="stroke:#181818;stroke-width:1.0;"/><polygon fill="#181818" points="1312.21,865.98,1308.4766,856.8662,1308.5989,862.5217,1302.9433,862.644,1312.21,865.98" style="stroke:#181818;stroke-width:1.0;"/></g><!--link Category to CategoryName--><g id="link_Category_CategoryName"><path codeLine="45" d="M1189,776.59 C1189,802.41 1189,834.19 1189,859.98 " fill="none" id="Category-to-CategoryName" style="stroke:#181818;stroke-width:1.0;"/><polygon fill="#181818" points="1189,865.98,1193,856.98,1189,860.98,1185,856.98,1189,865.98" style="stroke:#181818;stroke-width:1.0;"/></g><!--link Product to Category--><g id="link_Product_Category"><path codeLine="54" d="M1045.74,628.09 C1077.11,653.91 1118.3776,687.8767 1149.7076,713.6667 " fill="none" id="Product-to-Category" style="stroke:#181818;stroke-width:1.0;"/><polygon fill="#181818" points="1154.34,717.48,1149.9336,708.6719,1150.4797,714.3023,1144.8492,714.8484,1154.34,717.48" style="stroke:#181818;stroke-width:1.0;"/><text fill="#000000" font-family="sans-serif" font-size="13" lengthAdjust="spacing" textLength="7" x="1045.1833" y="649.4049">1</text><text fill="#000000" font-family="sans-serif" font-size="13" lengthAdjust="spacing" textLength="7" x="1138.9925" y="706.8385">1</text></g><!--link Product to Money--><g id="link_Product_Money"><path codeLine="55" d="M1051.5,613.04 C1085.38,624.15 1135.09,639.96 1179,652 C1195.74,656.59 1199.8,658.69 1217,661 C1257.11,666.38 1543.91,657.31 1581,673.5 C1602.13,682.73 1616.6193,696.5968 1629.4493,712.6168 " fill="none" id="Product-to-Money" style="stroke:#181818;stroke-width:1.0;"/><polygon fill="#181818" points="1633.2,717.3,1630.6961,707.7747,1630.0744,713.3973,1624.4519,712.7756,1633.2,717.3" style="stroke:#181818;stroke-width:1.0;"/><text fill="#000000" font-family="sans-serif" font-size="13" lengthAdjust="spacing" textLength="7" x="1059.6125" y="611.8007">1</text><text fill="#000000" font-family="sans-serif" font-size="13" lengthAdjust="spacing" textLength="7" x="1629.6344" y="706.6192">1</text></g><!--link Product to ProductId--><g id="link_Product_ProductId"><path codeLine="56" d="M981.34,628.25 C967.26,641.92 950.23,658.52 935,673.5 C920.35,687.9 908.3953,699.7701 894.9653,713.1201 " fill="none" id="Product-to-ProductId" style="stroke:#181818;stroke-width:1.0;"/><polygon fill="#181818" points="890.71,717.35,899.9129,713.8419,894.2561,713.825,894.273,708.1682,890.71,717.35" style="stroke:#181818;stroke-width:1.0;"/></g><!--link Product to ProductName--><g id="link_Product_ProductName"><path codeLine="57" d="M1011,628.09 C1011,653.91 1011,685.69 1011,711.48 " fill="none" id="Product-to-ProductName" style="stroke:#181818;stroke-width:1.0;"/><polygon fill="#181818" points="1011,717.48,1015,708.48,1011,712.48,1007,708.48,1011,717.48" style="stroke:#181818;stroke-width:1.0;"/></g><!--link Product to ProductDescription--><g id="link_Product_ProductDescription"><path codeLine="58" d="M970.24,608.79 C924.59,620.16 849.26,641.89 790,673.5 C767.63,685.43 749.6507,698.7666 732.2307,713.4266 " fill="none" id="Product-to-ProductDescription" style="stroke:#181818;stroke-width:1.0;"/><polygon fill="#181818" points="727.64,717.29,737.1016,714.5554,731.4656,714.0705,731.9505,708.4345,727.64,717.29" style="stroke:#181818;stroke-width:1.0;"/></g><!--link Cart to CartItem--><g id="link_Cart_CartItem"><path codeLine="71" d="M376,260.29 C376,292.13 376,337.14 376,368.9 " fill="none" id="Cart-to-CartItem" style="stroke:#181818;stroke-width:1.0;"/><polygon fill="#181818" points="376,374.9,380,365.9,376,369.9,372,365.9,376,374.9" style="stroke:#181818;stroke-width:1.0;"/><text fill="#000000" font-family="sans-serif" font-size="13" lengthAdjust="spacing" textLength="20" x="353.8125" y="364.241">1..*</text></g><!--link CartItem to Product--><g id="link_CartItem_Product"><path codeLine="72" d="M397.19,434.22 C407.82,446.68 421.68,460.37 437,469 C530.21,521.49 849.3474,573.233 964.3574,590.623 " fill="none" id="CartItem-to-Product" style="stroke:#181818;stroke-width:1.0;"/><polygon fill="#181818" points="970.29,591.52,961.9892,586.2194,965.3462,590.7725,960.7931,594.1295,970.29,591.52" style="stroke:#181818;stroke-width:1.0;"/><text fill="#000000" font-family="sans-serif" font-size="13" lengthAdjust="spacing" textLength="21" x="568" y="513.4951">has</text><text fill="#000000" font-family="sans-serif" font-size="13" lengthAdjust="spacing" textLength="7" x="402.0508" y="455.2051">1</text><text fill="#000000" font-family="sans-serif" font-size="13" lengthAdjust="spacing" textLength="7" x="955.4151" y="586.4046">1</text></g><!--link CartItem to CartItemId--><g id="link_CartItem_CartItemId"><path codeLine="73" d="M377.8,434.24 C380.07,470.54 383.5766,526.6416 385.8366,562.8816 " fill="none" id="CartItem-to-CartItemId" style="stroke:#181818;stroke-width:1.0;"/><polygon fill="#181818" points="386.21,568.87,389.6421,559.6385,385.8988,563.8797,381.6576,560.1364,386.21,568.87" style="stroke:#181818;stroke-width:1.0;"/></g><!--link CartItem to Quantity--><g id="link_CartItem_Quantity"><path codeLine="74" d="M395.88,434.18 C406.49,447.12 420.72,461.22 437,469 C567.61,531.41 959.83,454.03 1086,525 C1146.98,559.3 1118.12,617.53 1179,652 C1269.88,703.46 1315.7,635.56 1413,673.5 C1437.94,683.22 1457.3928,697.5545 1475.0028,713.3445 " fill="none" id="CartItem-to-Quantity" style="stroke:#181818;stroke-width:1.0;"/><polygon fill="#181818" points="1479.47,717.35,1475.4395,708.3636,1475.7473,714.0121,1470.0989,714.3199,1479.47,717.35" style="stroke:#181818;stroke-width:1.0;"/><text fill="#000000" font-family="sans-serif" font-size="13" lengthAdjust="spacing" textLength="7" x="392.1048" y="455.1572">1</text><text fill="#000000" font-family="sans-serif" font-size="13" lengthAdjust="spacing" textLength="7" x="1465.4634" y="706.6801">1</text></g><!--link Cart to CartId--><g id="link_Cart_CartId"><path codeLine="75" d="M398.26,260.29 C422.89,292.13 458.6487,338.3943 483.2187,370.1543 " fill="none" id="Cart-to-CartId" style="stroke:#181818;stroke-width:1.0;"/><polygon fill="#181818" points="486.89,374.9,484.5468,365.3339,483.8306,370.9453,478.2192,370.229,486.89,374.9" style="stroke:#181818;stroke-width:1.0;"/></g><!--link Order to OrderItem--><g id="link_Order_OrderItem"><path codeLine="95" d="M1401.3,260.2 C1375.5,281.77 1339.61,312.24 1309,340 C1296.63,351.22 1287.6163,359.7319 1276.1963,370.8119 " fill="none" id="Order-to-OrderItem" style="stroke:#181818;stroke-width:1.0;"/><polygon fill="#181818" points="1271.89,374.99,1281.1348,371.5938,1275.4786,371.5083,1275.564,365.8521,1271.89,374.99" style="stroke:#181818;stroke-width:1.0;"/><text fill="#000000" font-family="sans-serif" font-size="13" lengthAdjust="spacing" textLength="20" x="1256.0222" y="364.3507">1..*</text></g><!--link Order to OrderStatus--><g id="link_Order_OrderStatus"><path codeLine="96" d="M1451.06,260.29 C1462.42,282 1475.6584,307.2937 1489.9684,334.6437 " fill="none" id="Order-to-OrderStatus" style="stroke:#181818;stroke-width:1.0;"/><polygon fill="#181818" points="1492.75,339.96,1492.1218,330.1312,1490.432,335.5298,1485.0335,333.84,1492.75,339.96" style="stroke:#181818;stroke-width:1.0;"/></g><!--link Order to Money--><g id="link_Order_Money"><path codeLine="97" d="M1470.51,244.26 C1508.74,260.34 1568.95,291.84 1599,340 C1675.6,462.76 1665.1977,640.9362 1657.4377,711.3062 " fill="none" id="Order-to-Money" style="stroke:#181818;stroke-width:1.0;"/><polygon fill="#181818" points="1656.78,717.27,1661.7424,708.7627,1657.328,712.3001,1653.7906,707.8858,1656.78,717.27" style="stroke:#181818;stroke-width:1.0;"/><text fill="#000000" font-family="sans-serif" font-size="13" lengthAdjust="spacing" textLength="7" x="1478.3496" y="262.31">1</text><text fill="#000000" font-family="sans-serif" font-size="13" lengthAdjust="spacing" textLength="7" x="1649.8413" y="706.5826">1</text></g><!--link OrderItem to Money--><g id="link_OrderItem_Money"><path codeLine="98" d="M1237.08,434.23 C1228.22,486.24 1218.47,595.79 1279,652 C1328.3,697.78 1519.84,645.45 1581,673.5 C1601.8,683.04 1616.1397,696.7107 1628.9997,712.5607 " fill="none" id="OrderItem-to-Money" style="stroke:#181818;stroke-width:1.0;"/><polygon fill="#181818" points="1632.78,717.22,1630.2157,707.7108,1629.6297,713.3373,1624.0033,712.7513,1632.78,717.22" style="stroke:#181818;stroke-width:1.0;"/><text fill="#000000" font-family="sans-serif" font-size="13" lengthAdjust="spacing" textLength="7" x="1228.2254" y="455.217">1</text><text fill="#000000" font-family="sans-serif" font-size="13" lengthAdjust="spacing" textLength="7" x="1620.5913" y="706.5217">1</text></g><!--link OrderItem to Product--><g id="link_OrderItem_Product"><path codeLine="99" d="M1208.52,434.04 C1164.72,470.29 1094.182,528.6541 1050.292,564.9841 " fill="none" id="OrderItem-to-Product" style="stroke:#181818;stroke-width:1.0;"/><polygon fill="#181818" points="1045.67,568.81,1055.1536,566.1525,1049.5217,565.6218,1050.0524,559.9899,1045.67,568.81" style="stroke:#181818;stroke-width:1.0;"/><text fill="#000000" font-family="sans-serif" font-size="13" lengthAdjust="spacing" textLength="21" x="1128" y="513.4951">has</text><text fill="#000000" font-family="sans-serif" font-size="13" lengthAdjust="spacing" textLength="7" x="1193.6866" y="455.3446">1</text><text fill="#000000" font-family="sans-serif" font-size="13" lengthAdjust="spacing" textLength="7" x="1045.4884" y="558.1314">1</text></g><!--link OrderItem to Quantity--><g id="link_OrderItem_Quantity"><path codeLine="100" d="M1268.92,434.13 C1280.46,445.85 1294.66,458.99 1309,469 C1355.61,501.55 1385.65,483.04 1424,525 C1475.23,581.05 1495.2815,665.5937 1503.0215,711.4537 " fill="none" id="OrderItem-to-Quantity" style="stroke:#181818;stroke-width:1.0;"/><polygon fill="#181818" points="1504.02,717.37,1506.4664,707.8298,1503.1879,712.4397,1498.578,709.1612,1504.02,717.37" style="stroke:#181818;stroke-width:1.0;"/><text fill="#000000" font-family="sans-serif" font-size="13" lengthAdjust="spacing" textLength="7" x="1266.3339" y="455.0974">1</text><text fill="#000000" font-family="sans-serif" font-size="13" lengthAdjust="spacing" textLength="7" x="1495.3838" y="706.7045">1</text></g><!--link OrderItem to OrderItemId--><g id="link_OrderItem_OrderItemId"><path codeLine="101" d="M1259.17,434.24 C1279.59,470.54 1311.5679,527.4009 1331.9579,563.6409 " fill="none" id="OrderItem-to-OrderItemId" style="stroke:#181818;stroke-width:1.0;"/><polygon fill="#181818" points="1334.9,568.87,1333.9729,559.0649,1332.4482,564.5124,1327.0007,562.9877,1334.9,568.87" style="stroke:#181818;stroke-width:1.0;"/></g><!--link Order to OrderId--><g id="link_Order_OrderId"><path codeLine="102" d="M1426.79,260.29 C1416.61,292.13 1402.1281,337.4253 1391.9681,369.1853 " fill="none" id="Order-to-OrderId" style="stroke:#181818;stroke-width:1.0;"/><polygon fill="#181818" points="1390.14,374.9,1396.692,367.5467,1391.6634,370.1377,1389.0724,365.1092,1390.14,374.9" style="stroke:#181818;stroke-width:1.0;"/></g><!--link Order to Address--><g id="link_Order_Address"><path codeLine="103" d="M1470.6,238.19 C1519.53,249.65 1607.59,278.08 1649,340 C1694.65,408.26 1674.31,439.69 1702,517 C1728.31,590.46 1762.9327,669.0553 1782.4027,712.0053 " fill="none" id="Order-to-Address" style="stroke:#181818;stroke-width:1.0;"/><polygon fill="#181818" points="1784.88,717.47,1784.8073,707.6214,1782.8156,712.9161,1777.521,710.9244,1784.88,717.47" style="stroke:#181818;stroke-width:1.0;"/><text fill="#000000" font-family="sans-serif" font-size="13" lengthAdjust="spacing" textLength="93" x="1703" y="513.4951">delivery address</text><text fill="#000000" font-family="sans-serif" font-size="13" lengthAdjust="spacing" textLength="7" x="1478.4581" y="235.688">1</text><text fill="#000000" font-family="sans-serif" font-size="13" lengthAdjust="spacing" textLength="7" x="1774.2444" y="706.8264">1</text></g><!--link Customer to Cart--><g id="link_Customer_Cart"><path codeLine="106" d="M256.78,101.3 C283.12,129.62 319.0248,168.2255 345.3048,196.4955 " fill="none" id="Customer-to-Cart" style="stroke:#181818;stroke-width:1.0;"/><polygon fill="#181818" points="349.39,200.89,346.1919,191.5748,345.9857,197.2279,340.3326,197.0217,349.39,200.89" style="stroke:#181818;stroke-width:1.0;"/><text fill="#000000" font-family="sans-serif" font-size="13" lengthAdjust="spacing" textLength="30" x="299" y="145.4951">owns</text><text fill="#000000" font-family="sans-serif" font-size="13" lengthAdjust="spacing" textLength="7" x="254.3633" y="122.3008">1</text><text fill="#000000" font-family="sans-serif" font-size="13" lengthAdjust="spacing" textLength="22" x="319.1628" y="190.2289">0..1</text></g><!--link Customer to Order--><g id="link_Customer_Order"><path codeLine="107" d="M276.54,78.56 C472.74,104.1 1224.2602,201.9355 1395.5002,224.2255 " fill="none" id="Customer-to-Order" style="stroke:#181818;stroke-width:1.0;"/><polygon fill="#181818" points="1401.45,225,1393.0416,219.8717,1396.4918,224.3546,1392.009,227.8048,1401.45,225" style="stroke:#181818;stroke-width:1.0;"/><text fill="#000000" font-family="sans-serif" font-size="13" lengthAdjust="spacing" textLength="38" x="797" y="145.4951">places</text><text fill="#000000" font-family="sans-serif" font-size="13" lengthAdjust="spacing" textLength="7" x="284.5151" y="94.507">1</text><text fill="#000000" font-family="sans-serif" font-size="13" lengthAdjust="spacing" textLength="20" x="1373.5145" y="220.1482">0..*</text></g><!--SRC=[bLLDZvim4BtdLrWSAstKlLQhI8ZGBL92KjBTkmiMfGKSsQPLLFM_r_WBEp1icmkot_FClEVnv8hB7xWcA4ferz4-GhytIFxA5dEEZhGdD_Jqz8hRWPo-VYUbsEqyFAugHkGNPgGTRjeL_FE0Uz68UP8_cytLblR22Olhcf4Q2n9ME4BoR46fF6GGUNJya7xe55xGbjp7DrI4Zd4UFwU5MIKlbo-duxICYo8pAnDrIfjLiw8LGvNqyB3JsiCjMywq6pr62Xc_EceWFHcue1qetyA01PgKPnzNRi26WEIu56EL4tcEoJJXvYHjktqNkMRvW2hIDZy9ko6ijmY73cfFv95lc2CSEYFDg2cxGSuOs3cpWEMu8slE61heZ4sXd75a61lp1HhEZ5P3AG091brIOA0t11ZMdl2IDLVHqFvjCYJM5kFVZTK54jJy2D0HSPaWHFa4O9wOktPW0cm59bOVo4Z81EaaALNJQ8LMhJQCZWCt31F-Yx1y1weYV0Ej0Ue1X3JTM2uX7CEEsB04BIQmyCGgSD0eRDL4nVW75pLlpKONQSv2tcXNj8l0Ok3WT3-d-JxBdytgyYaxdzEzMUtJG_QQ5cwTn7cI7WvcRMhMkhqxSyNTmLur7hBy62Qh_WUVzy8oBxZlYUAArCukbH_i-Y7XqJqsq7nklzzk7tLxooFqLy-NETPEIRgsk9H_0ty1]--></g></svg>