<?xml version="1.0" encoding="us-ascii" standalone="no"?><svg xmlns="http://www.w3.org/2000/svg" xmlns:xlink="http://www.w3.org/1999/xlink" contentStyleType="text/css" height="1083px" preserveAspectRatio="none" style="width:1194px;height:1083px;background:#FFFFFF;" version="1.1" viewBox="0 0 1194 1083" width="1194px" zoomAndPan="magnify"><defs/><g><!--cluster APP--><g id="cluster_APP"><rect fill="none" height="967" rx="2.5" ry="2.5" style="stroke:#181818;stroke-width:1.0;" width="806" x="78" y="110"/><rect fill="none" height="10" style="stroke:#181818;stroke-width:1.0;" width="15" x="864" y="115"/><rect fill="none" height="2" style="stroke:#181818;stroke-width:1.0;" width="4" x="862" y="117"/><rect fill="none" height="2" style="stroke:#181818;stroke-width:1.0;" width="4" x="862" y="121"/><text fill="#000000" font-family="sans-serif" font-size="14" font-style="italic" lengthAdjust="spacing" textLength="86" x="438" y="137.5332">&#171;component&#187;</text><text fill="#000000" font-family="sans-serif" font-size="14" font-style="italic" lengthAdjust="spacing" textLength="107" x="427.5" y="155.1426">&#171;container (C4)&#187;</text><text fill="#000000" font-family="sans-serif" font-size="14" font-weight="bold" lengthAdjust="spacing" textLength="61" x="450.5" y="172.752">Backend</text></g><!--cluster Frameworks & Drivers Layer--><g id="cluster_Frameworks &amp; Drivers Layer"><path d="M114.5,201 L313.5,201 A3.75,3.75 0 0 1 316,203.5 L323,224.6094 L428.5,224.6094 A2.5,2.5 0 0 1 431,227.1094 L431,315.5 A2.5,2.5 0 0 1 428.5,318 L114.5,318 A2.5,2.5 0 0 1 112,315.5 L112,203.5 A2.5,2.5 0 0 1 114.5,201 " fill="#80FFFF" style="stroke:#000000;stroke-width:1.5;"/><line style="stroke:#000000;stroke-width:1.5;" x1="112" x2="323" y1="224.6094" y2="224.6094"/><text fill="#000000" font-family="sans-serif" font-size="14" font-weight="bold" lengthAdjust="spacing" textLength="198" x="116" y="217.5332">Frameworks &amp; Drivers Layer</text></g><!--cluster Interface Adapters Layer--><g id="cluster_Interface Adapters Layer"><path d="M205.5,446 L378.5,446 A3.75,3.75 0 0 1 381,448.5 L388,469.6094 L519.5,469.6094 A2.5,2.5 0 0 1 522,472.1094 L522,560.5 A2.5,2.5 0 0 1 519.5,563 L205.5,563 A2.5,2.5 0 0 1 203,560.5 L203,448.5 A2.5,2.5 0 0 1 205.5,446 " fill="#80FF80" style="stroke:#000000;stroke-width:1.5;"/><line style="stroke:#000000;stroke-width:1.5;" x1="203" x2="388" y1="469.6094" y2="469.6094"/><text fill="#000000" font-family="sans-serif" font-size="14" font-weight="bold" lengthAdjust="spacing" textLength="172" x="207" y="462.5332">Interface Adapters Layer</text></g><!--cluster Application Business Rules--><g id="cluster_Application Business Rules"><path d="M362.5,691 L554.5,691 A3.75,3.75 0 0 1 557,693.5 L564,714.6094 L804.5,714.6094 A2.5,2.5 0 0 1 807,717.1094 L807,805.5 A2.5,2.5 0 0 1 804.5,808 L362.5,808 A2.5,2.5 0 0 1 360,805.5 L360,693.5 A2.5,2.5 0 0 1 362.5,691 " fill="#FF8080" style="stroke:#000000;stroke-width:1.5;"/><line style="stroke:#000000;stroke-width:1.5;" x1="360" x2="564" y1="714.6094" y2="714.6094"/><text fill="#000000" font-family="sans-serif" font-size="14" font-weight="bold" lengthAdjust="spacing" textLength="191" x="364" y="707.5332">Application Business Rules</text></g><!--cluster Enterprise Business Rules--><g id="cluster_Enterprise Business Rules"><path d="M169.5,936 L357.5,936 A3.75,3.75 0 0 1 360,938.5 L367,959.6094 L563.5,959.6094 A2.5,2.5 0 0 1 566,962.1094 L566,1050.5 A2.5,2.5 0 0 1 563.5,1053 L169.5,1053 A2.5,2.5 0 0 1 167,1050.5 L167,938.5 A2.5,2.5 0 0 1 169.5,936 " fill="#FFC080" style="stroke:#000000;stroke-width:1.5;"/><line style="stroke:#000000;stroke-width:1.5;" x1="167" x2="367" y1="959.6094" y2="959.6094"/><text fill="#000000" font-family="sans-serif" font-size="14" font-weight="bold" lengthAdjust="spacing" textLength="187" x="171" y="952.5332">Enterprise Business Rules</text></g><text fill="#000000" font-family="sans-serif" font-size="14" lengthAdjust="spacing" textLength="4" x="413" y="88.9238">&#160;</text><rect fill="#F1F1F1" height="12" style="stroke:#181818;stroke-width:1.5;" width="12" x="409" y="104"/><text fill="#000000" font-family="sans-serif" font-size="14" lengthAdjust="spacing" textLength="4" x="76" y="902.5332">&#160;</text><rect fill="#F1F1F1" height="12" style="stroke:#181818;stroke-width:1.5;" width="12" x="72" y="876"/><text fill="#000000" font-family="sans-serif" font-size="14" lengthAdjust="spacing" textLength="4" x="835" y="902.5332">&#160;</text><rect fill="#F1F1F1" height="12" style="stroke:#181818;stroke-width:1.5;" width="12" x="831" y="876"/><text fill="#000000" font-family="sans-serif" font-size="14" lengthAdjust="spacing" textLength="4" x="882" y="902.5332">&#160;</text><rect fill="#F1F1F1" height="12" style="stroke:#181818;stroke-width:1.5;" width="12" x="878" y="876"/><!--entity CTRL_API--><g id="elem_CTRL_API"><ellipse cx="397" cy="392" fill="#F1F1F1" rx="8" ry="8" style="stroke:#181818;stroke-width:0.5;"/><text fill="#000000" font-family="sans-serif" font-size="14" lengthAdjust="spacing" textLength="87" x="353.5" y="423.5332">Controller API</text></g><!--entity SRV_API--><g id="elem_SRV_API"><ellipse cx="568" cy="637" fill="#F1F1F1" rx="8" ry="8" style="stroke:#181818;stroke-width:0.5;"/><text fill="#000000" font-family="sans-serif" font-size="14" lengthAdjust="spacing" textLength="108" x="514" y="668.5332">App Services API</text></g><!--entity DTO_API--><g id="elem_DTO_API"><ellipse cx="139" cy="637" fill="#F1F1F1" rx="8" ry="8" style="stroke:#181818;stroke-width:0.5;"/><text fill="#000000" font-family="sans-serif" font-size="14" lengthAdjust="spacing" textLength="55" x="111.5" y="668.5332">DTO API</text></g><!--entity REPO_API--><g id="elem_REPO_API"><ellipse cx="246" cy="637" fill="#F1F1F1" rx="8" ry="8" style="stroke:#181818;stroke-width:0.5;"/><text fill="#000000" font-family="sans-serif" font-size="14" lengthAdjust="spacing" textLength="59" x="216.5" y="668.5332">Repo API</text></g><!--entity MODEL_API--><g id="elem_MODEL_API"><ellipse cx="341" cy="882" fill="#F1F1F1" rx="8" ry="8" style="stroke:#181818;stroke-width:0.5;"/><text fill="#000000" font-family="sans-serif" font-size="14" lengthAdjust="spacing" textLength="63" x="309.5" y="913.5332">Model API</text></g><!--entity PERSISTENCE_API--><g id="elem_PERSISTENCE_API"><ellipse cx="161" cy="392" fill="#F1F1F1" rx="8" ry="8" style="stroke:#181818;stroke-width:0.5;"/><text fill="#000000" font-family="sans-serif" font-size="14" lengthAdjust="spacing" textLength="99" x="111.5" y="423.5332">Persistence API</text></g><!--entity REPO_API_I--><g id="elem_REPO_API_I"><ellipse cx="520" cy="882" fill="#F1F1F1" rx="8" ry="8" style="stroke:#181818;stroke-width:0.5;"/><text fill="#000000" font-family="sans-serif" font-size="14" lengthAdjust="spacing" textLength="152" x="444" y="913.5332">Repository Interface API</text></g><!--entity PERSISTENCE--><g id="elem_PERSISTENCE"><rect fill="#F1F1F1" height="65.2188" rx="2.5" ry="2.5" style="stroke:#181818;stroke-width:0.5;" width="126" x="128" y="237"/><rect fill="#F1F1F1" height="10" style="stroke:#181818;stroke-width:0.5;" width="15" x="234" y="242"/><rect fill="#F1F1F1" height="2" style="stroke:#181818;stroke-width:0.5;" width="4" x="232" y="244"/><rect fill="#F1F1F1" height="2" style="stroke:#181818;stroke-width:0.5;" width="4" x="232" y="248"/><text fill="#000000" font-family="sans-serif" font-size="14" font-style="italic" lengthAdjust="spacing" textLength="86" x="143" y="271.5332">&#171;component&#187;</text><text fill="#000000" font-family="sans-serif" font-size="14" lengthAdjust="spacing" textLength="74" x="149" y="289.1426">Persistence</text></g><!--entity ROUTE--><g id="elem_ROUTE"><rect fill="#F1F1F1" height="65.2188" rx="2.5" ry="2.5" style="stroke:#181818;stroke-width:0.5;" width="126" x="289" y="237"/><rect fill="#F1F1F1" height="10" style="stroke:#181818;stroke-width:0.5;" width="15" x="395" y="242"/><rect fill="#F1F1F1" height="2" style="stroke:#181818;stroke-width:0.5;" width="4" x="393" y="244"/><rect fill="#F1F1F1" height="2" style="stroke:#181818;stroke-width:0.5;" width="4" x="393" y="248"/><text fill="#000000" font-family="sans-serif" font-size="14" font-style="italic" lengthAdjust="spacing" textLength="86" x="304" y="271.5332">&#171;component&#187;</text><text fill="#000000" font-family="sans-serif" font-size="14" lengthAdjust="spacing" textLength="50" x="322" y="289.1426">Routers</text></g><!--entity DTO--><g id="elem_DTO"><rect fill="#F1F1F1" height="65.2188" rx="2.5" ry="2.5" style="stroke:#181818;stroke-width:0.5;" width="126" x="104" y="727"/><rect fill="#F1F1F1" height="10" style="stroke:#181818;stroke-width:0.5;" width="15" x="210" y="732"/><rect fill="#F1F1F1" height="2" style="stroke:#181818;stroke-width:0.5;" width="4" x="208" y="734"/><rect fill="#F1F1F1" height="2" style="stroke:#181818;stroke-width:0.5;" width="4" x="208" y="738"/><text fill="#000000" font-family="sans-serif" font-size="14" font-style="italic" lengthAdjust="spacing" textLength="86" x="119" y="761.5332">&#171;component&#187;</text><text fill="#000000" font-family="sans-serif" font-size="14" lengthAdjust="spacing" textLength="30" x="147" y="779.1426">DTO</text></g><!--entity CTRL--><g id="elem_CTRL"><rect fill="#F1F1F1" height="65.2188" rx="2.5" ry="2.5" style="stroke:#181818;stroke-width:0.5;" width="126" x="380" y="482"/><rect fill="#F1F1F1" height="10" style="stroke:#181818;stroke-width:0.5;" width="15" x="486" y="487"/><rect fill="#F1F1F1" height="2" style="stroke:#181818;stroke-width:0.5;" width="4" x="484" y="489"/><rect fill="#F1F1F1" height="2" style="stroke:#181818;stroke-width:0.5;" width="4" x="484" y="493"/><text fill="#000000" font-family="sans-serif" font-size="14" font-style="italic" lengthAdjust="spacing" textLength="86" x="395" y="516.5332">&#171;component&#187;</text><text fill="#000000" font-family="sans-serif" font-size="14" lengthAdjust="spacing" textLength="62" x="407" y="534.1426">Controller</text></g><!--entity REPO--><g id="elem_REPO"><rect fill="#F1F1F1" height="65.2188" rx="2.5" ry="2.5" style="stroke:#181818;stroke-width:0.5;" width="126" x="219" y="482"/><rect fill="#F1F1F1" height="10" style="stroke:#181818;stroke-width:0.5;" width="15" x="325" y="487"/><rect fill="#F1F1F1" height="2" style="stroke:#181818;stroke-width:0.5;" width="4" x="323" y="489"/><rect fill="#F1F1F1" height="2" style="stroke:#181818;stroke-width:0.5;" width="4" x="323" y="493"/><text fill="#000000" font-family="sans-serif" font-size="14" font-style="italic" lengthAdjust="spacing" textLength="86" x="234" y="516.5332">&#171;component&#187;</text><text fill="#000000" font-family="sans-serif" font-size="14" lengthAdjust="spacing" textLength="68" x="243" y="534.1426">Repository</text></g><!--entity SRV--><g id="elem_SRV"><rect fill="#F1F1F1" height="65.2188" rx="2.5" ry="2.5" style="stroke:#181818;stroke-width:0.5;" width="219" x="571.5" y="727"/><rect fill="#F1F1F1" height="10" style="stroke:#181818;stroke-width:0.5;" width="15" x="770.5" y="732"/><rect fill="#F1F1F1" height="2" style="stroke:#181818;stroke-width:0.5;" width="4" x="768.5" y="734"/><rect fill="#F1F1F1" height="2" style="stroke:#181818;stroke-width:0.5;" width="4" x="768.5" y="738"/><text fill="#000000" font-family="sans-serif" font-size="14" font-style="italic" lengthAdjust="spacing" textLength="86" x="633" y="761.5332">&#171;component&#187;</text><text fill="#000000" font-family="sans-serif" font-size="14" lengthAdjust="spacing" textLength="179" x="586.5" y="779.1426">Application Service Interface</text></g><!--entity SRV_IMPL--><g id="elem_SRV_IMPL"><rect fill="#F1F1F1" height="65.2188" rx="2.5" ry="2.5" style="stroke:#181818;stroke-width:0.5;" width="160" x="376" y="727"/><rect fill="#F1F1F1" height="10" style="stroke:#181818;stroke-width:0.5;" width="15" x="516" y="732"/><rect fill="#F1F1F1" height="2" style="stroke:#181818;stroke-width:0.5;" width="4" x="514" y="734"/><rect fill="#F1F1F1" height="2" style="stroke:#181818;stroke-width:0.5;" width="4" x="514" y="738"/><text fill="#000000" font-family="sans-serif" font-size="14" font-style="italic" lengthAdjust="spacing" textLength="86" x="408" y="761.5332">&#171;component&#187;</text><text fill="#000000" font-family="sans-serif" font-size="14" lengthAdjust="spacing" textLength="120" x="391" y="779.1426">Application Service</text></g><!--entity MODEL--><g id="elem_MODEL"><rect fill="#F1F1F1" height="65.2188" rx="2.5" ry="2.5" style="stroke:#181818;stroke-width:0.5;" width="164" x="183" y="972"/><rect fill="#F1F1F1" height="10" style="stroke:#181818;stroke-width:0.5;" width="15" x="327" y="977"/><rect fill="#F1F1F1" height="2" style="stroke:#181818;stroke-width:0.5;" width="4" x="325" y="979"/><rect fill="#F1F1F1" height="2" style="stroke:#181818;stroke-width:0.5;" width="4" x="325" y="983"/><text fill="#000000" font-family="sans-serif" font-size="14" font-style="italic" lengthAdjust="spacing" textLength="86" x="217" y="1006.5332">&#171;component&#187;</text><text fill="#000000" font-family="sans-serif" font-size="14" lengthAdjust="spacing" textLength="124" x="198" y="1024.1426">Domain Model DDD</text></g><!--entity REPO_I--><g id="elem_REPO_I"><rect fill="#F1F1F1" height="65.2188" rx="2.5" ry="2.5" style="stroke:#181818;stroke-width:0.5;" width="167" x="382.5" y="972"/><rect fill="#F1F1F1" height="10" style="stroke:#181818;stroke-width:0.5;" width="15" x="529.5" y="977"/><rect fill="#F1F1F1" height="2" style="stroke:#181818;stroke-width:0.5;" width="4" x="527.5" y="979"/><rect fill="#F1F1F1" height="2" style="stroke:#181818;stroke-width:0.5;" width="4" x="527.5" y="983"/><text fill="#000000" font-family="sans-serif" font-size="14" font-style="italic" lengthAdjust="spacing" textLength="86" x="418" y="1006.5332">&#171;component&#187;</text><text fill="#000000" font-family="sans-serif" font-size="14" lengthAdjust="spacing" textLength="127" x="397.5" y="1024.1426">Repository Interface</text></g><!--entity API--><g id="elem_API"><ellipse cx="415" cy="14" fill="#F1F1F1" rx="8" ry="8" style="stroke:#181818;stroke-width:0.5;"/><text fill="#000000" font-family="sans-serif" font-size="14" lengthAdjust="spacing" textLength="21" x="404.5" y="45.5332">API</text></g><!--entity DB_API--><g id="elem_DB_API"><ellipse cx="28" cy="882" fill="#F1F1F1" rx="8" ry="8" style="stroke:#181818;stroke-width:0.5;"/><text fill="#000000" font-family="sans-serif" font-size="14" lengthAdjust="spacing" textLength="44" x="6" y="913.5332">DB API</text></g><!--entity EXTERNAL_AUTH_API--><g id="elem_EXTERNAL_AUTH_API"><ellipse cx="968" cy="1004.5" fill="#F1F1F1" rx="8" ry="8" style="stroke:#181818;stroke-width:0.5;"/><text fill="#000000" font-family="sans-serif" font-size="14" lengthAdjust="spacing" textLength="109" x="913.5" y="1036.0332">External Auth API</text></g><!--entity EMAIL_API--><g id="elem_EMAIL_API"><ellipse cx="1130" cy="1004.5" fill="#F1F1F1" rx="8" ry="8" style="stroke:#181818;stroke-width:0.5;"/><text fill="#000000" font-family="sans-serif" font-size="14" lengthAdjust="spacing" textLength="114" x="1073" y="1036.0332">External Email API</text></g><!--link API to P1--><g id="link_API_P1"><path d="M415,23.01 C415,41.84 415,88.45 415,103.92 " fill="none" id="API-P1" style="stroke:#181818;stroke-width:1.0;"/></g><!--reverse link DB_API to P2--><g id="link_DB_API_P2"><path d="M47.38,882 C58.91,882 60.44,882 71.97,882 " fill="none" id="DB_API-backto-P2" style="stroke:#181818;stroke-width:1.0;"/><path d="M40.4582,890.4572 A9,9 0 0 0 40.4582 873.5428" fill="none" style="stroke:#181818;stroke-width:1.5;"/></g><!--link ROUTE to P1--><g id="link_ROUTE_P1"><path d="M364.73,236.69 C380.3,197.75 405.52,134.71 412.9,116.24 " fill="none" id="ROUTE-P1" style="stroke:#181818;stroke-width:1.0;"/></g><!--link PERSISTENCE to P2--><g id="link_PERSISTENCE_P2"><path d="M142.08,302.11 C122.03,317.68 100.61,338.23 88,362 C56.16,421.99 68,445.58 68,513.5 C68,513.5 68,513.5 68,638 C68,733.42 75.79,849.75 77.62,875.7 " fill="none" id="PERSISTENCE-P2" style="stroke:#181818;stroke-width:1.0;"/></g><!--link ROUTE to DTO_API--><g id="link_ROUTE_DTO_API"><path d="M333.95,302.13 C313.64,335.46 277.96,387.76 236,422 C223.37,432.3 212.9,425.05 203,438 C166.48,485.79 199.36,514.78 178,571 C169.68,592.9 159.9851,607.707 151.2551,619.607 " fill="none" id="ROUTE-to-DTO_API" style="stroke:#181818;stroke-width:1.0;"/><path d="M153.9798,630.1906 A9,9 0 0 0 140.3417 620.1855" fill="none" style="stroke:#181818;stroke-width:1.5;"/></g><!--link ROUTE to CTRL_API--><g id="link_ROUTE_CTRL_API"><path d="M363.82,302.16 C373.93,329.22 384.2732,356.9113 390.3832,373.2813 " fill="none" id="ROUTE-to-CTRL_API" style="stroke:#181818;stroke-width:1.0;"/><path d="M400.7269,376.8088 A9,9 0 0 0 384.8803 382.7235" fill="none" style="stroke:#181818;stroke-width:1.5;"/></g><!--link CTRL_API to CTRL--><g id="link_CTRL_API_CTRL"><path d="M400.16,401.28 C406.39,417.61 420.55,454.7 430.89,481.79 " fill="none" id="CTRL_API-CTRL" style="stroke:#181818;stroke-width:1.0;"/></g><!--link PERSISTENCE to PERSISTENCE_API--><g id="link_PERSISTENCE_PERSISTENCE_API"><path d="M183.12,302.16 C176.38,329.22 167.15,366.28 163.08,382.65 " fill="none" id="PERSISTENCE-PERSISTENCE_API" style="stroke:#181818;stroke-width:1.0;"/></g><!--reverse link PERSISTENCE_API to REPO--><g id="link_PERSISTENCE_API_REPO"><path d="M178.0566,406.0396 C189.0966,414.5596 200.1,423.56 215,438 C229.09,451.66 243.68,467.82 255.63,481.68 " fill="none" id="PERSISTENCE_API-backto-REPO" style="stroke:#181818;stroke-width:1.0;"/><path d="M167.4099,408.5059 A9,9 0 0 0 177.7439 395.1154" fill="none" style="stroke:#181818;stroke-width:1.5;"/></g><!--link CTRL to SRV_API--><g id="link_CTRL_SRV_API"><path d="M475.84,547.16 C504.05,574.35 535.5597,604.7305 552.3997,620.9605 " fill="none" id="CTRL-to-SRV_API" style="stroke:#181818;stroke-width:1.0;"/><path d="M563.2525,619.6745 A9,9 0 0 0 551.5148 631.8533" fill="none" style="stroke:#181818;stroke-width:1.5;"/></g><!--link SRV_API to SRV--><g id="link_SRV_API_SRV"><path d="M575.77,646.28 C591.07,662.61 625.86,699.7 651.26,726.79 " fill="none" id="SRV_API-SRV" style="stroke:#181818;stroke-width:1.0;"/></g><!--link CTRL to DTO_API--><g id="link_CTRL_DTO_API"><path d="M404.15,547.07 C391.63,555.94 377.28,564.84 363,571 C291.68,601.75 264.85,580.07 192,607 C175.87,612.96 167.0748,617.8027 156.7848,624.3827 " fill="none" id="CTRL-to-DTO_API" style="stroke:#181818;stroke-width:1.0;"/><path d="M155.5095,635.2367 A9,9 0 0 0 146.3972 620.9867" fill="none" style="stroke:#181818;stroke-width:1.5;"/></g><!--link DTO_API to DTO--><g id="link_DTO_API_DTO"><path d="M140.92,646.28 C144.72,662.61 153.34,699.7 159.63,726.79 " fill="none" id="DTO_API-DTO" style="stroke:#181818;stroke-width:1.0;"/></g><!--link REPO to REPO_API--><g id="link_REPO_REPO_API"><path d="M272.54,547.16 C264.46,574.22 253.38,611.28 248.49,627.65 " fill="none" id="REPO-REPO_API" style="stroke:#181818;stroke-width:1.0;"/></g><!--reverse link REPO_API to REPO_I--><g id="link_REPO_API_REPO_I"><path d="M247.3553,656.0914 C250.6353,699.3914 266.14,892.06 285,912 C309.91,938.35 331.89,913.23 365,928 C389.19,938.79 413.08,956.25 431.54,971.66 " fill="none" id="REPO_API-backto-REPO_I" style="stroke:#181818;stroke-width:1.0;"/><path d="M238.3994,649.8282 A9,9 0 0 0 255.2656 648.5506" fill="none" style="stroke:#181818;stroke-width:1.5;"/></g><!--link REPO_API_I to REPO_I--><g id="link_REPO_API_I_REPO_I"><path d="M516.29,891.28 C508.97,907.61 492.35,944.7 480.21,971.79 " fill="none" id="REPO_API_I-REPO_I" style="stroke:#181818;stroke-width:1.0;"/></g><!--link REPO_I to MODEL_API--><g id="link_REPO_I_MODEL_API"><path d="M433.1,971.79 C405,944.7 373.7295,914.5503 356.7895,898.2203 " fill="none" id="REPO_I-to-MODEL_API" style="stroke:#181818;stroke-width:1.0;"/><path d="M345.9366,899.5051 A9,9 0 0 0 357.6757 887.3275" fill="none" style="stroke:#181818;stroke-width:1.5;"/></g><!--link SRV to REPO_API_I--><g id="link_SRV_REPO_API_I"><path d="M638.7,792.16 C601.43,820.05 557.9565,852.5987 537.2165,868.1187 " fill="none" id="SRV-to-REPO_API_I" style="stroke:#181818;stroke-width:1.0;"/><path d="M536.7416,879.037 A9,9 0 0 0 526.6075 865.4945" fill="none" style="stroke:#181818;stroke-width:1.5;"/></g><!--link SRV to P3--><g id="link_SRV_P3"><path d="M751.94,792.15 C778.58,807.03 807.18,827.06 827,852 C832.7,859.17 835.25,869.8 836.32,876 " fill="none" id="SRV-P3" style="stroke:#181818;stroke-width:1.0;"/></g><!--link SRV to P4--><g id="link_SRV_P4"><path d="M746.65,792.18 C793.94,815.28 851.09,843.9 861,852 C869.56,859 877,869.68 880.96,875.94 " fill="none" id="SRV-P4" style="stroke:#181818;stroke-width:1.0;"/></g><!--link SRV_IMPL to SRV--><g id="link_SRV_IMPL_SRV"><path d="M536.42,759.5 C548.09,759.5 541.76,759.5 553.44,759.5 " fill="none" id="SRV_IMPL-to-SRV" style="stroke:#181818;stroke-width:1.0;"/><polygon fill="none" points="571.44,759.5,553.44,753.5,553.44,765.5,571.44,759.5" style="stroke:#181818;stroke-width:1.0;"/></g><!--link P3 to EXTERNAL_AUTH_API--><g id="link_P3_EXTERNAL_AUTH_API"><path d="M840.83,888.15 C845.37,894.13 853.3,904.17 861,912 C894.77,946.32 932.0036,975.9031 951.0236,990.5331 " fill="none" id="P3-to-EXTERNAL_AUTH_API" style="stroke:#181818;stroke-width:1.0;"/><path d="M961.6664,988.0497 A9,9 0 0 0 951.3538 1001.4568" fill="none" style="stroke:#181818;stroke-width:1.5;"/></g><!--link P4 to EMAIL_API--><g id="link_P4_EMAIL_API"><path d="M890.05,883.62 C912.36,886.11 991.7,896.81 1048,928 C1080.5,946.01 1103.9968,971.764 1116.9068,987.374 " fill="none" id="P4-to-EMAIL_API" style="stroke:#181818;stroke-width:1.0;"/><path d="M1127.8354,987.318 A9,9 0 0 0 1114.8011 998.0979" fill="none" style="stroke:#181818;stroke-width:1.5;"/></g><!--link SRV to MODEL_API--><g id="link_SRV_MODEL_API"><path d="M613.87,792.1 C594.76,800.47 573.76,809.09 554,816 C495.38,836.49 478.17,833.16 419,852 C393.67,860.07 373.7385,867.7906 359.3085,873.5906 " fill="none" id="SRV-to-MODEL_API" style="stroke:#181818;stroke-width:1.0;"/><path d="M356.0402,884.0191 A9,9 0 0 0 349.732 868.3249" fill="none" style="stroke:#181818;stroke-width:1.5;"/></g><!--link MODEL_API to MODEL--><g id="link_MODEL_API_MODEL"><path d="M335.78,891.28 C325.48,907.61 302.09,944.7 285,971.79 " fill="none" id="MODEL_API-MODEL" style="stroke:#181818;stroke-width:1.0;"/></g><!--link REPO to MODEL_API--><g id="link_REPO_MODEL_API"><path d="M289.08,547.17 C292.88,564.74 297.5,587.02 301,607 C317.21,699.43 317.2,723.18 331,816 C334.06,836.55 336.2728,850.8604 338.1928,863.1204 " fill="none" id="REPO-to-MODEL_API" style="stroke:#181818;stroke-width:1.0;"/><path d="M347.6191,868.6504 A9,9 0 0 0 330.9083 871.2674" fill="none" style="stroke:#181818;stroke-width:1.5;"/></g><!--link CTRL to MODEL_API--><g id="link_CTRL_MODEL_API"><path d="M422.93,547.13 C403.29,579.79 374.29,632.91 360,683 C339.63,754.4 339.8388,835.5329 340.4988,862.8829 " fill="none" id="CTRL-to-MODEL_API" style="stroke:#181818;stroke-width:1.0;"/><path d="M349.1205,869.5987 A9,9 0 0 0 332.211 870.0067" fill="none" style="stroke:#181818;stroke-width:1.5;"/></g><!--SRC=[bLNVRvim47xdhpYbqfGzMEhQFFIXYaG2rP2I1X4wxIrYnDMi4eoCqwtQ-h_lRB1nW5HPNWBVVNVt-NuOoIkG77vmAVa1zapGN39UUXuh9HNFMKvXuiVH1B8QyD-5WmKOIx3OzOpXRtmiimBye_nfUU7tD4mU_TNEVqg_ddK93nahEf-r7wqqrylveU8bBILC5bd-Gijzgok6-tjhdC_rMoapLb81q-NiCq9_F82A2ybAc81sYx-q43zAYzsCOBSZsCn3CEh4Bp6Vu4M12OtmPPgqkW6UUR57q-H1P0VwYukN6Zv18DWh5JMiiZSg9d1rT_s0FwqKm3bhZ2HMIrhcj4aU9jjecuQFox1txiRrlHyWGUKOGpidcwVqlDkx4kju1kccQN2w6V5vxnN1hohOKl7ASbetPV2ti4s-wIgSC5KyGy3d8I6X5RUC98n7A6k-fuNbh3T1k1gIdDfPgbE_re6T9gwPvEBD2MDQQeJiJfhgyFPP9VijlRiUjhGR5pig5xRIohE2Fcwc4OczALYUgUM6nR76rQZH_LXG78ih9N9CfklKDhQhYXQ0tJsJ_u9O9i8kMiUhouuHgkoLO3KTEyLoz1G1nmkbX6PUWY3GQVMy_6_DUuVNun1z81obuxG08UgoYM-056HgBaklsKJI6fsT9eAeYyZOftP37CXUBdfqoB4Y7NGIYmp6NS-CyfWEJ6qqj9YjLVtLqGrW6KQKMcNDw5Jg1AHRMwyjL9FKmWxgRfQ1aTejTIF4yTwrseYwdytJpBFJX4NyErUgFI- -rPx3ZqyyQmpT5yPaiOd1QmP5YtJGzeokH5kP3le7]--></g></svg>