<?xml version="1.0" encoding="us-ascii" standalone="no"?><svg xmlns="http://www.w3.org/2000/svg" xmlns:xlink="http://www.w3.org/1999/xlink" contentStyleType="text/css" height="1083px" preserveAspectRatio="none" style="width:960px;height:1083px;background:#FFFFFF;" version="1.1" viewBox="0 0 960 1083" width="960px" zoomAndPan="magnify"><defs/><g><!--cluster APP--><g id="cluster_APP"><rect fill="none" height="967" rx="2.5" ry="2.5" style="stroke:#181818;stroke-width:1.0;" width="755" x="80" y="110"/><rect fill="none" height="10" style="stroke:#181818;stroke-width:1.0;" width="15" x="815" y="115"/><rect fill="none" height="2" style="stroke:#181818;stroke-width:1.0;" width="4" x="813" y="117"/><rect fill="none" height="2" style="stroke:#181818;stroke-width:1.0;" width="4" x="813" y="121"/><text fill="#000000" font-family="sans-serif" font-size="14" font-style="italic" lengthAdjust="spacing" textLength="86" x="414.5" y="137.5332">&#171;component&#187;</text><text fill="#000000" font-family="sans-serif" font-size="14" font-style="italic" lengthAdjust="spacing" textLength="107" x="404" y="155.1426">&#171;container (C4)&#187;</text><text fill="#000000" font-family="sans-serif" font-size="14" font-weight="bold" lengthAdjust="spacing" textLength="61" x="427" y="172.752">Backend</text></g><!--cluster Frameworks & Drivers Layer--><g id="cluster_Frameworks &amp; Drivers Layer"><path d="M144.5,201 L343.5,201 A3.75,3.75 0 0 1 346,203.5 L353,224.6094 L458.5,224.6094 A2.5,2.5 0 0 1 461,227.1094 L461,315.5 A2.5,2.5 0 0 1 458.5,318 L144.5,318 A2.5,2.5 0 0 1 142,315.5 L142,203.5 A2.5,2.5 0 0 1 144.5,201 " fill="#80FFFF" style="stroke:#000000;stroke-width:1.5;"/><line style="stroke:#000000;stroke-width:1.5;" x1="142" x2="353" y1="224.6094" y2="224.6094"/><text fill="#000000" font-family="sans-serif" font-size="14" font-weight="bold" lengthAdjust="spacing" textLength="198" x="146" y="217.5332">Frameworks &amp; Drivers Layer</text></g><!--cluster Interface Adapters Layer--><g id="cluster_Interface Adapters Layer"><path d="M144.5,446 L317.5,446 A3.75,3.75 0 0 1 320,448.5 L327,469.6094 L458.5,469.6094 A2.5,2.5 0 0 1 461,472.1094 L461,560.5 A2.5,2.5 0 0 1 458.5,563 L144.5,563 A2.5,2.5 0 0 1 142,560.5 L142,448.5 A2.5,2.5 0 0 1 144.5,446 " fill="#80FF80" style="stroke:#000000;stroke-width:1.5;"/><line style="stroke:#000000;stroke-width:1.5;" x1="142" x2="327" y1="469.6094" y2="469.6094"/><text fill="#000000" font-family="sans-serif" font-size="14" font-weight="bold" lengthAdjust="spacing" textLength="172" x="146" y="462.5332">Interface Adapters Layer</text></g><!--cluster Application Business Rules--><g id="cluster_Application Business Rules"><path d="M360.5,691 L552.5,691 A3.75,3.75 0 0 1 555,693.5 L562,714.6094 L802.5,714.6094 A2.5,2.5 0 0 1 805,717.1094 L805,805.5 A2.5,2.5 0 0 1 802.5,808 L360.5,808 A2.5,2.5 0 0 1 358,805.5 L358,693.5 A2.5,2.5 0 0 1 360.5,691 " fill="#FF8080" style="stroke:#000000;stroke-width:1.5;"/><line style="stroke:#000000;stroke-width:1.5;" x1="358" x2="562" y1="714.6094" y2="714.6094"/><text fill="#000000" font-family="sans-serif" font-size="14" font-weight="bold" lengthAdjust="spacing" textLength="191" x="362" y="707.5332">Application Business Rules</text></g><!--cluster Enterprise Business Rules--><g id="cluster_Enterprise Business Rules"><path d="M176.5,936 L364.5,936 A3.75,3.75 0 0 1 367,938.5 L374,959.6094 L570.5,959.6094 A2.5,2.5 0 0 1 573,962.1094 L573,1050.5 A2.5,2.5 0 0 1 570.5,1053 L176.5,1053 A2.5,2.5 0 0 1 174,1050.5 L174,938.5 A2.5,2.5 0 0 1 176.5,936 " fill="#FFC080" style="stroke:#000000;stroke-width:1.5;"/><line style="stroke:#000000;stroke-width:1.5;" x1="174" x2="374" y1="959.6094" y2="959.6094"/><text fill="#000000" font-family="sans-serif" font-size="14" font-weight="bold" lengthAdjust="spacing" textLength="187" x="178" y="952.5332">Enterprise Business Rules</text></g><text fill="#000000" font-family="sans-serif" font-size="14" lengthAdjust="spacing" textLength="4" x="481" y="88.9238">&#160;</text><rect fill="#F1F1F1" height="12" style="stroke:#181818;stroke-width:1.5;" width="12" x="477" y="104"/><text fill="#000000" font-family="sans-serif" font-size="14" lengthAdjust="spacing" textLength="4" x="78" y="370.9238">&#160;</text><rect fill="#F1F1F1" height="12" style="stroke:#181818;stroke-width:1.5;" width="12" x="74" y="386"/><text fill="#000000" font-family="sans-serif" font-size="14" lengthAdjust="spacing" textLength="4" x="833" y="370.9238">&#160;</text><rect fill="#F1F1F1" height="12" style="stroke:#181818;stroke-width:1.5;" width="12" x="829" y="386"/><!--entity CTRL_API--><g id="elem_CTRL_API"><ellipse cx="382" cy="392" fill="#F1F1F1" rx="8" ry="8" style="stroke:#181818;stroke-width:0.5;"/><text fill="#000000" font-family="sans-serif" font-size="14" lengthAdjust="spacing" textLength="87" x="338.5" y="423.5332">Controller API</text></g><!--entity SRV_API--><g id="elem_SRV_API"><ellipse cx="588" cy="637" fill="#F1F1F1" rx="8" ry="8" style="stroke:#181818;stroke-width:0.5;"/><text fill="#000000" font-family="sans-serif" font-size="14" lengthAdjust="spacing" textLength="108" x="534" y="668.5332">App Services API</text></g><!--entity DTO_API--><g id="elem_DTO_API"><ellipse cx="283" cy="637" fill="#F1F1F1" rx="8" ry="8" style="stroke:#181818;stroke-width:0.5;"/><text fill="#000000" font-family="sans-serif" font-size="14" lengthAdjust="spacing" textLength="55" x="255.5" y="668.5332">DTO API</text></g><!--entity REPO_API--><g id="elem_REPO_API"><ellipse cx="139" cy="637" fill="#F1F1F1" rx="8" ry="8" style="stroke:#181818;stroke-width:0.5;"/><text fill="#000000" font-family="sans-serif" font-size="14" lengthAdjust="spacing" textLength="59" x="109.5" y="668.5332">Repo API</text></g><!--entity MODEL_API--><g id="elem_MODEL_API"><ellipse cx="338" cy="882" fill="#F1F1F1" rx="8" ry="8" style="stroke:#181818;stroke-width:0.5;"/><text fill="#000000" font-family="sans-serif" font-size="14" lengthAdjust="spacing" textLength="63" x="306.5" y="913.5332">Model API</text></g><!--entity PERSISTENCE_API--><g id="elem_PERSISTENCE_API"><ellipse cx="221" cy="392" fill="#F1F1F1" rx="8" ry="8" style="stroke:#181818;stroke-width:0.5;"/><text fill="#000000" font-family="sans-serif" font-size="14" lengthAdjust="spacing" textLength="99" x="171.5" y="423.5332">Persistence API</text></g><!--entity REPO_API_I--><g id="elem_REPO_API_I"><ellipse cx="587" cy="882" fill="#F1F1F1" rx="8" ry="8" style="stroke:#181818;stroke-width:0.5;"/><text fill="#000000" font-family="sans-serif" font-size="14" lengthAdjust="spacing" textLength="152" x="511" y="913.5332">Repository Interface API</text></g><!--entity PERSISTENCE--><g id="elem_PERSISTENCE"><rect fill="#F1F1F1" height="65.2188" rx="2.5" ry="2.5" style="stroke:#181818;stroke-width:0.5;" width="126" x="158" y="237"/><rect fill="#F1F1F1" height="10" style="stroke:#181818;stroke-width:0.5;" width="15" x="264" y="242"/><rect fill="#F1F1F1" height="2" style="stroke:#181818;stroke-width:0.5;" width="4" x="262" y="244"/><rect fill="#F1F1F1" height="2" style="stroke:#181818;stroke-width:0.5;" width="4" x="262" y="248"/><text fill="#000000" font-family="sans-serif" font-size="14" font-style="italic" lengthAdjust="spacing" textLength="86" x="173" y="271.5332">&#171;component&#187;</text><text fill="#000000" font-family="sans-serif" font-size="14" lengthAdjust="spacing" textLength="74" x="179" y="289.1426">Persistence</text></g><!--entity ROUTE--><g id="elem_ROUTE"><rect fill="#F1F1F1" height="65.2188" rx="2.5" ry="2.5" style="stroke:#181818;stroke-width:0.5;" width="126" x="319" y="237"/><rect fill="#F1F1F1" height="10" style="stroke:#181818;stroke-width:0.5;" width="15" x="425" y="242"/><rect fill="#F1F1F1" height="2" style="stroke:#181818;stroke-width:0.5;" width="4" x="423" y="244"/><rect fill="#F1F1F1" height="2" style="stroke:#181818;stroke-width:0.5;" width="4" x="423" y="248"/><text fill="#000000" font-family="sans-serif" font-size="14" font-style="italic" lengthAdjust="spacing" textLength="86" x="334" y="271.5332">&#171;component&#187;</text><text fill="#000000" font-family="sans-serif" font-size="14" lengthAdjust="spacing" textLength="50" x="352" y="289.1426">Routers</text></g><!--entity DTO--><g id="elem_DTO"><rect fill="#F1F1F1" height="65.2188" rx="2.5" ry="2.5" style="stroke:#181818;stroke-width:0.5;" width="126" x="176" y="727"/><rect fill="#F1F1F1" height="10" style="stroke:#181818;stroke-width:0.5;" width="15" x="282" y="732"/><rect fill="#F1F1F1" height="2" style="stroke:#181818;stroke-width:0.5;" width="4" x="280" y="734"/><rect fill="#F1F1F1" height="2" style="stroke:#181818;stroke-width:0.5;" width="4" x="280" y="738"/><text fill="#000000" font-family="sans-serif" font-size="14" font-style="italic" lengthAdjust="spacing" textLength="86" x="191" y="761.5332">&#171;component&#187;</text><text fill="#000000" font-family="sans-serif" font-size="14" lengthAdjust="spacing" textLength="30" x="219" y="779.1426">DTO</text></g><!--entity CTRL--><g id="elem_CTRL"><rect fill="#F1F1F1" height="65.2188" rx="2.5" ry="2.5" style="stroke:#181818;stroke-width:0.5;" width="126" x="319" y="482"/><rect fill="#F1F1F1" height="10" style="stroke:#181818;stroke-width:0.5;" width="15" x="425" y="487"/><rect fill="#F1F1F1" height="2" style="stroke:#181818;stroke-width:0.5;" width="4" x="423" y="489"/><rect fill="#F1F1F1" height="2" style="stroke:#181818;stroke-width:0.5;" width="4" x="423" y="493"/><text fill="#000000" font-family="sans-serif" font-size="14" font-style="italic" lengthAdjust="spacing" textLength="86" x="334" y="516.5332">&#171;component&#187;</text><text fill="#000000" font-family="sans-serif" font-size="14" lengthAdjust="spacing" textLength="62" x="346" y="534.1426">Controller</text></g><!--entity REPO--><g id="elem_REPO"><rect fill="#F1F1F1" height="65.2188" rx="2.5" ry="2.5" style="stroke:#181818;stroke-width:0.5;" width="126" x="158" y="482"/><rect fill="#F1F1F1" height="10" style="stroke:#181818;stroke-width:0.5;" width="15" x="264" y="487"/><rect fill="#F1F1F1" height="2" style="stroke:#181818;stroke-width:0.5;" width="4" x="262" y="489"/><rect fill="#F1F1F1" height="2" style="stroke:#181818;stroke-width:0.5;" width="4" x="262" y="493"/><text fill="#000000" font-family="sans-serif" font-size="14" font-style="italic" lengthAdjust="spacing" textLength="86" x="173" y="516.5332">&#171;component&#187;</text><text fill="#000000" font-family="sans-serif" font-size="14" lengthAdjust="spacing" textLength="68" x="182" y="534.1426">Repository</text></g><!--entity SRV--><g id="elem_SRV"><rect fill="#F1F1F1" height="65.2188" rx="2.5" ry="2.5" style="stroke:#181818;stroke-width:0.5;" width="219" x="569.5" y="727"/><rect fill="#F1F1F1" height="10" style="stroke:#181818;stroke-width:0.5;" width="15" x="768.5" y="732"/><rect fill="#F1F1F1" height="2" style="stroke:#181818;stroke-width:0.5;" width="4" x="766.5" y="734"/><rect fill="#F1F1F1" height="2" style="stroke:#181818;stroke-width:0.5;" width="4" x="766.5" y="738"/><text fill="#000000" font-family="sans-serif" font-size="14" font-style="italic" lengthAdjust="spacing" textLength="86" x="631" y="761.5332">&#171;component&#187;</text><text fill="#000000" font-family="sans-serif" font-size="14" lengthAdjust="spacing" textLength="179" x="584.5" y="779.1426">Application Service Interface</text></g><!--entity SRV_IMPL--><g id="elem_SRV_IMPL"><rect fill="#F1F1F1" height="65.2188" rx="2.5" ry="2.5" style="stroke:#181818;stroke-width:0.5;" width="160" x="374" y="727"/><rect fill="#F1F1F1" height="10" style="stroke:#181818;stroke-width:0.5;" width="15" x="514" y="732"/><rect fill="#F1F1F1" height="2" style="stroke:#181818;stroke-width:0.5;" width="4" x="512" y="734"/><rect fill="#F1F1F1" height="2" style="stroke:#181818;stroke-width:0.5;" width="4" x="512" y="738"/><text fill="#000000" font-family="sans-serif" font-size="14" font-style="italic" lengthAdjust="spacing" textLength="86" x="406" y="761.5332">&#171;component&#187;</text><text fill="#000000" font-family="sans-serif" font-size="14" lengthAdjust="spacing" textLength="120" x="389" y="779.1426">Application Service</text></g><!--entity MODEL--><g id="elem_MODEL"><rect fill="#F1F1F1" height="65.2188" rx="2.5" ry="2.5" style="stroke:#181818;stroke-width:0.5;" width="164" x="393" y="972"/><rect fill="#F1F1F1" height="10" style="stroke:#181818;stroke-width:0.5;" width="15" x="537" y="977"/><rect fill="#F1F1F1" height="2" style="stroke:#181818;stroke-width:0.5;" width="4" x="535" y="979"/><rect fill="#F1F1F1" height="2" style="stroke:#181818;stroke-width:0.5;" width="4" x="535" y="983"/><text fill="#000000" font-family="sans-serif" font-size="14" font-style="italic" lengthAdjust="spacing" textLength="86" x="427" y="1006.5332">&#171;component&#187;</text><text fill="#000000" font-family="sans-serif" font-size="14" lengthAdjust="spacing" textLength="124" x="408" y="1024.1426">Domain Model DDD</text></g><!--entity REPO_I--><g id="elem_REPO_I"><rect fill="#F1F1F1" height="65.2188" rx="2.5" ry="2.5" style="stroke:#181818;stroke-width:0.5;" width="167" x="190.5" y="972"/><rect fill="#F1F1F1" height="10" style="stroke:#181818;stroke-width:0.5;" width="15" x="337.5" y="977"/><rect fill="#F1F1F1" height="2" style="stroke:#181818;stroke-width:0.5;" width="4" x="335.5" y="979"/><rect fill="#F1F1F1" height="2" style="stroke:#181818;stroke-width:0.5;" width="4" x="335.5" y="983"/><text fill="#000000" font-family="sans-serif" font-size="14" font-style="italic" lengthAdjust="spacing" textLength="86" x="226" y="1006.5332">&#171;component&#187;</text><text fill="#000000" font-family="sans-serif" font-size="14" lengthAdjust="spacing" textLength="127" x="205.5" y="1024.1426">Repository Interface</text></g><!--entity API--><g id="elem_API"><ellipse cx="483" cy="14" fill="#F1F1F1" rx="8" ry="8" style="stroke:#181818;stroke-width:0.5;"/><text fill="#000000" font-family="sans-serif" font-size="14" lengthAdjust="spacing" textLength="21" x="472.5" y="45.5332">API</text></g><!--entity DB_API--><g id="elem_DB_API"><ellipse cx="28" cy="269.5" fill="#F1F1F1" rx="8" ry="8" style="stroke:#181818;stroke-width:0.5;"/><text fill="#000000" font-family="sans-serif" font-size="14" lengthAdjust="spacing" textLength="44" x="6" y="301.0332">DB API</text></g><!--entity SUPABASE--><g id="elem_SUPABASE"><ellipse cx="909" cy="514.5" fill="#F1F1F1" rx="8" ry="8" style="stroke:#181818;stroke-width:0.5;"/><text fill="#000000" font-family="sans-serif" font-size="14" lengthAdjust="spacing" textLength="89" x="864.5" y="546.0332">Supabase API</text></g><!--link API to P1--><g id="link_API_P1"><path d="M483,23.01 C483,41.84 483,88.45 483,103.92 " fill="none" id="API-P1" style="stroke:#181818;stroke-width:1.0;"/></g><!--reverse link DB_API to P2--><g id="link_DB_API_P2"><path d="M35.5331,287.9612 C45.5431,311.1512 69.66,367.04 77.78,385.85 " fill="none" id="DB_API-backto-P2" style="stroke:#181818;stroke-width:1.0;"/><path d="M25.0252,284.9578 A9,9 0 0 0 40.5546 278.2545" fill="none" style="stroke:#181818;stroke-width:1.5;"/></g><!--link ROUTE to P1--><g id="link_ROUTE_P1"><path d="M402.4,236.69 C427.37,197.75 467.8,134.71 479.64,116.24 " fill="none" id="ROUTE-P1" style="stroke:#181818;stroke-width:1.0;"/></g><!--link PERSISTENCE to P2--><g id="link_PERSISTENCE_P2"><path d="M159.71,302.07 C135.16,317.33 108.38,337.64 90,362 C84.61,369.14 81.99,379.4 80.82,385.61 " fill="none" id="PERSISTENCE-P2" style="stroke:#181818;stroke-width:1.0;"/></g><!--link ROUTE to DTO_API--><g id="link_ROUTE_DTO_API"><path d="M342.66,302.18 C330.24,310.95 316.06,319.76 302,326 C237.35,354.67 192.78,308.1 147,362 C126.61,386 124.81,544.15 142,571 C157.48,595.18 235.266,621.1346 264.166,630.1746 " fill="none" id="ROUTE-to-DTO_API" style="stroke:#181818;stroke-width:1.0;"/><path d="M273.297,624.1695 A9,9 0 0 0 268.2474 640.3126" fill="none" style="stroke:#181818;stroke-width:1.5;"/></g><!--link ROUTE to CTRL_API--><g id="link_ROUTE_CTRL_API"><path d="M382,302.16 C382,329.22 382,356.28 382,372.65 " fill="none" id="ROUTE-to-CTRL_API" style="stroke:#181818;stroke-width:1.0;"/><path d="M390.4572,379.5718 A9,9 0 0 0 373.5428 379.5718" fill="none" style="stroke:#181818;stroke-width:1.5;"/></g><!--link CTRL_API to CTRL--><g id="link_CTRL_API_CTRL"><path d="M382,401.28 C382,417.61 382,454.7 382,481.79 " fill="none" id="CTRL_API-CTRL" style="stroke:#181818;stroke-width:1.0;"/></g><!--link PERSISTENCE to PERSISTENCE_API--><g id="link_PERSISTENCE_PERSISTENCE_API"><path d="M221,302.16 C221,329.22 221,366.28 221,382.65 " fill="none" id="PERSISTENCE-PERSISTENCE_API" style="stroke:#181818;stroke-width:1.0;"/></g><!--reverse link PERSISTENCE_API to REPO--><g id="link_PERSISTENCE_API_REPO"><path d="M221,411.28 C221,427.61 221,454.7 221,481.79 " fill="none" id="PERSISTENCE_API-backto-REPO" style="stroke:#181818;stroke-width:1.0;"/><path d="M212.5428,404.3582 A9,9 0 0 0 229.4572 404.3582" fill="none" style="stroke:#181818;stroke-width:1.5;"/></g><!--link CTRL to SRV_API--><g id="link_CTRL_SRV_API"><path d="M416.88,547.22 C426.86,555.51 438.03,564.05 449,571 C494.91,600.08 546.5522,620.5909 569.4422,629.1409 " fill="none" id="CTRL-to-SRV_API" style="stroke:#181818;stroke-width:1.0;"/><path d="M578.8857,623.6403 A9,9 0 0 0 572.9671 639.4855" fill="none" style="stroke:#181818;stroke-width:1.5;"/></g><!--link SRV_API to SRV--><g id="link_SRV_API_SRV"><path d="M594.25,646.28 C606.58,662.61 634.6,699.7 655.05,726.79 " fill="none" id="SRV_API-SRV" style="stroke:#181818;stroke-width:1.0;"/></g><!--link CTRL to DTO_API--><g id="link_CTRL_DTO_API"><path d="M355.99,547.16 C333.76,574.22 309.6583,603.5535 296.2083,619.9235 " fill="none" id="CTRL-to-DTO_API" style="stroke:#181818;stroke-width:1.0;"/><path d="M298.3486,630.6405 A9,9 0 0 0 285.2796 619.9027" fill="none" style="stroke:#181818;stroke-width:1.5;"/></g><!--link DTO_API to DTO--><g id="link_DTO_API_DTO"><path d="M279.98,646.28 C274.02,662.61 260.47,699.7 250.58,726.79 " fill="none" id="DTO_API-DTO" style="stroke:#181818;stroke-width:1.0;"/></g><!--link REPO to REPO_API--><g id="link_REPO_REPO_API"><path d="M199.46,547.16 C181.04,574.22 155.82,611.28 144.68,627.65 " fill="none" id="REPO-REPO_API" style="stroke:#181818;stroke-width:1.0;"/></g><!--reverse link REPO_API to REPO_I--><g id="link_REPO_API_REPO_I"><path d="M132.4972,655.5469 C129.2872,664.4469 127.87,669.8 126,683 C117.72,741.53 106.62,760.16 126,816 C148.03,879.47 201.45,937.69 237.7,971.9 " fill="none" id="REPO_API-backto-REPO_I" style="stroke:#181818;stroke-width:1.0;"/><path d="M126.89,646.1662 A9,9 0 0 0 142.8012 651.905" fill="none" style="stroke:#181818;stroke-width:1.5;"/></g><!--link REPO_API_I to REPO_I--><g id="link_REPO_API_I_REPO_I"><path d="M577.73,883.58 C547.42,885.74 449.07,895.05 376,928 C351.7,938.96 327.58,956.43 308.91,971.8 " fill="none" id="REPO_API_I-REPO_I" style="stroke:#181818;stroke-width:1.0;"/></g><!--link REPO_I to MODEL_API--><g id="link_REPO_I_MODEL_API"><path d="M290.84,971.79 C305.23,944.7 320.2407,916.4423 328.9107,900.1123 " fill="none" id="REPO_I-to-MODEL_API" style="stroke:#181818;stroke-width:1.0;"/><path d="M324.6868,890.0329 A9,9 0 0 0 339.6263 897.9646" fill="none" style="stroke:#181818;stroke-width:1.5;"/></g><!--link SRV to REPO_API_I--><g id="link_SRV_REPO_API_I"><path d="M654.83,792.16 C634.17,819.22 611.9389,848.3322 599.4389,864.7022 " fill="none" id="SRV-to-REPO_API_I" style="stroke:#181818;stroke-width:1.0;"/><path d="M601.9598,875.3361 A9,9 0 0 0 588.5164 865.0709" fill="none" style="stroke:#181818;stroke-width:1.5;"/></g><!--link SRV to P3--><g id="link_SRV_P3"><path d="M705.73,726.62 C718.91,709.71 734.24,688.12 745,667 C797.04,564.83 827.99,426.2 833.94,398.09 " fill="none" id="SRV-P3" style="stroke:#181818;stroke-width:1.0;"/></g><!--link SRV_IMPL to SRV--><g id="link_SRV_IMPL_SRV"><path d="M534.42,759.5 C546.09,759.5 539.76,759.5 551.44,759.5 " fill="none" id="SRV_IMPL-to-SRV" style="stroke:#181818;stroke-width:1.0;"/><polygon fill="none" points="569.44,759.5,551.44,753.5,551.44,765.5,569.44,759.5" style="stroke:#181818;stroke-width:1.0;"/></g><!--link P3 to SUPABASE--><g id="link_P3_SUPABASE"><path d="M838.18,398.18 C849.74,417.01 884.3978,473.438 898.6478,496.648 " fill="none" id="P3-to-SUPABASE" style="stroke:#181818;stroke-width:1.0;"/><path d="M909.4767,498.1218 A9,9 0 0 0 895.0622 506.9717" fill="none" style="stroke:#181818;stroke-width:1.5;"/></g><!--link SRV to MODEL_API--><g id="link_SRV_MODEL_API"><path d="M610.72,792.09 C591.88,800.32 571.3,808.88 552,816 C474.04,844.76 386.5545,868.3293 356.7745,876.1193 " fill="none" id="SRV-to-MODEL_API" style="stroke:#181818;stroke-width:1.0;"/><path d="M352.2183,886.0529 A9,9 0 0 0 347.9377 869.6891" fill="none" style="stroke:#181818;stroke-width:1.5;"/></g><!--link MODEL_API to MODEL--><g id="link_MODEL_API_MODEL"><path d="M347.42,891.28 C365.98,907.61 408.15,944.7 438.94,971.79 " fill="none" id="MODEL_API-MODEL" style="stroke:#181818;stroke-width:1.0;"/></g><!--link REPO to MODEL_API--><g id="link_REPO_MODEL_API"><path d="M223.45,547.02 C224.35,580.25 220.75,632.47 194,667 C183.52,680.52 168.24,668.61 159,683 C127.05,732.73 125.08,767.59 159,816 C199.79,874.21 288.3215,880.3196 318.8415,880.8396 " fill="none" id="REPO-to-MODEL_API" style="stroke:#181818;stroke-width:1.0;"/><path d="M325.9063,872.5016 A9,9 0 0 0 325.6182 889.4136" fill="none" style="stroke:#181818;stroke-width:1.5;"/></g><!--link CTRL to MODEL_API--><g id="link_CTRL_MODEL_API"><path d="M377.05,547.25 C371.9,580.9 363.79,635.61 358,683 C349.04,756.39 341.9465,835.4776 339.5765,862.7276 " fill="none" id="CTRL-to-MODEL_API" style="stroke:#181818;stroke-width:1.0;"/><path d="M347.4021,870.3562 A9,9 0 0 0 330.5513 868.8906" fill="none" style="stroke:#181818;stroke-width:1.5;"/></g><!--SRC=[bLLDQ-Cm4BthLmmkBDc3ePlkeOSII68N0id6s6clmRLL47Ki8ojTocx- -uuaIrOSjsHpIJhpvisRBrNo1YI75oubFq3912qaupKXh9PKlEO5XM2Uh0B8My1ltnmjm7gYnNxWp8vD_fAtr46ofsI-c6Sn8GK_DBocjOHWaHTlj2uxzWGU7fnpDjD_rJ9dDHKmMVxyZgO_1A3XGh8Q0j1XoO_En8_IsQOZjZk2nbMlS8dSWbSLabkDorswreKWyfLN9Rg2Hv4Vw6yktbhu1f5WxrIqiCu_g0ZWvlxs4JzQ5O1NLu8WrafQ5zGaZzDibUtYNyjuKAC9FGq9KbIE73eutJxjFWyxAR5UPBJRcf7ijYCnfq4Jvaq36HNlhA2jQSCyWonzrbquGoe-2y3Vbu2KDjmXqZWPWMnuIIk7sMoZU7q9ydhde5x_kW1sdhXbaeiFZyQEr0hPdmtLmvLv8uSZlR-z76c_BcvLhXoba-S4VJrCAn9dKx4YL-S8YsEBPz1Y-B6Yk1OtIkIOJ3-e6spV5NE8wVCd-Q_WiWpxrIPPNrT6hB8tWk5RC5B5ShIAY1_mxC7iInH5EgtUb__j-Q1ulGwhBuIZTDmM24Fri2HJ_75i9lPz8-OKmyxh7RMoJ9rxuYx4Cxd7HQyEqeQzQKWrM7UzCofYSk7gsD1ZhrRDLxDRWqDOKUgKDQ9NgHE4_TcIhb4cgJDxLl-oh1cX_L4R8LxqljCMghVOxL0emhypfPMGvCuKulvJM0P72iGiWHRWMJlzVdfNTM_w1m00]--></g></svg>