<?xml version="1.0" encoding="us-ascii" standalone="no"?><svg xmlns="http://www.w3.org/2000/svg" xmlns:xlink="http://www.w3.org/1999/xlink" contentStyleType="text/css" height="1083px" preserveAspectRatio="none" style="width:1354px;height:1083px;background:#FFFFFF;" version="1.1" viewBox="0 0 1354 1083" width="1354px" zoomAndPan="magnify"><defs/><g><!--cluster APP--><g id="cluster_APP"><rect fill="none" height="967" rx="2.5" ry="2.5" style="stroke:#181818;stroke-width:1.0;" width="849" x="78" y="110"/><rect fill="none" height="10" style="stroke:#181818;stroke-width:1.0;" width="15" x="907" y="115"/><rect fill="none" height="2" style="stroke:#181818;stroke-width:1.0;" width="4" x="905" y="117"/><rect fill="none" height="2" style="stroke:#181818;stroke-width:1.0;" width="4" x="905" y="121"/><text fill="#000000" font-family="sans-serif" font-size="14" font-style="italic" lengthAdjust="spacing" textLength="86" x="459.5" y="137.5332">&#171;component&#187;</text><text fill="#000000" font-family="sans-serif" font-size="14" font-style="italic" lengthAdjust="spacing" textLength="107" x="449" y="155.1426">&#171;container (C4)&#187;</text><text fill="#000000" font-family="sans-serif" font-size="14" font-weight="bold" lengthAdjust="spacing" textLength="61" x="472" y="172.752">Backend</text></g><!--cluster Frameworks & Drivers Layer--><g id="cluster_Frameworks &amp; Drivers Layer"><path d="M125.5,201 L324.5,201 A3.75,3.75 0 0 1 327,203.5 L334,224.6094 L610.5,224.6094 A2.5,2.5 0 0 1 613,227.1094 L613,315.5 A2.5,2.5 0 0 1 610.5,318 L125.5,318 A2.5,2.5 0 0 1 123,315.5 L123,203.5 A2.5,2.5 0 0 1 125.5,201 " fill="#80FFFF" style="stroke:#000000;stroke-width:1.5;"/><line style="stroke:#000000;stroke-width:1.5;" x1="123" x2="334" y1="224.6094" y2="224.6094"/><text fill="#000000" font-family="sans-serif" font-size="14" font-weight="bold" lengthAdjust="spacing" textLength="198" x="127" y="217.5332">Frameworks &amp; Drivers Layer</text></g><!--cluster Interface Adapters Layer--><g id="cluster_Interface Adapters Layer"><path d="M201.5,446 L374.5,446 A3.75,3.75 0 0 1 377,448.5 L384,469.6094 L515.5,469.6094 A2.5,2.5 0 0 1 518,472.1094 L518,560.5 A2.5,2.5 0 0 1 515.5,563 L201.5,563 A2.5,2.5 0 0 1 199,560.5 L199,448.5 A2.5,2.5 0 0 1 201.5,446 " fill="#80FF80" style="stroke:#000000;stroke-width:1.5;"/><line style="stroke:#000000;stroke-width:1.5;" x1="199" x2="384" y1="469.6094" y2="469.6094"/><text fill="#000000" font-family="sans-serif" font-size="14" font-weight="bold" lengthAdjust="spacing" textLength="172" x="203" y="462.5332">Interface Adapters Layer</text></g><!--cluster Application Business Rules--><g id="cluster_Application Business Rules"><path d="M358.5,691 L550.5,691 A3.75,3.75 0 0 1 553,693.5 L560,714.6094 L800.5,714.6094 A2.5,2.5 0 0 1 803,717.1094 L803,805.5 A2.5,2.5 0 0 1 800.5,808 L358.5,808 A2.5,2.5 0 0 1 356,805.5 L356,693.5 A2.5,2.5 0 0 1 358.5,691 " fill="#FF8080" style="stroke:#000000;stroke-width:1.5;"/><line style="stroke:#000000;stroke-width:1.5;" x1="356" x2="560" y1="714.6094" y2="714.6094"/><text fill="#000000" font-family="sans-serif" font-size="14" font-weight="bold" lengthAdjust="spacing" textLength="191" x="360" y="707.5332">Application Business Rules</text></g><!--cluster Enterprise Business Rules--><g id="cluster_Enterprise Business Rules"><path d="M165.5,936 L353.5,936 A3.75,3.75 0 0 1 356,938.5 L363,959.6094 L559.5,959.6094 A2.5,2.5 0 0 1 562,962.1094 L562,1050.5 A2.5,2.5 0 0 1 559.5,1053 L165.5,1053 A2.5,2.5 0 0 1 163,1050.5 L163,938.5 A2.5,2.5 0 0 1 165.5,936 " fill="#FFC080" style="stroke:#000000;stroke-width:1.5;"/><line style="stroke:#000000;stroke-width:1.5;" x1="163" x2="363" y1="959.6094" y2="959.6094"/><text fill="#000000" font-family="sans-serif" font-size="14" font-weight="bold" lengthAdjust="spacing" textLength="187" x="167" y="952.5332">Enterprise Business Rules</text></g><text fill="#000000" font-family="sans-serif" font-size="14" lengthAdjust="spacing" textLength="4" x="466" y="88.9238">&#160;</text><rect fill="#F1F1F1" height="12" style="stroke:#181818;stroke-width:1.5;" width="12" x="462" y="104"/><text fill="#000000" font-family="sans-serif" font-size="14" lengthAdjust="spacing" textLength="4" x="76" y="370.9238">&#160;</text><rect fill="#F1F1F1" height="12" style="stroke:#181818;stroke-width:1.5;" width="12" x="72" y="386"/><text fill="#000000" font-family="sans-serif" font-size="14" lengthAdjust="spacing" textLength="4" x="831" y="370.9238">&#160;</text><rect fill="#F1F1F1" height="12" style="stroke:#181818;stroke-width:1.5;" width="12" x="827" y="386"/><text fill="#000000" font-family="sans-serif" font-size="14" lengthAdjust="spacing" textLength="4" x="878" y="370.9238">&#160;</text><rect fill="#F1F1F1" height="12" style="stroke:#181818;stroke-width:1.5;" width="12" x="874" y="386"/><text fill="#000000" font-family="sans-serif" font-size="14" lengthAdjust="spacing" textLength="4" x="925" y="370.9238">&#160;</text><rect fill="#F1F1F1" height="12" style="stroke:#181818;stroke-width:1.5;" width="12" x="921" y="386"/><!--entity CTRL_API--><g id="elem_CTRL_API"><ellipse cx="379" cy="392" fill="#F1F1F1" rx="8" ry="8" style="stroke:#181818;stroke-width:0.5;"/><text fill="#000000" font-family="sans-serif" font-size="14" lengthAdjust="spacing" textLength="87" x="335.5" y="423.5332">Controller API</text></g><!--entity SRV_API--><g id="elem_SRV_API"><ellipse cx="556" cy="637" fill="#F1F1F1" rx="8" ry="8" style="stroke:#181818;stroke-width:0.5;"/><text fill="#000000" font-family="sans-serif" font-size="14" lengthAdjust="spacing" textLength="108" x="502" y="668.5332">App Services API</text></g><!--entity DTO_API--><g id="elem_DTO_API"><ellipse cx="135" cy="637" fill="#F1F1F1" rx="8" ry="8" style="stroke:#181818;stroke-width:0.5;"/><text fill="#000000" font-family="sans-serif" font-size="14" lengthAdjust="spacing" textLength="55" x="107.5" y="668.5332">DTO API</text></g><!--entity REPO_API--><g id="elem_REPO_API"><ellipse cx="242" cy="637" fill="#F1F1F1" rx="8" ry="8" style="stroke:#181818;stroke-width:0.5;"/><text fill="#000000" font-family="sans-serif" font-size="14" lengthAdjust="spacing" textLength="59" x="212.5" y="668.5332">Repo API</text></g><!--entity MODEL_API--><g id="elem_MODEL_API"><ellipse cx="337" cy="882" fill="#F1F1F1" rx="8" ry="8" style="stroke:#181818;stroke-width:0.5;"/><text fill="#000000" font-family="sans-serif" font-size="14" lengthAdjust="spacing" textLength="63" x="305.5" y="913.5332">Model API</text></g><!--entity PERSISTENCE_API--><g id="elem_PERSISTENCE_API"><ellipse cx="176" cy="392" fill="#F1F1F1" rx="8" ry="8" style="stroke:#181818;stroke-width:0.5;"/><text fill="#000000" font-family="sans-serif" font-size="14" lengthAdjust="spacing" textLength="99" x="126.5" y="423.5332">Persistence API</text></g><!--entity REPO_API_I--><g id="elem_REPO_API_I"><ellipse cx="516" cy="882" fill="#F1F1F1" rx="8" ry="8" style="stroke:#181818;stroke-width:0.5;"/><text fill="#000000" font-family="sans-serif" font-size="14" lengthAdjust="spacing" textLength="152" x="440" y="913.5332">Repository Interface API</text></g><!--entity PERSISTENCE--><g id="elem_PERSISTENCE"><rect fill="#F1F1F1" height="65.2188" rx="2.5" ry="2.5" style="stroke:#181818;stroke-width:0.5;" width="126" x="139" y="237"/><rect fill="#F1F1F1" height="10" style="stroke:#181818;stroke-width:0.5;" width="15" x="245" y="242"/><rect fill="#F1F1F1" height="2" style="stroke:#181818;stroke-width:0.5;" width="4" x="243" y="244"/><rect fill="#F1F1F1" height="2" style="stroke:#181818;stroke-width:0.5;" width="4" x="243" y="248"/><text fill="#000000" font-family="sans-serif" font-size="14" font-style="italic" lengthAdjust="spacing" textLength="86" x="154" y="271.5332">&#171;component&#187;</text><text fill="#000000" font-family="sans-serif" font-size="14" lengthAdjust="spacing" textLength="74" x="160" y="289.1426">Persistence</text></g><!--entity ROUTE--><g id="elem_ROUTE"><rect fill="#F1F1F1" height="65.2188" rx="2.5" ry="2.5" style="stroke:#181818;stroke-width:0.5;" width="126" x="300" y="237"/><rect fill="#F1F1F1" height="10" style="stroke:#181818;stroke-width:0.5;" width="15" x="406" y="242"/><rect fill="#F1F1F1" height="2" style="stroke:#181818;stroke-width:0.5;" width="4" x="404" y="244"/><rect fill="#F1F1F1" height="2" style="stroke:#181818;stroke-width:0.5;" width="4" x="404" y="248"/><text fill="#000000" font-family="sans-serif" font-size="14" font-style="italic" lengthAdjust="spacing" textLength="86" x="315" y="271.5332">&#171;component&#187;</text><text fill="#000000" font-family="sans-serif" font-size="14" lengthAdjust="spacing" textLength="50" x="333" y="289.1426">Routers</text></g><!--entity SYSLOG_ADAPTER--><g id="elem_SYSLOG_ADAPTER"><rect fill="#F1F1F1" height="65.2188" rx="2.5" ry="2.5" style="stroke:#181818;stroke-width:0.5;" width="136" x="461" y="237"/><rect fill="#F1F1F1" height="10" style="stroke:#181818;stroke-width:0.5;" width="15" x="577" y="242"/><rect fill="#F1F1F1" height="2" style="stroke:#181818;stroke-width:0.5;" width="4" x="575" y="244"/><rect fill="#F1F1F1" height="2" style="stroke:#181818;stroke-width:0.5;" width="4" x="575" y="248"/><text fill="#000000" font-family="sans-serif" font-size="14" font-style="italic" lengthAdjust="spacing" textLength="86" x="481" y="271.5332">&#171;component&#187;</text><text fill="#000000" font-family="sans-serif" font-size="14" lengthAdjust="spacing" textLength="96" x="476" y="289.1426">Syslog Adapter</text></g><!--entity DTO--><g id="elem_DTO"><rect fill="#F1F1F1" height="65.2188" rx="2.5" ry="2.5" style="stroke:#181818;stroke-width:0.5;" width="126" x="100" y="727"/><rect fill="#F1F1F1" height="10" style="stroke:#181818;stroke-width:0.5;" width="15" x="206" y="732"/><rect fill="#F1F1F1" height="2" style="stroke:#181818;stroke-width:0.5;" width="4" x="204" y="734"/><rect fill="#F1F1F1" height="2" style="stroke:#181818;stroke-width:0.5;" width="4" x="204" y="738"/><text fill="#000000" font-family="sans-serif" font-size="14" font-style="italic" lengthAdjust="spacing" textLength="86" x="115" y="761.5332">&#171;component&#187;</text><text fill="#000000" font-family="sans-serif" font-size="14" lengthAdjust="spacing" textLength="30" x="143" y="779.1426">DTO</text></g><!--entity CTRL--><g id="elem_CTRL"><rect fill="#F1F1F1" height="65.2188" rx="2.5" ry="2.5" style="stroke:#181818;stroke-width:0.5;" width="126" x="376" y="482"/><rect fill="#F1F1F1" height="10" style="stroke:#181818;stroke-width:0.5;" width="15" x="482" y="487"/><rect fill="#F1F1F1" height="2" style="stroke:#181818;stroke-width:0.5;" width="4" x="480" y="489"/><rect fill="#F1F1F1" height="2" style="stroke:#181818;stroke-width:0.5;" width="4" x="480" y="493"/><text fill="#000000" font-family="sans-serif" font-size="14" font-style="italic" lengthAdjust="spacing" textLength="86" x="391" y="516.5332">&#171;component&#187;</text><text fill="#000000" font-family="sans-serif" font-size="14" lengthAdjust="spacing" textLength="62" x="403" y="534.1426">Controller</text></g><!--entity REPO--><g id="elem_REPO"><rect fill="#F1F1F1" height="65.2188" rx="2.5" ry="2.5" style="stroke:#181818;stroke-width:0.5;" width="126" x="215" y="482"/><rect fill="#F1F1F1" height="10" style="stroke:#181818;stroke-width:0.5;" width="15" x="321" y="487"/><rect fill="#F1F1F1" height="2" style="stroke:#181818;stroke-width:0.5;" width="4" x="319" y="489"/><rect fill="#F1F1F1" height="2" style="stroke:#181818;stroke-width:0.5;" width="4" x="319" y="493"/><text fill="#000000" font-family="sans-serif" font-size="14" font-style="italic" lengthAdjust="spacing" textLength="86" x="230" y="516.5332">&#171;component&#187;</text><text fill="#000000" font-family="sans-serif" font-size="14" lengthAdjust="spacing" textLength="68" x="239" y="534.1426">Repository</text></g><!--entity SRV--><g id="elem_SRV"><rect fill="#F1F1F1" height="65.2188" rx="2.5" ry="2.5" style="stroke:#181818;stroke-width:0.5;" width="219" x="567.5" y="727"/><rect fill="#F1F1F1" height="10" style="stroke:#181818;stroke-width:0.5;" width="15" x="766.5" y="732"/><rect fill="#F1F1F1" height="2" style="stroke:#181818;stroke-width:0.5;" width="4" x="764.5" y="734"/><rect fill="#F1F1F1" height="2" style="stroke:#181818;stroke-width:0.5;" width="4" x="764.5" y="738"/><text fill="#000000" font-family="sans-serif" font-size="14" font-style="italic" lengthAdjust="spacing" textLength="86" x="629" y="761.5332">&#171;component&#187;</text><text fill="#000000" font-family="sans-serif" font-size="14" lengthAdjust="spacing" textLength="179" x="582.5" y="779.1426">Application Service Interface</text></g><!--entity SRV_IMPL--><g id="elem_SRV_IMPL"><rect fill="#F1F1F1" height="65.2188" rx="2.5" ry="2.5" style="stroke:#181818;stroke-width:0.5;" width="160" x="372" y="727"/><rect fill="#F1F1F1" height="10" style="stroke:#181818;stroke-width:0.5;" width="15" x="512" y="732"/><rect fill="#F1F1F1" height="2" style="stroke:#181818;stroke-width:0.5;" width="4" x="510" y="734"/><rect fill="#F1F1F1" height="2" style="stroke:#181818;stroke-width:0.5;" width="4" x="510" y="738"/><text fill="#000000" font-family="sans-serif" font-size="14" font-style="italic" lengthAdjust="spacing" textLength="86" x="404" y="761.5332">&#171;component&#187;</text><text fill="#000000" font-family="sans-serif" font-size="14" lengthAdjust="spacing" textLength="120" x="387" y="779.1426">Application Service</text></g><!--entity MODEL--><g id="elem_MODEL"><rect fill="#F1F1F1" height="65.2188" rx="2.5" ry="2.5" style="stroke:#181818;stroke-width:0.5;" width="164" x="179" y="972"/><rect fill="#F1F1F1" height="10" style="stroke:#181818;stroke-width:0.5;" width="15" x="323" y="977"/><rect fill="#F1F1F1" height="2" style="stroke:#181818;stroke-width:0.5;" width="4" x="321" y="979"/><rect fill="#F1F1F1" height="2" style="stroke:#181818;stroke-width:0.5;" width="4" x="321" y="983"/><text fill="#000000" font-family="sans-serif" font-size="14" font-style="italic" lengthAdjust="spacing" textLength="86" x="213" y="1006.5332">&#171;component&#187;</text><text fill="#000000" font-family="sans-serif" font-size="14" lengthAdjust="spacing" textLength="124" x="194" y="1024.1426">Domain Model DDD</text></g><!--entity REPO_I--><g id="elem_REPO_I"><rect fill="#F1F1F1" height="65.2188" rx="2.5" ry="2.5" style="stroke:#181818;stroke-width:0.5;" width="167" x="378.5" y="972"/><rect fill="#F1F1F1" height="10" style="stroke:#181818;stroke-width:0.5;" width="15" x="525.5" y="977"/><rect fill="#F1F1F1" height="2" style="stroke:#181818;stroke-width:0.5;" width="4" x="523.5" y="979"/><rect fill="#F1F1F1" height="2" style="stroke:#181818;stroke-width:0.5;" width="4" x="523.5" y="983"/><text fill="#000000" font-family="sans-serif" font-size="14" font-style="italic" lengthAdjust="spacing" textLength="86" x="414" y="1006.5332">&#171;component&#187;</text><text fill="#000000" font-family="sans-serif" font-size="14" lengthAdjust="spacing" textLength="127" x="393.5" y="1024.1426">Repository Interface</text></g><!--entity API--><g id="elem_API"><ellipse cx="468" cy="14" fill="#F1F1F1" rx="8" ry="8" style="stroke:#181818;stroke-width:0.5;"/><text fill="#000000" font-family="sans-serif" font-size="14" lengthAdjust="spacing" textLength="21" x="457.5" y="45.5332">API</text></g><!--entity DB_API--><g id="elem_DB_API"><ellipse cx="28" cy="392" fill="#F1F1F1" rx="8" ry="8" style="stroke:#181818;stroke-width:0.5;"/><text fill="#000000" font-family="sans-serif" font-size="14" lengthAdjust="spacing" textLength="44" x="6" y="423.5332">DB API</text></g><!--entity EXTERNAL_AUTH_API--><g id="elem_EXTERNAL_AUTH_API"><ellipse cx="1011" cy="514.5" fill="#F1F1F1" rx="8" ry="8" style="stroke:#181818;stroke-width:0.5;"/><text fill="#000000" font-family="sans-serif" font-size="14" lengthAdjust="spacing" textLength="109" x="956.5" y="546.0332">External Auth API</text></g><!--entity EMAIL_API--><g id="elem_EMAIL_API"><ellipse cx="1173" cy="514.5" fill="#F1F1F1" rx="8" ry="8" style="stroke:#181818;stroke-width:0.5;"/><text fill="#000000" font-family="sans-serif" font-size="14" lengthAdjust="spacing" textLength="114" x="1116" y="546.0332">External Email API</text></g><!--entity SYSLOG_API--><g id="elem_SYSLOG_API"><ellipse cx="1314" cy="514.5" fill="#F1F1F1" rx="8" ry="8" style="stroke:#181818;stroke-width:0.5;"/><text fill="#000000" font-family="sans-serif" font-size="14" lengthAdjust="spacing" textLength="67" x="1280.5" y="546.0332">Syslog API</text></g><!--link API to P1--><g id="link_API_P1"><path d="M468,23.01 C468,41.84 468,88.45 468,103.92 " fill="none" id="API-P1" style="stroke:#181818;stroke-width:1.0;"/></g><!--reverse link DB_API to P2--><g id="link_DB_API_P2"><path d="M47.38,392 C58.91,392 60.44,392 71.97,392 " fill="none" id="DB_API-backto-P2" style="stroke:#181818;stroke-width:1.0;"/><path d="M40.4582,400.4572 A9,9 0 0 0 40.4582 383.5428" fill="none" style="stroke:#181818;stroke-width:1.5;"/></g><!--link P5 to SYSLOG_API--><g id="link_P5_SYSLOG_API"><path d="M933.08,393.21 C973.02,394.67 1197.91,404.29 1256,438 C1283.73,454.1 1298.4674,480.1087 1306.0474,496.1487 " fill="none" id="P5-to-SYSLOG_API" style="stroke:#181818;stroke-width:1.0;"/><path d="M1316.6512,498.7935 A9,9 0 0 0 1301.3584 506.0204" fill="none" style="stroke:#181818;stroke-width:1.5;"/></g><!--link P5 to SYSLOG_ADAPTER--><g id="link_P5_SYSLOG_ADAPTER"><path d="M924.56,385.89 C921.04,379.15 913.87,367.51 904,362 C785.6,295.88 726.56,377.24 601,326 C587.12,320.33 573.62,311.23 562.14,302.02 " fill="none" id="P5-SYSLOG_ADAPTER" style="stroke:#181818;stroke-width:1.0;"/></g><!--link ROUTE to P1--><g id="link_ROUTE_P1"><path d="M384.21,236.69 C410.17,197.75 452.19,134.71 464.51,116.24 " fill="none" id="ROUTE-P1" style="stroke:#181818;stroke-width:1.0;"/></g><!--link PERSISTENCE to P2--><g id="link_PERSISTENCE_P2"><path d="M150.77,302.09 C128.86,317.79 104.58,338.44 88,362 C82.85,369.32 80.15,379.52 78.91,385.67 " fill="none" id="PERSISTENCE-P2" style="stroke:#181818;stroke-width:1.0;"/></g><!--link ROUTE to DTO_API--><g id="link_ROUTE_DTO_API"><path d="M347.47,302.18 C329.04,336.56 295.17,390.71 251,422 C231.27,435.98 216.22,421.02 199,438 C142.92,493.29 136.2212,588.004 135.3812,617.864 " fill="none" id="ROUTE-to-DTO_API" style="stroke:#181818;stroke-width:1.0;"/><path d="M143.6404,625.0209 A9,9 0 0 0 126.7327 624.5452" fill="none" style="stroke:#181818;stroke-width:1.5;"/></g><!--link ROUTE to CTRL_API--><g id="link_ROUTE_CTRL_API"><path d="M367.2,302.16 C370.8,329.22 374.4059,356.3667 376.5759,372.7367 " fill="none" id="ROUTE-to-CTRL_API" style="stroke:#181818;stroke-width:1.0;"/><path d="M385.8694,378.4871 A9,9 0 0 0 369.1016 380.7099" fill="none" style="stroke:#181818;stroke-width:1.5;"/></g><!--link CTRL_API to CTRL--><g id="link_CTRL_API_CTRL"><path d="M383.12,401.28 C391.25,417.61 409.72,454.7 423.21,481.79 " fill="none" id="CTRL_API-CTRL" style="stroke:#181818;stroke-width:1.0;"/></g><!--link PERSISTENCE to PERSISTENCE_API--><g id="link_PERSISTENCE_PERSISTENCE_API"><path d="M195.17,302.16 C189.33,329.22 181.33,366.28 177.8,382.65 " fill="none" id="PERSISTENCE-PERSISTENCE_API" style="stroke:#181818;stroke-width:1.0;"/></g><!--reverse link PERSISTENCE_API to REPO--><g id="link_PERSISTENCE_API_REPO"><path d="M189.4701,408.9133 C203.2901,425.2433 228.23,454.7 251.16,481.79 " fill="none" id="PERSISTENCE_API-backto-REPO" style="stroke:#181818;stroke-width:1.0;"/><path d="M178.5428,409.0931 A9,9 0 0 0 191.4542 398.1663" fill="none" style="stroke:#181818;stroke-width:1.5;"/></g><!--link CTRL to SRV_API--><g id="link_CTRL_SRV_API"><path d="M469.74,547.16 C496.01,574.22 525.0349,604.1045 540.9249,620.4745 " fill="none" id="CTRL-to-SRV_API" style="stroke:#181818;stroke-width:1.0;"/><path d="M551.8145,619.5507 A9,9 0 0 0 539.6775 631.3318" fill="none" style="stroke:#181818;stroke-width:1.5;"/></g><!--link SRV_API to SRV--><g id="link_SRV_API_SRV"><path d="M564.32,646.28 C580.71,662.61 617.96,699.7 645.16,726.79 " fill="none" id="SRV_API-SRV" style="stroke:#181818;stroke-width:1.0;"/></g><!--link CTRL to DTO_API--><g id="link_CTRL_DTO_API"><path d="M400.15,547.07 C387.63,555.94 373.28,564.84 359,571 C287.68,601.75 260.85,580.07 188,607 C171.87,612.96 163.0748,617.8027 152.7848,624.3827 " fill="none" id="CTRL-to-DTO_API" style="stroke:#181818;stroke-width:1.0;"/><path d="M151.5095,635.2367 A9,9 0 0 0 142.3972 620.9867" fill="none" style="stroke:#181818;stroke-width:1.5;"/></g><!--link DTO_API to DTO--><g id="link_DTO_API_DTO"><path d="M136.92,646.28 C140.72,662.61 149.34,699.7 155.63,726.79 " fill="none" id="DTO_API-DTO" style="stroke:#181818;stroke-width:1.0;"/></g><!--link REPO to REPO_API--><g id="link_REPO_REPO_API"><path d="M268.54,547.16 C260.46,574.22 249.38,611.28 244.49,627.65 " fill="none" id="REPO-REPO_API" style="stroke:#181818;stroke-width:1.0;"/></g><!--reverse link REPO_API to REPO_I--><g id="link_REPO_API_REPO_I"><path d="M243.3553,656.0914 C246.6353,699.3914 262.14,892.06 281,912 C305.91,938.35 327.89,913.23 361,928 C385.19,938.79 409.08,956.25 427.54,971.66 " fill="none" id="REPO_API-backto-REPO_I" style="stroke:#181818;stroke-width:1.0;"/><path d="M234.3994,649.8282 A9,9 0 0 0 251.2656 648.5506" fill="none" style="stroke:#181818;stroke-width:1.5;"/></g><!--link REPO_API_I to REPO_I--><g id="link_REPO_API_I_REPO_I"><path d="M512.29,891.28 C504.97,907.61 488.35,944.7 476.21,971.79 " fill="none" id="REPO_API_I-REPO_I" style="stroke:#181818;stroke-width:1.0;"/></g><!--link REPO_I to MODEL_API--><g id="link_REPO_I_MODEL_API"><path d="M429.1,971.79 C401,944.7 369.7295,914.5503 352.7895,898.2203 " fill="none" id="REPO_I-to-MODEL_API" style="stroke:#181818;stroke-width:1.0;"/><path d="M341.9366,899.5051 A9,9 0 0 0 353.6757 887.3275" fill="none" style="stroke:#181818;stroke-width:1.5;"/></g><!--link SRV to REPO_API_I--><g id="link_SRV_REPO_API_I"><path d="M634.7,792.16 C597.43,820.05 553.9565,852.5987 533.2165,868.1187 " fill="none" id="SRV-to-REPO_API_I" style="stroke:#181818;stroke-width:1.0;"/><path d="M532.7416,879.037 A9,9 0 0 0 522.6075 865.4945" fill="none" style="stroke:#181818;stroke-width:1.5;"/></g><!--link SRV to P3--><g id="link_SRV_P3"><path d="M691.72,726.83 C719.04,667.57 778.82,535.67 823,422 C826.16,413.86 829.38,404.25 831.28,398.39 " fill="none" id="SRV-P3" style="stroke:#181818;stroke-width:1.0;"/></g><!--link SRV to P4--><g id="link_SRV_P4"><path d="M699.69,726.67 C711.92,709.24 727.11,687.14 740,667 C766.75,625.21 773.82,614.87 797,571 C832.36,504.07 868.81,419.36 877.87,398.04 " fill="none" id="SRV-P4" style="stroke:#181818;stroke-width:1.0;"/></g><!--link SRV_IMPL to SRV--><g id="link_SRV_IMPL_SRV"><path d="M532.42,759.5 C544.09,759.5 537.76,759.5 549.44,759.5 " fill="none" id="SRV_IMPL-to-SRV" style="stroke:#181818;stroke-width:1.0;"/><polygon fill="none" points="567.44,759.5,549.44,753.5,549.44,765.5,567.44,759.5" style="stroke:#181818;stroke-width:1.0;"/></g><!--link P3 to EXTERNAL_AUTH_API--><g id="link_P3_EXTERNAL_AUTH_API"><path d="M835.66,398.02 C839.45,404.66 847.07,416.19 857,422 C891.31,442.08 910.43,418.38 945,438 C974.38,454.67 992.0717,480.8037 1001.3717,496.6637 " fill="none" id="P3-to-EXTERNAL_AUTH_API" style="stroke:#181818;stroke-width:1.0;"/><path d="M1012.1684,498.3567 A9,9 0 0 0 997.5775 506.9126" fill="none" style="stroke:#181818;stroke-width:1.5;"/></g><!--link P4 to EMAIL_API--><g id="link_P4_EMAIL_API"><path d="M882.58,398.16 C886.29,404.96 893.81,416.66 904,422 C977.9,460.7 1014.66,404.39 1091,438 C1125.36,453.13 1148.7386,480.6835 1160.9586,497.0135 " fill="none" id="P4-to-EMAIL_API" style="stroke:#181818;stroke-width:1.0;"/><path d="M1171.877,497.4884 A9,9 0 0 0 1158.3345 507.6225" fill="none" style="stroke:#181818;stroke-width:1.5;"/></g><!--link SRV to MODEL_API--><g id="link_SRV_MODEL_API"><path d="M609.87,792.1 C590.76,800.47 569.76,809.09 550,816 C491.38,836.49 474.17,833.16 415,852 C389.67,860.07 369.7385,867.7906 355.3085,873.5906 " fill="none" id="SRV-to-MODEL_API" style="stroke:#181818;stroke-width:1.0;"/><path d="M352.0402,884.0191 A9,9 0 0 0 345.732 868.3249" fill="none" style="stroke:#181818;stroke-width:1.5;"/></g><!--link MODEL_API to MODEL--><g id="link_MODEL_API_MODEL"><path d="M331.78,891.28 C321.48,907.61 298.09,944.7 281,971.79 " fill="none" id="MODEL_API-MODEL" style="stroke:#181818;stroke-width:1.0;"/></g><!--link REPO to MODEL_API--><g id="link_REPO_MODEL_API"><path d="M285.08,547.17 C288.88,564.74 293.5,587.02 297,607 C313.21,699.43 313.2,723.18 327,816 C330.06,836.55 332.2728,850.8604 334.1928,863.1204 " fill="none" id="REPO-to-MODEL_API" style="stroke:#181818;stroke-width:1.0;"/><path d="M343.6191,868.6504 A9,9 0 0 0 326.9083 871.2674" fill="none" style="stroke:#181818;stroke-width:1.5;"/></g><!--link CTRL to MODEL_API--><g id="link_CTRL_MODEL_API"><path d="M418.93,547.13 C399.29,579.79 370.29,632.91 356,683 C335.63,754.4 335.8388,835.5329 336.4988,862.8829 " fill="none" id="CTRL-to-MODEL_API" style="stroke:#181818;stroke-width:1.0;"/><path d="M345.1205,869.5987 A9,9 0 0 0 328.211 870.0067" fill="none" style="stroke:#181818;stroke-width:1.5;"/></g><!--SRC=[bLLTRvim57tdLrnHQSeUaBesbVfGHIA1RaX9Wu1MsrF4YBjP9HWPfrkqzR_F7zWuGAeiBu7ZS-yzlZxNC5838_2TC4PsiCKK5GoJod5mnH1zpWi4hXz7BkGDy7yR3kQWLuBvfhSO_kQFLLw2lsS_3I_yceN9Wx_S-8_PbvCXuIx7PHUpygDbdviUcfByC9pqMxfSVvOafo2xcbIeOk3Ey-85LTjMV0ntTsPnDfDl5SjnXIXC5jEF7FhZ0DI4Cbo12p8i_jH2PCyCTZM2NOzWqn7ink5WrEramJLGKfPSXDxD8alKXZdpcPHRlkJUqto7VX7wqi0722X-HRI1PNv0r8MBsyjx_fFg0Qpznvo46uQg0gdYOP96QHO-BC9UBrJeMpz1mfNp738uMJzcfyBwSVfujddDX4BhY08_vXuuMLxciZ85sLevB5kFnBprckdNDQI8lk82DQgTVWffyYIxUSGK-JI1Fmy92Qg9OIHXF49PaIqg3MUr3iBba6ITWQ5Qvz06uEF23MQ47gmqsXfQoER871PFTVpO6hUNGsjqjZEMEzCIHfuHzFvXQf7yR4fSvE9sWVc-uMFNyF1zYRYzBeJ8CPbsK7kmNLUKhvAdCqqvaajds4IhU7dUDa9HlQQuGMExM8pk8Y3yHgj0-IK80bbM-kL_UzxRlBH3z8vmBfsx1JnFN6Jn5NYbDz6tTNp3yObzTqgaDwcEemRVQtDOLuX7FN4NwlM96IGBCdUPT9YthxqEEihb3QP2Maj4J0PBRJQXlXrkOGEPNGE6eKM9YPUCJgKiu7NJxRJzL4KDRA7s06gOKxlPLqAiw4shpHEV2FqqTOpfU1F_peHgnuclPUJm8nbFrOBv4fegfZ0uoazIf8MsUxGbcivqq3y0]--></g></svg>